<?xml version="1.0" encoding="UTF-8" standalone="no"?>
<!-- Generator: Adobe Illustrator 16.0.0, SVG Export Plug-In . SVG Version: 6.00 Build 0)  -->

<svg
   version="1.1"
   x="0px"
   y="0px"
   width="88.5"
   height="28.700001"
   viewBox="0 0 88.5 28.700001"
   enable-background="new 0 0 88.5 32"
   xml:space="preserve"
   id="svg9"
   sodipodi:docname="ak47.svg"
   inkscape:version="1.1.1 (3bf5ae0d25, 2021-09-20)"
   xmlns:inkscape="http://www.inkscape.org/namespaces/inkscape"
   xmlns:sodipodi="http://sodipodi.sourceforge.net/DTD/sodipodi-0.dtd"
   xmlns="http://www.w3.org/2000/svg"
   xmlns:svg="http://www.w3.org/2000/svg"><defs
   id="defs13" /><sodipodi:namedview
   id="namedview11"
   pagecolor="#ffffff"
   bordercolor="#666666"
   borderopacity="1.0"
   inkscape:pageshadow="2"
   inkscape:pageopacity="0.0"
   inkscape:pagecheckerboard="0"
   showgrid="false"
   inkscape:zoom="11.954802"
   inkscape:cx="44.291825"
   inkscape:cy="16.018668"
   inkscape:window-width="1920"
   inkscape:window-height="1017"
   inkscape:window-x="-8"
   inkscape:window-y="-8"
   inkscape:window-maximized="1"
   inkscape:current-layer="Selected_Items"
   height="29.7px" />
<g
   id="Selected_Items"
   transform="translate(-0.25094518,-2.1748582)">
	<g
   id="g5"
   transform="translate(0.16729679,-1.1710775)">
		<g
   id="Selected_Items_1_">
			<path
   fill-rule="evenodd"
   clip-rule="evenodd"
   fill="#ffffff"
   d="M 86.469,4.433 V 8.46 l 1.417,0.149 c 0.099,0.199 0.186,0.399 0.261,0.597 0.099,0.151 0.162,0.298 0.187,0.448 0,0.123 -0.063,0.248 -0.187,0.374 -0.149,0.148 -0.361,0.223 -0.635,0.223 -0.125,0 -0.261,-0.038 -0.41,-0.111 H 86.654 L 86.02,11.258 84.826,10.773 H 74.791 L 74.27,11.408 73.672,10.96 H 66.51 l -0.112,0.635 H 55.132 l -1.342,0.708 c -0.323,0.199 -0.647,0.372 -0.97,0.522 -0.348,0.099 -0.584,0.149 -0.709,0.149 -0.249,0 -0.485,-0.037 -0.708,-0.113 -0.15,-0.023 -0.25,-0.085 -0.298,-0.187 L 50.582,12.34 h -5.11 c 0,1.267 0.286,2.573 0.858,3.918 0.497,1.167 1.281,2.46 2.35,3.877 1.095,1.444 2.661,2.886 4.7,4.328 -0.049,0 -0.273,0.287 -0.67,0.858 -0.324,0.597 -0.735,1.244 -1.231,1.94 -0.448,0.795 -1.008,1.704 -1.679,2.723 -1.493,-1.02 -2.91,-2.237 -4.254,-3.656 -1.168,-1.219 -2.375,-2.749 -3.618,-4.588 -1.243,-1.792 -2.274,-3.93 -3.096,-6.417 -0.099,-0.099 -0.236,-0.086 -0.411,0.038 -0.125,0.075 -0.224,0.162 -0.299,0.261 l -1.118,-0.186 c -0.572,0.323 -1.169,0.547 -1.791,0.671 -0.498,0.151 -1.083,0.186 -1.753,0.112 -0.696,-0.075 -1.368,-0.374 -2.015,-0.896 -0.05,0 -0.285,0.188 -0.709,0.56 -0.422,0.375 -0.882,0.859 -1.379,1.454 -0.521,0.623 -1.007,1.32 -1.455,2.09 -0.473,0.72 -0.797,1.454 -0.97,2.201 0,0.05 -0.224,0.148 -0.671,0.297 -0.422,0.174 -0.921,0.287 -1.493,0.335 -0.546,0.026 -1.069,-0.098 -1.565,-0.374 -0.474,-0.296 -0.771,-0.894 -0.897,-1.789 0.025,-0.1 0.212,-0.497 0.561,-1.193 0.298,-0.647 0.659,-1.33 1.083,-2.053 0.397,-0.746 0.771,-1.43 1.119,-2.051 0.373,-0.597 0.597,-0.896 0.671,-0.896 -0.074,0 -0.286,-0.147 -0.633,-0.447 -0.299,-0.298 -0.623,-0.411 -0.972,-0.335 -0.073,0.025 -0.322,0.111 -0.745,0.26 -0.448,0.125 -1.007,0.312 -1.679,0.561 -0.673,0.249 -1.417,0.522 -2.238,0.82 -0.847,0.299 -1.691,0.597 -2.538,0.896 -1.989,0.721 -4.215,1.542 -6.677,2.462 L 1.418,21.031 0.667,10.476 C 1.065,10.177 1.525,9.953 2.047,9.804 2.521,9.629 3.068,9.493 3.689,9.394 4.262,9.269 4.896,9.281 5.592,9.43 c 0,0.05 0.547,0.037 1.64,-0.037 1.095,-0.125 2.313,-0.224 3.657,-0.298 l 5.409,-0.336 c 0.348,0.101 0.696,0.211 1.044,0.336 0.622,0.223 1.144,0.335 1.566,0.335 0.149,0 0.461,-0.073 0.934,-0.224 0.521,-0.1 1.056,-0.236 1.604,-0.41 0.621,-0.15 1.317,-0.36 2.088,-0.633 l 3.395,-2.911 0.298,0.299 h 20.741 c 0,-0.049 0.076,-0.111 0.225,-0.185 0.074,-0.076 0.211,-0.139 0.41,-0.188 0.198,-0.049 0.496,-0.076 0.894,-0.076 l 15.967,0.149 c 0.297,0.075 0.598,0.175 0.896,0.299 0.225,0.075 0.473,0.149 0.746,0.224 0.249,0.125 0.473,0.199 0.672,0.224 h 6.677 c 0.348,0.448 0.685,0.858 1.007,1.232 0.273,0.298 0.573,0.609 0.895,0.933 0.273,0.273 0.51,0.423 0.708,0.446 h 5.857 L 83.37,8.46 c 0.298,-0.521 0.51,-0.994 0.634,-1.417 0.174,-0.349 0.336,-0.709 0.485,-1.082 0.124,-0.375 0.236,-0.609 0.335,-0.71 0.075,-0.348 0.112,-0.534 0.112,-0.56 v -0.26 h 1.533 z m -50.996,8.356 -2.015,0.037 c -0.398,-0.025 -0.746,0.085 -1.044,0.335 -0.248,0.274 -0.374,0.61 -0.374,1.008 0,0.322 0.126,0.609 0.374,0.857 0.298,0.249 0.646,0.375 1.044,0.375 h 2.015 c 0.373,0 0.671,-0.126 0.896,-0.375 0.224,-0.248 0.334,-0.535 0.334,-0.857 0,-0.398 -0.111,-0.734 -0.334,-1.008 -0.225,-0.25 -0.523,-0.372 -0.896,-0.372 z"
   id="path2" />
		</g>
	</g>
</g>
<g
   id="guides">
</g>
</svg>
