<?xml version="1.0" encoding="UTF-8" standalone="no"?>
<!-- Generator: Adobe Illustrator 16.0.0, SVG Export Plug-In . SVG Version: 6.00 Build 0)  -->

<svg
   version="1.1"
   x="0px"
   y="0px"
   width="125.5"
   height="30"
   viewBox="0 0 125.5 30"
   enable-background="new 0 0 109.5 32"
   xml:space="preserve"
   id="svg9"
   sodipodi:docname="awp.svg"
   inkscape:version="1.1.1 (3bf5ae0d25, 2021-09-20)"
   xmlns:inkscape="http://www.inkscape.org/namespaces/inkscape"
   xmlns:sodipodi="http://sodipodi.sourceforge.net/DTD/sodipodi-0.dtd"
   xmlns="http://www.w3.org/2000/svg"
   xmlns:svg="http://www.w3.org/2000/svg"><defs
   id="defs13" /><sodipodi:namedview
   id="namedview11"
   pagecolor="#ffffff"
   bordercolor="#666666"
   borderopacity="1.0"
   inkscape:pageshadow="2"
   inkscape:pageopacity="0.0"
   inkscape:pagecheckerboard="0"
   showgrid="false"
   inkscape:zoom="9.6621005"
   inkscape:cx="64.116493"
   inkscape:cy="16.818289"
   inkscape:window-width="1920"
   inkscape:window-height="1017"
   inkscape:window-x="1912"
   inkscape:window-y="-8"
   inkscape:window-maximized="1"
   inkscape:current-layer="svg9" />
<g
   id="Selected_Items"
   transform="translate(0.20699432,-3.5189036)">
	<g
   id="g5">
		<g
   id="Selected_Items_3_">
			<path
   fill-rule="evenodd"
   clip-rule="evenodd"
   fill="#ffffff"
   d="m 109.289,11.317 c 0.052,0.129 0.104,0.256 0.155,0.385 0.077,0.18 0.116,0.348 0.116,0.503 0,0.256 -0.154,0.617 -0.464,1.08 l -0.115,0.193 H 67.997 v 0.695 h 3.01 v 2.624 l 0.424,0.425 c 0.231,0.18 0.347,0.488 0.347,0.925 0,0.155 -0.025,0.257 -0.077,0.309 -0.052,0 -0.078,0.039 -0.078,0.116 v 0.116 c 0,0.309 -0.064,0.462 -0.192,0.462 -0.077,0 -0.193,0 -0.347,0 -0.18,0 -0.785,0 -1.814,0 -0.977,0 -2.521,0 -4.631,0 -2.11,0 -5.119,0 -9.03,0 -0.129,0.078 -0.193,0.206 -0.193,0.387 0.051,0 0.116,0.038 0.193,0.115 l 0.27,0.271 -0.193,0.579 H 54.143 L 53.95,20.309 c -0.077,-0.128 -0.244,-0.515 -0.501,-1.158 -0.257,-0.591 -0.283,-1.08 -0.078,-1.466 0,-0.309 0.155,-0.462 0.464,-0.462 h 0.116 c 0.644,0 1.042,0.09 1.197,0.27 0.36,0 0.785,-0.103 1.273,-0.308 l -7.487,-0.079 c -0.051,0 -0.372,0.091 -0.964,0.271 -0.514,0.128 -1.105,0.297 -1.774,0.501 -0.644,0.181 -1.262,0.349 -1.853,0.501 -0.541,0.129 -0.836,0.232 -0.888,0.31 v 2.701 l -8.836,0.926 v -2.778 c -0.463,0 -0.746,0.063 -0.849,0.192 -0.078,0.128 -0.284,0.296 -0.617,0.502 -0.31,0.308 -0.695,0.514 -1.158,0.617 -0.515,0.18 -1.107,0.232 -1.775,0.154 -0.668,-0.051 -1.428,-0.334 -2.277,-0.849 -0.052,0 -0.104,0.025 -0.154,0.078 -0.077,0 -0.18,0 -0.309,0 0,0.333 -0.013,0.732 -0.038,1.196 -0.051,0.514 -0.142,1.029 -0.27,1.543 -0.078,0.514 -0.232,1.004 -0.463,1.467 -0.154,0.411 -0.334,0.668 -0.54,0.771 -0.361,0.207 -0.966,0.271 -1.815,0.193 -0.849,-0.052 -1.749,-0.168 -2.701,-0.347 -0.951,-0.129 -1.827,-0.271 -2.624,-0.425 -0.796,-0.232 -1.286,-0.398 -1.466,-0.501 -0.18,-0.128 -0.541,-0.514 -1.08,-1.159 -0.386,-0.308 -0.773,-0.656 -1.159,-1.042 -0.385,-0.334 -0.629,-0.514 -0.732,-0.54 h -5.06 c -0.206,1.39 -0.334,2.212 -0.385,2.469 -0.026,0.206 -0.104,0.309 -0.232,0.309 -0.076,0.18 -0.231,0.271 -0.463,0.271 -0.206,0 -0.644,-0.091 -1.313,-0.271 -0.514,0 -1.029,0 -1.542,0 -0.541,-0.026 -0.876,-0.026 -1.003,0 -0.232,0 -0.491,0.038 -0.772,0.117 -0.335,0.102 -0.733,0.167 -1.197,0.193 -0.361,0.127 -0.771,0.218 -1.236,0.269 -0.514,0.077 -0.822,0.143 -0.925,0.193 H 0.193 C 0.116,24.938 0.078,24.899 0.078,24.822 0.025,24.721 0,24.502 0,24.167 c 0,-0.283 0,-0.771 0,-1.466 0,-0.72 0,-1.711 0,-2.972 0.128,-1.184 0.193,-2.328 0.193,-3.435 0,-1.183 0,-2.032 0,-2.547 0,-0.205 0.258,-0.424 0.772,-0.654 C 1.428,12.886 2.572,12.808 4.4,12.86 H 5.403 L 5.48,12.783 5.597,12.706 c 0.051,0 0.114,-0.039 0.193,-0.117 0.076,-0.051 0.179,-0.128 0.308,-0.231 h 9.185 c 0.206,0.026 0.411,0.142 0.617,0.348 0.464,0.308 0.811,0.655 1.042,1.041 h 10.419 c 0.078,-0.205 0.18,-0.527 0.309,-0.964 0.129,-0.386 0.193,-0.708 0.193,-0.964 v -0.231 h 0.078 c 0.283,-0.103 0.785,-0.193 1.504,-0.27 0.694,-0.025 1.107,-0.104 1.235,-0.232 0.128,0 0.258,-0.026 0.386,-0.077 0.025,-0.077 0.103,-0.142 0.231,-0.193 h 3.242 V 9.85 h -1.196 c -0.128,0 -0.451,0.052 -0.964,0.155 -0.515,0.077 -1.133,0.153 -1.853,0.231 -0.668,0.076 -1.39,0.142 -2.161,0.193 -0.722,0 -1.351,-0.038 -1.892,-0.117 L 26.396,10.12 V 10.005 C 26.319,9.284 26.28,8.731 26.28,8.345 c 0,-0.437 0,-0.786 0,-1.042 0,-0.206 0.039,-0.347 0.116,-0.424 l 0.077,-0.078 h 0.192 L 27.476,6.724 C 28.042,6.698 28.66,6.66 29.329,6.608 30.049,6.531 30.77,6.493 31.49,6.493 c 0.668,0 1.183,0.038 1.542,0.115 0.463,0 0.965,0 1.506,0 0.592,0 1.208,0 1.852,0 0.591,0 1.145,-0.013 1.659,-0.039 0.464,-0.051 0.823,-0.076 1.081,-0.076 V 5.837 C 39.078,5.811 39.053,5.747 39.053,5.644 V 5.027 l 3.203,-0.193 h 0.039 l 0.385,1.08 c 0,0.052 -0.039,0.09 -0.115,0.116 -0.052,0.103 -0.142,0.154 -0.271,0.154 v 0.193 h 5.596 c 0.438,-0.103 1.054,-0.193 1.853,-0.271 0.848,-0.077 1.684,-0.167 2.508,-0.27 0.848,-0.077 1.633,-0.141 2.354,-0.193 0.669,-0.026 1.092,0.026 1.273,0.155 l 0.154,0.115 0.077,4.399 h -0.231 c -4.682,0 -7.19,-0.154 -7.525,-0.463 v 0.155 C 48.173,9.9 47.812,9.837 47.272,9.811 46.731,9.759 46.114,9.771 45.42,9.849 v 0.888 h 63.673 v 0.154 c 0.055,0.13 0.119,0.271 0.196,0.426 z m -77.413,6.367 h -2.161 c -0.592,0 -0.887,0.27 -0.887,0.811 0,0.644 0.295,0.965 0.887,0.965 h 2.161 c 0.591,0 0.888,-0.321 0.888,-0.965 10e-4,-0.541 -0.296,-0.811 -0.888,-0.811 z m -12.619,3.744 c 0.36,0.747 0.926,1.158 1.698,1.235 0.643,0.18 1.403,0.078 2.277,-0.309 0.438,-0.232 0.913,-0.644 1.428,-1.234 0.179,-0.334 0.308,-0.721 0.386,-1.158 0.077,-0.515 0.026,-0.914 -0.155,-1.197 -0.128,-0.488 -0.604,-0.811 -1.427,-0.965 -1.055,-0.206 -1.904,-0.167 -2.546,0.116 -0.438,0.231 -0.746,0.424 -0.927,0.579 -0.206,0.154 -0.399,0.411 -0.579,0.772 -0.412,0.669 -0.464,1.388 -0.155,2.161 z"
   id="path2" />
		</g>
	</g>
</g>
<g
   id="guides">
</g>
</svg>
