<?xml version="1.0" encoding="UTF-8" standalone="no"?>
<!-- Generator: Adobe Illustrator 16.0.0, SVG Export Plug-In . SVG Version: 6.00 Build 0)  -->

<svg
   version="1.1"
   x="0px"
   y="0px"
   width="113.5"
   height="31"
   viewBox="0 0 119.175 32.55"
   enable-background="new 0 0 109.5 32"
   xml:space="preserve"
   id="svg9"
   sodipodi:docname="awp.svg"
   inkscape:version="1.1.1 (3bf5ae0d25, 2021-09-20)"
   xmlns:inkscape="http://www.inkscape.org/namespaces/inkscape"
   xmlns:sodipodi="http://sodipodi.sourceforge.net/DTD/sodipodi-0.dtd"
   xmlns="http://www.w3.org/2000/svg"
   xmlns:svg="http://www.w3.org/2000/svg"><defs
   id="defs13" /><sodipodi:namedview
   id="namedview11"
   pagecolor="#ffffff"
   bordercolor="#666666"
   borderopacity="1.0"
   inkscape:pageshadow="2"
   inkscape:pageopacity="0.0"
   inkscape:pagecheckerboard="0"
   showgrid="false"
   inkscape:zoom="9.6621005"
   inkscape:cx="54.38776"
   inkscape:cy="9.4699905"
   inkscape:window-width="1920"
   inkscape:window-height="1017"
   inkscape:window-x="1912"
   inkscape:window-y="-8"
   inkscape:window-maximized="1"
   inkscape:current-layer="Selected_Items_3_"
   scale-x="0.9" />
<g
   id="Selected_Items">
	<g
   id="g5">
		<g
   id="Selected_Items_3_">
			<path
   fill-rule="evenodd"
   clip-rule="evenodd"
   fill="#ffffff"
   d="m 118.62515,8.5983644 c 0.0563,0.1396536 0.1126,0.2771419 0.16781,0.4167954 0.0834,0.1948653 0.12557,0.3767397 0.12557,0.5445404 0,0.2771419 -0.16671,0.6679558 -0.50232,1.1691928 l -0.1245,0.208938 H 73.923044 v 0.752397 h 3.258583 v 2.840704 l 0.459016,0.460099 c 0.250077,0.194866 0.375658,0.528302 0.375658,1.001391 0,0.167802 -0.02707,0.278225 -0.08337,0.334519 -0.05629,0 -0.08445,0.04221 -0.08445,0.12558 v 0.12558 c 0,0.334519 -0.06929,0.500154 -0.207856,0.500154 H 77.264967 75.301158 70.287705 60.51196 c -0.139654,0.08445 -0.20894,0.223013 -0.20894,0.418961 0.05521,0 0.12558,0.04113 0.20894,0.124498 l 0.292297,0.29338 -0.208938,0.626818 H 58.92489 l -0.20894,-0.20894 c -0.08335,-0.138571 -0.264151,-0.557532 -0.542374,-1.253634 -0.278225,-0.639808 -0.306372,-1.169193 -0.08445,-1.58707 0,-0.334519 0.167801,-0.500154 0.50232,-0.500154 h 0.12558 c 0.697185,0 1.128053,0.09743 1.295854,0.292297 0.389731,0 0.849831,-0.111505 1.378132,-0.333435 l -8.105317,-0.08553 c -0.05522,0 -0.402722,0.09851 -1.043613,0.29338 -0.556447,0.138571 -1.196256,0.321529 -1.920506,0.542376 -0.697184,0.195947 -1.366222,0.377822 -2.006031,0.542375 -0.585678,0.139654 -0.90504,0.25116 -0.961335,0.335602 v 2.924066 l -9.565723,1.002473 V 17.4983 c -0.501238,0 -0.807609,0.06821 -0.919115,0.207856 -0.08445,0.138571 -0.307455,0.320445 -0.667955,0.543457 -0.335602,0.333437 -0.752398,0.55645 -1.253635,0.667956 -0.557531,0.194866 -1.198422,0.25116 -1.921589,0.166718 -0.723166,-0.05522 -1.545932,-0.361583 -2.465046,-0.919114 -0.0563,0 -0.112589,0.02706 -0.166718,0.08445 H 30.05991 c 0,0.360502 -0.01407,0.792454 -0.04114,1.294773 -0.05522,0.556449 -0.153727,1.113981 -0.292298,1.670429 -0.08445,0.556449 -0.25116,1.086916 -0.501238,1.588153 -0.166718,0.444942 -0.361582,0.723167 -0.584595,0.834673 -0.390814,0.224095 -1.045777,0.29338 -1.964893,0.208939 -0.919103,-0.0563 -1.89343,-0.181877 -2.924052,-0.37566 C 22.722155,23.331276 21.773812,23.17755 20.91099,23.010831 20.049253,22.759671 19.518786,22.579963 19.32392,22.468457 19.129054,22.329885 18.738242,21.912007 18.154728,21.21374 17.73685,20.880304 17.31789,20.503564 16.900011,20.085686 16.483217,19.724102 16.219065,19.529237 16.107559,19.50109 h -5.477874 c -0.223013,1.504793 -0.361584,2.394678 -0.416796,2.672903 -0.02814,0.223012 -0.112589,0.334518 -0.2511594,0.334518 -0.082277,0.194866 -0.2500772,0.293382 -0.501237,0.293382 -0.2230127,0 -0.697185,-0.09851 -1.4214346,-0.293382 H 6.3697216 c -0.5856787,-0.02815 -0.9483448,-0.02815 -1.0858332,0 -0.2511597,0 -0.5315493,0.04113 -0.8357557,0.126663 -0.3626662,0.110425 -0.7935351,0.180792 -1.2958547,0.208939 -0.3908133,0.137489 -0.8346734,0.236004 -1.3380754,0.291216 -0.556449,0.08336 -0.88988524,0.15481 -1.00139151,0.208938 H 0.51943045 c -0.0833591,0 -0.1244973,-0.04221 -0.1244973,-0.12558 -0.057377,-0.109349 -0.0844417,-0.346435 -0.0844417,-0.709101 v -1.58707 -3.217444 c 0.13857092,-1.28178 0.20893896,-2.520259 0.20893896,-3.71868 v -2.757345 c 0,-0.22193 0.27930702,-0.459016 0.83575579,-0.708011 0.5012371,-0.224095 1.7397148,-0.308537 3.7186806,-0.252242 H 6.1597 l 0.083359,-0.08336 0.1266625,-0.08336 c 0.055212,0 0.1234146,-0.04222 0.2089389,-0.1266627 0.082277,-0.055212 0.1937828,-0.1385709 0.3334363,-0.2500772 h 9.9435453 c 0.223013,0.028147 0.444943,0.1537271 0.667956,0.3767399 0.502319,0.333437 0.877976,0.709093 1.128053,1.126971 h 11.279456 c 0.08445,-0.221931 0.194866,-0.570522 0.33452,-1.043612 0.139653,-0.417878 0.208939,-0.7664705 0.208939,-1.0436123 V 8.8917451 h 0.08445 c 0.306371,-0.1115063 0.849829,-0.208939 1.628208,-0.2922981 0.751314,-0.027065 1.198421,-0.1125888 1.336992,-0.2511598 0.138571,0 0.279308,-0.028147 0.417879,-0.083359 0.02706,-0.083359 0.111505,-0.1537271 0.250076,-0.208939 h 3.509742 V 7.0102117 H 36.40714 c -0.138571,0 -0.488247,0.056294 -1.043613,0.1678009 -0.557531,0.083359 -1.226568,0.1656355 -2.006031,0.2500772 -0.723167,0.082277 -1.504793,0.1537271 -2.339467,0.2089389 -0.781626,0 -1.462572,-0.041138 -2.048251,-0.1266624 L 28.886411,7.3025099 V 7.1780126 c -0.08336,-0.780544 -0.12558,-1.3792137 -0.12558,-1.7970917 v -1.128054 c 0,-0.2230125 0.04221,-0.375657 0.12558,-0.459016 l 0.08336,-0.084441 h 0.207857 l 0.877977,-0.083359 c 0.612743,-0.028147 1.281779,-0.069286 2.00603,-0.1255799 0.779461,-0.083359 1.560005,-0.1244973 2.339467,-0.1244973 0.723168,0 1.280699,0.041137 1.669346,0.1244973 h 1.630374 2.004947 c 0.639809,0 1.239561,-0.014074 1.796011,-0.042221 0.502318,-0.055212 0.890967,-0.082277 1.170274,-0.082277 V 2.665797 C 42.615764,2.63765 42.588684,2.568365 42.588684,2.456858 V 1.7889028 l 3.46752,-0.2089389 h 0.04221 L 46.51521,2.749156 c 0,0.056295 -0.04221,0.097432 -0.124498,0.1255798 -0.05629,0.1115064 -0.153727,0.1667183 -0.29338,0.1667183 V 3.250393 h 6.058147 c 0.474172,-0.1115062 1.141046,-0.2089389 2.006031,-0.2933806 0.918032,-0.083359 1.823073,-0.1807918 2.715124,-0.2922981 0.918033,-0.083359 1.767862,-0.1526444 2.548406,-0.2089389 0.724249,-0.028147 1.182182,0.028148 1.378131,0.1678007 l 0.166718,0.1244973 0.08336,4.7622929 h -0.250074 c -5.068665,0 -7.783789,-0.1667182 -8.146455,-0.5012371 V 7.17693 C 52.461874,7.0643411 52.07106,6.9961382 51.486464,6.9679909 50.900786,6.9116969 50.23283,6.9246878 49.481516,7.0091293 v 0.9613358 h 68.931454 v 0.1667181 c 0.0596,0.1407361 0.12883,0.2933807 0.21218,0.4611812 z M 34.81898,15.491185 h -2.339467 c -0.64089,0 -0.960253,0.292299 -0.960253,0.877977 0,0.697185 0.319363,1.044695 0.960253,1.044695 h 2.339467 c 0.639809,0 0.961337,-0.34751 0.961337,-1.044695 0.001,-0.585678 -0.320446,-0.877977 -0.961337,-0.877977 z"
   id="path2"
   sodipodi:nodetypes="ccscccccccscsssccccccccccccsscccccccccccccccccccccccccccccccscccccccscsccssccccccccccccsccccccccsccccccsscccccsccscccsccccccccccccccsccccccccssssscs"
   style="stroke-width:1.08259" />
		</g>
	</g>
</g>
<g
   id="guides">
</g>
</svg>
