<?xml version="1.0" encoding="UTF-8" standalone="no"?>
<!-- Generator: Adobe Illustrator 16.0.0, SVG Export Plug-In . SVG Version: 6.00 Build 0)  -->

<svg
   version="1.1"
   x="0px"
   y="0px"
   width="92"
   height="23.799999"
   viewBox="0 0 92 23.799999"
   enable-background="new 0 0 92 32"
   xml:space="preserve"
   id="svg9"
   sodipodi:docname="bayonet.svg"
   inkscape:version="1.1.1 (3bf5ae0d25, 2021-09-20)"
   xmlns:inkscape="http://www.inkscape.org/namespaces/inkscape"
   xmlns:sodipodi="http://sodipodi.sourceforge.net/DTD/sodipodi-0.dtd"
   xmlns="http://www.w3.org/2000/svg"
   xmlns:svg="http://www.w3.org/2000/svg"><defs
   id="defs13" /><sodipodi:namedview
   id="namedview11"
   pagecolor="#ffffff"
   bordercolor="#666666"
   borderopacity="1.0"
   inkscape:pageshadow="2"
   inkscape:pageopacity="0.0"
   inkscape:pagecheckerboard="0"
   showgrid="false"
   inkscape:zoom="11.5"
   inkscape:cx="45.956522"
   inkscape:cy="16.043478"
   inkscape:window-width="1920"
   inkscape:window-height="1017"
   inkscape:window-x="-8"
   inkscape:window-y="-8"
   inkscape:window-maximized="1"
   inkscape:current-layer="svg9" />
<g
   id="Selected_Items"
   transform="translate(0.08695652,-4.2608695)">
	<g
   id="g5">
		<g
   id="Selected_Items_15_">
			<path
   fill-rule="evenodd"
   clip-rule="evenodd"
   fill="#ffffff"
   d="m 78.551,15.482 -0.1,-0.065 -1.901,0.032 c -0.089,0.068 -0.178,0.169 -0.267,0.3 -0.177,0.202 -0.256,0.412 -0.234,0.634 0,0.222 0.102,0.446 0.302,0.668 0.089,0.088 0.178,0.168 0.265,0.233 h 2.102 c 0.067,-0.065 0.134,-0.146 0.2,-0.233 0.113,-0.244 0.169,-0.502 0.169,-0.767 0,-0.267 -0.112,-0.489 -0.336,-0.666 -0.066,-0.046 -0.134,-0.092 -0.2,-0.136 z m 11.907,1.802 c -1.49,1.135 -3.202,2.046 -5.138,2.734 -1.89,0.689 -4.447,1.167 -7.671,1.435 -1,0.089 -2.001,0.156 -3,0.2 l -38.587,0.067 -0.035,4.103 h -1.333 v -4.97 h -4.305 c -0.043,-0.045 -0.109,-0.1 -0.198,-0.168 -0.156,-0.109 -0.334,-0.166 -0.533,-0.166 -0.201,0.021 -0.379,0.09 -0.535,0.201 -0.065,0.045 -0.112,0.099 -0.134,0.166 h -3.101 c -0.045,-0.067 -0.101,-0.121 -0.166,-0.166 -0.158,-0.135 -0.347,-0.201 -0.568,-0.201 -0.2,0 -0.366,0.066 -0.502,0.201 -0.065,0.045 -0.108,0.099 -0.131,0.166 h -3.07 c -0.021,-0.067 -0.064,-0.121 -0.132,-0.166 -0.112,-0.135 -0.256,-0.201 -0.432,-0.201 -0.201,0 -0.369,0.066 -0.502,0.201 -0.067,0.045 -0.112,0.099 -0.134,0.166 h -3.068 c -0.045,-0.067 -0.101,-0.133 -0.166,-0.201 -0.112,-0.131 -0.258,-0.198 -0.435,-0.198 -0.177,0 -0.322,0.067 -0.435,0.198 -0.065,0.068 -0.121,0.134 -0.166,0.201 h -3.234 c -0.021,-0.067 -0.065,-0.121 -0.134,-0.166 -0.111,-0.135 -0.256,-0.201 -0.432,-0.201 -0.158,0 -0.302,0.044 -0.435,0.134 -0.046,0.046 -0.079,0.077 -0.101,0.101 h -1.7 L 8.643,21.286 H 1.107 C 0.972,21.109 0.849,20.897 0.74,20.653 0.472,20.165 0.318,19.831 0.271,19.652 c -0.044,-0.198 -0.044,-1.123 0,-2.767 l 0.068,-2.401 c 0,-0.066 0.011,-0.158 0.033,-0.268 0.021,-0.224 0.088,-0.399 0.201,-0.534 0.132,-0.11 0.311,-0.233 0.533,-0.364 l 0.3,-0.137 6.97,0.035 1.469,0.533 1.635,-0.034 0.198,0.2 c 0.112,0.112 0.244,0.167 0.401,0.167 0.132,0 0.301,-0.077 0.5,-0.234 l 0.267,-0.198 h 3.004 l 0.197,0.198 c 0.156,0.136 0.347,0.201 0.566,0.201 0.201,0.022 0.369,-0.035 0.502,-0.167 0.045,-0.044 0.077,-0.101 0.099,-0.167 l 0.068,-0.065 2.867,0.032 0.167,0.2 c 0.156,0.153 0.333,0.225 0.533,0.2 0.156,0 0.322,-0.068 0.501,-0.2 l 0.167,-0.2 h 3.067 l 0.167,0.2 c 0.113,0.132 0.256,0.2 0.434,0.2 0.18,0.024 0.355,-0.047 0.535,-0.2 l 0.199,-0.2 h 3.067 l 0.169,0.233 c 0.177,0.156 0.343,0.234 0.5,0.234 0.243,0 0.434,-0.078 0.566,-0.234 0.043,-0.046 0.077,-0.099 0.101,-0.166 l 0.032,-0.067 h 4.303 V 6.177 h 1.402 v 7.07 h 3.567 c 0.153,-0.021 0.289,-0.053 0.4,-0.099 0.156,-0.112 0.332,-0.223 0.534,-0.333 l 32.918,0.133 18.577,2.868 c -0.33,0.425 -0.863,0.912 -1.597,1.468 z"
   id="path2" />
		</g>
	</g>
</g>
<g
   id="guides">
</g>
</svg>
