<?xml version="1.0" encoding="UTF-8" standalone="no"?>
<svg
   height="32.8px"
   width="28.05px"
   version="1.1"
   id="svg100"
   sodipodi:docname="c4.svg"
   inkscape:version="1.1.1 (3bf5ae0d25, 2021-09-20)"
   xmlns:inkscape="http://www.inkscape.org/namespaces/inkscape"
   xmlns:sodipodi="http://sodipodi.sourceforge.net/DTD/sodipodi-0.dtd"
   xmlns="http://www.w3.org/2000/svg"
   xmlns:svg="http://www.w3.org/2000/svg">
  <defs
     id="defs104" />
  <sodipodi:namedview
     id="namedview102"
     pagecolor="#ffffff"
     bordercolor="#666666"
     borderopacity="1.0"
     inkscape:pageshadow="2"
     inkscape:pageopacity="0.0"
     inkscape:pagecheckerboard="0"
     showgrid="false"
     inkscape:zoom="256"
     inkscape:cx="15.306641"
     inkscape:cy="23.142578"
     inkscape:window-width="1920"
     inkscape:window-height="1017"
     inkscape:window-x="1912"
     inkscape:window-y="-8"
     inkscape:window-maximized="1"
     inkscape:current-layer="g98" />
  <g
     transform="matrix(1.0, 0.0, 0.0, 1.0, 1.75, 0.2)"
     id="g98">
    <path
       d="M21.15 6.35 L21.15 10.65 6.9 10.65 6.9 6.35 21.15 6.35"
       fill="#e7ae41"
       fill-opacity="0.4"
       fill-rule="evenodd"
       stroke="none"
       id="path90" />
    <path
       d="M 21.15,6.35 H 6.9 v 4.3 h 14.25 v -4.3 m 3.7,3.5 h 0.75 c 0.466667,0 0.7,0.233333 0.7,0.7 v 6.65 c 0,0.466667 -0.233333,0.7 -0.7,0.7 h -0.75 v 13.3 c 0,0.933333 -0.466667,1.4 -1.4,1.4 H 4.75 c -0.9333333,0 -1.4,-0.466667 -1.4,-1.4 V 4.9 c 0,-0.9333333 0.4666667,-1.4 1.4,-1.4 H 11.3 V 2.55 c 0,-0.1 0.05,-0.15 0.15,-0.15 H 12.1 L 12.246094,2.58125 12.25,3.5 h 11.2 c 0.933333,0 1.4,0.4666667 1.4,1.4 v 4.95 m -3.7,4.9 H 9.9 v 13.3 h 11.25 v -13.3"
       fill="#ffd88e"
       fill-rule="evenodd"
       stroke="none"
       id="path92"
       sodipodi:nodetypes="ccccccsssscsssssscsscccsscccccc" />
    <path
       d="M 3.2,22.45 1.55,22.35 C 0.95,22.216667 0.41666667,21.866667 -0.05,21.3 -0.51666667,20.733333 -0.88333333,19.75 -1.15,18.35 -1.3833333,17.016667 -1.5,15.1 -1.5,12.6 V 10.5 8.15 l 0.25,-2.4 C -1.0833333,4.85 -0.78333333,3.9333333 -0.35,3 L -0.1,2.5 0.65,1.7 1.55,1 C 2.3833333,0.43333333 3.4666667,0.11666667 4.8,0.05 L 5.7,0.1 7.7667005,0.24303092 10.15,0.7 c 0.9,0.3 1.383333,0.55 1.45,0.75 l 0.15,0.7 V 2.4"
       fill="none"
       stroke="#ffd88e"
       stroke-linecap="round"
       stroke-linejoin="round"
       stroke-width="0.5"
       id="path94"
       sodipodi:nodetypes="ccscscccccccccccccc" />
    <path
       d="m 13.4,24.75 0.2,0.2 v 1.25 l -0.2,0.15 h -1.35 c -0.166667,0 -0.25,-0.05 -0.25,-0.15 v -1.25 c 0,-0.133333 0.08333,-0.2 0.25,-0.2 h 1.35 m 3.2,0.2 v 1.25 l -0.25,0.15 H 15 L 14.8,26.2 v -1.25 l 0.2,-0.2 h 1.35 l 0.25,0.2 m 3,0 v 1.25 l -0.25,0.15 H 18 L 17.75,26.2 V 24.95 L 18,24.75 h 1.35 l 0.25,0.2 m 0,-1.6 -0.25,0.15 H 18 L 17.75,23.35 V 22.1 c 0,-0.166667 0.08333,-0.25 0.25,-0.25 h 1.35 l 0.25,0.25 v 1.25 M 17.75,19.2 18,19 h 1.35 l 0.25,0.2 v 1.25 L 19.35,20.6 H 18 L 17.75,20.45 V 19.2 m -2.95,2.9 c 0,-0.166667 0.06667,-0.25 0.2,-0.25 h 1.35 l 0.25,0.25 v 1.25 L 16.35,23.5 H 15 L 14.8,23.35 V 22.1 m -3,0 c 0,-0.166667 0.0599,-0.25 0.25,-0.25 h 1.35 l 0.2,0.25 v 1.25 l -0.2,0.15 h -1.35 c -0.166667,0 -0.25,-0.05 -0.25,-0.15 V 22.1 m 1.6,-3.1 0.2,0.2 v 1.25 l -0.2,0.15 h -1.35 c -0.166667,0 -0.25,-0.05 -0.25,-0.15 V 19.2 c 0,-0.133333 0.08333,-0.2 0.25,-0.2 H 13.4 M 15,20.6 14.8,20.45 V 19.2 L 15,19 h 1.35 l 0.25,0.2 v 1.25 L 16.35,20.6 H 15 m -2.95,-2.85 -0.25,-0.2 v -1.2 c 0,-0.133333 0.08333,-0.2 0.25,-0.2 h 1.35 l 0.2,0.2 v 1.2 l -0.2,0.2 h -1.35 m 7.55,-0.2 -0.25,0.2 H 18 l -0.25,-0.2 v -1.2 L 18,16.15 h 1.35 l 0.25,0.2 v 1.2 m -3.25,-1.4 0.25,0.2 v 1.2 l -0.25,0.2 H 15 l -0.2,-0.2 v -1.2 l 0.2,-0.2 h 1.35"
       fill="#e7ae41"
       fill-rule="evenodd"
       stroke="none"
       id="path96"
       sodipodi:nodetypes="ccccsssscccccccccccccccccccccccsscccccccccccccsccccccccsccccsscccccssssccccccccccccssccccccccccccccccccccccc" />
  </g>
</svg>
