<?xml version="1.0" encoding="UTF-8" standalone="no"?>
<!-- Generator: Adobe Illustrator 16.0.0, SVG Export Plug-In . SVG Version: 6.00 Build 0)  -->

<svg
   version="1.1"
   x="0px"
   y="0px"
   width="54.75"
   height="31.700001"
   viewBox="0 0 54.75 31.700001"
   enable-background="new 0 0 50.75 32"
   xml:space="preserve"
   id="svg9"
   sodipodi:docname="deagle.svg"
   inkscape:version="1.1.1 (3bf5ae0d25, 2021-09-20)"
   xmlns:inkscape="http://www.inkscape.org/namespaces/inkscape"
   xmlns:sodipodi="http://sodipodi.sourceforge.net/DTD/sodipodi-0.dtd"
   xmlns="http://www.w3.org/2000/svg"
   xmlns:svg="http://www.w3.org/2000/svg"><defs
   id="defs13" /><sodipodi:namedview
   id="namedview11"
   pagecolor="#ffffff"
   bordercolor="#666666"
   borderopacity="1.0"
   inkscape:pageshadow="2"
   inkscape:pageopacity="0.0"
   inkscape:pagecheckerboard="0"
   showgrid="false"
   inkscape:zoom="20.847291"
   inkscape:cx="22.137169"
   inkscape:cy="15.997282"
   inkscape:window-width="1920"
   inkscape:window-height="1017"
   inkscape:window-x="1912"
   inkscape:window-y="-8"
   inkscape:window-maximized="1"
   inkscape:current-layer="Selected_Items" />
<g
   id="Selected_Items"
   transform="translate(0.04796786,-0.47967864)">
	<g
   id="g5">
		<g
   id="Selected_Items_6_">
			<path
   fill-rule="evenodd"
   clip-rule="evenodd"
   fill="#ffffff"
   d="m 50.312,2.921225 c 0.056,0.029 0.14,0.042 0.253,0.042 l -0.041,1.014 0.169,1.397 c -0.059,0.282 -0.142,0.577 -0.253,0.887 -0.057,0.283 -0.142,0.549 -0.256,0.803 -0.083,0.367 -0.168,0.677 -0.251,0.931 -0.17,0.704 -0.339,1.24 -0.508,1.608 -0.142,0.366 -0.24,0.634 -0.297,0.803 -0.083,0.14 -0.155,0.225 -0.211,0.253 -0.029,0.057 -0.07,0.086 -0.126,0.086 H 29.296 c -0.028,0 -0.225,0.042 -0.592,0.126 -0.396,0.169 -0.831,0.482 -1.312,0.929 -0.422,0.424 -0.817,1.045 -1.184,1.861 -0.422,0.79 -0.635,1.889 -0.635,3.299 v 0.465 H 25.49 c -0.028,0.026 -0.308,0.098 -0.845,0.209 -0.507,0.114 -1.126,0.199 -1.86,0.256 -0.707,0.085 -1.48,0.125 -2.327,0.125 -0.846,-0.027 -1.577,-0.154 -2.199,-0.382 -0.198,0.059 -0.451,0.243 -0.761,0.553 -0.339,0.364 -0.522,0.76 -0.549,1.181 -0.03,0.255 -0.112,0.777 -0.256,1.566 -0.14,0.817 -0.308,1.677 -0.506,2.579 -0.169,0.902 -0.311,1.733 -0.421,2.496 -0.172,0.733 -0.268,1.156 -0.296,1.268 l 0.676,1.903 h -0.128 c -1.326,0.167 -2.678,0.324 -4.06,0.465 -1.181,0.083 -2.464,0.155 -3.847,0.212 -1.382,0.026 -2.722,-0.042 -4.017,-0.212 -0.084,0 -0.183,-0.013 -0.297,-0.044 -0.226,-0.083 -0.394,-0.224 -0.505,-0.421 -0.171,-0.282 -0.255,-0.789 -0.255,-1.522 0,-0.451 0.042,-1.029 0.126,-1.736 0.113,-0.675 0.323,-1.465 0.634,-2.366 0.254,-0.931 0.62,-2.015 1.101,-3.257 0.478,-1.24 1.084,-2.665 1.818,-4.271 v -0.167 c 0,-0.085 0.013,-0.185 0.041,-0.297 0.029,-0.17 0.044,-0.354 0.044,-0.551 0,-0.563 -0.128,-1.138 -0.382,-1.734 -0.225,-0.563 -0.803,-0.93 -1.733,-1.098 -0.056,0 -0.296,-0.012 -0.718,-0.042 -0.452,0 -0.946,-0.029 -1.478,-0.083 -0.511,0 -1.003,-0.015 -1.482,-0.044 -0.45,0 -0.692,0 -0.72,0 l -0.126,-0.125 v -0.129 c 0,-0.138 0.042,-0.237 0.126,-0.294 0.084,-0.31 0.381,-0.62 0.89,-0.931 0.478,-0.31 1.353,-0.62 2.62,-0.929 0.029,-0.029 0.128,-0.198 0.297,-0.508 0.168,-0.31 0.255,-0.677 0.255,-1.1 0,-0.168 -0.015,-0.309 -0.044,-0.423 -0.027,-0.141 -0.099,-0.323 -0.211,-0.549 -0.084,-0.059 -0.182,-0.169 -0.297,-0.338 -0.141,-0.226 -0.351,-0.635 -0.633,-1.229 v -0.8 l 0.804,-0.213 c 0.083,0.056 0.155,0.098 0.211,0.127 0.113,0.114 0.197,0.17 0.253,0.17 h 1.438 c 0,-0.056 0.059,-0.17 0.169,-0.338 0.029,-0.113 0.084,-0.211 0.168,-0.295 l 1.272,-1.144 c 0.054,-0.028 0.138,-0.056 0.251,-0.083 0.113,-0.056 0.213,-0.113 0.298,-0.17 v -0.635 c 0,-0.139 0.014,-0.324 0.04,-0.549 h 1.565 l 1.099,1.1 1.861,-0.042 0.634,-0.339 7.653,-0.042 c 0.085,0.114 0.155,0.209 0.212,0.294 0.14,0.142 0.24,0.212 0.295,0.212 l 9.938,0.17 0.126,0.083 c 0.028,0.056 0.085,0.083 0.169,0.083 h 0.549 c 0.03,-0.056 0.043,-0.096 0.043,-0.125 0,-0.055 0.014,-0.098 0.042,-0.128 0.056,-0.056 0.112,-0.11 0.168,-0.167 l 11.164,0.083 c 0,0.083 0.015,0.157 0.042,0.212 0,0.084 0.014,0.154 0.042,0.212 0,0.056 0,0.097 0,0.126 h 0.591 c 0,-0.029 0.029,-0.126 0.084,-0.296 0.027,-0.056 0.084,-0.112 0.168,-0.17 h 2.199 c 0.059,-0.026 0.183,-0.097 0.381,-0.209 0.197,-0.143 0.395,-0.267 0.594,-0.381 0.195,-0.142 0.406,-0.24 0.632,-0.296 0.199,-0.086 0.354,-0.128 0.466,-0.128 0.169,0 0.283,0.113 0.337,0.339 0.085,0.254 0.128,0.421 0.128,0.508 0.111,0.083 0.267,0.141 0.464,0.167 0.083,0.031 0.196,0.059 0.338,0.087 0,0.027 0.028,0.042 0.085,0.042 z m -30.275,8.456 c -0.282,0 -0.521,0.085 -0.721,0.255 -0.167,0.196 -0.251,0.438 -0.251,0.718 v 3.088 c 0,0.253 0.085,0.491 0.251,0.719 0.199,0.169 0.438,0.252 0.721,0.252 h 3.298 c 0.282,0 0.521,-0.083 0.718,-0.252 0.225,-0.228 0.339,-0.466 0.339,-0.719 v -3.088 c 0,-0.28 -0.114,-0.521 -0.339,-0.718 -0.197,-0.169 -0.436,-0.255 -0.718,-0.255 z"
   id="path2" />
		</g>
	</g>
</g>
<g
   id="guides">
</g>
</svg>
