<?xml version="1.0" encoding="UTF-8" standalone="no"?>
<!-- Generator: Adobe Illustrator 16.0.0, SVG Export Plug-In . SVG Version: 6.00 Build 0)  -->

<svg
   version="1.1"
   x="0px"
   y="0px"
   width="68.25"
   height="28.200001"
   viewBox="0 0 68.25 28.200001"
   enable-background="new 0 0 68.25 32"
   xml:space="preserve"
   id="svg9"
   sodipodi:docname="elite.svg"
   inkscape:version="1.1.1 (3bf5ae0d25, 2021-09-20)"
   xmlns:inkscape="http://www.inkscape.org/namespaces/inkscape"
   xmlns:sodipodi="http://sodipodi.sourceforge.net/DTD/sodipodi-0.dtd"
   xmlns="http://www.w3.org/2000/svg"
   xmlns:svg="http://www.w3.org/2000/svg"><defs
   id="defs13" /><sodipodi:namedview
   id="namedview11"
   pagecolor="#ffffff"
   bordercolor="#666666"
   borderopacity="1.0"
   inkscape:pageshadow="2"
   inkscape:pageopacity="0.0"
   inkscape:pagecheckerboard="0"
   showgrid="false"
   inkscape:zoom="15.501832"
   inkscape:cx="34.092745"
   inkscape:cy="16.030363"
   inkscape:window-width="1920"
   inkscape:window-height="1017"
   inkscape:window-x="-8"
   inkscape:window-y="-8"
   inkscape:window-maximized="1"
   inkscape:current-layer="svg9"
   inkscape:snap-global="true" />
<g
   id="Selected_Items"
   transform="translate(0,-0.58057654)">
	<g
   id="g5">
		<g
   id="Selected_Items_7_">
			<path
   fill-rule="evenodd"
   clip-rule="evenodd"
   fill="#ffffff"
   d="m 67.987017,3.6221342 c 0.128,0.28 0.191,0.572 0.191,0.877 0,0.202 0,0.368 0,0.496 -0.026,0.127 -0.038,0.266 -0.038,0.419 0,0.025 -0.012,0.049 -0.037,0.076 -0.053,0 -0.076,0.025 -0.076,0.075 0,0.026 -0.012,0.206 -0.04,0.535 0,0.304 -0.012,0.621 -0.039,0.953 -0.023,0.355 -0.037,0.685 -0.037,0.992 -0.026,0.329 -0.039,0.532 -0.039,0.607 v 0.268 h -2.362 c 0,0.025 -0.038,0.114 -0.114,0.267 -0.025,0 -0.064,0.011 -0.113,0.036 -0.053,0 -0.203,0.014 -0.459,0.04 -0.228,0.024 -0.583,0.038 -1.066,0.038 -0.483,0 -1.156,0 -2.019,0 -0.458,0 -0.89,-0.014 -1.296,-0.038 -0.381,-0.026 -0.747,-0.04 -1.105,-0.04 h -0.989 c -0.205,0 -0.394,0.026 -0.573,0.078 -0.354,0.05 -0.71,0.204 -1.065,0.456 -0.407,0.3049998 -0.749,0.6099998 -1.027,0.9149998 -0.256,0.331 -0.396,0.583 -0.42,0.761 -0.052,0.281 -0.078,0.547 -0.078,0.802 0,0.227 0,0.379 0,0.456 0.179,0.28 0.203,0.47 0.078,0.571 -0.101,0.128 -0.191,0.229 -0.267,0.306 v 0.114 c -0.076,0.078 -0.268,0.153 -0.572,0.229 -0.28,0.053 -0.61,0.141 -0.99,0.268 -0.383,0.127 -0.839,0.254 -1.373,0.38 -0.33,0.076 -0.787,0.103 -1.372,0.076 -0.583,0 -1.397,-0.101 -2.438,-0.305 -0.534,-0.075 -0.927,-0.075 -1.181,0 -0.304,0.077 -0.546,0.179 -0.725,0.305 -0.176,0.128 -0.292,0.268 -0.342,0.419 l -1.523,5.26 c 0,0.025 -0.013,0.049 -0.038,0.076 v 0.15 c 0,0.153 0.014,0.37 0.038,0.648 0.051,0.304 0.115,0.738 0.19,1.296 v 0.608 c 0,0.635 -0.127,1.131 -0.381,1.486 -0.128,0.102 -0.253,0.166 -0.382,0.192 -0.126,0.025 -0.202,0.037 -0.228,0.037 h -5.335 l -0.038,-0.076 c -0.049,0 -0.114,-0.012 -0.189,-0.038 -0.051,0 -0.103,-0.013 -0.152,-0.039 -0.077,0 -0.167,-0.026 -0.267,-0.077 -0.305,-0.176 -0.458,-0.557 -0.458,-1.142 0,-0.101 0.026,-0.19 0.076,-0.265 0.027,-0.079 0.041,-0.154 0.041,-0.23 -0.765,-0.027 -1.272,-0.088 -1.525,-0.19 -0.255,-0.076 -0.42,-0.166 -0.495,-0.267 v -0.152 c -0.052,-0.025 -0.076,-0.077 -0.076,-0.153 0,-0.076 0,-0.128 0,-0.151 -0.026,-0.052 -0.041,-0.115 -0.041,-0.19 -0.051,-0.128 -0.075,-0.292 -0.075,-0.497 v -0.381 c 0,-0.508 0.063,-1.029 0.191,-1.561 0.15,-0.533 0.227,-0.813 0.227,-0.838 h 0.039 v -0.039 c 0.051,-0.076 0.216,-0.469 0.495,-1.18 0.278,-0.687 0.61,-1.449 0.989,-2.287 0.358,-0.837 0.699,-1.611 1.03,-2.322 0.305,-0.711 0.495,-1.132 0.57,-1.259 0.052,-0.203 0.078,-0.38 0.078,-0.533 0,-0.304 -0.115,-0.647 -0.343,-1.0269998 -0.152,-0.305 -0.432,-0.495 -0.836,-0.574 -0.358,-0.074 -0.688,-0.15 -0.993,-0.228 -0.305,0 -0.52,-0.024 -0.646,-0.076 -0.18,-0.127 -0.269,-0.317 -0.269,-0.572 v -0.076 c 0,-0.227 0.065,-0.405 0.191,-0.534 0.154,-0.127 0.332,-0.19 0.534,-0.19 0.076,-0.101 0.153,-0.154 0.229,-0.154 0.051,0 0.115,-0.009 0.19,-0.036 0.151,-0.078 0.368,-0.281 0.648,-0.61 l 0.152,-0.152 c 0.202,-0.229 0.368,-0.521 0.495,-0.876 0.126,-0.381 0.189,-0.66 0.189,-0.838 0,-0.024 -0.037,-0.23 -0.114,-0.61 -0.076,-0.355 -0.115,-0.61 -0.115,-0.763 v -0.114 c 0.078,-0.255 0.192,-0.394 0.344,-0.421 0.126,-0.126 0.304,-0.153 0.533,-0.075 0.129,0.05 0.292,0.102 0.494,0.152 0.205,0.05 0.345,0.077 0.422,0.077 0.1,-0.051 0.189,-0.077 0.265,-0.077 0.101,-0.026 0.203,-0.077 0.306,-0.152 0.153,-0.026 0.292,-0.064 0.418,-0.115 0.102,-0.024 0.203,-0.062 0.306,-0.114 0.101,-0.052 0.203,-0.075 0.304,-0.075 h 0.114 v -0.726 h 0.231 c 0.609,0.026 0.976,0.063 1.104,0.115 0.102,0.049 0.164,0.125 0.19,0.227 0.051,0.076 0.076,0.154 0.076,0.229 0,0.101 0.012,0.229 0.038,0.38 h 1.829 c 0.432,0 0.938,-0.011 1.524,-0.038 0.915,0 1.626,0 2.132,0 0.535,0 0.915,0 1.144,0 0.229,0.026 0.381,0.038 0.459,0.038 h 0.075 c 0.178,0.101 0.266,0.203 0.266,0.307 h 14.745 v -0.038 c 0,-0.079 0.025,-0.128 0.076,-0.152 0.051,-0.051 0.103,-0.089 0.154,-0.116 0.074,-0.023 0.113,-0.049 0.113,-0.076 0.026,-0.023 0.077,-0.1 0.151,-0.229 0.206,-0.177 0.484,-0.239 0.839,-0.19 0.304,0.026 0.495,0.051 0.573,0.077 l 0.151,0.078 0.114,0.114 c 0.177,0.075 0.279,0.215 0.305,0.416 0.027,0.205 0.064,0.371 0.115,0.496 z m -19.011,6.134 c -0.279,0.026 -0.432,0.039 -0.458,0.039 -0.05,0 -0.076,0.013 -0.076,0.037 h -0.114 c -0.176,0.079 -0.407,0.1899998 -0.685,0.3429998 -0.253,0.153 -0.42,0.356 -0.495,0.611 -0.077,0.278 -0.115,0.494 -0.115,0.646 0,0.382 0.049,0.624 0.153,0.724 v 0.038 h 0.076 c 0.024,0.102 0.216,0.292 0.572,0.573 l 0.114,0.038 c 0.254,0.177 0.685,0.342 1.295,0.496 0.583,0.154 1.246,0.177 1.982,0.075 1.751,-0.229 2.679,-0.672 2.781,-1.333 0.075,-0.151 0.114,-0.329 0.114,-0.534 0,-0.303 -0.089,-0.609 -0.266,-0.913 -0.179,-0.33 -0.508,-0.6099998 -0.992,-0.8389998 -0.482,0 -0.978,0 -1.485,0 -0.482,0 -0.927,0 -1.334,0 -0.408,-10e-4 -0.762,-10e-4 -1.067,-10e-4 z m -16.22,-7.126 c 0.204,0.026 0.33,0.141 0.381,0.345 0.05,0.229 0.075,0.406 0.075,0.535 0.178,0.304 0.267,0.608 0.267,0.914 0,0.178 -0.024,0.328 -0.075,0.456 -0.026,0.128 -0.051,0.268 -0.076,0.418 v 0.154 c 0,0.025 -0.014,0.19 -0.039,0.496 -0.024,0.33 -0.05,0.66 -0.077,0.99 0,0.381 -0.025,0.712 -0.075,0.99 -0.025,0.306 -0.039,0.497 -0.039,0.574 v 0.266 h -2.286 c -0.052,0.049 -0.076,0.103 -0.076,0.152 0,0.025 -0.038,0.076 -0.114,0.151 l -0.076,0.038 c -0.078,0 -0.23,0.013 -0.458,0.039 -0.23,0.026 -0.584,0.039 -1.066,0.039 -0.458,0 -1.131,0 -2.018,0 -0.434,0 -0.852,-0.013 -1.26,-0.039 -0.406,-0.026 -0.776,-0.039 -1.104,-0.039 h -1.106 c -0.151,0 -0.316,0.026 -0.495,0.078 -0.406,0.076 -0.788,0.23 -1.144,0.456 -0.406,0.305 -0.735,0.6099998 -0.989,0.9149998 -0.255,0.33 -0.394,0.583 -0.42,0.762 -0.05,0.278 -0.076,0.545 -0.076,0.799 0,0.229 0.025,0.381 0.076,0.458 0.103,0.278 0.116,0.482 0.04,0.609 -0.102,0.128 -0.192,0.215 -0.268,0.269 v 0.074 c -0.075,0.076 -0.266,0.152 -0.571,0.23 -0.305,0.099 -0.635,0.204 -0.991,0.302 -0.356,0.102 -0.687,0.193 -0.991,0.268 l -0.42,0.114 c -0.329,0.077 -0.787,0.102 -1.37,0.077 -0.584,-0.052 -1.423,-0.165 -2.514,-0.342 -0.508,-0.078 -0.901,-0.078 -1.182,0 -0.279,0.101 -0.494,0.215 -0.648,0.342 -0.126,0.126 -0.228,0.268 -0.303,0.419 l -1.561,5.257 v 0.229 c 0,0.152 0,0.367 0,0.647 0,0.305 0.036,0.736 0.113,1.294 0.077,0.153 0.115,0.371 0.115,0.649 0,0.659 -0.139,1.13 -0.419,1.409 -0.152,0.151 -0.279,0.228 -0.381,0.228 -0.077,0.025 -0.139,0.039 -0.19,0.039 h -5.372 c 0,-0.025 -0.205,-0.115 -0.611,-0.267 -0.177,-0.076 -0.292,-0.215 -0.342,-0.419 -0.051,-0.228 -0.077,-0.456 -0.077,-0.685 v -0.496 c -0.66,-0.026 -1.118,-0.076 -1.372,-0.152 -0.024,-0.025 -0.051,-0.038 -0.075,-0.038 -0.25399999,-0.101 -0.41799999,-0.189 -0.49699999,-0.269 -0.024,-0.023 -0.037,-0.074 -0.037,-0.152 -0.051,-0.026 -0.076,-0.075 -0.076,-0.151 v -0.304 c -0.024,-0.152 -0.038,-0.331 -0.038,-0.534 0,-0.077 -0.013,-0.14 -0.039,-0.19 -0.025,-0.078 -0.037,-0.154 -0.037,-0.23 0,-0.507 0.063,-1.015 0.189,-1.522 0.127,-0.509 0.191,-0.801 0.191,-0.878 v -0.077 c 0.052,-0.023 0.191,-0.304 0.41799999,-0.836 0.026,-0.076 0.064,-0.166 0.116,-0.268 0.305,-0.709 0.646,-1.484 1.028,-2.322 0.355,-0.84 0.699,-1.626 1.027,-2.362 0.305,-0.711 0.495,-1.107 0.573,-1.182 0.05,-0.279 0.076,-0.458 0.076,-0.535 0,-0.329 -0.102,-0.672 -0.305,-1.0269998 -0.153,-0.306 -0.419,-0.495 -0.8,-0.573 -0.38,-0.075 -0.737,-0.138 -1.066,-0.189 -0.254,0 -0.459,-0.038 -0.612,-0.114 l -0.038,-0.038 c -0.152,-0.178 -0.22799999,-0.357 -0.22799999,-0.534 v -0.038 c 0,-0.253 0.052,-0.431 0.15199999,-0.533 0.024,-0.026 0.051,-0.052 0.075,-0.078 0.153,-0.125 0.333,-0.19 0.536,-0.19 0.076,-0.049 0.138,-0.075 0.189,-0.075 0.076,0 0.138,-0.014 0.19,-0.039 0.152,-0.076 0.368,-0.278 0.647,-0.609 l 0.114,-0.189 c 0.203,-0.204 0.371,-0.496 0.495,-0.877 0.128,-0.354 0.204,-0.624 0.231,-0.799 0,-0.103 -0.041,-0.307 -0.117,-0.61 -0.046,-0.355 -0.072,-0.61 -0.072,-0.762 v -0.154 c 0.052,-0.229 0.14,-0.368 0.266,-0.419 0.176,-0.101 0.357,-0.115 0.534,-0.039 0.128,0.026 0.304,0.078 0.534,0.153 0.228,0.05 0.38,0.077 0.455,0.077 l 0.535,-0.23 c 0.128,-0.023 0.255,-0.076 0.381,-0.151 0.102,-0.053 0.216,-0.089 0.344,-0.115 0.075,-0.025 0.189,-0.04 0.343,-0.04 h 0.037 v -0.758 h 0.266 c 0.586,0.025 0.94,0.062 1.068,0.113 0.127,0.026 0.19,0.076 0.19,0.152 0.077,0.23 0.116,0.458 0.116,0.687 0.101,0 0.342,0 0.723,0 0.356,0 0.737,-0.013 1.142,-0.039 0.433,0 0.94,-0.025 1.524,-0.075 0.915,0 1.625,0.012 2.134,0.036 0.507,0.026 0.876,0.04 1.104,0.04 0.23,0 0.37,0 0.421,0 0.051,0.026 0.1,0.039 0.152,0.039 0.076,0.075 0.15,0.19 0.229,0.342 h 14.82 v -0.078 c 0,-0.075 0.051,-0.164 0.15,-0.265 0.026,-0.079 0.064,-0.114 0.114,-0.114 0.079,-0.025 0.141,-0.09 0.191,-0.192 0.18,-0.202 0.445,-0.279 0.802,-0.229 0.355,0.05 0.57,0.102 0.646,0.151 l 0.076,0.04 z m -16.156,6.975 c -0.482,0 -0.927,0 -1.331,0 -0.406,0 -0.763,0.011 -1.068,0.037 -0.279,0 -0.433,0 -0.458,0 l -0.19,0.076 c -0.177,0.078 -0.404,0.179 -0.686,0.3049998 -0.252,0.179 -0.418,0.383 -0.495,0.611 -0.075,0.153 -0.113,0.369 -0.113,0.647 0,0.381 0.051,0.623 0.151,0.724 l 0.077,0.077 c 0.052,0.075 0.114,0.14 0.189,0.189 0.077,0.052 0.205,0.179 0.382,0.38 l 0.153,0.04 c 0.228,0.153 0.649,0.305 1.255,0.456 0.61,0.154 1.259,0.18 1.944,0.078 1.754,-0.281 2.705,-0.71 2.859,-1.295 0.051,-0.127 0.074,-0.318 0.074,-0.572 0,-0.279 -0.088,-0.571 -0.266,-0.875 -0.177,-0.331 -0.508,-0.6239998 -0.99,-0.8759998 -0.481,-0.002 -0.978,-0.002 -1.487,-0.002 z"
   id="path2" />
		</g>
	</g>
</g>
<g
   id="guides">
</g>
</svg>
