<?xml version="1.0" encoding="UTF-8" standalone="no"?>
<!-- Generator: Adobe Illustrator 16.0.0, SVG Export Plug-In . SVG Version: 6.00 Build 0)  -->

<svg
   version="1.1"
   x="0px"
   y="0px"
   width="22.833"
   height="29"
   viewBox="0 0 22.833 29"
   enable-background="new 0 0 18.833 32"
   xml:space="preserve"
   id="svg11"
   sodipodi:docname="molotov.svg"
   inkscape:version="1.1.1 (3bf5ae0d25, 2021-09-20)"
   xmlns:inkscape="http://www.inkscape.org/namespaces/inkscape"
   xmlns:sodipodi="http://sodipodi.sourceforge.net/DTD/sodipodi-0.dtd"
   xmlns="http://www.w3.org/2000/svg"
   xmlns:svg="http://www.w3.org/2000/svg"><defs
   id="defs15" /><sodipodi:namedview
   id="namedview13"
   pagecolor="#ffffff"
   bordercolor="#666666"
   borderopacity="1.0"
   inkscape:pageshadow="2"
   inkscape:pageopacity="0.0"
   inkscape:pagecheckerboard="0"
   showgrid="false"
   inkscape:zoom="13"
   inkscape:cx="-0.73076923"
   inkscape:cy="18.653846"
   inkscape:window-width="1920"
   inkscape:window-height="1017"
   inkscape:window-x="1912"
   inkscape:window-y="-8"
   inkscape:window-maximized="1"
   inkscape:current-layer="svg11"
   width="19.833px" />
<g
   id="Selected_Items"
   transform="matrix(1.0612662,0,0,1,3.0769167,-3.6923077)">
	<g
   id="g7">
		<g
   id="Selected_Items_58_">
			<path
   fill-rule="evenodd"
   clip-rule="evenodd"
   fill="#ffffff"
   fill-opacity="0.6"
   d="m 15.826,7.595 c 0.05,0.074 0.185,0.259 0.407,0.554 0.172,0.224 0.308,0.285 0.406,0.186 0.099,-0.099 0,-0.382 -0.295,-0.851 -0.321,-0.493 -0.271,-1.035 0.148,-1.628 0.049,0.247 0.345,0.617 0.888,1.11 0.543,0.518 0.875,1.023 0.999,1.517 0.049,0.246 0.061,0.493 0.037,0.739 -0.049,0.37 -0.148,0.666 -0.295,0.888 -0.247,0.321 -0.382,0.53 -0.407,0.63 -0.075,0.173 -0.013,0.382 0.185,0.629 0.172,0.245 0.123,0.578 -0.148,0.998 -0.173,0.246 -0.567,0.715 -1.183,1.405 -0.355,0.396 -0.879,0.618 -1.573,0.666 0.172,-0.279 0.351,-0.575 0.537,-0.887 0.099,0 0.161,-0.014 0.186,-0.038 l 1.11,-1.517 c 0.049,-0.099 -0.014,-0.259 -0.186,-0.48 -0.197,-0.222 -0.456,-0.456 -0.776,-0.704 -0.32,-0.22 -0.617,-0.381 -0.888,-0.48 -0.295,-0.122 -0.469,-0.136 -0.518,-0.036 l -1.11,1.517 h 0.038 c -0.024,0.05 -0.024,0.123 0,0.221 -0.425,0.508 -0.801,0.957 -1.128,1.351 -0.036,-0.027 -0.067,-0.059 -0.093,-0.091 -0.198,-0.271 -0.382,-0.642 -0.555,-1.11 -0.197,-0.666 -0.234,-1.208 -0.111,-1.627 0.198,-0.371 0.345,-0.642 0.444,-0.815 0.173,-0.345 0.173,-0.813 0,-1.405 l 0.407,0.148 c 0.32,0.173 0.555,0.444 0.702,0.813 0.075,0.124 0.111,0.457 0.111,0.999 0,0.418 0.011,0.555 0.037,0.406 0.295,-0.394 0.48,-0.801 0.554,-1.22 C 13.781,9.237 13.621,8.854 13.276,8.336 12.833,7.794 12.562,7.448 12.463,7.301 12.315,7.078 12.253,6.562 12.277,5.748 c 0.025,-0.839 0.148,-1.369 0.37,-1.591 0.05,0.518 0.271,0.974 0.666,1.368 0.198,0.196 0.728,0.419 1.59,0.666 0.346,0.099 0.555,0.309 0.629,0.629 0.121,0.442 0.22,0.7 0.294,0.775 z"
   id="path2" />
			<path
   fill-rule="evenodd"
   clip-rule="evenodd"
   fill="#ffffff"
   d="m 14.975,10.331 c 0.271,0.1 0.568,0.261 0.888,0.48 0.32,0.248 0.58,0.482 0.776,0.704 0.172,0.222 0.235,0.382 0.186,0.48 l -1.11,1.517 c -0.025,0.024 -0.087,0.038 -0.186,0.038 -1.356,2.269 -2.158,3.574 -2.404,3.92 -0.099,0.122 -0.21,0.803 -0.334,2.034 -0.147,1.208 -0.406,2.084 -0.776,2.626 L 5.58,31.157 C 5.383,31.329 4.939,31.342 4.248,31.194 3.509,30.997 2.793,30.651 2.104,30.157 1.413,29.666 0.858,29.097 0.438,28.457 0.068,27.864 -0.067,27.446 0.031,27.198 l 6.437,-9.062 c 0.37,-0.544 1.11,-1.072 2.22,-1.591 0.271,-0.123 0.641,-0.296 1.109,-0.518 0.346,-0.173 0.567,-0.32 0.667,-0.443 0.148,-0.224 1.122,-1.406 2.922,-3.553 -0.024,-0.098 -0.024,-0.171 0,-0.221 h -0.038 l 1.11,-1.517 c 0.048,-0.098 0.221,-0.084 0.517,0.038 z"
   id="path4" />
		</g>
	</g>
</g>
<g
   id="guides"
   transform="matrix(1.0612662,0,0,1,3.0769167,-3.6923077)">
</g>
</svg>
