<?xml version="1.0" encoding="UTF-8" standalone="no"?>
<!-- Generator: Adobe Illustrator 16.0.0, SVG Export Plug-In . SVG Version: 6.00 Build 0)  -->

<svg
   version="1.1"
   x="0px"
   y="0px"
   width="25.458px"
   height="32px"
   viewBox="0 0 25.458 32"
   enable-background="new 0 0 25.458 32"
   xml:space="preserve"
   id="svg11"
   sodipodi:docname="flashbang.svg"
   inkscape:version="1.1.1 (3bf5ae0d25, 2021-09-20)"
   xmlns:inkscape="http://www.inkscape.org/namespaces/inkscape"
   xmlns:sodipodi="http://sodipodi.sourceforge.net/DTD/sodipodi-0.dtd"
   xmlns="http://www.w3.org/2000/svg"
   xmlns:svg="http://www.w3.org/2000/svg"><defs
   id="defs15" /><sodipodi:namedview
   id="namedview13"
   pagecolor="#ffffff"
   bordercolor="#666666"
   borderopacity="1.0"
   inkscape:pageshadow="2"
   inkscape:pageopacity="0.0"
   inkscape:pagecheckerboard="0"
   showgrid="false"
   inkscape:zoom="13"
   inkscape:cx="-2.1153846"
   inkscape:cy="10.423077"
   inkscape:window-width="1920"
   inkscape:window-height="1017"
   inkscape:window-x="1912"
   inkscape:window-y="-8"
   inkscape:window-maximized="1"
   inkscape:current-layer="svg11" />
<g
   id="Selected_Items"
   transform="matrix(1,0,0,0.9577646,0,-0.29122051)">
	<g
   id="g7">
		<g
   id="Selected_Items_55_">
			<path
   fill-rule="evenodd"
   clip-rule="evenodd"
   fill="#ffffff"
   fill-opacity="0.302"
   d="m 19.192,7.81 5.917,0.906 -6.023,4.121 5.695,4.542 -5.319,0.705 1.238,6.83 -2.734,-1.576 0.011,-10.596 -3.441,-5.741 h -4.232 c -0.385,0 -0.641,0.038 -0.77,0.116 -0.231,0.102 -0.347,0.32 -0.347,0.654 0,0.513 0.308,0.808 0.924,0.885 v 1.539 l -1.156,1 H 8.417 c -0.359,0 -0.54,0.179 -0.54,0.539 l 0.38,2.323 0.641,0.945 -0.136,1.851 H 9.185 V 18.7 H 8.763 v 0.731 L 8.808,19.964 8.875,20.413 2.88,23.023 5.338,16.236 0,13.574 5.76,11.234 1.647,5.016 8.91,6.015 10.259,0.39 l 3.69,5.175 6.03,-2.97 z m -1.847,5.464 v 9.736 l -3.002,-1.854 0.135,-0.99 0.268,-0.741 -0.067,-0.608 -0.304,-0.169 v -1.855 l 0.472,-0.338 -0.27,-1.519 1.161,-0.754 -0.082,-2.013 z"
   id="path2" />
			<path
   fill-rule="evenodd"
   clip-rule="evenodd"
   fill="#ffffff"
   d="m 17.276,13.185 -1.54,-0.886 v 1.81 l -0.923,0.847 v 1.808 h -0.384 v 1.848 h 0.384 v 1.924 h -0.384 v 1.848 h 0.384 v 1.924 h -0.384 v 1.848 h 0.384 v 1.771 l 0.923,1.578 v 1.308 c 0,0.36 -0.18,0.539 -0.539,0.539 h -6.85 c -0.359,0 -0.54,-0.179 -0.54,-0.539 V 29.505 L 8.692,27.927 V 26.156 H 9.116 V 24.308 H 8.693 V 22.384 H 9.117 V 20.536 H 8.693 V 18.61 H 9.117 V 16.762 H 8.693 V 14.954 L 7.808,14.107 v -2.464 c 0,-0.359 0.181,-0.538 0.54,-0.538 h 0.538 l 1.155,-1.001 V 8.564 C 9.425,8.488 9.118,8.194 9.118,7.682 9.118,7.349 9.233,7.129 9.464,7.027 9.592,6.95 9.849,6.912 10.234,6.912 h 4.232 l 3.58,5.734 v 12.122 l -1.809,0.886 c -0.257,0.128 -0.45,0.09 -0.577,-0.116 -0.129,-0.23 -0.078,-0.448 0.153,-0.653 0.206,-0.18 0.514,-0.386 0.923,-0.616 l 0.54,-0.27 z"
   id="path4" />
		</g>
	</g>
</g>
<g
   id="guides"
   transform="matrix(1,0,0,0.9577646,0,-0.29122051)">
</g>
</svg>
