<?xml version="1.0" encoding="UTF-8" standalone="no"?>
<!-- Generator: Adobe Illustrator 16.0.0, SVG Export Plug-In . SVG Version: 6.00 Build 0)  -->

<svg
   version="1.1"
   x="0px"
   y="0px"
   width="19.438"
   height="26.299999"
   viewBox="0 0 19.438 26.299999"
   enable-background="new 0 0 19.438 32"
   xml:space="preserve"
   id="svg9"
   sodipodi:docname="hegrenade.svg"
   inkscape:version="1.1.1 (3bf5ae0d25, 2021-09-20)"
   xmlns:inkscape="http://www.inkscape.org/namespaces/inkscape"
   xmlns:sodipodi="http://sodipodi.sourceforge.net/DTD/sodipodi-0.dtd"
   xmlns="http://www.w3.org/2000/svg"
   xmlns:svg="http://www.w3.org/2000/svg"><defs
   id="defs13" /><sodipodi:namedview
   id="namedview11"
   pagecolor="#ffffff"
   bordercolor="#666666"
   borderopacity="1.0"
   inkscape:pageshadow="2"
   inkscape:pageopacity="0.0"
   inkscape:pagecheckerboard="0"
   showgrid="false"
   inkscape:zoom="26"
   inkscape:cx="10.365385"
   inkscape:cy="12.788462"
   inkscape:window-width="1920"
   inkscape:window-height="1017"
   inkscape:window-x="1912"
   inkscape:window-y="-8"
   inkscape:window-maximized="1"
   inkscape:current-layer="svg9" />
<g
   id="Selected_Items"
   transform="matrix(0.94240821,0,0,0.94240821,0.55803572,-4.7993344)">
	<g
   id="g5">
		<g
   id="Selected_Items_57_">
			<path
   fill-rule="evenodd"
   clip-rule="evenodd"
   fill="#ffffff"
   d="m 14.917,11.512 c 0,0.024 0,0.049 0,0.072 0.022,0.023 0.034,0.048 0.034,0.072 0,0.023 0.012,0.047 0.036,0.072 v 0.035 c 0.025,0.023 0.037,0.048 0.037,0.072 0.024,0.023 0.047,0.047 0.071,0.071 v 0.036 c 0,0.024 0.013,0.035 0.036,0.035 0,0.024 0,0.048 0,0.072 0.025,0.023 0.036,0.048 0.036,0.072 0,0.024 0.012,0.048 0.037,0.073 l 0.035,0.035 c 0,0.024 0,0.047 0,0.071 0.025,0.023 0.037,0.048 0.037,0.071 l 0.036,0.037 v 0.035 c 0,0.023 0,0.049 0,0.073 0.024,0.024 0.048,0.046 0.072,0.071 0,0.024 0.011,0.047 0.034,0.073 l 0.036,0.036 c 0,0.023 0,0.047 0,0.071 0.024,0.023 0.037,0.048 0.037,0.072 v 0.036 c 0.023,0 0.035,0.011 0.035,0.035 0,0.022 0,0.048 0,0.071 0.025,0.023 0.036,0.048 0.036,0.072 0.024,0.023 0.036,0.047 0.036,0.072 0.023,0 0.036,0.013 0.036,0.036 0.023,0.023 0.037,0.047 0.037,0.072 0.023,0.024 0.034,0.047 0.034,0.071 0.025,0 0.048,0 0.071,0 0,0.024 0.024,0.037 0.073,0.037 0.024,0.022 0.047,0.046 0.071,0.07 0.023,0.024 0.037,0.047 0.037,0.072 0.022,0.024 0.035,0.048 0.035,0.071 v 0.073 c 0.023,0.022 0.036,0.046 0.036,0.069 0,0.026 0.013,0.048 0.036,0.071 v 0.038 c 0,0.023 0.011,0.046 0.036,0.07 0,0.024 0,0.047 0,0.073 0.024,0.024 0.036,0.047 0.036,0.071 0.024,0 0.037,0.012 0.037,0.035 v 0.037 c 0.024,0.023 0.036,0.046 0.036,0.071 0,0.024 0,0.048 0,0.073 l 0.035,0.036 c 0,0.023 0.011,0.045 0.037,0.07 0,0.024 0.012,0.049 0.036,0.072 0,0.023 0,0.047 0,0.072 0.025,0 0.036,0.011 0.036,0.036 l 0.035,0.037 c 0.025,0.023 0.036,0.046 0.036,0.071 0.024,0.026 0.036,0.048 0.036,0.071 v 0.037 c 0.023,0.023 0.036,0.047 0.036,0.071 0.023,0.025 0.037,0.049 0.037,0.072 l 0.034,0.035 c 0.025,0.024 0.036,0.047 0.036,0.07 l 0.037,0.038 c 0,0.023 0,0.046 0,0.072 0.023,0.023 0.034,0.047 0.034,0.071 l 0.037,0.036 c 0,0.022 0.012,0.047 0.036,0.072 0,0.023 0.011,0.049 0.034,0.071 v 0.036 c 0.026,0.024 0.038,0.047 0.038,0.072 l 0.034,0.036 c 0.025,0.023 0.037,0.047 0.037,0.071 0,0.024 0.012,0.036 0.035,0.036 0,0.023 0,0.048 0,0.072 0.024,0.024 0.036,0.047 0.036,0.072 0.024,0.023 0.036,0.048 0.036,0.072 l 0.037,0.035 c 0.023,0.024 0.036,0.049 0.036,0.072 l 0.035,0.036 c 0,0.024 0,0.047 0,0.072 l 0.035,0.035 c 0,0.026 0,0.048 0,0.071 0,0.024 0.013,0.049 0.037,0.072 0,0.024 0,0.049 0,0.073 0.023,0 0.036,0.011 0.036,0.034 0.024,0.023 0.035,0.048 0.035,0.073 v 0.035 c 0.025,0.024 0.049,0.047 0.072,0.072 l 0.037,0.037 c 0,0.023 0,0.047 0,0.071 0,0.024 0.012,0.048 0.035,0.071 0,0.024 0,0.049 0,0.072 0.024,0 0.037,0.012 0.037,0.035 0,0.025 0,0.049 0,0.073 l 0.035,0.037 c 0,0.023 0,0.046 0,0.069 l 0.036,0.039 c 0,0.022 0.012,0.045 0.035,0.069 0,0.023 0.013,0.047 0.037,0.071 v 0.037 c 0,0.025 0,0.047 0,0.072 0.023,0.023 0.036,0.048 0.036,0.071 l 0.037,0.037 c 0.023,0.022 0.046,0.047 0.072,0.07 v 0.037 c 0.024,0.024 0.035,0.048 0.035,0.072 0,0.023 0,0.047 0,0.071 l 0.036,0.036 c 0.024,0.023 0.036,0.049 0.036,0.071 0,0.024 0,0.049 0,0.074 l 0.037,0.035 v 0.035 c 0.024,0.024 0.047,0.048 0.071,0.073 0,0.023 0.012,0.047 0.036,0.07 0,0.024 0.012,0.049 0.035,0.074 0,0.022 0.013,0.036 0.036,0.036 0,0.023 0,0.047 0,0.07 0,0.025 0,0.048 0,0.073 l 0.071,0.072 c 0.025,0.023 0.048,0.047 0.072,0.07 0,0.024 0,0.049 0,0.072 0.024,0.023 0.048,0.049 0.072,0.074 v 0.034 c 0.023,0.024 0.035,0.048 0.035,0.073 0.025,0.023 0.037,0.048 0.037,0.071 v 0.036 c 0.023,0.024 0.047,0.037 0.072,0.037 0,0.024 0.012,0.048 0.036,0.072 0,0.023 0.012,0.047 0.036,0.071 0,0.024 0.011,0.048 0.036,0.071 v 0.035 c 0,0.025 0,0.049 0,0.073 0.023,0.023 0.034,0.047 0.034,0.071 l 0.037,0.037 c 0.024,0 0.047,0.011 0.072,0.036 0,0.024 0,0.049 0,0.071 0.023,0.025 0.035,0.048 0.035,0.072 l 0.036,0.035 v 0.037 c 0,0.024 0,0.047 0,0.071 v 0.037 c 0.025,0 0.049,0.011 0.073,0.034 0,0.025 0.011,0.05 0.034,0.072 0.024,0 0.036,0.011 0.036,0.035 0,0.023 0.013,0.048 0.036,0.071 v 0.037 c 0,0.024 0,0.047 0,0.071 v 0.037 c 0,0.023 0,0.047 0,0.07 0,0.023 0,0.049 0,0.072 0,0.025 0,0.049 0,0.073 -0.023,0 -0.036,0.011 -0.036,0.034 0,0.025 0,0.048 0,0.072 l -0.036,0.036 c 0,0.143 0,0.286 0,0.43 0,0.167 0,0.333 0,0.5 0,0.167 0,0.334 0,0.501 0,0.192 0,0.37 0,0.538 0,0.189 0,0.37 0,0.537 0,0.192 0,0.357 0,0.501 0,0.12 0,0.227 0,0.324 0,0.023 0,0.046 0,0.07 v 0.144 c 0,0.022 0,0.047 0,0.071 v 0.106 c 0,0.024 0,0.049 0,0.074 0,0.023 0,0.047 0,0.071 v 0.036 c 0,0.023 0,0.046 0,0.071 v 0.036 c 0,0.024 0,0.048 0,0.071 0,0.024 0,0.048 0,0.071 l 0.036,0.037 c 0,0.025 0,0.048 0,0.071 0,0.025 0.013,0.048 0.036,0.071 v 0.037 c 0,0.024 0,0.048 0,0.072 v 0.035 c 0,0.023 0,0.047 0,0.071 v 0.037 c 0,0.023 0,0.047 0,0.07 0,0.025 0,0.048 0,0.073 0,0.024 0,0.047 0,0.07 v 0.037 c 0,0.023 0,0.047 0,0.072 v 0.036 c 0,0.024 0,0.048 0,0.072 v 0.037 c 0,0.022 0,0.045 0,0.07 0,0.025 0,0.048 0,0.072 0,0.024 0,0.047 0,0.071 v 0.037 c 0,0.023 0,0.048 0,0.071 l 0.036,0.036 c 0,0.024 0,0.046 0,0.07 l 0.036,0.038 c 0,0.023 0,0.047 0,0.071 0,0.023 0,0.046 0,0.071 0,0.025 0,0.048 0,0.07 v 0.038 c 0,0.024 0,0.047 0,0.071 v 0.037 c 0,0.023 0,0.047 0,0.071 v 0.037 c 0,0.024 0,0.046 0,0.071 0,0.025 0,0.049 0,0.071 v 0.036 c 0,0.024 0,0.049 0,0.072 0,0.023 0,0.048 0,0.071 v 0.036 c 0,0.024 0,0.048 0,0.073 v 0.037 c 0,0.023 0,0.047 0,0.07 0,0.024 0,0.049 0,0.073 v 0.036 c 0,0.024 0,0.047 0,0.071 0,0.023 0,0.048 0,0.072 v 0.071 c 0,0.023 0,0.048 0,0.071 0,0.024 0,0.047 0,0.072 0,0.025 0,0.049 0,0.072 l 0.035,0.036 c 0,0.023 0.012,0.048 0.036,0.072 0,0.023 0,0.048 0,0.072 v 0.07 c 0,0.024 0,0.049 0,0.072 0,0.024 0,0.047 0,0.072 0,0.023 0,0.047 0,0.071 v 0.035 c 0,0.024 0,0.049 0,0.072 0,0.024 0,0.047 0,0.072 v 0.071 c 0,0.024 0,0.047 0,0.072 0,0.025 0,0.049 0,0.071 0,0.025 0,0.05 0,0.074 v 0.035 c 0,0.023 0,0.048 0,0.071 0,0.024 0,0.048 0,0.073 v 0.071 c 0,0.024 0,0.047 0,0.07 0,0.024 0,0.048 0,0.071 0,0.025 0,0.049 0,0.074 -0.024,0 -0.036,0.011 -0.036,0.035 0,0.024 0,0.049 0,0.072 -0.024,0.022 -0.035,0.046 -0.035,0.072 v 0.071 c 0,0.024 0,0.048 0,0.072 0,0.024 0,0.047 0,0.071 v 0.037 c 0,0.022 0,0.046 0,0.07 0,0.023 0,0.048 0,0.072 0,0.023 0,0.048 0,0.071 v 0.073 c 0,0.022 0,0.046 0,0.071 0,0.023 0,0.048 0,0.072 v 0.034 c 0,0.026 0,0.05 0,0.073 0,0.023 0,0.046 0,0.073 0,0.022 0,0.046 0,0.07 0,0.024 0,0.049 0,0.072 0,0.024 0,0.049 0,0.073 0,0.022 0,0.047 0,0.071 v 0.035 c 0,0.025 0,0.048 0,0.071 0,0.024 0,0.049 0,0.073 0,0.024 0,0.048 0,0.072 0,0.025 -0.013,0.048 -0.036,0.071 0,0.024 0,0.049 0,0.072 0,0.023 -0.013,0.047 -0.036,0.072 l -0.036,0.036 c 0,0.024 -0.012,0.047 -0.036,0.07 -0.023,0.024 -0.034,0.048 -0.034,0.072 -0.024,0.025 -0.037,0.048 -0.037,0.072 h -0.037 c 0,0.024 -0.011,0.048 -0.036,0.072 H 18.64 c -0.072,0.025 -0.12,0.048 -0.143,0.071 -0.048,0 -0.095,0.012 -0.144,0.035 -0.072,0 -0.155,0 -0.251,0 -0.048,-0.023 -0.094,-0.035 -0.142,-0.035 -0.024,-0.023 -0.06,-0.046 -0.107,-0.071 0,-0.024 -0.013,-0.048 -0.037,-0.072 v -0.035 c 0,-0.024 0,-0.048 0,-0.072 0,-0.025 0,-0.048 0,-0.071 0,-0.023 0,-0.048 0,-0.072 v -0.037 l 0.037,-0.035 c 0.024,-0.023 0.047,-0.048 0.071,-0.072 0.024,-0.023 0.048,-0.046 0.071,-0.071 0.048,0 0.096,0 0.143,0 0.024,-0.023 0.048,-0.047 0.071,-0.072 0,-0.073 0,-0.131 0,-0.178 0,-0.167 0,-0.348 0,-0.537 0,-0.167 0,-0.347 0,-0.538 0,-0.166 0,-0.335 0,-0.501 0,-0.168 0,-0.334 0,-0.501 0,-0.192 0,-0.37 0,-0.537 0,-0.192 0,-0.371 0,-0.537 0,-0.166 0,-0.335 0,-0.502 0,-0.167 0,-0.346 0,-0.536 0,-0.168 0,-0.347 0,-0.536 0,-0.145 0,-0.312 0,-0.503 0,-0.048 0,-0.106 0,-0.179 V 24.52 c 0,-0.023 0,-0.048 0,-0.072 v -0.036 c 0,-0.024 0,-0.046 0,-0.071 v -0.072 c 0,-0.025 0,-0.048 0,-0.071 v -0.145 c 0,-0.023 0,-0.047 0,-0.07 v -0.109 c -0.022,-0.023 -0.035,-0.046 -0.035,-0.071 -0.024,-0.024 -0.047,-0.037 -0.072,-0.037 0,-0.023 0,-0.047 0,-0.071 V 23.66 c 0,-0.023 0,-0.047 0,-0.073 0,-0.024 0,-0.046 0,-0.071 V 23.48 c 0,-0.023 0,-0.048 0,-0.073 0,-0.023 0,-0.046 0,-0.07 V 23.3 c 0,-0.023 0,-0.047 0,-0.071 v -0.037 c 0,-0.023 0,-0.048 0,-0.072 v -0.036 c 0,-0.023 0,-0.047 0,-0.07 0,-0.023 0,-0.047 0,-0.072 0,-0.023 0,-0.048 0,-0.071 V 22.834 C 18.079,22.81 18.067,22.788 18.067,22.763 v -0.037 c -0.024,-0.023 -0.036,-0.047 -0.036,-0.072 v -0.036 c 0,-0.023 0,-0.047 0,-0.07 0,-0.024 0,-0.049 0,-0.074 0,-0.024 0,-0.046 0,-0.07 v -0.035 c 0,-0.024 0,-0.048 0,-0.072 v -0.036 c 0,-0.024 0,-0.048 0,-0.071 v -0.037 c 0,-0.022 0,-0.047 0,-0.07 0,-0.026 0,-0.05 0,-0.073 0,-0.023 0,-0.047 0,-0.071 v -0.037 c 0,-0.023 0,-0.047 0,-0.071 V 21.79 c 0,-0.024 0,-0.048 0,-0.072 v -0.036 c 0,-0.023 0,-0.045 0,-0.07 0,-0.025 0,-0.048 0,-0.072 -0.023,-0.024 -0.048,-0.047 -0.071,-0.071 v -0.037 c 0,-0.023 0,-0.047 0,-0.071 v -0.037 c 0,-0.023 0,-0.046 0,-0.071 v -0.036 c 0,-0.023 0,-0.049 0,-0.073 0,-0.023 0,-0.047 0,-0.071 V 21.037 C 17.936,21.015 17.924,20.99 17.924,20.967 17.9,20.943 17.889,20.918 17.889,20.895 v -0.072 c 0,-0.024 0,-0.048 0,-0.073 0,-0.023 0,-0.046 0,-0.071 0,-0.025 0,-0.048 0,-0.072 l -0.036,-0.035 c -0.024,-0.024 -0.037,-0.049 -0.037,-0.072 0,-0.023 0,-0.048 0,-0.071 v -0.072 c 0,-0.022 0,-0.049 0,-0.071 -0.024,-0.024 -0.036,-0.047 -0.036,-0.072 0,-0.025 0,-0.049 0,-0.071 -0.024,0 -0.036,-0.013 -0.036,-0.036 0,-0.025 -0.011,-0.048 -0.035,-0.073 0,-0.023 0,-0.048 0,-0.071 -0.025,0 -0.048,-0.012 -0.072,-0.036 V 19.89 c 0,-0.023 0,-0.047 0,-0.071 0,-0.024 0,-0.048 0,-0.072 0,-0.023 0,-0.047 0,-0.071 v -0.035 c 0,-0.026 0,-0.049 0,-0.071 0,-0.026 0,-0.049 0,-0.073 -0.025,0 -0.037,-0.011 -0.037,-0.036 -0.024,0 -0.036,-0.012 -0.036,-0.037 0,-0.023 -0.012,-0.047 -0.037,-0.07 0,-0.024 -0.011,-0.047 -0.035,-0.072 0,-0.023 0,-0.048 0,-0.071 -0.023,0 -0.036,-0.012 -0.036,-0.037 0,-0.023 -0.011,-0.048 -0.035,-0.071 -0.024,-0.024 -0.037,-0.048 -0.037,-0.073 -0.023,0 -0.035,-0.011 -0.035,-0.035 V 18.96 c -0.024,-0.024 -0.037,-0.047 -0.037,-0.071 -0.023,-0.024 -0.047,-0.049 -0.072,-0.072 0,-0.024 -0.011,-0.036 -0.035,-0.036 0,-0.025 -0.013,-0.048 -0.036,-0.072 0,-0.023 0,-0.047 0,-0.071 -0.024,-0.025 -0.037,-0.049 -0.037,-0.073 V 18.531 L 17.1,18.495 c 0,-0.024 -0.011,-0.047 -0.035,-0.071 0,-0.024 -0.013,-0.049 -0.036,-0.07 0,-0.027 -0.013,-0.037 -0.037,-0.037 0,-0.025 0,-0.049 0,-0.072 -0.023,-0.024 -0.036,-0.048 -0.036,-0.073 -0.024,-0.023 -0.036,-0.047 -0.036,-0.07 h -0.035 c 0,-0.025 0,-0.048 0,-0.073 0,-0.025 -0.011,-0.047 -0.037,-0.071 0,-0.024 0,-0.047 0,-0.073 -0.023,-0.023 -0.045,-0.035 -0.072,-0.035 0,-0.023 -0.011,-0.048 -0.034,-0.07 -0.024,0 -0.048,0 -0.073,0 -0.023,-0.025 -0.058,-0.049 -0.107,-0.074 -0.024,-0.022 -0.034,-0.047 -0.034,-0.071 -0.025,0 -0.049,-0.011 -0.073,-0.036 0,-0.023 0,-0.048 0,-0.071 -0.024,-0.024 -0.036,-0.047 -0.036,-0.072 l -0.036,-0.037 c 0,-0.023 0,-0.048 0,-0.07 -0.023,0 -0.046,-0.014 -0.071,-0.037 -0.024,-0.023 -0.048,-0.047 -0.073,-0.071 0,-0.025 -0.012,-0.047 -0.035,-0.072 v -0.037 c 0,-0.023 -0.012,-0.048 -0.036,-0.071 0,-0.024 -0.012,-0.047 -0.037,-0.069 0,-0.027 -0.012,-0.039 -0.036,-0.039 0,-0.023 0,-0.046 0,-0.069 -0.025,0 -0.036,-0.012 -0.036,-0.037 -0.023,-0.023 -0.048,-0.048 -0.071,-0.073 V 16.74 c 0,-0.023 -0.013,-0.048 -0.035,-0.072 0,-0.023 0,-0.046 0,-0.071 -0.024,-0.024 -0.048,-0.047 -0.072,-0.071 l -0.036,-0.037 c -0.024,-0.025 -0.049,-0.048 -0.073,-0.072 v -0.035 c 0,-0.024 0,-0.049 0,-0.073 v -0.034 c -0.023,-0.024 -0.046,-0.048 -0.071,-0.073 -0.023,-0.023 -0.048,-0.048 -0.071,-0.072 0,-0.023 -0.013,-0.045 -0.036,-0.071 L 15.558,16.024 C 15.535,16 15.522,15.976 15.522,15.952 l -0.035,-0.036 c 0,-0.023 0,-0.047 0,-0.072 -0.024,0 -0.037,-0.013 -0.037,-0.035 -0.024,-0.024 -0.047,-0.049 -0.07,-0.072 0,-0.024 -0.013,-0.047 -0.036,-0.072 -0.025,-0.023 -0.036,-0.048 -0.036,-0.072 l -0.036,-0.036 c -0.024,-0.023 -0.037,-0.047 -0.037,-0.071 -0.023,0 -0.047,-0.011 -0.072,-0.036 0,-0.024 0,-0.048 0,-0.072 -0.024,0 -0.036,-0.012 -0.036,-0.036 -0.023,-0.022 -0.036,-0.048 -0.036,-0.071 -0.023,-0.025 -0.047,-0.049 -0.071,-0.072 0,-0.024 -0.012,-0.036 -0.037,-0.036 0,-0.023 -0.012,-0.048 -0.036,-0.071 C 14.924,15.066 14.9,15.043 14.876,15.02 L 14.84,14.982 c -0.023,-0.023 -0.047,-0.046 -0.072,-0.07 l -0.033,-0.035 c 0,-0.022 -0.013,-0.046 -0.038,-0.072 0,-0.024 0,-0.048 0,-0.071 -0.023,-0.023 -0.047,-0.037 -0.071,-0.037 0,-0.023 -0.012,-0.045 -0.036,-0.071 -0.024,-0.024 -0.037,-0.048 -0.037,-0.071 -0.023,0 -0.036,-0.012 -0.036,-0.037 -0.023,-0.025 -0.048,-0.036 -0.07,-0.036 -0.025,-0.024 -0.036,-0.048 -0.036,-0.072 0,-0.023 -0.013,-0.048 -0.036,-0.072 -0.908,0 -1.827,0.013 -2.758,0.036 0,0.024 -0.012,0.036 -0.036,0.036 0,0.023 -0.011,0.047 -0.035,0.072 v 0.036 c 0,0.024 0,0.049 0,0.072 0,0.023 0,0.047 0,0.072 v 0.035 c 0,0.024 0,0.048 0,0.073 0,0.023 0,0.048 0,0.071 v 0.071 c 0,0.024 0,0.047 0,0.07 0,0.026 0,0.049 0,0.073 0,0.023 0,0.048 0,0.071 v 0.037 c 0,0.023 0,0.047 0,0.072 0,0.023 0,0.048 0,0.071 v 0.072 c 0,0.024 0,0.047 0,0.072 0,0.025 0,0.048 0,0.071 0,0.024 0,0.049 0,0.072 v 0.036 c 0,0.023 0,0.047 0,0.072 0,0.023 0,0.048 0,0.073 v 0.07 c 0,0.024 0,0.049 0,0.072 0,0.023 0,0.048 0,0.072 0,0.023 0,0.046 0,0.071 v 0.036 c 0,0.024 0,0.049 0,0.072 0,0.025 0,0.048 0,0.072 v 0.07 c 0,0.023 0,0.048 0,0.073 0,0.023 0,0.046 0,0.071 v 0.036 c 0,0.023 0,0.047 0,0.072 0.024,0 0.047,0 0.071,0 0.024,0 0.047,0 0.072,0 0.071,0 0.144,0.011 0.214,0.035 0,0.024 0.012,0.037 0.037,0.037 0.094,0.022 0.166,0.034 0.215,0.034 0.047,0 0.095,0.013 0.143,0.037 0.025,0 0.048,0 0.072,0 0.143,0.023 0.299,0.035 0.465,0.035 0.072,0 0.131,0 0.18,0 0.022,0.024 0.047,0.035 0.071,0.035 0.024,0.025 0.047,0.038 0.071,0.038 0.048,0 0.085,0.012 0.108,0.035 h 0.037 c 0.095,0.024 0.178,0.037 0.25,0.037 0.07,0 0.131,0.011 0.179,0.036 0.023,0.023 0.048,0.034 0.071,0.034 0.024,0 0.048,0 0.072,0 0.048,0 0.083,0.012 0.107,0.039 0.025,0 0.049,0 0.072,0 0.047,0.022 0.097,0.032 0.143,0.032 0.048,0 0.109,0.013 0.18,0.037 0.023,0.023 0.047,0.047 0.072,0.071 0.047,0.024 0.083,0.037 0.106,0.037 h 0.073 c 0.071,0 0.141,0.012 0.213,0.037 0.025,0.022 0.049,0.047 0.073,0.071 0.022,0.024 0.058,0.048 0.107,0.072 0.047,0.022 0.095,0.047 0.143,0.07 0.024,0 0.061,0.012 0.108,0.037 0.023,0.024 0.06,0.036 0.108,0.036 0.046,0.024 0.094,0.048 0.142,0.07 0,0.025 0.025,0.049 0.072,0.072 l 0.036,0.037 c 0.023,0.023 0.048,0.047 0.071,0.071 0.025,0.023 0.048,0.047 0.071,0.072 v 0.035 c 0.049,0.024 0.084,0.048 0.109,0.073 0.024,0.023 0.058,0.035 0.107,0.035 0,0.024 0.023,0.047 0.071,0.071 0,0.024 0.011,0.048 0.036,0.073 0.024,0 0.048,0.013 0.072,0.036 0.024,0.023 0.036,0.045 0.036,0.07 0.023,0.026 0.046,0.049 0.071,0.073 0.024,0.023 0.048,0.036 0.072,0.036 0.023,0.023 0.047,0.047 0.071,0.07 l 0.036,0.037 c 0.023,0.024 0.047,0.047 0.073,0.071 0,0.023 0.01,0.038 0.034,0.038 0,0.023 0.013,0.047 0.036,0.07 0.024,0.024 0.037,0.047 0.037,0.072 0.023,0.023 0.034,0.048 0.034,0.071 l 0.037,0.037 c 0.024,0.024 0.036,0.048 0.036,0.072 l 0.034,0.036 c 0,0.024 0,0.047 0,0.071 l 0.038,0.035 c 0,0.024 0,0.047 0,0.071 0.022,0.023 0.034,0.048 0.034,0.071 0.025,0.024 0.037,0.049 0.037,0.073 v 0.036 c 0.023,0.024 0.035,0.049 0.035,0.071 v 0.037 c 0.024,0.023 0.049,0.047 0.072,0.07 v 0.037 c 0,0.024 0.012,0.047 0.037,0.071 0,0.023 0,0.048 0,0.071 0,0.025 0,0.05 0,0.072 0.023,0 0.036,0.011 0.036,0.035 0.024,0.023 0.035,0.048 0.035,0.071 v 0.037 c 0.024,0.024 0.035,0.047 0.035,0.071 v 0.037 c 0,0.023 0,0.047 0,0.07 0,0.023 0.013,0.049 0.037,0.072 0,0.025 0,0.049 0,0.073 v 0.034 c 0.023,0.025 0.036,0.048 0.036,0.072 l 0.035,0.036 c 0,0.022 0,0.048 0,0.071 0.025,0 0.036,0.012 0.036,0.036 0,0.024 0,0.047 0,0.07 0,0.025 0.013,0.049 0.036,0.073 v 0.036 c 0,0.023 0.012,0.048 0.037,0.072 0,0.023 0,0.047 0,0.072 v 0.034 c 0,0.025 0.012,0.048 0.035,0.073 v 0.036 c 0.024,0.023 0.037,0.048 0.037,0.071 0.024,0.024 0.035,0.048 0.035,0.072 l 0.036,0.035 c 0.024,0.024 0.035,0.048 0.035,0.072 0.025,0.024 0.037,0.049 0.037,0.072 v 0.072 c 0,0.024 0.012,0.048 0.036,0.071 0,0.025 0,0.049 0,0.072 0,0.023 0.011,0.049 0.037,0.073 v 0.035 c 0.023,0.024 0.035,0.048 0.035,0.072 0.024,0.024 0.037,0.049 0.037,0.073 v 0.034 l 0.035,0.036 c 0,0.024 0,0.048 0,0.072 0,0.024 0,0.047 0,0.071 0,0.023 0,0.049 0,0.072 v 0.035 c 0,0.025 0,0.049 0,0.072 0.023,0.025 0.036,0.048 0.036,0.072 v 0.035 l 0.036,0.037 c 0,0.023 0,0.046 0,0.071 0,0.023 0,0.049 0,0.072 0,0.022 0,0.049 0,0.071 v 0.036 c 0,0.024 0,0.047 0,0.071 0,0.024 0,0.048 0,0.071 v 0.072 c 0,0.025 0,0.049 0,0.072 0,0.025 0,0.047 0,0.072 v 0.036 c 0,0.024 0,0.049 0,0.072 0,0.024 0,0.047 0,0.072 0,0.023 0,0.045 0,0.07 v 0.072 c 0,0.024 0,0.049 0,0.072 0,0.024 0,0.048 0,0.072 v 0.036 c 0,0.024 0,0.047 0,0.072 0,0.023 0,0.048 0,0.072 0,0.024 0,0.047 0,0.071 0,0.024 0,0.047 0,0.071 0,0.025 0,0.049 0,0.073 0,0.024 0,0.047 0,0.07 v 0.036 c 0,0.024 0,0.048 0,0.073 0,0.022 0,0.047 0,0.071 -0.024,0.025 -0.036,0.047 -0.036,0.072 -0.024,0.023 -0.036,0.046 -0.036,0.07 0,0.025 0,0.048 0,0.073 0,0.023 0,0.047 0,0.072 v 0.035 c 0,0.023 0,0.048 0,0.072 0,0.024 0,0.048 0,0.071 0,0.024 0,0.048 0,0.071 0,0.024 -0.011,0.049 -0.035,0.072 0,0.023 0,0.047 0,0.071 0,0.024 -0.013,0.046 -0.037,0.072 l -0.035,0.035 c 0,0.023 0,0.049 0,0.072 0,0.023 0,0.047 0,0.071 L 17.6,24.869 v 0.035 c -0.024,0.023 -0.036,0.048 -0.036,0.072 0,0.022 0,0.047 0,0.072 0,0.023 0,0.046 0,0.07 v 0.036 c -0.024,0.023 -0.037,0.049 -0.037,0.072 -0.023,0.024 -0.035,0.048 -0.035,0.072 l -0.036,0.037 v 0.034 c -0.023,0.024 -0.035,0.048 -0.035,0.072 0,0.024 0,0.048 0,0.072 0,0.023 -0.012,0.035 -0.037,0.035 0,0.023 0,0.049 0,0.073 -0.023,0.023 -0.035,0.047 -0.035,0.071 0,0.024 0,0.046 0,0.07 l -0.072,0.073 c 0,0.023 -0.011,0.048 -0.036,0.072 0,0.023 0,0.048 0,0.071 0,0.024 -0.011,0.035 -0.035,0.035 0,0.025 -0.013,0.049 -0.036,0.074 0,0.023 -0.012,0.048 -0.037,0.072 0,0.023 0,0.047 0,0.071 L 17.1,26.267 v 0.035 c -0.022,0.024 -0.048,0.048 -0.071,0.073 0,0.023 0,0.046 0,0.07 -0.024,0 -0.037,0.013 -0.037,0.036 0,0.025 0,0.047 0,0.072 -0.023,0.023 -0.036,0.046 -0.036,0.07 0,0.024 -0.012,0.048 -0.036,0.073 v 0.037 l -0.035,0.035 c 0,0.023 -0.011,0.049 -0.037,0.072 0,0.023 0,0.046 0,0.071 l -0.034,0.036 c 0,0.022 -0.011,0.048 -0.038,0.072 0,0.023 0,0.046 0,0.07 l -0.034,0.036 c -0.024,0.023 -0.036,0.048 -0.036,0.071 l -0.037,0.037 c 0,0.023 -0.011,0.047 -0.034,0.072 0,0.023 0,0.047 0,0.072 l -0.037,0.036 c 0,0.022 -0.011,0.048 -0.036,0.072 0,0.023 -0.012,0.046 -0.034,0.07 0,0.023 -0.014,0.036 -0.037,0.036 -0.024,0.024 -0.036,0.049 -0.036,0.072 0,0.024 -0.012,0.037 -0.036,0.037 0,0.022 -0.011,0.046 -0.036,0.07 0,0.024 -0.011,0.037 -0.035,0.037 0,0.023 -0.011,0.047 -0.036,0.07 0,0.024 -0.012,0.049 -0.036,0.072 -0.025,0.024 -0.048,0.048 -0.071,0.072 v 0.036 c -0.024,0.024 -0.036,0.047 -0.036,0.072 -0.024,0.024 -0.048,0.036 -0.072,0.036 0,0.023 -0.012,0.048 -0.036,0.071 0,0.025 -0.012,0.038 -0.036,0.038 0,0.022 -0.012,0.046 -0.036,0.07 0,0.024 0,0.048 0,0.071 -0.024,0.025 -0.049,0.049 -0.072,0.073 -0.023,0 -0.047,0.011 -0.071,0.036 -0.024,0.024 -0.049,0.047 -0.073,0.07 v 0.035 c -0.023,0.024 -0.046,0.048 -0.071,0.073 0,0.025 -0.011,0.037 -0.034,0.037 0,0.023 -0.014,0.047 -0.037,0.07 0,0.024 -0.013,0.047 -0.036,0.072 -0.023,0.024 -0.047,0.048 -0.072,0.071 l -0.035,0.037 c -0.024,0.024 -0.037,0.048 -0.037,0.072 -0.047,0.024 -0.083,0.035 -0.106,0.035 -0.025,0.025 -0.036,0.048 -0.036,0.073 l -0.036,0.034 c -0.048,0.024 -0.084,0.047 -0.108,0.071 -0.048,0.025 -0.083,0.048 -0.107,0.073 -0.024,0.024 -0.047,0.048 -0.072,0.071 -0.024,0 -0.048,0.011 -0.07,0.037 -0.024,0.022 -0.037,0.046 -0.037,0.071 -0.024,0.023 -0.047,0.035 -0.071,0.035 -0.047,0.024 -0.096,0.048 -0.144,0.071 -0.024,0 -0.059,0.013 -0.108,0.037 -0.048,0.024 -0.084,0.047 -0.106,0.072 -0.025,0.024 -0.049,0.047 -0.072,0.072 -0.023,0.025 -0.047,0.035 -0.071,0.035 -0.049,0.024 -0.085,0.049 -0.109,0.072 -0.046,0.024 -0.096,0.049 -0.143,0.073 -0.047,0.022 -0.083,0.035 -0.107,0.035 0,0.024 -0.012,0.047 -0.035,0.071 l -0.037,0.036 c -0.047,0.024 -0.083,0.048 -0.106,0.072 -0.024,0.025 -0.049,0.036 -0.073,0.036 -0.048,0.024 -0.095,0.037 -0.143,0.037 -0.024,0.023 -0.048,0.035 -0.072,0.035 -0.05,0 -0.083,0.012 -0.107,0.036 -0.071,0.024 -0.119,0.049 -0.144,0.072 -0.048,0.024 -0.084,0.036 -0.108,0.036 -0.047,0.023 -0.084,0.035 -0.106,0.035 -0.073,0 -0.132,0.012 -0.18,0.037 -0.024,0 -0.047,0 -0.072,0 -0.046,0.023 -0.094,0.036 -0.141,0.036 -0.051,0.024 -0.098,0.036 -0.146,0.036 -0.046,0.023 -0.083,0.046 -0.106,0.071 -0.047,0.024 -0.095,0.047 -0.144,0.072 l -0.071,0.035 c -0.073,0 -0.143,0 -0.215,0 -0.025,0.024 -0.037,0.048 -0.037,0.072 -0.024,0 -0.046,0 -0.07,0 -0.047,0.025 -0.096,0.037 -0.144,0.037 -0.025,0 -0.06,0.011 -0.108,0.034 -0.024,0 -0.047,0 -0.071,0 -0.024,0.024 -0.06,0.035 -0.107,0.035 -0.095,0 -0.179,0.013 -0.25,0.037 -0.048,0 -0.084,0 -0.107,0 -0.024,0.025 -0.061,0.036 -0.107,0.036 -0.048,0 -0.096,0.012 -0.144,0.037 H 10.76 c -0.046,0.023 -0.093,0.035 -0.141,0.035 -0.048,0 -0.109,0.012 -0.18,0.035 -0.048,0.023 -0.083,0.037 -0.107,0.037 -0.024,0.023 -0.06,0.034 -0.108,0.034 -0.119,0 -0.225,0 -0.322,0 -0.048,0.024 -0.095,0.047 -0.143,0.072 -0.048,0.024 -0.084,0.037 -0.108,0.037 -0.023,0.024 -0.06,0.037 -0.107,0.037 -0.072,0 -0.155,0.012 -0.25,0.036 H 9.258 c -0.023,0.023 -0.06,0.036 -0.108,0.036 -0.548,0 -1.087,0 -1.611,0 -0.049,0 -0.096,-0.013 -0.144,-0.036 H 7.361 C 7.337,31.368 7.312,31.356 7.288,31.356 7.216,31.332 7.157,31.319 7.108,31.319 7.062,31.295 7.013,31.272 6.965,31.247 6.965,31.223 6.953,31.21 6.929,31.21 H 6.895 C 6.846,31.188 6.788,31.176 6.715,31.176 6.691,31.152 6.655,31.128 6.609,31.104 L 6.572,31.069 C 6.525,31.045 6.488,31.032 6.465,31.032 6.393,31.009 6.321,30.996 6.249,30.996 L 6.178,30.959 H 6.142 C 6.069,30.936 6.012,30.924 5.964,30.924 5.915,30.901 5.867,30.878 5.82,30.853 5.772,30.829 5.725,30.805 5.677,30.781 H 5.569 C 5.497,30.757 5.426,30.734 5.355,30.709 5.332,30.685 5.306,30.661 5.284,30.637 H 5.248 C 5.176,30.611 5.127,30.6 5.104,30.6 5.032,30.577 4.96,30.552 4.89,30.528 4.865,30.528 4.839,30.516 4.817,30.491 H 4.781 C 4.709,30.468 4.662,30.456 4.638,30.456 4.59,30.433 4.531,30.408 4.459,30.384 4.436,30.361 4.399,30.338 4.351,30.313 4.304,30.313 4.257,30.301 4.209,30.278 4.161,30.254 4.101,30.23 4.028,30.205 4.005,30.181 3.995,30.157 3.995,30.133 3.946,30.11 3.898,30.097 3.85,30.097 3.826,30.074 3.802,30.051 3.778,30.026 3.754,30.026 3.73,30.013 3.706,29.991 3.684,29.967 3.66,29.943 3.636,29.918 3.588,29.895 3.564,29.871 3.564,29.846 3.54,29.846 3.516,29.835 3.492,29.811 3.469,29.787 3.444,29.764 3.42,29.739 3.398,29.714 3.375,29.691 3.349,29.667 3.324,29.644 3.29,29.63 3.242,29.63 3.218,29.607 3.182,29.584 3.136,29.559 3.112,29.559 3.099,29.547 3.099,29.524 3.075,29.5 3.051,29.475 3.028,29.453 3.004,29.427 2.979,29.416 2.955,29.416 2.955,29.393 2.943,29.369 2.92,29.345 2.896,29.32 2.883,29.297 2.883,29.272 2.859,29.248 2.836,29.225 2.812,29.201 2.789,29.178 2.765,29.167 2.741,29.167 2.717,29.142 2.693,29.119 2.67,29.094 2.647,29.094 2.633,29.083 2.633,29.059 2.586,29.036 2.538,29.011 2.49,28.987 2.49,28.963 2.478,28.95 2.456,28.95 2.432,28.927 2.418,28.903 2.418,28.879 2.394,28.854 2.371,28.831 2.346,28.807 2.323,28.784 2.299,28.76 2.274,28.737 c -0.022,0 -0.046,-0.012 -0.07,-0.037 0,-0.025 -0.013,-0.048 -0.036,-0.073 -0.023,0 -0.048,-0.011 -0.072,-0.035 0,-0.023 -0.012,-0.046 -0.036,-0.07 0,-0.025 -0.012,-0.036 -0.036,-0.036 0,-0.023 -0.012,-0.048 -0.036,-0.073 C 1.965,28.39 1.953,28.367 1.953,28.342 1.929,28.318 1.905,28.294 1.88,28.272 1.857,28.272 1.833,28.26 1.809,28.234 1.785,28.211 1.772,28.187 1.772,28.163 c -0.024,0 -0.036,-0.012 -0.036,-0.036 0,-0.024 0,-0.048 0,-0.072 L 1.701,28.019 c 0,-0.023 0,-0.047 0,-0.072 -0.023,-0.023 -0.049,-0.048 -0.072,-0.072 0,-0.023 -0.012,-0.047 -0.036,-0.07 -0.023,0 -0.036,-0.013 -0.036,-0.037 C 1.533,27.745 1.522,27.72 1.522,27.698 L 1.486,27.661 c 0,-0.023 -0.013,-0.047 -0.037,-0.072 L 1.378,27.519 C 1.354,27.495 1.331,27.47 1.307,27.447 1.307,27.423 1.294,27.399 1.271,27.375 V 27.34 c 0,-0.023 0,-0.047 0,-0.072 0,-0.024 -0.013,-0.047 -0.036,-0.072 0,-0.023 -0.012,-0.048 -0.036,-0.071 -0.024,0 -0.036,-0.011 -0.036,-0.036 -0.024,0 -0.049,-0.012 -0.071,-0.035 0,-0.023 0,-0.048 0,-0.072 0,-0.024 -0.012,-0.047 -0.037,-0.071 v -0.036 c 0,-0.024 -0.011,-0.048 -0.035,-0.073 0,-0.023 -0.012,-0.047 -0.037,-0.07 0,-0.024 -0.012,-0.037 -0.035,-0.037 0,-0.025 0,-0.048 0,-0.073 v -0.036 c 0,-0.023 -0.012,-0.048 -0.036,-0.071 0,-0.023 0,-0.048 0,-0.072 -0.025,0 -0.037,-0.011 -0.037,-0.036 0,-0.022 -0.011,-0.046 -0.035,-0.071 0,-0.024 0,-0.047 0,-0.071 0,-0.025 -0.013,-0.037 -0.037,-0.037 0,-0.023 0,-0.048 0,-0.071 -0.023,0 -0.035,-0.013 -0.035,-0.037 0,-0.024 0,-0.047 0,-0.071 L 0.732,26.011 c 0,-0.022 0,-0.046 0,-0.07 0,-0.024 -0.012,-0.047 -0.036,-0.071 0,-0.024 -0.012,-0.048 -0.035,-0.071 L 0.625,25.761 c 0,-0.023 0,-0.045 0,-0.07 v -0.036 c 0,-0.023 -0.013,-0.048 -0.037,-0.071 v -0.037 c 0,-0.023 0,-0.046 0,-0.071 0,-0.025 0,-0.048 0,-0.072 0,-0.024 0,-0.047 0,-0.07 -0.022,0 -0.034,-0.014 -0.034,-0.037 C 0.53,25.273 0.506,25.249 0.482,25.225 v -0.036 c 0,-0.025 0,-0.048 0,-0.072 V 25.08 c 0,-0.023 0,-0.046 0,-0.07 0,-0.024 0,-0.048 0,-0.073 0,-0.023 0,-0.047 0,-0.07 V 24.83 C 0.459,24.806 0.446,24.782 0.446,24.759 V 24.724 C 0.422,24.7 0.41,24.676 0.41,24.652 v -0.037 c 0,-0.022 0,-0.046 0,-0.071 0,-0.023 -0.013,-0.046 -0.037,-0.071 v -0.037 c 0,-0.023 -0.012,-0.046 -0.036,-0.071 0,-0.023 0,-0.047 0,-0.071 v -0.036 c 0,-0.025 0,-0.048 0,-0.071 v -0.036 c 0,-0.024 0,-0.048 0,-0.071 0,-0.024 0,-0.049 0,-0.074 v -0.034 c 0,-0.025 0,-0.047 0,-0.072 0,-0.024 0,-0.049 0,-0.071 v -0.073 c 0,-0.023 0,-0.047 0,-0.071 0,-0.024 0,-0.047 0,-0.07 0,-0.025 0,-0.05 0,-0.073 v -0.035 c 0,-0.024 0,-0.047 0,-0.071 0,-0.024 0,-0.049 0,-0.072 v -0.072 c 0,-0.023 0,-0.047 0,-0.071 0,-0.024 0,-0.047 0,-0.073 0,-0.024 0,-0.049 0,-0.072 V 23.04 c 0,-0.024 0,-0.046 0,-0.07 0,-0.024 0,-0.048 0,-0.072 v -0.072 c 0,-0.024 0,-0.046 0,-0.071 0,-0.025 0,-0.049 0,-0.073 0,-0.024 0,-0.047 0,-0.072 v -0.037 c 0,-0.023 0,-0.047 0,-0.071 0,-0.024 0,-0.047 0,-0.071 V 22.36 c 0,-0.024 0,-0.048 0,-0.072 0,-0.024 0,-0.048 0,-0.072 0,-0.024 0,-0.048 0,-0.072 v -0.035 c 0.024,-0.024 0.036,-0.047 0.036,-0.072 0,-0.023 0.012,-0.047 0.037,-0.072 v -0.071 c 0,-0.023 0,-0.047 0,-0.071 0,-0.024 0,-0.047 0,-0.072 v -0.036 c 0,-0.024 0,-0.047 0,-0.07 0,-0.023 0,-0.048 0,-0.073 0,-0.023 0.012,-0.048 0.036,-0.072 v -0.035 c 0.024,0 0.036,-0.013 0.036,-0.037 0,-0.023 0,-0.047 0,-0.071 0,-0.024 0,-0.048 0,-0.071 v -0.037 c 0,-0.024 0,-0.047 0,-0.072 0,-0.023 0,-0.048 0,-0.072 0.024,-0.023 0.048,-0.047 0.072,-0.072 H 0.59 c 0,-0.022 0,-0.047 0,-0.07 0,-0.024 0,-0.049 0,-0.072 0,-0.023 0,-0.049 0,-0.072 v -0.036 c 0,-0.024 0,-0.048 0,-0.071 0,-0.024 0.013,-0.049 0.037,-0.072 0,-0.024 0,-0.049 0,-0.072 0,-0.024 0,-0.049 0,-0.072 0,-0.023 0,-0.048 0,-0.071 0.023,-0.023 0.036,-0.047 0.036,-0.072 0.023,0 0.035,-0.013 0.035,-0.035 0.024,-0.025 0.047,-0.049 0.072,-0.072 0,-0.024 0,-0.047 0,-0.072 0,-0.023 0.012,-0.034 0.035,-0.034 v -0.036 c 0,-0.025 0,-0.048 0,-0.073 0,-0.023 0,-0.048 0,-0.071 0.023,-0.023 0.037,-0.049 0.037,-0.073 v -0.036 c 0.023,-0.023 0.046,-0.047 0.071,-0.072 0,-0.023 0.013,-0.048 0.036,-0.071 v -0.035 c 0.023,0 0.035,-0.011 0.035,-0.035 0.024,-0.026 0.037,-0.049 0.037,-0.071 0.024,-0.026 0.035,-0.049 0.035,-0.073 v -0.036 c 0,-0.024 0,-0.048 0,-0.072 0.025,-0.024 0.037,-0.047 0.037,-0.072 0,-0.022 0,-0.046 0,-0.071 v -0.036 c 0.022,0 0.036,-0.012 0.036,-0.037 0.023,-0.023 0.035,-0.048 0.035,-0.071 0.024,-0.024 0.049,-0.048 0.072,-0.073 l 0.036,-0.035 c 0,-0.023 0,-0.047 0,-0.071 0.023,-0.024 0.036,-0.048 0.036,-0.071 0.024,-0.024 0.047,-0.048 0.071,-0.072 L 1.45,18.71 C 1.474,18.687 1.487,18.663 1.487,18.639 1.51,18.614 1.523,18.59 1.523,18.566 l 0.035,-0.034 c 0.024,-0.025 0.036,-0.051 0.036,-0.074 0.024,-0.023 0.036,-0.047 0.036,-0.072 0.023,-0.023 0.049,-0.046 0.072,-0.07 0.023,0 0.035,-0.013 0.035,-0.036 0.024,0 0.049,-0.013 0.073,-0.036 0.023,-0.024 0.047,-0.048 0.071,-0.073 0.024,-0.023 0.049,-0.047 0.073,-0.07 l 0.035,-0.036 c 0.024,-0.025 0.036,-0.049 0.036,-0.074 0.024,-0.022 0.049,-0.046 0.072,-0.07 0.024,-0.024 0.049,-0.048 0.072,-0.073 0.023,0 0.036,-0.012 0.036,-0.035 0.024,0 0.048,-0.013 0.07,-0.035 0.024,-0.025 0.048,-0.049 0.072,-0.074 0.024,-0.022 0.048,-0.047 0.072,-0.071 L 2.455,17.6 C 2.477,17.577 2.489,17.552 2.489,17.529 2.514,17.505 2.537,17.482 2.56,17.457 2.584,17.433 2.609,17.42 2.632,17.42 c 0,-0.023 0.014,-0.048 0.037,-0.07 0.047,0 0.095,-0.014 0.142,-0.037 0.024,-0.023 0.047,-0.047 0.071,-0.071 0.025,-0.025 0.061,-0.047 0.109,-0.072 0.046,0 0.083,0 0.107,0 0.024,0 0.059,0 0.108,0 0.023,-0.023 0.046,-0.047 0.07,-0.072 0.047,-0.023 0.098,-0.048 0.143,-0.073 0.072,-0.023 0.121,-0.046 0.145,-0.071 0.047,0 0.096,-0.01 0.142,-0.034 0.048,-0.025 0.108,-0.036 0.18,-0.036 0.024,0 0.048,-0.012 0.072,-0.037 h 0.037 c 0.047,-0.023 0.093,-0.035 0.141,-0.035 0.047,-0.025 0.084,-0.038 0.108,-0.038 0.047,-0.023 0.094,-0.035 0.142,-0.035 0.049,0 0.084,0 0.108,0 0.048,0 0.095,-0.012 0.143,-0.035 h 0.036 c 0.048,-0.024 0.095,-0.037 0.143,-0.037 0.096,-0.023 0.203,-0.034 0.322,-0.034 0.025,-0.025 0.061,-0.049 0.109,-0.072 0.046,0 0.095,-0.012 0.143,-0.036 0.023,-0.025 0.047,-0.037 0.071,-0.037 0.048,0 0.084,-0.013 0.108,-0.036 l 0.036,-0.036 c 0.049,0 0.095,0 0.143,0 0.216,0 0.442,-0.011 0.68,-0.035 0.024,0 0.049,0 0.072,0 0.024,0 0.059,0 0.108,0 v -0.035 c 0.118,0 0.236,0 0.356,0 V 16.24 c 0,-0.024 0,-0.047 0,-0.072 0,-0.023 0,-0.048 0,-0.072 V 16.06 c 0,-0.024 0,-0.048 0,-0.071 0,-0.024 0,-0.048 0,-0.072 0,-0.023 0,-0.047 0,-0.072 v -0.07 c 0,-0.025 0,-0.049 0,-0.073 0,-0.025 0,-0.049 0,-0.072 v -0.036 c 0,-0.023 0,-0.047 0,-0.072 0,-0.023 0,-0.046 0,-0.071 0,-0.024 0,-0.048 0,-0.072 v -0.072 c 0,-0.023 0,-0.048 0,-0.071 0,-0.025 0,-0.048 0,-0.072 v -0.037 c 0,-0.023 0,-0.047 0,-0.071 0,-0.024 0,-0.047 0,-0.073 C 6.941,14.96 6.928,14.937 6.928,14.913 v -0.071 c 0,-0.023 0,-0.048 0,-0.071 0,-0.024 0,-0.048 0,-0.073 v -0.035 c 0,-0.024 0,-0.049 0,-0.072 0,-0.023 0,-0.048 0,-0.072 v -0.036 c 0,-0.024 0,-0.048 0,-0.072 v -0.036 c -0.096,0 -0.191,0 -0.286,0 0,-0.023 -0.013,-0.047 -0.035,-0.071 0,-0.022 0,-0.047 0,-0.07 0,-0.025 0,-0.048 0,-0.073 -0.024,0 -0.061,0 -0.108,0 0,-0.025 0,-0.047 0,-0.071 v -0.072 c 0,-0.024 0,-0.047 0,-0.071 0,-0.025 0,-0.049 0,-0.073 v -0.108 c 0,-0.023 0,-0.045 0,-0.071 0,-0.023 0,-0.047 0,-0.069 v -0.323 c 0,-0.024 0,-0.047 0,-0.071 0,-0.024 0,-0.048 0,-0.072 v -0.036 c 0,-0.024 0,-0.049 0,-0.072 0,-0.024 0,-0.049 0,-0.072 0,-0.023 0,-0.049 0,-0.071 v -0.071 c 0,-0.023 0,-0.048 0,-0.072 0,-0.024 0,-0.048 0,-0.071 v -0.036 c 0,-0.026 0,-0.049 0,-0.073 0,-0.025 0,-0.047 0,-0.071 0,-0.024 0,-0.049 0,-0.073 v -0.071 c 0,-0.023 0,-0.048 0,-0.071 0,-0.024 0,-0.047 0,-0.071 v -0.035 c 0,-0.024 0,-0.049 0,-0.073 0,-0.024 0,-0.048 0,-0.072 0,-0.024 0,-0.048 0,-0.072 v -0.071 c 0,-0.024 0,-0.048 0,-0.071 0,-0.024 0,-0.049 0,-0.072 v -0.035 c 0,-0.025 0,-0.048 0,-0.072 0,-0.024 0,-0.048 0,-0.072 0,-0.023 0,-0.047 0,-0.072 v -0.071 c 0,-0.026 0,-0.049 0,-0.072 0,-0.024 0,-0.048 0,-0.071 v -0.036 c 0,-0.024 0,-0.049 0,-0.072 0,-0.024 0,-0.048 0,-0.072 v -0.034 c 0,-0.025 0,-0.051 0,-0.074 v -0.035 c 0,-0.025 0,-0.049 0,-0.072 v -0.036 c 0,-0.024 0,-0.048 0,-0.071 0,-0.025 0,-0.049 0,-0.072 0,-0.023 0,-0.047 0,-0.072 v -0.036 c 0,-0.025 0,-0.048 0,-0.072 v -0.036 c 0,-0.024 0,-0.048 0,-0.072 v -0.035 c 0,-0.025 0,-0.049 0,-0.072 0,-0.024 0,-0.048 0,-0.072 0,-0.022 0,-0.046 0,-0.071 V 10.15 c 0,-0.023 0,-0.047 0,-0.071 v -0.036 c 0,-0.024 0,-0.047 0,-0.072 V 9.937 c 0,-0.024 0,-0.049 0,-0.072 0,-0.024 0,-0.047 0,-0.071 0,-0.023 0,-0.048 0,-0.072 V 9.685 c 0,-0.023 0,-0.047 0,-0.071 V 9.578 c 0,-0.022 0,-0.046 0,-0.072 V 9.471 c -0.239,0 -0.466,0.013 -0.681,0.035 -0.048,0 -0.083,0 -0.107,0 C 5.666,9.531 5.617,9.542 5.569,9.542 H 5.534 c -0.049,0 -0.085,0 -0.107,0 C 5.378,9.52 5.318,9.506 5.248,9.506 5.2,9.506 5.165,9.495 5.139,9.471 5.093,9.447 5.032,9.422 4.96,9.399 4.936,9.376 4.924,9.352 4.924,9.329 4.901,9.305 4.876,9.282 4.853,9.256 4.828,9.256 4.817,9.244 4.817,9.22 4.792,9.197 4.781,9.173 4.781,9.148 V 9.113 C 4.757,9.089 4.746,9.064 4.746,9.042 V 9.006 c 0,-0.026 0,-0.049 0,-0.073 0,-0.022 0,-0.047 0,-0.071 0,-0.023 0.011,-0.036 0.036,-0.036 0,-0.023 0,-0.047 0,-0.071 0,-0.023 0.011,-0.046 0.036,-0.072 L 4.854,8.647 C 4.876,8.625 4.901,8.6 4.924,8.576 L 4.96,8.54 C 5.008,8.516 5.056,8.503 5.104,8.503 H 5.139 V 8.469 c 0,-0.024 0,-0.047 0,-0.072 V 8.36 c 0,-0.023 0,-0.047 0,-0.07 0,-0.025 0,-0.046 0,-0.074 V 8.182 L 5.176,8.146 C 5.2,8.123 5.223,8.099 5.248,8.075 5.271,8.052 5.284,8.027 5.284,8.003 5.305,7.978 5.331,7.955 5.354,7.93 5.354,7.907 5.366,7.893 5.39,7.893 5.413,7.871 5.437,7.847 5.461,7.823 5.509,7.823 5.545,7.812 5.569,7.788 L 5.605,7.752 c 0.049,0 0.095,0 0.143,0 0.167,0 0.334,0 0.501,0 V 7.716 C 6.273,7.692 6.297,7.68 6.322,7.68 6.344,7.657 6.368,7.633 6.393,7.609 6.44,7.609 6.477,7.598 6.5,7.574 V 7.538 c 0,-0.024 0,-0.048 0,-0.071 1.766,0 3.522,0 5.264,0 V 7.43 c 0,-0.024 0,-0.048 0,-0.073 0,-0.022 0,-0.047 0,-0.07 0,-0.025 0,-0.048 0,-0.071 V 7.18 c 0,-0.024 0,-0.048 0,-0.072 0,-0.025 0,-0.048 0,-0.072 V 6.964 c 0,-0.024 0,-0.047 0,-0.071 0,-0.025 0,-0.049 0,-0.072 V 6.785 c 0,-0.023 0,-0.046 0,-0.07 0,-0.023 0,-0.047 0,-0.071 V 6.606 C 11.789,6.582 11.825,6.57 11.872,6.57 V 6.535 c 0.31,0 0.621,0 0.931,0 V 6.57 c 0,0.024 0,0.048 0,0.073 0,0.023 0,0.048 0,0.071 0,0.024 0,0.047 0,0.07 l 0.036,0.037 c 0,0.023 0,0.046 0,0.072 0.024,0.023 0.036,0.046 0.036,0.071 L 12.911,7 v 0.036 c 0.024,0.024 0.035,0.047 0.035,0.072 0,0.024 0,0.048 0,0.072 0,0.022 -0.011,0.036 -0.035,0.036 0,0.023 0,0.046 0,0.071 -0.024,0.023 -0.036,0.047 -0.036,0.07 -0.024,0.024 -0.036,0.048 -0.036,0.073 v 0.072 c 0,0.023 0,0.046 0,0.072 0.048,0 0.096,0 0.143,0 0.025,0.023 0.049,0.047 0.071,0.07 0.025,0.025 0.048,0.036 0.073,0.036 0.023,0.024 0.036,0.048 0.036,0.073 0.024,0 0.048,0.013 0.072,0.036 0.024,0.024 0.036,0.047 0.036,0.071 l 0.037,0.034 c 0.023,0.024 0.035,0.05 0.035,0.073 0.024,0.024 0.037,0.048 0.037,0.073 v 0.036 c 0.024,0.024 0.035,0.048 0.035,0.071 v 0.036 c 0,0.025 0,0.049 0,0.071 0,0.023 -0.011,0.047 -0.035,0.071 V 8.36 h 0.035 c 0,0.024 0.012,0.049 0.035,0.072 0,0.023 0,0.049 0,0.071 0.024,0.024 0.037,0.048 0.037,0.073 l 0.035,0.036 c 0,0.024 0,0.049 0,0.072 0,0.026 0,0.048 0,0.072 0.024,0.024 0.037,0.048 0.037,0.071 h 0.036 c 0.023,0.023 0.035,0.048 0.035,0.071 0.024,0 0.049,0.014 0.072,0.036 0.024,0.024 0.036,0.047 0.036,0.073 l 0.037,0.035 c 0.023,0.023 0.035,0.048 0.035,0.071 l 0.037,0.036 c 0,0.024 0,0.048 0,0.071 l 0.035,0.036 c 0,0.026 0,0.049 0,0.073 0,0.023 0.012,0.047 0.037,0.07 0,0.023 0,0.048 0,0.072 l 0.035,0.035 c 0,0.025 0,0.05 0,0.072 l 0.035,0.036 c 0,0.024 0,0.048 0,0.071 l 0.037,0.037 c 0,0.024 0.012,0.048 0.035,0.072 0,0.024 0,0.047 0,0.071 0.024,0.023 0.047,0.048 0.072,0.072 0.024,0 0.037,0.013 0.037,0.035 0.022,0.025 0.034,0.048 0.034,0.072 v 0.036 c 0,0.024 0,0.048 0,0.071 l 0.037,0.036 c 0.023,0.024 0.047,0.049 0.072,0.071 0,0.023 0.011,0.047 0.036,0.072 0,0.023 0.012,0.047 0.035,0.072 v 0.035 c 0.023,0.024 0.036,0.048 0.036,0.072 v 0.036 c 0.024,0.024 0.036,0.047 0.036,0.072 0.022,0 0.047,0.012 0.07,0.036 0,0.024 0,0.049 0,0.072 0.024,0.023 0.036,0.047 0.036,0.072 0,0.023 0,0.047 0,0.071 0.024,0 0.037,0.013 0.037,0.036 0.024,0.022 0.036,0.047 0.036,0.072 v 0.035 c 0,0.023 0.011,0.049 0.035,0.074 l 0.036,0.034 c 0,0.024 0.012,0.048 0.038,0.072 0,0.022 0.01,0.047 0.033,0.072 v 0.036 c 0.025,0.023 0.038,0.047 0.038,0.071 0.023,0.023 0.035,0.046 0.035,0.072 l 0.036,0.034 c -0.006,0.024 0.007,0.036 0.032,0.036 z M 1.415,21.896 c 0,-0.023 0,-0.047 0,-0.071 0,-0.024 0,-0.047 0,-0.072 v -0.036 l -0.036,0.036 c 0,0.024 0,0.048 0,0.072 -0.024,0.024 -0.035,0.048 -0.035,0.071 v 0.071 c 0,0.025 0,0.049 0,0.072 0,0.023 0,0.048 0,0.072 0,-0.024 0.012,-0.049 0.035,-0.072 0,-0.023 0,-0.047 0,-0.072 0.025,0 0.036,-0.011 0.036,-0.035 z"
   id="path2" />
		</g>
	</g>
</g>
<g
   id="guides"
   transform="translate(0,-6.3461538)">
</g>
</svg>
