<?xml version="1.0" encoding="UTF-8" standalone="no"?>
<!-- Generator: Adobe Illustrator 16.0.3, SVG Export Plug-In . SVG Version: 6.00 Build 0)  -->

<svg
   version="1.1"
   id="Selected_Items"
   x="0px"
   y="0px"
   width="32.167"
   height="28"
   viewBox="0 0 32.167 28"
   enable-background="new 0 0 32.167 32"
   xml:space="preserve"
   sodipodi:docname="hkp2000.svg"
   inkscape:version="1.1.1 (3bf5ae0d25, 2021-09-20)"
   xmlns:inkscape="http://www.inkscape.org/namespaces/inkscape"
   xmlns:sodipodi="http://sodipodi.sourceforge.net/DTD/sodipodi-0.dtd"
   xmlns="http://www.w3.org/2000/svg"
   xmlns:svg="http://www.w3.org/2000/svg"><defs
   id="defs10" /><sodipodi:namedview
   id="namedview8"
   pagecolor="#ffffff"
   bordercolor="#666666"
   borderopacity="1.0"
   inkscape:pageshadow="2"
   inkscape:pageopacity="0.0"
   inkscape:pagecheckerboard="0"
   showgrid="false"
   inkscape:zoom="18.384776"
   inkscape:cx="18.575151"
   inkscape:cy="16.508224"
   inkscape:window-width="1920"
   inkscape:window-height="1017"
   inkscape:window-x="-8"
   inkscape:window-y="-8"
   inkscape:window-maximized="1"
   inkscape:current-layer="Selected_Items" />
<g
   id="g5">
	<g
   id="Selected_Items_13_">
		<path
   fill-rule="evenodd"
   clip-rule="evenodd"
   fill="#ffffff"
   d="m 31.728214,7.7491091 c -0.104,0.206 -0.271,0.321 -0.501,0.347 -0.386,0.025 -3.011,0.063 -7.874,0.116 -0.153,0 -0.32,0.039 -0.501,0.116 -0.309,0.103 -0.515,0.283 -0.617,0.541 -0.078,0.205 -0.09,0.617 -0.039,1.2339999 0.025,0.308 0.077,0.771 0.155,1.389 0.025,0.31 0.077,0.63 0.153,0.966 0,0.179 -0.141,0.282 -0.424,0.307 -0.591,0.129 -1.131,0.219 -1.621,0.271 -0.875,0.128 -1.814,0.206 -2.816,0.231 -1.57,0.026 -3.32,-0.025 -5.249,-0.154 -1.672,4.451 -2.5079997,6.817 -2.5079997,7.101 0,0.309 0.064,1.299 0.1929997,2.972 0.386,0.282 0.694,0.476 0.926,0.578 0.18,0.078 0.257,0.18 0.232,0.31 0,0.076 -0.026,0.128 -0.078,0.154 l -0.27,0.154 c -0.283,0.078 -0.592,0.09 -0.9259997,0.039 -0.489,-0.077 -3.77,-0.733 -9.84099996,-1.969 -0.309,-0.051 -0.309,-0.9 0,-2.547 0.129,-0.695 0.424,-1.698 0.88799996,-3.009 0.489,-1.339 0.939,-2.393 1.351,-3.165 0.437,-0.798 0.785,-1.66 1.041,-2.586 0.309,-0.927 0.438,-1.5829999 0.385,-1.9679999 -0.051,-0.283 -0.411,-0.618 -1.08,-1.003 -0.514,-0.257 -1.002,-0.45 -1.466,-0.579 -0.25799996,-0.026 -0.46399996,-0.154 -0.61799996,-0.385 -0.103,-0.104 -0.219,-0.246 -0.347,-0.425 -0.078,-0.103 -0.115,-0.373 -0.115,-0.81 0,-0.207 0,-0.528 0,-0.964 0,-0.669 0.05,-1.082 0.154,-1.236 0.489,-0.849 0.86099996,-1.479 1.11799996,-1.89 0.231,-0.335 0.451,-0.593 0.657,-0.773 0.231,-0.23099998 0.437,-0.33399998 0.617,-0.30899998 0.18,0.026 0.386,0.026 0.617,0 l 0.387,-0.039 c 0.129,-0.232 0.244,-0.399 0.348,-0.502 0.103,-0.103 0.488,-0.064 1.157,0.116 l 0.154,0.424 H 15.983214 V 1.1491091 h 4.592 V 0.80210912 l 10.574,-0.038 0.348,0.193 c 0.206,0.12699998 0.309,0.28299998 0.309,0.46199998 0.051,1.004 0.103,1.943 0.155,2.818 0.051,1.724 0.038,2.675 -0.039,2.855 -0.13,0.412 -0.194,0.631 -0.194,0.657 z m -11.076,0.964 c -0.128,-0.051 -0.231,-0.078 -0.308,-0.078 v 0.078 l -3.436,-0.038 c -0.129,0.488 -0.077,0.899 0.154,1.234 0.309,0.4879999 0.567,0.8349999 0.772,1.0419999 0.207,0.18 0.451,0.295 0.734,0.346 0.256,0.026 0.372,0.091 0.346,0.193 -0.025,0.129 -0.128,0.193 -0.309,0.193 -0.102,0 -0.27,0 -0.5,0 -0.284,-0.051 -0.593,-0.231 -0.927,-0.54 -0.54,-0.463 -0.887,-0.85 -1.043,-1.1569999 -0.102,-0.335 -0.153,-0.773 -0.153,-1.312 l -0.695,-0.04 c -0.412,0 -0.771,0.167 -1.08,0.502 -0.257,0.309 -0.386,0.669 -0.386,1.0799999 0,0.257 0,0.605 0,1.042 0.051,0.31 0.309,0.554 0.772,0.734 0.668,0.258 1.313,0.36 1.929,0.309 0.721,-0.104 1.287,-0.168 1.698,-0.194 0.206,-0.025 0.579,-0.012 1.12,0.039 0.54,0.052 0.913,0.077 1.119,0.077 0.335,0 0.553,-0.025 0.655,-0.077 0.052,-0.051 0.156,-0.154 0.31,-0.308 0.102,-0.155 0.127,-0.567 0.077,-1.235 -0.026,-0.6439999 -0.128,-1.1199999 -0.309,-1.4279999 -0.102,-0.23 -0.283,-0.384 -0.54,-0.462 z"
   id="path2" />
	</g>
</g>
</svg>
