<?xml version="1.0" encoding="UTF-8" standalone="no"?>
<!-- Generator: Adobe Illustrator 16.0.0, SVG Export Plug-In . SVG Version: 6.00 Build 0)  -->

<svg
   version="1.1"
   x="0px"
   y="0px"
   width="12.375"
   height="26.200001"
   viewBox="0 0 12.375 26.200001"
   enable-background="new 0 0 12.375 32"
   xml:space="preserve"
   id="svg9"
   sodipodi:docname="incgrenade.svg"
   inkscape:version="1.1.1 (3bf5ae0d25, 2021-09-20)"
   xmlns:inkscape="http://www.inkscape.org/namespaces/inkscape"
   xmlns:sodipodi="http://sodipodi.sourceforge.net/DTD/sodipodi-0.dtd"
   xmlns="http://www.w3.org/2000/svg"
   xmlns:svg="http://www.w3.org/2000/svg"><defs
   id="defs13" /><sodipodi:namedview
   id="namedview11"
   pagecolor="#ffffff"
   bordercolor="#666666"
   borderopacity="1.0"
   inkscape:pageshadow="2"
   inkscape:pageopacity="0.0"
   inkscape:pagecheckerboard="0"
   showgrid="false"
   inkscape:zoom="13"
   inkscape:cx="-4.8076923"
   inkscape:cy="10.192308"
   inkscape:window-width="1920"
   inkscape:window-height="1017"
   inkscape:window-x="1912"
   inkscape:window-y="-8"
   inkscape:window-maximized="1"
   inkscape:current-layer="svg9" />
<g
   id="Selected_Items"
   transform="matrix(1.0189125,0,0,0.94776279,0.26401132,-4.5170994)">
	<g
   id="g5">
		<g
   id="Selected_Items_54_">
			<path
   fill-rule="evenodd"
   clip-rule="evenodd"
   fill="#ffffff"
   d="M 8.277,7.221 8.314,7.258 V 7.33 c 0,0.022 0.012,0.035 0.036,0.035 v 0.073 h 0.036 v 0.037 c 0.023,0 0.036,0.012 0.036,0.036 V 7.62 h 0.036 v 0.073 h 0.036 v 0.073 c 0.024,0 0.036,0.012 0.036,0.035 V 7.91 L 8.566,7.946 V 8.02 l 0.036,0.036 v 0.038 h 0.037 v 0.071 l 0.035,0.036 v 0.037 c 0.024,0 0.037,0.012 0.037,0.036 v 0.037 l 0.036,0.035 v 0.109 c 0,0.023 0.012,0.036 0.036,0.036 V 8.528 H 8.819 V 8.636 H 8.855 V 8.672 L 8.891,8.709 V 8.744 L 8.927,8.781 V 8.853 L 8.964,8.89 V 9 l 0.035,0.037 v 0.037 l 0.036,0.035 v 0.037 l 0.072,0.072 v 0.037 c 0.023,0 0.036,0.012 0.036,0.036 L 9.178,9.327 V 9.51 L 9.214,9.546 V 9.618 L 9.25,9.655 V 9.691 L 9.286,9.727 V 9.763 L 9.319,9.8 v 0.073 h 0.036 v 0.072 c 0,0.023 0.013,0.036 0.036,0.036 v 0.109 c 0.024,0 0.036,0.013 0.036,0.036 v 0.072 c 0.023,0 0.036,0.014 0.036,0.037 v 0.072 H 9.5 v 0.036 l 0.035,0.036 v 0.037 l 0.036,0.037 v 0.035 l 0.036,0.037 v 0.146 l 0.036,0.036 v 0.073 h 0.036 v 0.108 h 0.036 v 0.072 l 0.036,0.036 v 0.036 l 0.036,0.036 v 0.073 c 0.024,0 0.036,0.013 0.036,0.036 v 0.072 c 0,0.024 0.012,0.037 0.036,0.037 v 0.071 l 0.037,0.038 v 0.036 H 9.93 v 0.035 l 0.036,0.037 v 0.035 l 0.037,0.038 v 0.072 h 0.035 v 0.108 l 0.037,0.037 v 0.036 c 0,0.023 0.012,0.037 0.036,0.037 v 0.035 l 0.036,0.037 v 0.108 l 0.072,0.072 v 0.073 l 0.036,0.036 v 0.037 h 0.036 v 0.071 h 0.036 c 0,0.024 0.012,0.036 0.036,0.036 v 0.038 l 0.144,0.145 v 0.473 l 0.037,0.036 v 0.073 c 0.022,0 0.035,0.012 0.035,0.036 l 0.036,0.035 v 0.036 l 0.036,0.036 v 0.037 h 0.037 v 0.073 c 0.023,0 0.036,0.013 0.036,0.036 l 0.036,0.035 v 0.037 h 0.036 v 0.036 l 0.072,0.074 c 0,0.022 0.012,0.035 0.035,0.035 v 0.037 h 0.037 v 0.036 l 0.108,0.145 v 0.255 c 0.023,0.024 0.047,0.036 0.071,0.036 v 0.473 c 0,0.097 0,0.169 0,0.218 0,0.073 0,0.145 0,0.218 v 0.182 c 0,0.072 0,0.145 0,0.219 v 0.181 c 0,0.097 0,0.182 0,0.255 0,0.048 0,0.12 0,0.218 0,0.048 0,0.121 0,0.218 0,0.049 0,0.108 0,0.182 v 0.036 c 0,0.049 0,0.11 0,0.182 0,0.049 0,0.122 0,0.218 0,0.048 0,0.121 0,0.219 0,0.048 0,0.109 0,0.182 0,0.073 0,0.145 0,0.217 0,0.073 0,0.146 0,0.219 0,0.073 0,0.146 0,0.218 0,0.073 0,0.134 0,0.182 0,0.098 0,0.17 0,0.219 0,0.072 0,0.145 0,0.217 0,0.073 0,0.146 0,0.219 0,0.073 0,0.134 0,0.183 0,0.096 0,0.168 0,0.217 0,0.072 0,0.146 0,0.219 0,0.072 0,0.145 0,0.218 0,0.073 0,0.145 0,0.218 0,0.073 0,0.146 0,0.218 0,0.048 0,0.121 0,0.219 0,0.047 0,0.12 0,0.217 0,0.05 0,0.109 0,0.183 0,0.074 0,0.145 0,0.219 0,0.047 0,0.119 0,0.217 0,0.048 0,0.121 0,0.219 0,0.048 0,0.108 0,0.182 0,0.071 0,0.145 0,0.218 0,0.072 0,0.146 0,0.218 0,0.073 0,0.146 0,0.219 0,0.072 0,0.132 0,0.181 0,0.097 0,0.169 0,0.218 0,0.073 0,0.146 0,0.218 0,0.072 0,0.146 0,0.218 0,0.074 0,0.133 0,0.183 0,0.096 0,0.169 0,0.217 0,0.073 0,0.146 0,0.219 0,0.073 0,0.146 0,0.218 0,0.072 0,0.146 0,0.219 0,0.071 0,0.145 0,0.218 0,0.049 0,0.121 0,0.218 0,0.049 0,0.121 0,0.218 0,0.049 0,0.109 0,0.182 0,0.073 0,0.146 0,0.218 0,0.05 0,0.121 0,0.219 0,0.047 0,0.121 0,0.218 0,0.049 0,0.108 0,0.182 0,0.074 0,0.146 0,0.218 0,0.072 0,0.146 0,0.218 0,0.073 0,0.146 0,0.219 0,0.073 0,0.133 0,0.182 0,0.096 0,0.169 0,0.218 0,0.072 0,0.146 0,0.218 0,0.073 0,0.145 0,0.218 0,0.073 0,0.134 0,0.181 0,0.098 0,0.17 0,0.219 0,0.073 0,0.146 0,0.218 0,0.073 0,0.158 0,0.255 v 0.073 c -0.024,0 -0.06,0 -0.108,0 v 0.035 c -0.024,0 -0.036,0.013 -0.036,0.037 l -0.035,0.072 h -0.072 v 0.037 l -0.036,0.035 v 0.037 h -0.036 v 0.073 c -0.167,0 -0.335,0 -0.503,0 v -0.582 l 0.072,-0.073 c 0.024,0 0.037,-0.011 0.037,-0.036 h 0.036 V 27.82 h 0.035 v -0.036 h 0.037 c 0,-0.073 0,-0.133 0,-0.182 0,-0.072 0,-0.121 0,-0.146 0,-0.072 0,-0.145 0,-0.217 0,-0.073 0,-0.146 0,-0.218 0,-0.073 0,-0.146 0,-0.218 0,-0.073 0,-0.146 0,-0.219 0,-0.048 0,-0.121 0,-0.217 0,-0.05 0,-0.11 0,-0.182 0,-0.072 0,-0.146 0,-0.22 0,-0.072 0,-0.145 0,-0.217 0,-0.05 0,-0.121 0,-0.219 0,-0.048 0,-0.108 0,-0.181 0,-0.073 0,-0.146 0,-0.218 0,-0.073 0,-0.146 0,-0.218 0,-0.074 0,-0.146 0,-0.219 0,-0.073 0,-0.134 0,-0.182 0,-0.098 0,-0.171 0,-0.219 0,-0.097 0,-0.169 0,-0.218 0,-0.072 0,-0.144 0,-0.218 0,-0.072 0,-0.134 0,-0.182 0,-0.097 0,-0.17 0,-0.219 0,-0.097 0,-0.169 0,-0.217 0,-0.072 0,-0.146 0,-0.219 0,-0.071 0,-0.146 0,-0.218 0,-0.072 0,-0.146 0,-0.218 0,-0.072 0,-0.146 0,-0.218 0,-0.049 0,-0.121 0,-0.218 0,-0.049 0,-0.109 0,-0.182 0,-0.073 0,-0.146 0,-0.219 0,-0.073 0,-0.145 0,-0.218 0,-0.048 0,-0.122 0,-0.218 0,-0.048 0,-0.108 0,-0.182 0,-0.074 0,-0.146 0,-0.219 0,-0.097 0,-0.169 0,-0.218 0,-0.072 0,-0.146 0,-0.218 0,-0.072 0,-0.133 0,-0.181 0,-0.098 0,-0.171 0,-0.22 0,-0.096 0,-0.169 0,-0.218 0,-0.072 0,-0.145 0,-0.216 0,-0.074 0,-0.135 0,-0.183 0,-0.098 0,-0.182 0,-0.254 0,-0.074 0,-0.146 0,-0.219 0,-0.048 0,-0.121 0,-0.218 0,-0.049 0,-0.109 0,-0.181 0,-0.074 0,-0.147 0,-0.22 0,-0.073 0,-0.145 0,-0.218 0,-0.049 0,-0.121 0,-0.218 0,-0.049 0,-0.108 0,-0.182 0,-0.074 0,-0.145 0,-0.218 0,-0.073 0,-0.146 0,-0.218 0,-0.073 0,-0.146 0,-0.218 0,-0.072 0,-0.134 0,-0.183 0,-0.098 0,-0.169 0,-0.219 0,-0.096 0,-0.169 0,-0.217 0,-0.072 0,-0.146 0,-0.219 0,-0.072 0,-0.132 0,-0.181 0,-0.097 0,-0.171 0,-0.218 0,-0.098 0,-0.169 0,-0.219 0,-0.072 0,-0.146 0,-0.218 0,-0.072 0,-0.146 0,-0.218 0,-0.073 0,-0.146 0,-0.219 0,-0.071 0,-0.145 0,-0.218 0,-0.048 0,-0.121 0,-0.219 0,-0.048 0,-0.108 0,-0.182 v -0.035 c -0.024,0 -0.048,0 -0.072,0 L 10.402,14.29 V 14.27 L 10.365,14.234 V 14.197 H 10.329 V 14.16 l -0.036,-0.036 v -0.037 l -0.036,-0.035 v -0.073 l -0.036,-0.036 v -0.037 h -0.037 v -0.072 h -0.036 v -0.036 l -0.036,-0.037 h -0.036 c 0,-0.024 -0.012,-0.035 -0.037,-0.035 v -0.073 c 0,-0.024 -0.011,-0.035 -0.035,-0.035 V 13.58 H 9.966 v -0.072 c -0.023,0 -0.036,-0.012 -0.036,-0.037 0,-0.023 -0.012,-0.035 -0.035,-0.035 V 13.4 H 9.858 V 13.36 L 9.822,13.287 c 0,-0.022 -0.012,-0.036 -0.036,-0.036 V 13.215 L 9.678,13.144 V 13.107 H 9.643 v -0.072 c -0.024,0 -0.036,-0.014 -0.036,-0.037 L 9.571,12.963 V 12.926 H 9.535 V 12.89 C 9.511,12.865 9.487,12.854 9.464,12.854 V 12.817 H 9.427 v -0.036 c -0.024,0 -0.036,-0.013 -0.036,-0.036 v -0.072 c -0.023,0 -0.036,-0.013 -0.036,-0.037 L 9.319,12.6 V 12.564 H 9.284 L 9.176,12.419 v -0.038 c -0.023,0 -0.035,-0.012 -0.035,-0.036 H 9.104 v 17.729 l -0.143,0.037 c -0.048,0.024 -0.097,0.06 -0.145,0.108 H 8.781 C 8.206,30.534 7.668,30.753 7.164,30.873 6.565,31.067 5.991,31.188 5.439,31.236 4.936,31.333 4.445,31.357 3.966,31.309 3.512,31.26 3.105,31.2 2.746,31.127 1.956,30.957 1.345,30.752 0.914,30.509 0.698,30.412 0.531,30.328 0.411,30.255 0.243,30.182 0.16,30.134 0.16,30.109 L 0.052,30.072 V 12.308 c -0.095,-0.195 -0.06,-0.4 0.108,-0.618 0,-0.024 0.012,-0.049 0.035,-0.072 0.072,-0.024 0.144,-0.036 0.216,-0.036 V 11.544 C 0.531,11.497 0.687,11.46 0.878,11.437 1.069,11.413 1.345,11.388 1.704,11.363 1.895,11.315 2.099,11.279 2.314,11.255 2.481,11.232 2.601,11.22 2.673,11.22 2.65,11.001 2.65,10.832 2.673,10.711 2.721,10.639 2.757,10.577 2.782,10.529 l 0.107,-0.146 v -1.6 H 2.853 c -0.12,0 -0.251,-0.012 -0.395,-0.037 -0.168,0 -0.335,0 -0.502,0 V 8.238 H 1.991 V 8.201 c 0.023,0 0.048,0 0.071,0 C 2.014,8.129 2.014,8.019 2.062,7.874 2.062,7.802 2.11,7.681 2.206,7.512 2.278,7.343 2.398,7.245 2.565,7.221 h 4.239 l 0.18,0.072 V 7.439 C 7.128,7.15 7.307,6.894 7.523,6.676 V 6.64 c 0,-0.023 0,-0.048 0,-0.073 0.023,0 0.06,0 0.107,0 0,-0.023 0.012,-0.035 0.037,-0.035 v 0.035 c 0.12,0 0.239,0 0.359,0 v 0.4 l 0.036,0.036 v 0.036 c 0.047,0 0.108,0 0.18,0 v 0.036 l 0.035,0.036 z m -4.704,7.338 c -0.576,0.51 -1.031,1.141 -1.367,1.89 -0.478,1.042 -0.718,2.096 -0.718,3.161 0,0.8 0.096,1.538 0.288,2.216 0.239,0.849 0.707,1.453 1.401,1.817 0.335,0.193 0.707,0.303 1.113,0.326 -0.694,-0.436 -1.066,-1.15 -1.113,-2.144 -0.048,-0.751 0.216,-1.441 0.79,-2.069 0.145,-0.123 0.241,-0.195 0.289,-0.219 -0.263,0.751 0.023,1.524 0.862,2.325 0.407,0.411 0.707,0.884 0.897,1.416 0.095,0.267 0.072,0.448 -0.072,0.546 0.312,0.121 0.635,-0.014 0.97,-0.399 0.014,-0.017 0.026,-0.034 0.036,-0.056 0.489,-0.306 0.8,-0.856 0.934,-1.652 C 8.027,20.773 7.872,19.853 7.416,18.956 7.105,18.302 6.734,17.757 6.303,17.321 5.775,16.716 5.417,16 5.225,15.177 4.985,14.281 5.118,13.519 5.62,12.889 4.948,13.397 4.267,13.955 3.573,14.559 Z m 5.172,10.682 c 0,-0.023 0,-0.062 0,-0.108 v -0.11 c -1.94,0.292 -3.292,0.436 -4.059,0.436 -0.791,0 -2.203,-0.144 -4.238,-0.436 0,0.025 0,0.049 0,0.073 0,0.024 0,0.048 0,0.072 v 0.51 c 0,0.022 0,0.048 0,0.072 0,0.023 0,0.048 0,0.072 v 0.072 c 0,0.024 0,0.049 0,0.072 0,0.024 0,0.05 0,0.073 0,0.024 0,0.048 0,0.074 v 0.072 c 0,0.023 0,0.047 0,0.071 0,0.024 0,0.049 0,0.072 v 0.038 c 2.06,0.362 3.497,0.544 4.31,0.544 0.862,0 2.191,-0.17 3.987,-0.508 v -0.4 c 0,-0.024 0,-0.048 0,-0.072 v -0.037 c 0,-0.048 0,-0.085 0,-0.108 0,-0.024 0,-0.048 0,-0.073 v -0.035 c 0,-0.024 0,-0.049 0,-0.073 0,-0.024 0,-0.062 0,-0.108 v -0.038 c 0,-0.024 0,-0.048 0,-0.071 0,-0.025 0,-0.049 0,-0.072 0,-0.026 0,-0.05 0,-0.074 z M 6.338,23.969 h -0.18 v 0.037 z m -0.899,0.073 v -0.036 c -0.023,0 -0.036,0.012 -0.036,0.036 z m -1.58,0.109 C 3.789,24.143 3.723,24.131 3.661,24.115 l -0.018,0.036 c 0.073,0 0.145,0 0.216,0 z"
   id="path2" />
		</g>
	</g>
</g>
<g
   id="guides"
   transform="translate(0.61538462,-6.1538462)">
</g>
</svg>
