<?xml version="1.0" encoding="UTF-8" standalone="no"?>
<!-- Generator: Adobe Illustrator 16.0.0, SVG Export Plug-In . SVG Version: 6.00 Build 0)  -->

<svg
   version="1.1"
   x="0px"
   y="0px"
   width="79.167"
   height="25.5"
   viewBox="0 0 79.167 25.5"
   enable-background="new 0 0 79.167 32"
   xml:space="preserve"
   id="svg9"
   sodipodi:docname="knife_t.svg"
   inkscape:version="1.1.1 (3bf5ae0d25, 2021-09-20)"
   xmlns:inkscape="http://www.inkscape.org/namespaces/inkscape"
   xmlns:sodipodi="http://sodipodi.sourceforge.net/DTD/sodipodi-0.dtd"
   xmlns="http://www.w3.org/2000/svg"
   xmlns:svg="http://www.w3.org/2000/svg"><defs
   id="defs13" /><sodipodi:namedview
   id="namedview11"
   pagecolor="#ffffff"
   bordercolor="#666666"
   borderopacity="1.0"
   inkscape:pageshadow="2"
   inkscape:pageopacity="0.0"
   inkscape:pagecheckerboard="0"
   showgrid="false"
   inkscape:zoom="13.364154"
   inkscape:cx="39.546087"
   inkscape:cy="15.975572"
   inkscape:window-width="1920"
   inkscape:window-height="1017"
   inkscape:window-x="1912"
   inkscape:window-y="-8"
   inkscape:window-maximized="1"
   inkscape:current-layer="svg9" />
<g
   id="Selected_Items"
   transform="translate(0.07482702,-4.8637571)">
	<g
   id="g5">
		<g
   id="Selected_Items_27_">
			<path
   fill-rule="evenodd"
   clip-rule="evenodd"
   fill="#ffffff"
   d="m 78.845,13.061 -1.687,2.095 c -1.33,1.531 -2.5,2.636 -3.516,3.312 -1.8,1.147 -4.052,1.992 -6.753,2.532 -2.412,0.474 -5.226,0.71 -8.447,0.71 H 43.644 c -0.157,0 -0.259,-0.01 -0.305,-0.033 0,-0.022 -0.055,-0.203 -0.168,-0.541 -0.18,-0.449 -0.292,-0.721 -0.338,-0.813 -0.226,-0.449 -0.553,-0.819 -0.979,-1.113 -0.451,-0.315 -1.023,-0.486 -1.723,-0.506 -0.723,-0.023 -1.375,0.124 -1.959,0.438 -0.813,0.428 -1.454,1.05 -1.926,1.858 -0.248,0.405 -0.405,0.766 -0.474,1.082 -0.113,0.677 0.01,1.093 0.373,1.25 0.224,0.045 0.382,0.091 0.473,0.135 0.18,0.046 0.305,0.112 0.37,0.203 0.203,0.339 0.225,0.62 0.066,0.843 -0.155,0.228 -0.449,0.317 -0.877,0.272 -0.519,-0.069 -1.014,-0.292 -1.485,-0.677 -0.587,-0.473 -0.88,-1.068 -0.88,-1.79 v -2.467 c 0,-0.27 -0.021,-0.46 -0.066,-0.573 -0.068,-0.158 -0.19,-0.237 -0.372,-0.237 -0.136,0 -1.6,0.214 -4.392,0.643 -3.4,0.427 -6.634,0.64 -9.696,0.64 -2.996,0 -6.238,-0.157 -9.729,-0.472 -1.734,-0.157 -3.4,-0.313 -5,-0.473 -0.495,0 -0.936,0.236 -1.317,0.709 -0.203,0.271 -0.429,0.631 -0.676,1.084 -0.134,0.224 -0.327,0.347 -0.573,0.369 -0.227,0 -0.43,-0.123 -0.608,-0.369 C 1.201,20.901 1.102,19.705 1.078,17.588 0.831,17.409 0.638,17.173 0.506,16.879 0.347,16.566 0.267,16.226 0.267,15.866 c 0,-0.336 0.08,-0.664 0.239,-0.981 0.132,-0.292 0.325,-0.528 0.572,-0.71 0.045,-1.98 0.146,-3.094 0.305,-3.342 0.179,-0.272 0.382,-0.396 0.608,-0.374 0.246,0 0.439,0.125 0.573,0.374 0.247,0.449 0.473,0.798 0.676,1.046 0.382,0.497 0.822,0.744 1.317,0.744 1.6,-0.158 3.266,-0.315 5,-0.474 3.491,-0.337 6.733,-0.507 9.729,-0.507 3.063,0 6.296,0.216 9.696,0.643 2.792,0.428 4.256,0.641 4.392,0.641 0.182,0 0.304,-0.077 0.372,-0.236 0.046,-0.09 0.066,-0.27 0.066,-0.54 V 9.682 c 0,-0.719 0.293,-1.318 0.88,-1.79 0.472,-0.383 0.967,-0.607 1.485,-0.676 0.428,-0.046 0.722,0.046 0.877,0.271 0.158,0.204 0.137,0.474 -0.066,0.812 -0.065,0.111 -0.19,0.19 -0.37,0.236 -0.091,0.022 -0.249,0.068 -0.473,0.134 -0.363,0.159 -0.486,0.564 -0.373,1.218 0.091,0.631 0.269,1.126 0.542,1.485 l 0.369,0.373 v 0.878 h 9.259 c 1.014,0 2.553,0.078 4.628,0.235 2.612,0.203 4.627,0.372 6.045,0.508 5.565,0.451 9.641,0.63 12.23,0.541 2.839,-0.113 5.36,-0.294 7.566,-0.541 z"
   id="path2" />
		</g>
	</g>
</g>
<g
   id="guides">
</g>
</svg>
