<?xml version="1.0" encoding="UTF-8" standalone="no"?>
<!-- Generator: Adobe Illustrator 16.0.0, SVG Export Plug-In . SVG Version: 6.00 Build 0)  -->

<svg
   version="1.1"
   x="0px"
   y="0px"
   width="72"
   height="22.1"
   viewBox="0 0 72 22.100001"
   enable-background="new 0 0 72 32"
   xml:space="preserve"
   id="svg9"
   sodipodi:docname="knife_gut.svg"
   inkscape:version="1.1.1 (3bf5ae0d25, 2021-09-20)"
   xmlns:inkscape="http://www.inkscape.org/namespaces/inkscape"
   xmlns:sodipodi="http://sodipodi.sourceforge.net/DTD/sodipodi-0.dtd"
   xmlns="http://www.w3.org/2000/svg"
   xmlns:svg="http://www.w3.org/2000/svg"><defs
   id="defs13" /><sodipodi:namedview
   id="namedview11"
   pagecolor="#ffffff"
   bordercolor="#666666"
   borderopacity="1.0"
   inkscape:pageshadow="2"
   inkscape:pageopacity="0.0"
   inkscape:pagecheckerboard="0"
   showgrid="false"
   inkscape:zoom="14.694444"
   inkscape:cx="35.965975"
   inkscape:cy="16.026466"
   inkscape:window-width="1920"
   inkscape:window-height="1017"
   inkscape:window-x="-8"
   inkscape:window-y="-8"
   inkscape:window-maximized="1"
   inkscape:current-layer="Selected_Items_65_"
   height="22.1px" />
<g
   id="Selected_Items">
	<g
   id="g5">
		<g
   id="Selected_Items_65_">
			<path
   fill-rule="evenodd"
   clip-rule="evenodd"
   fill="#ffffff"
   d="m 2.7572117,12.000388 c -0.226,-0.169 -0.479,-0.254 -0.761,-0.254 -0.263,0.02 -0.479,0.084 -0.648,0.198 -0.114,0.093 -0.228,0.244 -0.338,0.452 -0.094,0.167 -0.13099996,0.355 -0.11299996,0.563 0,0.17 0.036,0.331 0.11299996,0.479 0.037,0.15 0.159,0.292 0.365,0.424 0.188,0.113 0.367,0.179 0.537,0.198 0.205,0.018 0.403,-0.039 0.591,-0.17 0.149,-0.056 0.3,-0.168 0.45,-0.338 0.113,-0.132 0.191,-0.311 0.227,-0.536 0.018,-0.208 -0.008,-0.386 -0.085,-0.535 -0.074,-0.19 -0.187,-0.35 -0.338,-0.481 z M 71.499212,7.2923892 c -0.527,0.603 -1.24,1.26 -2.143,1.973 -1.787,1.4659988 -3.524,2.5469988 -5.217,3.2419988 -1.953,0.827 -3.861,1.458 -5.722,1.891 -1.655,0.395 -3.525,0.676 -5.61,0.846 -1.656,0.131 -4.598,0.216 -8.826,0.252 h -5.837 v -0.534 l -0.395,-0.509 -0.478,-0.027 -0.284,0.367 -0.507,-0.141 c -0.037,-0.432 -0.131,-0.903 -0.282,-1.411 -0.319,-1.013 -0.751,-1.701 -1.298,-2.057 -0.713,-0.453 -1.362,-0.771 -1.946,-0.959 -0.638,-0.206 -1.334,-0.2899997 -2.084,-0.2529997 -0.734,0.055 -1.373,0.1959997 -1.918,0.4209997 -0.49,0.189 -1.006,0.509 -1.551,0.959 -0.469,0.357 -0.78,0.564 -0.93,0.62 -0.057,0.036 -0.132,0.056 -0.227,0.056 -0.15,0 -0.263,0.009 -0.337,0.029 -0.227,0.02 -0.499,-0.103 -0.819,-0.368 -0.169,-0.15 -0.291,-0.252 -0.365,-0.309 -0.134,-0.113 -0.228,-0.18 -0.283,-0.196 -0.131,-0.056 -0.912,-0.056 -2.34,0 -1.071,0.037 -2.049,0.094 -2.934,0.168 -2.931,0.208 -4.971,0.387 -6.118,0.537 -1.033,0.131 -2.021,0.271 -2.961,0.422 -1.1650003,0.189 -1.8320003,0.31 -2.0010003,0.366 -0.132,0.038 -0.799,0.338 -2.003,0.902 -1.258,0.583 -2,0.913 -2.226,0.987 -0.415,0.169 -0.725,0.272 -0.933,0.311 -0.355,0.093 -0.674,0.093 -0.958,0 -0.3,-0.075 -0.573,-0.197 -0.818,-0.368 -0.22499996,-0.131 -0.36599998,-0.262 -0.42199998,-0.393 -0.15,-0.188 -0.255,-0.378 -0.312,-0.565 -0.111,-0.283 -0.159,-0.573 -0.139,-0.875 0.018,-0.358 0.028,-0.574 0.028,-0.649 0.017,-0.112 0.084,-0.329 0.196,-0.648 0.133,-0.357 0.61999998,-1.335 1.46599998,-2.9319988 0.865,-1.617 1.374,-2.501 1.524,-2.651 0.17,-0.186 0.283,-0.29 0.34,-0.31 0.075,-0.057 0.169,-0.085 0.282,-0.085 0.018,0 0.168,0.02 0.451,0.057 0.207,0.038 0.366,0.028 0.48,-0.028 0.112,-0.055 0.187,-0.15 0.226,-0.281 V 4.9533894 l 0.535,0.1669998 0.48,-0.3369998 1.494,-0.254 c 0.677,-0.169 1.409,-0.339 2.1980004,-0.507 2.5759999,-0.526 5.2919999,-0.958 8.1489999,-1.297 2.857,-0.338 6.503,-0.5459999 10.94,-0.6209999 2.199,-0.037 4.126,-0.037 5.779,0 l 0.481,0.4529999 0.649,-0.3389999 0.646,0.3939999 0.481,-0.3939999 0.535,0.4509999 0.677,-0.338 0.563,0.48 0.591,-0.338 0.622,0.366 0.535,-0.282 0.649,0.392 0.593,-0.281 0.45,0.422 0.592,-0.281 0.51,0.478 0.733,-0.283 0.563,0.424 0.731,-0.283 0.481,0.453 0.62,-0.283 1.606,0.283 c 1.26,0.206 2.397,0.433 3.414,0.676 1.033,0.226 2.78,0.7429998 5.243,1.5509998 1.259,0.396 2.407,0.78 3.441,1.156 l 0.195,0.057 c 0.152,0.057 0.302,0.103 0.453,0.142 0.49,0.075 0.874,0.018 1.156,-0.17 0.281,-0.206 0.422,-0.441 0.422,-0.703 0.02,-0.151 -0.019,-0.36 -0.114,-0.623 -0.056,-0.131 -0.329,-0.355 -0.816,-0.675 -0.509,-0.2819998 -0.996,-0.5089998 -1.468,-0.6779998 -0.148,-0.037 -0.45,-0.142 -0.902,-0.31 -0.15,-0.018 -0.245,-0.065 -0.281,-0.142 -0.039,-0.095 -0.039,-0.179 0,-0.253 0.019,-0.132 0.113,-0.217 0.281,-0.253 0.132,-0.057 0.236,-0.085 0.311,-0.085 0.076,0 0.216,0.02 0.424,0.056 0.225,0.058 1.062,0.283 2.509,0.677 1.597,0.471 2.856,0.865 3.778,1.1839998 0.882,0.263 2.03,0.694 3.441,1.297 0.714,0.302 1.334,0.564 1.861,0.79 z"
   id="path2" />
		</g>
	</g>
</g>
<g
   id="guides">
</g>
</svg>
