<?xml version="1.0" encoding="UTF-8" standalone="no"?>
<!-- Generator: Adobe Illustrator 16.0.0, SVG Export Plug-In . SVG Version: 6.00 Build 0)  -->

<svg
   version="1.1"
   x="0px"
   y="0px"
   width="82.5"
   height="28.5"
   viewBox="0 0 82.5 28.5"
   enable-background="new 0 0 82.5 32"
   xml:space="preserve"
   id="svg19"
   sodipodi:docname="knife_push.svg"
   inkscape:version="1.1.1 (3bf5ae0d25, 2021-09-20)"
   xmlns:inkscape="http://www.inkscape.org/namespaces/inkscape"
   xmlns:sodipodi="http://sodipodi.sourceforge.net/DTD/sodipodi-0.dtd"
   xmlns="http://www.w3.org/2000/svg"
   xmlns:svg="http://www.w3.org/2000/svg"><defs
   id="defs23" /><sodipodi:namedview
   id="namedview21"
   pagecolor="#ffffff"
   bordercolor="#666666"
   borderopacity="1.0"
   inkscape:pageshadow="2"
   inkscape:pageopacity="0.0"
   inkscape:pagecheckerboard="0"
   showgrid="false"
   inkscape:zoom="12.824242"
   inkscape:cx="41.211011"
   inkscape:cy="16.024338"
   inkscape:window-width="1920"
   inkscape:window-height="1017"
   inkscape:window-x="-8"
   inkscape:window-y="-8"
   inkscape:window-maximized="1"
   inkscape:current-layer="svg19" />
<g
   id="Selected_Items"
   transform="translate(-0.15595463,-1.9494329)">
	<g
   id="g15">
		<g
   id="Selected_Items_25_">
			<g
   id="g6">
				<path
   fill-rule="evenodd"
   clip-rule="evenodd"
   fill="#ffffff"
   d="m 35.559,17.937 c -2.777,1.284 -5.455,2.143 -8.031,2.573 -2.224,0.379 -4.532,0.67 -6.933,0.871 -1.995,0.153 -3.095,0.253 -3.3,0.303 -0.274,0.053 -0.54,0.09 -0.793,0.114 l -0.3,0.038 c -0.457,0.103 -0.723,0.203 -0.797,0.303 0,0.153 -0.078,0.379 -0.229,0.682 -0.151,0.355 -0.279,0.569 -0.38,0.645 l -0.304,0.19 c -0.049,0 -0.124,-0.09 -0.225,-0.266 C 14.214,23.238 14.14,22.872 14.038,22.292 13.961,21.584 13.913,21.128 13.886,20.927 13.759,20.497 13.381,19.953 12.751,19.3 12.043,18.517 11.349,18.071 10.666,17.973 9.883,17.87 9.163,17.996 8.507,18.35 c -0.655,0.329 -1.036,0.784 -1.136,1.364 -0.152,0.706 -0.203,1.313 -0.152,1.82 0.103,0.808 0.442,1.741 1.024,2.803 0.125,0.302 0.011,0.783 -0.341,1.441 -0.254,0.403 -0.633,0.855 -1.139,1.359 -0.757,0.709 -1.352,0.961 -1.78,0.759 C 4.554,27.669 3.898,26.698 3.014,24.982 2.559,24.094 2.065,23.125 1.535,22.064 1.256,21.508 1.044,20.384 0.89,18.691 0.841,17.858 0.802,17.062 0.777,16.306 V 14.562 C 0.829,13.224 0.955,12.136 1.157,11.303 1.358,10.342 1.938,8.956 2.898,7.134 3.784,5.418 4.389,4.421 4.717,4.143 4.975,3.918 5.466,4.08 6.199,4.636 c 0.732,0.53 1.327,1.177 1.779,1.933 0.203,0.305 0.304,0.492 0.304,0.566 0.05,0.154 0,0.419 -0.152,0.798 -0.302,0.604 -0.529,1.098 -0.681,1.478 -0.304,0.681 -0.456,1.246 -0.456,1.702 0.026,0.685 0.054,1.161 0.078,1.44 0.1,0.43 0.253,0.77 0.455,1.024 0.452,0.454 0.972,0.781 1.551,0.984 0.455,0.15 0.847,0.203 1.174,0.15 0.456,-0.052 0.974,-0.251 1.555,-0.604 0.835,-0.508 1.441,-1.163 1.818,-1.972 0.152,-0.302 0.292,-0.858 0.417,-1.669 l 0.303,-1.511 c 0.052,-0.203 0.102,-0.317 0.15,-0.343 0.053,-0.025 0.114,-0.037 0.19,-0.037 0.025,0.024 0.178,0.252 0.457,0.682 0.277,0.479 0.44,0.77 0.491,0.87 0.076,0.076 0.238,0.139 0.49,0.189 0.129,0 0.241,0 0.345,0 0.199,0 0.301,0.052 0.301,0.149 l 4.281,0.269 c 3.082,0.151 5.076,0.354 5.987,0.605 0.275,0.076 0.945,0.216 2.006,0.418 0.962,0.202 1.769,0.377 2.425,0.531 1.517,0.402 2.881,0.944 4.092,1.628 0.48,0.251 0.936,0.52 1.362,0.794 0.557,0.354 0.999,0.621 1.327,0.797 0.53,0.378 0.796,0.594 0.796,0.644 -1.16,0.658 -2.325,1.252 -3.485,1.786 z M 6.275,22.366 C 6.225,22.292 6.186,22.204 6.16,22.102 6.11,22.024 6.01,21.988 5.857,21.988 5.656,21.938 5.252,22.102 4.646,22.481 4.267,22.732 3.913,22.972 3.584,23.2 3.483,23.275 3.444,23.402 3.469,23.579 l 0.076,0.227 c 0.229,0.381 0.444,0.758 0.645,1.135 0.507,0.759 0.834,1.165 0.986,1.214 0.175,0.052 0.492,-0.113 0.946,-0.492 C 6.525,25.36 6.754,25.145 6.803,25.017 6.856,24.941 6.79,24.526 6.614,23.768 6.463,22.985 6.349,22.518 6.275,22.366 Z M 2.978,11.685 C 2.776,11.709 2.575,11.811 2.374,11.987 2.068,12.262 1.881,13.06 1.804,14.373 L 1.767,16.23 c 0,0.505 0.037,1.035 0.114,1.591 0.102,1.087 0.263,1.819 0.493,2.197 0.177,0.279 0.402,0.454 0.682,0.529 C 3.308,20.6 3.56,20.59 3.811,20.51 4.064,20.436 4.86,19.739 6.199,18.426 7.536,17.112 8.194,16.369 8.169,16.192 8.169,16.015 7.449,15.271 6.01,13.958 4.647,12.694 3.825,11.987 3.546,11.836 3.37,11.733 3.179,11.685 2.978,11.685 Z M 6.463,6.795 C 6.286,6.568 6.034,6.355 5.706,6.152 5.378,5.975 5.098,5.886 4.873,5.886 4.697,5.886 4.354,6.367 3.851,7.325 3.345,8.287 3.104,8.829 3.129,8.957 c 0,0.074 0.05,0.162 0.15,0.262 0.102,0.13 0.204,0.203 0.305,0.229 l 1.779,0.909 c 0.078,0.077 0.165,0.11 0.267,0.11 0.251,0.079 0.404,-0.022 0.454,-0.3 C 6.135,9.94 6.262,9.348 6.463,8.387 6.59,7.528 6.59,6.998 6.463,6.795 Z"
   id="path2" />
				<path
   fill-rule="evenodd"
   clip-rule="evenodd"
   fill="#ffffff"
   d="m 35.559,17.937 c -2.777,1.284 -5.455,2.143 -8.031,2.573 -2.224,0.379 -4.532,0.67 -6.933,0.871 -1.995,0.153 -3.095,0.253 -3.3,0.303 -0.274,0.053 -0.54,0.09 -0.793,0.114 l -0.3,0.038 c -0.457,0.103 -0.723,0.203 -0.797,0.303 0,0.153 -0.078,0.379 -0.229,0.682 -0.151,0.355 -0.279,0.569 -0.38,0.645 l -0.304,0.19 c -0.049,0 -0.124,-0.09 -0.225,-0.266 C 14.214,23.238 14.14,22.872 14.038,22.292 13.961,21.584 13.913,21.128 13.886,20.927 13.759,20.497 13.381,19.953 12.751,19.3 12.043,18.517 11.349,18.071 10.666,17.973 9.883,17.87 9.163,17.996 8.507,18.35 c -0.655,0.329 -1.036,0.784 -1.136,1.364 -0.152,0.706 -0.203,1.313 -0.152,1.82 0.103,0.808 0.442,1.741 1.024,2.803 0.125,0.302 0.011,0.783 -0.341,1.441 -0.254,0.403 -0.633,0.855 -1.139,1.359 -0.757,0.709 -1.352,0.961 -1.78,0.759 C 4.554,27.669 3.898,26.698 3.014,24.982 2.559,24.094 2.065,23.125 1.535,22.064 1.256,21.508 1.044,20.384 0.89,18.691 0.841,17.858 0.802,17.062 0.777,16.306 V 14.562 C 0.829,13.224 0.955,12.136 1.157,11.303 1.358,10.342 1.938,8.956 2.898,7.134 3.784,5.418 4.389,4.421 4.717,4.143 4.975,3.918 5.466,4.08 6.199,4.636 c 0.732,0.53 1.327,1.177 1.779,1.933 0.203,0.305 0.304,0.492 0.304,0.566 0.05,0.154 0,0.419 -0.152,0.798 -0.302,0.604 -0.529,1.098 -0.681,1.478 -0.304,0.681 -0.456,1.246 -0.456,1.702 0.026,0.685 0.054,1.161 0.078,1.44 0.1,0.43 0.253,0.77 0.455,1.024 0.452,0.454 0.972,0.781 1.551,0.984 0.455,0.15 0.847,0.203 1.174,0.15 0.456,-0.052 0.974,-0.251 1.555,-0.604 0.835,-0.508 1.441,-1.163 1.818,-1.972 0.152,-0.302 0.292,-0.858 0.417,-1.669 l 0.303,-1.511 c 0.052,-0.203 0.102,-0.317 0.15,-0.343 0.053,-0.025 0.114,-0.037 0.19,-0.037 0.025,0.024 0.178,0.252 0.457,0.682 0.277,0.479 0.44,0.77 0.491,0.87 0.076,0.076 0.238,0.139 0.49,0.189 0.129,0 0.241,0 0.345,0 0.199,0 0.301,0.052 0.301,0.149 l 4.281,0.269 c 3.082,0.151 5.076,0.354 5.987,0.605 0.275,0.076 0.945,0.216 2.006,0.418 0.962,0.202 1.769,0.377 2.425,0.531 1.517,0.402 2.881,0.944 4.092,1.628 0.48,0.251 0.936,0.52 1.362,0.794 0.557,0.354 0.999,0.621 1.327,0.797 0.53,0.378 0.796,0.594 0.796,0.644 -1.16,0.658 -2.325,1.252 -3.485,1.786 z M 6.463,6.795 c 0.127,0.203 0.127,0.733 0,1.593 -0.201,0.961 -0.328,1.554 -0.379,1.78 -0.05,0.277 -0.203,0.379 -0.454,0.3 -0.102,0 -0.188,-0.033 -0.267,-0.11 L 3.584,9.448 C 3.483,9.422 3.381,9.348 3.279,9.219 3.178,9.119 3.129,9.031 3.129,8.957 3.104,8.829 3.345,8.287 3.85,7.325 4.354,6.367 4.697,5.886 4.872,5.886 c 0.226,0 0.506,0.089 0.834,0.267 0.329,0.201 0.581,0.415 0.757,0.642 z m -3.485,4.89 c 0.201,0 0.392,0.049 0.567,0.15 0.279,0.151 1.101,0.858 2.464,2.122 1.439,1.313 2.159,2.058 2.159,2.234 0.025,0.178 -0.633,0.92 -1.97,2.234 -1.339,1.313 -2.135,2.01 -2.388,2.084 -0.251,0.08 -0.503,0.09 -0.756,0.037 C 2.775,20.471 2.549,20.296 2.372,20.017 2.142,19.639 1.98,18.907 1.879,17.82 1.802,17.264 1.765,16.734 1.765,16.229 l 0.037,-1.857 c 0.077,-1.313 0.265,-2.11 0.57,-2.386 0.203,-0.175 0.404,-0.277 0.606,-0.301 z m 3.297,10.681 c 0.074,0.151 0.188,0.619 0.339,1.401 0.177,0.758 0.242,1.173 0.189,1.249 C 6.754,25.144 6.526,25.359 6.122,25.662 5.668,26.041 5.351,26.206 5.176,26.154 5.024,26.105 4.697,25.699 4.19,24.94 3.99,24.563 3.774,24.186 3.545,23.805 L 3.469,23.578 c -0.024,-0.177 0.015,-0.304 0.115,-0.379 0.328,-0.228 0.683,-0.468 1.062,-0.719 0.605,-0.379 1.01,-0.543 1.211,-0.493 0.152,0 0.253,0.036 0.303,0.114 0.026,0.103 0.065,0.191 0.115,0.265 z"
   id="path4" />
			</g>
			<g
   id="g12">
				<path
   fill-rule="evenodd"
   clip-rule="evenodd"
   fill="#ffffff"
   d="m 63.669,21.381 c -1.995,0.153 -3.094,0.253 -3.296,0.303 -0.302,0.053 -0.568,0.09 -0.796,0.114 l -0.302,0.038 c -0.48,0.103 -0.746,0.203 -0.796,0.303 -0.025,0.153 -0.103,0.379 -0.229,0.682 -0.173,0.355 -0.313,0.569 -0.416,0.645 l -0.266,0.19 c -0.049,0 -0.126,-0.09 -0.225,-0.266 -0.077,-0.152 -0.153,-0.518 -0.229,-1.098 -0.075,-0.708 -0.14,-1.164 -0.189,-1.365 -0.125,-0.43 -0.493,-0.974 -1.1,-1.627 -0.704,-0.783 -1.412,-1.229 -2.121,-1.327 -0.757,-0.103 -1.463,0.023 -2.12,0.377 -0.683,0.329 -1.074,0.784 -1.176,1.364 -0.124,0.706 -0.163,1.313 -0.114,1.82 0.102,0.808 0.431,1.741 0.986,2.803 0.152,0.302 0.051,0.783 -0.301,1.441 -0.281,0.403 -0.671,0.855 -1.175,1.359 -0.734,0.709 -1.315,0.961 -1.746,0.759 -0.427,-0.227 -1.083,-1.198 -1.968,-2.914 -0.481,-0.888 -0.973,-1.857 -1.479,-2.918 -0.303,-0.556 -0.516,-1.68 -0.645,-3.373 -0.074,-0.833 -0.112,-1.629 -0.112,-2.385 v -1.744 c 0.051,-1.338 0.162,-2.426 0.34,-3.259 0.229,-0.961 0.819,-2.347 1.78,-4.169 0.886,-1.716 1.491,-2.713 1.82,-2.991 0.251,-0.226 0.743,-0.063 1.477,0.492 0.734,0.53 1.326,1.177 1.781,1.933 0.201,0.305 0.302,0.492 0.302,0.566 0.053,0.154 0,0.419 -0.151,0.798 -0.303,0.604 -0.53,1.099 -0.682,1.479 -0.305,0.681 -0.454,1.246 -0.454,1.702 0,0.685 0.025,1.161 0.075,1.44 0.074,0.43 0.229,0.77 0.455,1.024 0.455,0.454 0.971,0.781 1.553,0.984 0.43,0.15 0.809,0.203 1.135,0.15 0.482,-0.052 1.013,-0.251 1.593,-0.604 0.835,-0.508 1.44,-1.163 1.817,-1.972 0.128,-0.302 0.269,-0.858 0.418,-1.669 l 0.305,-1.511 c 0.049,-0.203 0.101,-0.317 0.149,-0.343 0.052,-0.025 0.114,-0.037 0.19,-0.037 0.025,0.024 0.178,0.252 0.455,0.682 0.276,0.479 0.442,0.77 0.493,0.87 0.075,0.076 0.228,0.139 0.454,0.189 0.125,0 0.253,0 0.379,0 0.176,0 0.277,0.052 0.303,0.149 l 4.28,0.269 c 3.056,0.151 5.041,0.354 5.949,0.605 0.304,0.076 0.972,0.216 2.009,0.418 0.983,0.202 1.791,0.377 2.423,0.531 2.097,0.58 3.929,1.386 5.495,2.422 0.555,0.354 0.983,0.621 1.285,0.797 0.558,0.378 0.837,0.594 0.837,0.644 -4.069,2.299 -7.92,3.752 -11.555,4.356 -2.195,0.382 -4.496,0.673 -6.895,0.874 z M 46.886,20.51 c 0.253,-0.074 1.049,-0.771 2.387,-2.084 1.339,-1.314 1.997,-2.057 1.97,-2.234 0,-0.177 -0.72,-0.921 -2.16,-2.234 -1.362,-1.264 -2.196,-1.971 -2.499,-2.122 -0.178,-0.102 -0.354,-0.15 -0.53,-0.15 -0.202,0.024 -0.416,0.126 -0.643,0.302 -0.305,0.275 -0.48,1.073 -0.531,2.386 l -0.036,1.857 c 0,0.505 0.024,1.035 0.074,1.591 0.098,1.087 0.265,1.819 0.493,2.197 0.175,0.279 0.415,0.454 0.718,0.529 0.226,0.052 0.479,0.042 0.757,-0.038 z m 2.313,1.593 c -0.025,-0.078 -0.128,-0.114 -0.306,-0.114 -0.176,-0.05 -0.579,0.114 -1.212,0.493 -0.352,0.251 -0.705,0.491 -1.062,0.719 -0.099,0.075 -0.123,0.202 -0.073,0.379 l 0.037,0.227 c 0.228,0.381 0.457,0.758 0.682,1.135 0.479,0.759 0.809,1.165 0.984,1.214 0.178,0.052 0.48,-0.113 0.91,-0.492 0.403,-0.303 0.646,-0.518 0.719,-0.646 0.028,-0.076 -0.036,-0.491 -0.188,-1.249 -0.152,-0.782 -0.277,-1.25 -0.379,-1.401 -0.025,-0.076 -0.061,-0.164 -0.112,-0.265 z m 0.3,-15.308 C 49.35,6.568 49.096,6.355 48.744,6.152 48.416,5.974 48.15,5.885 47.948,5.885 c -0.203,0 -0.556,0.481 -1.062,1.439 -0.506,0.962 -0.746,1.504 -0.717,1.632 0.022,0.074 0.072,0.162 0.149,0.262 0.1,0.13 0.202,0.203 0.301,0.229 l 1.783,0.909 c 0.102,0.077 0.201,0.11 0.302,0.11 0.253,0.079 0.404,-0.022 0.455,-0.3 0.025,-0.227 0.138,-0.819 0.339,-1.78 0.155,-0.858 0.155,-1.388 0.001,-1.591 z"
   id="path8" />
				<path
   fill-rule="evenodd"
   clip-rule="evenodd"
   fill="#ffffff"
   d="m 63.669,21.381 c -1.995,0.153 -3.094,0.253 -3.296,0.303 -0.302,0.053 -0.568,0.09 -0.796,0.114 l -0.302,0.038 c -0.48,0.103 -0.746,0.203 -0.796,0.303 -0.025,0.153 -0.103,0.379 -0.229,0.682 -0.173,0.355 -0.313,0.569 -0.416,0.645 l -0.266,0.19 c -0.049,0 -0.126,-0.09 -0.225,-0.266 -0.077,-0.152 -0.153,-0.518 -0.229,-1.098 -0.075,-0.708 -0.14,-1.164 -0.189,-1.365 -0.125,-0.43 -0.493,-0.974 -1.1,-1.627 -0.704,-0.783 -1.412,-1.229 -2.121,-1.327 -0.757,-0.103 -1.463,0.023 -2.12,0.377 -0.683,0.329 -1.074,0.784 -1.176,1.364 -0.124,0.706 -0.163,1.313 -0.114,1.82 0.102,0.808 0.431,1.741 0.986,2.803 0.152,0.302 0.051,0.783 -0.301,1.441 -0.281,0.403 -0.671,0.855 -1.175,1.359 -0.734,0.709 -1.315,0.961 -1.746,0.759 -0.427,-0.227 -1.083,-1.198 -1.968,-2.914 -0.481,-0.888 -0.973,-1.857 -1.479,-2.918 -0.303,-0.556 -0.516,-1.68 -0.645,-3.373 -0.074,-0.833 -0.112,-1.629 -0.112,-2.385 v -1.744 c 0.051,-1.338 0.162,-2.426 0.34,-3.259 0.229,-0.961 0.819,-2.347 1.78,-4.169 0.886,-1.716 1.491,-2.713 1.82,-2.991 0.251,-0.226 0.743,-0.063 1.477,0.492 0.734,0.53 1.326,1.177 1.781,1.933 0.201,0.305 0.302,0.492 0.302,0.566 0.053,0.154 0,0.419 -0.151,0.798 -0.303,0.604 -0.53,1.099 -0.682,1.479 -0.305,0.681 -0.454,1.246 -0.454,1.702 0,0.685 0.025,1.161 0.075,1.44 0.074,0.43 0.229,0.77 0.455,1.024 0.455,0.454 0.971,0.781 1.553,0.984 0.43,0.15 0.809,0.203 1.135,0.15 0.482,-0.052 1.013,-0.251 1.593,-0.604 0.835,-0.508 1.44,-1.163 1.817,-1.972 0.128,-0.302 0.269,-0.858 0.418,-1.669 l 0.305,-1.511 c 0.049,-0.203 0.101,-0.317 0.149,-0.343 0.052,-0.025 0.114,-0.037 0.19,-0.037 0.025,0.024 0.178,0.252 0.455,0.682 0.276,0.479 0.442,0.77 0.493,0.87 0.075,0.076 0.228,0.139 0.454,0.189 0.125,0 0.253,0 0.379,0 0.176,0 0.277,0.052 0.303,0.149 l 4.28,0.269 c 3.056,0.151 5.041,0.354 5.949,0.605 0.304,0.076 0.972,0.216 2.009,0.418 0.983,0.202 1.791,0.377 2.423,0.531 2.097,0.58 3.929,1.386 5.495,2.422 0.555,0.354 0.983,0.621 1.285,0.797 0.558,0.378 0.837,0.594 0.837,0.644 -4.069,2.299 -7.92,3.752 -11.555,4.356 -2.195,0.382 -4.496,0.673 -6.895,0.874 z M 49.499,6.795 c 0.154,0.203 0.154,0.733 0,1.593 -0.201,0.961 -0.313,1.554 -0.339,1.78 -0.051,0.277 -0.202,0.379 -0.455,0.3 -0.101,0 -0.2,-0.033 -0.302,-0.11 L 46.62,9.448 C 46.521,9.422 46.419,9.348 46.319,9.219 46.242,9.119 46.192,9.031 46.17,8.957 c -0.029,-0.128 0.211,-0.67 0.717,-1.632 0.506,-0.958 0.858,-1.439 1.062,-1.439 0.202,0 0.468,0.089 0.796,0.267 0.35,0.201 0.604,0.415 0.754,0.642 z m -0.3,15.308 c 0.051,0.102 0.087,0.189 0.113,0.264 0.102,0.151 0.227,0.619 0.379,1.401 0.151,0.758 0.216,1.173 0.188,1.249 -0.073,0.128 -0.315,0.343 -0.719,0.646 -0.43,0.379 -0.732,0.544 -0.91,0.492 -0.176,-0.049 -0.505,-0.455 -0.984,-1.214 -0.225,-0.377 -0.454,-0.754 -0.682,-1.135 l -0.037,-0.227 c -0.05,-0.177 -0.025,-0.304 0.073,-0.379 0.356,-0.228 0.71,-0.468 1.062,-0.719 0.633,-0.379 1.036,-0.543 1.212,-0.493 0.177,0 0.279,0.036 0.305,0.115 z M 46.886,20.51 c -0.278,0.08 -0.531,0.09 -0.758,0.037 -0.303,-0.075 -0.543,-0.25 -0.718,-0.529 -0.229,-0.378 -0.396,-1.11 -0.493,-2.197 -0.05,-0.556 -0.074,-1.086 -0.074,-1.591 l 0.036,-1.857 c 0.051,-1.313 0.227,-2.11 0.531,-2.386 0.227,-0.176 0.44,-0.277 0.643,-0.302 0.176,0 0.353,0.049 0.53,0.15 0.303,0.151 1.137,0.858 2.499,2.122 1.44,1.313 2.16,2.058 2.16,2.234 0.027,0.178 -0.631,0.92 -1.97,2.234 -1.337,1.314 -2.133,2.011 -2.386,2.085 z"
   id="path10" />
			</g>
		</g>
	</g>
</g>
<g
   id="guides">
</g>
</svg>
