<?xml version="1.0" encoding="UTF-8" standalone="no"?>
<!-- Generator: Adobe Illustrator 16.0.0, SVG Export Plug-In . SVG Version: 6.00 Build 0)  -->

<svg
   version="1.1"
   x="0px"
   y="0px"
   width="76.833"
   height="25"
   viewBox="0 0 76.833 25"
   enable-background="new 0 0 76.833 32"
   xml:space="preserve"
   id="svg9"
   sodipodi:docname="knife.svg"
   inkscape:version="1.1.1 (3bf5ae0d25, 2021-09-20)"
   xmlns:inkscape="http://www.inkscape.org/namespaces/inkscape"
   xmlns:sodipodi="http://sodipodi.sourceforge.net/DTD/sodipodi-0.dtd"
   xmlns="http://www.w3.org/2000/svg"
   xmlns:svg="http://www.w3.org/2000/svg"><defs
   id="defs13" /><sodipodi:namedview
   id="namedview11"
   pagecolor="#ffffff"
   bordercolor="#666666"
   borderopacity="1.0"
   inkscape:pageshadow="2"
   inkscape:pageopacity="0.0"
   inkscape:pagecheckerboard="0"
   showgrid="false"
   inkscape:zoom="13.770125"
   inkscape:cx="38.38019"
   inkscape:cy="16.012927"
   inkscape:window-width="1920"
   inkscape:window-height="1017"
   inkscape:window-x="-8"
   inkscape:window-y="-8"
   inkscape:window-maximized="1"
   inkscape:current-layer="svg9" />
<g
   id="Selected_Items"
   transform="translate(0.21786295,-4.6477429)">
	<g
   id="g5">
		<g
   id="Selected_Items_20_">
			<path
   fill-rule="evenodd"
   clip-rule="evenodd"
   fill="#ffffff"
   d="m 50.586,12.472 h 10.991 l 6.16,0.589 c 4.397,0.66 7.338,1.632 8.824,2.91 -1.672,1.466 -4.468,2.478 -8.392,3.034 -1.648,0.227 -3.765,0.37 -6.345,0.432 H 50.586 c -0.062,-0.432 -0.176,-0.647 -0.34,-0.647 -0.166,0 -0.279,0.216 -0.342,0.647 h -0.062 c -0.063,-0.432 -0.176,-0.647 -0.339,-0.647 -0.167,0 -0.278,0.216 -0.34,0.647 H 48.852 C 48.687,19.005 48.45,18.79 48.138,18.79 c -0.311,0 -0.545,0.216 -0.712,0.647 H 47.12 c -0.063,-0.432 -0.177,-0.647 -0.341,-0.647 -0.166,0 -0.28,0.216 -0.342,0.647 h -0.062 c -0.062,-0.432 -0.176,-0.647 -0.342,-0.647 -0.164,0 -0.278,0.216 -0.34,0.647 h -0.311 c -0.123,-0.432 -0.36,-0.647 -0.71,-0.647 -0.311,0 -0.549,0.216 -0.713,0.647 h -0.278 c -0.104,-0.432 -0.228,-0.647 -0.37,-0.647 -0.166,0 -0.279,0.216 -0.341,0.647 H 42.94 C 42.876,19.005 42.764,18.79 42.6,18.79 c -0.146,0 -0.27,0.216 -0.372,0.647 h -0.311 c -0.124,-0.432 -0.353,-0.647 -0.681,-0.647 -0.351,0 -0.589,0.216 -0.713,0.647 h -0.308 c -0.063,-0.432 -0.176,-0.647 -0.343,-0.647 -0.165,0 -0.279,0.216 -0.341,0.647 h -0.062 c -0.062,-0.432 -0.176,-0.647 -0.34,-0.647 -0.165,0 -0.278,0.216 -0.341,0.647 H 36.16 c -0.311,-0.185 -0.557,-0.256 -0.744,-0.214 -0.39,0.164 -0.671,0.274 -0.836,0.341 l -0.557,0.061 v 0.435 l -1.641,4.735 -1.858,-0.527 c 0.311,-0.433 0.495,-0.949 0.558,-1.546 0.125,-1.157 -0.423,-2.076 -1.642,-2.757 -2.289,-0.29 -4.066,-0.257 -5.324,0.095 -0.517,0.165 -3.313,0.213 -8.391,0.152 C 10.42,20.15 7.542,19.937 7.086,19.565 6.757,19.481 6.487,19.491 6.281,19.595 L 6.036,19.781 C 4.734,20.936 3.942,21.513 3.651,21.513 2.329,21.513 1.454,20.936 1.017,19.781 0.709,18.998 0.522,18.025 0.46,16.87 H 0.4 c -0.268,0 -0.402,-0.237 -0.402,-0.714 0,-0.475 0.135,-0.712 0.402,-0.712 h 0.062 c 0.062,-1.277 0.311,-2.144 0.745,-2.598 0.516,-0.558 0.938,-0.909 1.269,-1.055 0.268,-0.123 0.682,-0.174 1.239,-0.154 0.432,0.021 0.835,0.114 1.206,0.278 0.042,0.021 0.38,0.229 1.021,0.618 0.125,0.023 1.652,-0.122 4.584,-0.433 2.991,-0.31 5.405,-0.41 7.244,-0.31 6.19,0.29 9.783,0.414 10.773,0.37 1.506,-0.309 2.569,-0.804 3.188,-1.482 0.599,-0.663 1.063,-1.818 1.394,-3.471 l 1.704,0.373 0.092,1.023 -0.773,2.257 -0.093,1.55 0.558,0.249 c 0.393,0.143 0.65,0.215 0.774,0.215 0.204,0 0.516,-0.134 0.926,-0.402 h 2.479 c 0.082,0.434 0.195,0.651 0.341,0.651 0.164,0 0.278,-0.218 0.34,-0.651 h 0.062 c 0.085,0.434 0.196,0.651 0.341,0.651 0.124,0 0.238,-0.218 0.343,-0.651 h 0.308 c 0.186,0.434 0.424,0.651 0.713,0.651 0.267,0 0.494,-0.218 0.681,-0.651 h 0.341 c 0.08,0.434 0.195,0.651 0.342,0.651 0.123,0 0.234,-0.218 0.34,-0.651 h 0.031 c 0.101,0.434 0.216,0.651 0.341,0.651 0.162,0 0.276,-0.218 0.338,-0.651 h 0.342 c 0.185,0.434 0.413,0.651 0.682,0.651 0.288,0 0.525,-0.218 0.71,-0.651 h 0.311 c 0.104,0.434 0.217,0.651 0.34,0.651 0.166,0 0.28,-0.218 0.342,-0.651 h 0.062 c 0.084,0.434 0.195,0.651 0.342,0.651 0.164,0 0.278,-0.218 0.341,-0.651 h 0.338 c 0.148,0.434 0.371,0.651 0.682,0.651 0.312,0 0.538,-0.218 0.683,-0.651 h 0.342 c 0.08,0.434 0.195,0.651 0.34,0.651 0.163,0 0.276,-0.218 0.339,-0.651 h 0.062 c 0.083,0.434 0.198,0.651 0.342,0.651 0.117,0 0.229,-0.218 0.332,-0.651 z"
   id="path2" />
		</g>
	</g>
</g>
<g
   id="guides">
</g>
</svg>
