<?xml version="1.0" encoding="UTF-8" standalone="no"?>
<!-- Generator: Adobe Illustrator 16.0.0, SVG Export Plug-In . SVG Version: 6.00 Build 0)  -->

<svg
   version="1.1"
   x="0px"
   y="0px"
   width="79.167"
   height="21"
   viewBox="0 0 79.167 21"
   enable-background="new 0 0 79.167 32"
   xml:space="preserve"
   id="svg9"
   sodipodi:docname="knife_flip.svg"
   inkscape:version="1.1.1 (3bf5ae0d25, 2021-09-20)"
   xmlns:inkscape="http://www.inkscape.org/namespaces/inkscape"
   xmlns:sodipodi="http://sodipodi.sourceforge.net/DTD/sodipodi-0.dtd"
   xmlns="http://www.w3.org/2000/svg"
   xmlns:svg="http://www.w3.org/2000/svg"><defs
   id="defs13" /><sodipodi:namedview
   id="namedview11"
   pagecolor="#ffffff"
   bordercolor="#666666"
   borderopacity="1.0"
   inkscape:pageshadow="2"
   inkscape:pageopacity="0.0"
   inkscape:pagecheckerboard="0"
   showgrid="false"
   inkscape:zoom="13.364154"
   inkscape:cx="39.546087"
   inkscape:cy="15.975572"
   inkscape:window-width="1920"
   inkscape:window-height="1017"
   inkscape:window-x="-8"
   inkscape:window-y="-8"
   inkscape:window-maximized="1"
   inkscape:current-layer="svg9" />
<g
   id="Selected_Items"
   transform="translate(0,-7.5575303)">
	<g
   id="g5">
		<g
   id="Selected_Items_22_">
			<path
   fill-rule="evenodd"
   clip-rule="evenodd"
   fill="#ffffff"
   d="m 32.168,14.728 -0.087,-0.291 0.029,-0.289 h -2.433 v 0.607 z m 43.772,-3.62 c -2.26,1.756 -3.803,2.886 -4.634,3.388 -1.234,0.751 -2.557,1.477 -3.964,2.172 -1.854,0.888 -3.589,1.571 -5.211,2.056 -1.602,0.462 -3.609,0.905 -6.023,1.331 -0.771,0.114 -1.523,0.231 -2.256,0.349 l -0.899,0.144 c -0.075,-0.096 -0.184,-0.185 -0.316,-0.261 -0.253,-0.173 -0.493,-0.251 -0.726,-0.231 -0.231,0.037 -0.49,0.164 -0.78,0.376 l -0.405,0.317 c -0.097,-0.077 -0.214,-0.145 -0.348,-0.201 -0.29,-0.137 -0.541,-0.185 -0.754,-0.144 -0.229,0.038 -0.49,0.144 -0.778,0.315 l -0.379,0.261 c -0.096,-0.058 -0.202,-0.125 -0.317,-0.201 -0.271,-0.115 -0.503,-0.166 -0.694,-0.146 -0.193,0 -0.425,0.086 -0.695,0.259 l -0.349,0.263 c -0.096,-0.076 -0.221,-0.156 -0.376,-0.232 -0.308,-0.136 -0.57,-0.192 -0.781,-0.174 -0.134,0.018 -0.339,0.106 -0.607,0.262 l -0.291,0.231 c -0.096,-0.059 -0.211,-0.126 -0.348,-0.202 -0.271,-0.155 -0.511,-0.232 -0.724,-0.232 -0.229,0 -0.482,0.085 -0.752,0.262 -0.077,0.038 -0.154,0.086 -0.232,0.144 l -0.085,0.059 c -0.136,-0.078 -0.29,-0.155 -0.464,-0.231 -0.349,-0.174 -0.626,-0.261 -0.84,-0.261 -0.173,0 -0.397,0.097 -0.666,0.29 l -0.347,0.288 h -2.896 l -0.289,-1.158 -1.592,1.593 c -0.021,0.02 -0.078,0.028 -0.175,0.028 -0.153,0.02 -0.337,0.02 -0.549,0 -0.212,-0.019 -0.389,-0.057 -0.522,-0.114 l -0.114,-0.06 c -0.192,-0.404 -0.463,-0.829 -0.811,-1.273 -0.677,-0.849 -1.381,-1.342 -2.115,-1.478 -0.887,-0.114 -1.775,0.029 -2.663,0.436 -0.27,0.136 -0.512,0.28 -0.723,0.435 L 27.16,20 26.756,20.029 c -0.289,-0.193 -0.655,-0.367 -1.1,-0.523 -0.928,-0.327 -1.805,-0.435 -2.635,-0.317 -0.831,0.114 -1.649,0.405 -2.46,0.869 -0.405,0.231 -0.725,0.452 -0.955,0.664 l -0.407,0.06 c -0.56,-0.231 -1.256,-0.454 -2.085,-0.665 -1.698,-0.427 -3.29,-0.59 -4.774,-0.493 -0.696,0.057 -1.197,0.115 -1.506,0.174 -0.561,0.098 -1.14,0.279 -1.737,0.55 -0.617,0.269 -1.391,0.763 -2.315,1.476 -0.464,0.35 -0.87,0.667 -1.216,0.958 l -1.68,0.577 C 3.79,23.359 3.674,23.349 3.537,23.33 3.289,23.311 3.046,23.281 2.813,23.243 2.601,23.184 2.378,23.099 2.147,22.982 L 1.859,22.838 1.657,21.938 0.673,21.447 C 0.595,21.386 0.529,21.33 0.47,21.27 0.316,21.115 0.238,20.953 0.238,20.778 c 0,-0.136 0.011,-0.271 0.028,-0.406 l 0.03,-0.146 c 0.211,-0.346 0.491,-0.761 0.84,-1.243 0.675,-0.966 1.359,-1.766 2.053,-2.404 0.773,-0.695 1.439,-1.206 2,-1.533 0.424,-0.29 0.936,-0.529 1.533,-0.723 1.893,-0.715 3.562,-1.247 5.009,-1.595 1.157,-0.25 2.373,-0.444 3.647,-0.579 1.2,-0.131 2.907,-0.239 5.123,-0.317 0.03,0 0.06,0 0.088,0 1.468,-0.039 2.886,-0.077 4.255,-0.115 0.271,0 0.521,0 0.752,0 1.587,-0.017 2.929,-0.025 4.024,-0.028 1.638,-0.011 2.728,-0.011 3.271,0 0.06,0 0.106,0 0.145,0 0.774,0.02 1.447,0.152 2.028,0.404 0.307,0.115 0.539,0.241 0.693,0.376 l 0.232,-0.29 0.231,0.232 0.202,-0.232 0.29,0.203 0.144,-0.144 0.232,0.087 0.088,-0.232 0.26,0.146 0.144,-0.203 0.262,0.173 0.117,-0.259 0.346,0.115 0.057,-0.262 0.32,0.146 v -0.348 l 0.347,0.115 v -0.26 l 0.376,0.027 0.552,-0.406 0.52,0.147 c 0.444,0.095 0.956,0.212 1.536,0.348 1.755,0.346 3.655,0.616 5.699,0.809 2.047,0.155 3.872,0.232 5.474,0.232 0.578,0 1.253,-0.019 2.026,-0.057 0.426,0 1.101,-0.032 2.026,-0.089 1.447,-0.058 3.193,-0.185 5.238,-0.376 2.048,-0.212 3.86,-0.444 5.444,-0.696 1.68,-0.248 4.041,-0.79 7.091,-1.619 1.525,-0.405 2.877,-0.781 4.053,-1.13 -0.962,0.773 -2.007,1.595 -3.124,2.462 z"
   id="path2" />
		</g>
	</g>
</g>
<g
   id="guides">
</g>
</svg>
