<?xml version="1.0" encoding="UTF-8" standalone="no"?>
<!-- Generator: Adobe Illustrator 16.0.0, SVG Export Plug-In . SVG Version: 6.00 Build 0)  -->

<svg
   version="1.1"
   x="0px"
   y="0px"
   width="100.5"
   height="23.5"
   viewBox="0 0 100.5 23.5"
   enable-background="new 0 0 100.5 32"
   xml:space="preserve"
   id="svg9"
   sodipodi:docname="knife_bowie.svg"
   inkscape:version="1.1.1 (3bf5ae0d25, 2021-09-20)"
   xmlns:inkscape="http://www.inkscape.org/namespaces/inkscape"
   xmlns:sodipodi="http://sodipodi.sourceforge.net/DTD/sodipodi-0.dtd"
   xmlns="http://www.w3.org/2000/svg"
   xmlns:svg="http://www.w3.org/2000/svg"><defs
   id="defs13" /><sodipodi:namedview
   id="namedview11"
   pagecolor="#ffffff"
   bordercolor="#666666"
   borderopacity="1.0"
   inkscape:pageshadow="2"
   inkscape:pageopacity="0.0"
   inkscape:pagecheckerboard="0"
   showgrid="false"
   inkscape:zoom="10.527363"
   inkscape:cx="50.202505"
   inkscape:cy="16.005907"
   inkscape:window-width="1920"
   inkscape:window-height="1017"
   inkscape:window-x="-8"
   inkscape:window-y="-8"
   inkscape:window-maximized="1"
   inkscape:current-layer="svg9" />
<g
   id="Selected_Items">
	<g
   id="g5">
		<g
   id="Selected_Items_26_">
			<path
   fill-rule="evenodd"
   clip-rule="evenodd"
   fill="#ffffff"
   d="m 99.382991,10.817501 c -0.725,0.562 -1.461,1.105 -2.205,1.628 -0.081,0.06 -0.17,0.121 -0.272,0.181 -2.734,1.792 -5.181,2.958 -7.334,3.501 -2.638,0.685 -5.292,1.068 -7.969,1.148 -2.778,0.101 -5.462,-0.122 -8.058,-0.665 -1.025,-0.221 -2.103,-0.475 -3.231,-0.755 -1.285,-0.322 -2.063,-0.501 -2.322,-0.543 -1.49,-0.343 -3.25,-0.563 -5.284,-0.664 -2.072,-0.119 -5.061,-0.129 -8.963,-0.029 l -5.223,0.149 -0.33,0.728 -3.141,-0.063 c -0.039,-0.099 -0.121,-0.222 -0.239,-0.363 -0.242,-0.262 -0.553,-0.493 -0.937,-0.694 -0.383,-0.181 -0.793,-0.323 -1.238,-0.423 l -0.543,-0.089 -0.18,2.595 -0.727,0.694 c -0.543,0.545 -0.937,1.038 -1.175,1.478 -0.243,0.424 -0.483,1.049 -0.727,1.872 -0.141,0.402 -0.249,0.755 -0.331,1.058 h -1.69 c 0,-0.245 0.022,-0.523 0.062,-0.846 0.079,-0.667 0.211,-1.229 0.39,-1.692 0.204,-0.461 0.424,-0.915 0.664,-1.357 l 0.335,-0.543 c -0.141,-0.264 -0.323,-0.553 -0.546,-0.874 -0.422,-0.625 -0.804,-1.077 -1.147,-1.359 -0.362,-0.261 -0.713,-0.614 -1.053,-1.055 l -0.396,-0.575 c -0.361,-0.202 -0.783,-0.383 -1.266,-0.543 -1.007,-0.283 -1.892,-0.272 -2.657,0.031 -0.16,0.06 -0.975,0.44 -2.443,1.145 -0.967,0.464 -1.923,0.798 -2.869,0.998 -1.064,0.241 -2.583,0.274 -4.559,0.089 -1.648,-0.161 -3.329,-0.421 -5.039,-0.784 -1.792,-0.441 -3.047,-0.735 -3.774,-0.876 -1.185,-0.26 -2.153,-0.41 -2.895,-0.453 -0.7250005,-0.019 -1.5300005,0.022 -2.4160005,0.123 -0.442,0.037 -0.816,0.091 -1.115,0.151 l -1.121,0.907 -0.239,1.085 c -0.182,0.745 -0.361,1.166 -0.543,1.267 -0.26,0.181 -0.622,0.403 -1.085,0.665 l -0.783,-0.062 c -0.183,-0.101 -0.383,-0.251 -0.604,-0.455 -0.421,-0.38 -0.727,-0.804 -0.905,-1.266 -0.203,-0.464 -0.27099995,-1.197 -0.213,-2.203 l 0.153,-1.39 -0.87799995,-0.572 V 9.7295013 l 0.667,-0.3320004 c 0,-0.344 0.0169999,-0.725 0.0579999,-1.148 0.081,-0.844 0.213,-1.438 0.391,-1.781 0.223,-0.403 0.465,-0.672 0.727,-0.815 0.201,-0.121 0.531,-0.22 0.996,-0.302 0.321,-0.06 0.575,0.011 0.754,0.213 0.082,0.099 0.131,0.199 0.149,0.302 1.893,-0.122 3.995,-0.245 6.3110005,-0.365 4.668,-0.26 8.119,-0.373 10.351,-0.331 1.993,0.02 4.929,0.169 8.813,0.451 3.562,0.285 5.554,0.413 5.975,0.396 0.664,-0.042 1.259,-0.143 1.783,-0.304 0.302,-0.079 0.704,-0.222 1.208,-0.422 0.342,-0.101 0.594,-0.091 0.754,0.032 0.099,0.058 0.162,0.138 0.182,0.241 0.201,-0.183 0.442,-0.403 0.723,-0.667 0.522,-0.503 0.905,-0.956 1.147,-1.356 0.261,-0.426 0.472,-0.906 0.634,-1.449 l 0.151,-0.726 h 1.449 v 0.756 c -0.061,0.583 -0.172,1.096 -0.334,1.537 -0.162,0.445 -0.4,0.887 -0.723,1.331 -0.162,0.239 -0.311,0.434 -0.454,0.575 l 8.511,0.119 -0.542,-0.845 1.994,0.845 1.417,0.062 -0.666,-0.966 2.235,0.966 h 1.389 l -0.666,-0.966 2.235,1.025 h 1.299 l -0.665,-0.844 2.172,0.907 1.359,0.089 -0.574,-0.996 2.084,0.996 1.447,0.061 -0.605,-0.999 2.084,0.999 1.508,0.06 -0.723,-0.968 1.9,0.968 1.571,-0.121 -0.514,-0.785 2.083,0.906 1.115,0.03 c 1.008,0 2.113,-0.052 3.321,-0.151 1.972,-0.183 3.831,-0.382 5.583,-0.604 l 0.604,0.453 c 0.503,0.34 1.035,0.672 1.601,0.996 1.791,1.046 3.489,1.761 5.099,2.144 1.609,0.383 3.873,0.6850004 6.792,0.9040004 0.242,0.022 0.473,0.041 0.693,0.061 1.167,0.08 2.223,0.1319997 3.168999,0.1529997 z"
   id="path2" />
		</g>
	</g>
</g>
<g
   id="guides">
</g>
</svg>
