<?xml version="1.0" encoding="UTF-8" standalone="no"?>
<!-- Generator: Adobe Illustrator 16.0.0, SVG Export Plug-In . SVG Version: 6.00 Build 0)  -->

<svg
   version="1.1"
   x="0px"
   y="0px"
   width="61.193001"
   height="15"
   viewBox="0 0 61.193 15"
   enable-background="new 0 0 61.193 32"
   xml:space="preserve"
   id="svg9"
   sodipodi:docname="knife_survival_bowie.svg"
   inkscape:version="1.1.1 (3bf5ae0d25, 2021-09-20)"
   xmlns:inkscape="http://www.inkscape.org/namespaces/inkscape"
   xmlns:sodipodi="http://sodipodi.sourceforge.net/DTD/sodipodi-0.dtd"
   xmlns="http://www.w3.org/2000/svg"
   xmlns:svg="http://www.w3.org/2000/svg"><defs
   id="defs13" /><sodipodi:namedview
   id="namedview11"
   pagecolor="#ffffff"
   bordercolor="#666666"
   borderopacity="1.0"
   inkscape:pageshadow="2"
   inkscape:pageopacity="0.0"
   inkscape:pagecheckerboard="0"
   showgrid="false"
   inkscape:zoom="17.289559"
   inkscape:cx="30.567581"
   inkscape:cy="15.992311"
   inkscape:window-width="1920"
   inkscape:window-height="1017"
   inkscape:window-x="-8"
   inkscape:window-y="-8"
   inkscape:window-maximized="1"
   inkscape:current-layer="svg9" />
<g
   id="Selected_Items"
   transform="translate(0.11567676,-9.0806249)">
	<g
   id="g5">
		<g
   id="Selected_Items_26_">
			<path
   fill-rule="evenodd"
   clip-rule="evenodd"
   fill="#ffffff"
   d="m 60.604,16.104 c -0.443,0.344 -0.894,0.677 -1.349,0.996 -0.049,0.037 -0.104,0.074 -0.166,0.111 -1.674,1.096 -3.17,1.81 -4.487,2.142 -1.613,0.419 -3.237,0.653 -4.875,0.702 -1.699,0.062 -3.342,-0.074 -4.93,-0.406 -0.628,-0.136 -1.286,-0.29 -1.977,-0.462 -0.786,-0.197 -1.262,-0.308 -1.421,-0.332 -0.911,-0.21 -1.988,-0.346 -3.232,-0.406 -1.268,-0.073 -3.096,-0.08 -5.483,-0.019 l -3.195,0.092 -0.202,0.444 -1.921,-0.038 c -0.024,-0.061 -0.073,-0.136 -0.146,-0.222 -0.148,-0.16 -0.339,-0.302 -0.573,-0.425 -0.234,-0.11 -0.485,-0.197 -0.757,-0.259 l -0.333,-0.055 -0.109,1.588 -0.445,0.425 c -0.332,0.333 -0.572,0.635 -0.719,0.904 -0.148,0.26 -0.295,0.642 -0.444,1.146 -0.086,0.246 -0.152,0.462 -0.202,0.646 h -1.034 c 0,-0.149 0.013,-0.319 0.037,-0.517 0.049,-0.407 0.13,-0.752 0.239,-1.035 0.124,-0.282 0.259,-0.56 0.406,-0.831 L 23.49,19.961 C 23.404,19.8 23.294,19.623 23.157,19.426 22.898,19.044 22.665,18.768 22.455,18.595 22.233,18.436 22.018,18.219 21.81,17.949 l -0.242,-0.352 c -0.221,-0.123 -0.479,-0.234 -0.774,-0.333 -0.616,-0.172 -1.157,-0.166 -1.625,0.02 -0.099,0.036 -0.597,0.27 -1.495,0.7 -0.592,0.284 -1.177,0.488 -1.755,0.61 -0.651,0.147 -1.581,0.167 -2.789,0.055 C 12.121,18.55 11.093,18.391 10.047,18.17 8.951,17.899 8.183,17.72 7.738,17.634 7.012,17.475 6.421,17.383 5.967,17.357 5.524,17.346 5.03,17.371 4.489,17.432 4.218,17.455 3.99,17.488 3.806,17.524 L 3.12,18.079 2.974,18.743 c -0.11,0.456 -0.221,0.714 -0.332,0.775 -0.16,0.111 -0.382,0.247 -0.665,0.407 L 1.498,19.888 C 1.387,19.826 1.264,19.734 1.129,19.61 0.87,19.378 0.685,19.118 0.575,18.836 0.451,18.552 0.409,18.104 0.445,17.488 L 0.538,16.637 0,16.288 v -0.85 l 0.407,-0.203 c 0,-0.21 0.011,-0.443 0.036,-0.702 0.049,-0.517 0.13,-0.88 0.239,-1.09 0.136,-0.246 0.284,-0.411 0.444,-0.498 0.123,-0.074 0.325,-0.135 0.608,-0.185 0.196,-0.037 0.353,0.006 0.462,0.13 0.05,0.061 0.08,0.122 0.092,0.185 1.157,-0.074 2.444,-0.149 3.86,-0.223 2.856,-0.159 4.968,-0.228 6.333,-0.203 1.219,0.013 3.016,0.104 5.392,0.276 2.179,0.174 3.397,0.253 3.656,0.242 0.405,-0.026 0.77,-0.087 1.09,-0.186 0.185,-0.049 0.431,-0.136 0.739,-0.259 0.209,-0.062 0.363,-0.056 0.461,0.02 0.062,0.035 0.099,0.085 0.111,0.147 0.123,-0.112 0.271,-0.246 0.442,-0.407 0.32,-0.308 0.554,-0.585 0.702,-0.83 0.159,-0.26 0.289,-0.555 0.388,-0.887 l 0.092,-0.443 h 0.887 v 0.462 c -0.037,0.356 -0.105,0.671 -0.204,0.94 -0.099,0.271 -0.245,0.543 -0.442,0.813 -0.099,0.146 -0.19,0.266 -0.277,0.352 l 5.207,0.073 -0.332,-0.518 1.22,0.518 0.867,0.037 -0.407,-0.591 1.367,0.591 h 0.85 l -0.407,-0.591 1.367,0.628 h 0.795 l -0.407,-0.518 1.33,0.555 0.831,0.055 -0.351,-0.609 1.274,0.609 0.886,0.038 -0.37,-0.61 1.274,0.61 0.923,0.036 -0.442,-0.592 1.163,0.592 0.961,-0.074 -0.314,-0.48 1.274,0.555 0.683,0.019 c 0.616,0 1.292,-0.031 2.032,-0.093 1.206,-0.111 2.344,-0.233 3.415,-0.369 l 0.37,0.277 c 0.307,0.208 0.633,0.411 0.979,0.609 1.096,0.64 2.135,1.076 3.12,1.311 0.984,0.234 2.369,0.419 4.155,0.554 0.148,0.013 0.289,0.024 0.424,0.036 0.714,0.05 1.36,0.081 1.938,0.094 z"
   id="path2" />
		</g>
	</g>
</g>
<g
   id="guides">
</g>
<g
   id="g935"
   transform="translate(0.11567676,-9.0806249)">
	<g
   id="g933">
		<g
   id="g931">
			<path
   fill-rule="evenodd"
   clip-rule="evenodd"
   fill="#ffffff"
   d="m 60.604,16.104 c -0.443,0.344 -0.894,0.677 -1.349,0.996 -0.049,0.037 -0.104,0.074 -0.166,0.111 -1.674,1.096 -3.17,1.81 -4.487,2.142 -1.613,0.419 -3.237,0.653 -4.875,0.702 -1.699,0.062 -3.342,-0.074 -4.93,-0.406 -0.628,-0.136 -1.286,-0.29 -1.977,-0.462 -0.786,-0.197 -1.262,-0.308 -1.421,-0.332 -0.911,-0.21 -1.988,-0.346 -3.232,-0.406 -1.268,-0.073 -3.096,-0.08 -5.483,-0.019 l -3.195,0.092 -0.202,0.444 -1.921,-0.038 c -0.024,-0.061 -0.073,-0.136 -0.146,-0.222 -0.148,-0.16 -0.339,-0.302 -0.573,-0.425 -0.234,-0.11 -0.485,-0.197 -0.757,-0.259 l -0.333,-0.055 -0.109,1.588 -0.445,0.425 c -0.332,0.333 -0.572,0.635 -0.719,0.904 -0.148,0.26 -0.295,0.642 -0.444,1.146 -0.086,0.246 -0.152,0.462 -0.202,0.646 h -1.034 c 0,-0.149 0.013,-0.319 0.037,-0.517 0.049,-0.407 0.13,-0.752 0.239,-1.035 0.124,-0.282 0.259,-0.56 0.406,-0.831 L 23.49,19.961 C 23.404,19.8 23.294,19.623 23.157,19.426 22.898,19.044 22.665,18.768 22.455,18.595 22.233,18.436 22.018,18.219 21.81,17.949 l -0.242,-0.352 c -0.221,-0.123 -0.479,-0.234 -0.774,-0.333 -0.616,-0.172 -1.157,-0.166 -1.625,0.02 -0.099,0.036 -0.597,0.27 -1.495,0.7 -0.592,0.284 -1.177,0.488 -1.755,0.61 -0.651,0.147 -1.581,0.167 -2.789,0.055 C 12.121,18.55 11.093,18.391 10.047,18.17 8.951,17.899 8.183,17.72 7.738,17.634 7.012,17.475 6.421,17.383 5.967,17.357 5.524,17.346 5.03,17.371 4.489,17.432 4.218,17.455 3.99,17.488 3.806,17.524 L 3.12,18.079 2.974,18.743 c -0.11,0.456 -0.221,0.714 -0.332,0.775 -0.16,0.111 -0.382,0.247 -0.665,0.407 L 1.498,19.888 C 1.387,19.826 1.264,19.734 1.129,19.61 0.87,19.378 0.685,19.118 0.575,18.836 0.451,18.552 0.409,18.104 0.445,17.488 L 0.538,16.637 0,16.288 v -0.85 l 0.407,-0.203 c 0,-0.21 0.011,-0.443 0.036,-0.702 0.049,-0.517 0.13,-0.88 0.239,-1.09 0.136,-0.246 0.284,-0.411 0.444,-0.498 0.123,-0.074 0.325,-0.135 0.608,-0.185 0.196,-0.037 0.353,0.006 0.462,0.13 0.05,0.061 0.08,0.122 0.092,0.185 1.157,-0.074 2.444,-0.149 3.86,-0.223 2.856,-0.159 4.968,-0.228 6.333,-0.203 1.219,0.013 3.016,0.104 5.392,0.276 2.179,0.174 3.397,0.253 3.656,0.242 0.405,-0.026 0.77,-0.087 1.09,-0.186 0.185,-0.049 0.431,-0.136 0.739,-0.259 0.209,-0.062 0.363,-0.056 0.461,0.02 0.062,0.035 0.099,0.085 0.111,0.147 0.123,-0.112 0.271,-0.246 0.442,-0.407 0.32,-0.308 0.554,-0.585 0.702,-0.83 0.159,-0.26 0.289,-0.555 0.388,-0.887 l 0.092,-0.443 h 0.887 v 0.462 c -0.037,0.356 -0.105,0.671 -0.204,0.94 -0.099,0.271 -0.245,0.543 -0.442,0.813 -0.099,0.146 -0.19,0.266 -0.277,0.352 l 5.207,0.073 -0.332,-0.518 1.22,0.518 0.867,0.037 -0.407,-0.591 1.367,0.591 h 0.85 l -0.407,-0.591 1.367,0.628 h 0.795 l -0.407,-0.518 1.33,0.555 0.831,0.055 -0.351,-0.609 1.274,0.609 0.886,0.038 -0.37,-0.61 1.274,0.61 0.923,0.036 -0.442,-0.592 1.163,0.592 0.961,-0.074 -0.314,-0.48 1.274,0.555 0.683,0.019 c 0.616,0 1.292,-0.031 2.032,-0.093 1.206,-0.111 2.344,-0.233 3.415,-0.369 l 0.37,0.277 c 0.307,0.208 0.633,0.411 0.979,0.609 1.096,0.64 2.135,1.076 3.12,1.311 0.984,0.234 2.369,0.419 4.155,0.554 0.148,0.013 0.289,0.024 0.424,0.036 0.714,0.05 1.36,0.081 1.938,0.094 z"
   id="path929" />
		</g>
	</g>
</g></svg>
