<?xml version="1.0" encoding="UTF-8" standalone="no"?>
<!-- Generator: Adobe Illustrator 16.0.0, SVG Export Plug-In . SVG Version: 6.00 Build 0)  -->

<svg
   version="1.1"
   x="0px"
   y="0px"
   width="95.833"
   height="27"
   viewBox="0 0 95.833 27"
   enable-background="new 0 0 95.833 32"
   xml:space="preserve"
   id="svg9"
   sodipodi:docname="knife_tactical.svg"
   inkscape:version="1.1.1 (3bf5ae0d25, 2021-09-20)"
   xmlns:inkscape="http://www.inkscape.org/namespaces/inkscape"
   xmlns:sodipodi="http://sodipodi.sourceforge.net/DTD/sodipodi-0.dtd"
   xmlns="http://www.w3.org/2000/svg"
   xmlns:svg="http://www.w3.org/2000/svg"><defs
   id="defs13" /><sodipodi:namedview
   id="namedview11"
   pagecolor="#ffffff"
   bordercolor="#666666"
   borderopacity="1.0"
   inkscape:pageshadow="2"
   inkscape:pageopacity="0.0"
   inkscape:pagecheckerboard="0"
   showgrid="false"
   inkscape:zoom="11.040038"
   inkscape:cx="47.87121"
   inkscape:cy="15.987263"
   inkscape:window-width="1920"
   inkscape:window-height="1017"
   inkscape:window-x="-8"
   inkscape:window-y="-8"
   inkscape:window-maximized="1"
   inkscape:current-layer="Selected_Items" />
<g
   id="Selected_Items">
	<g
   id="g5"
   transform="translate(0.1811588,-5.3441844)">
		<g
   id="Selected_Items_28_">
			<path
   fill-rule="evenodd"
   clip-rule="evenodd"
   fill="#ffffff"
   d="m 88.067,18.142 c -1.037,0.352 -2.262,0.727 -3.669,1.127 -2.823,0.799 -5.164,1.352 -7.022,1.656 -1.833,0.284 -4.18,0.494 -7.05,0.634 -0.916,0.048 -1.824,0.086 -2.714,0.108 h -1.06 C 66.529,21.55 66.47,21.384 66.376,21.171 66.163,20.773 65.832,20.408 65.388,20.078 64.989,19.749 64.483,19.514 63.872,19.374 63.707,19.327 63.532,19.306 63.341,19.306 l -19.816,-0.11 c -0.095,0.029 -0.201,0.072 -0.317,0.143 -0.048,0.024 -0.095,0.083 -0.142,0.174 l -0.037,0.105 -0.458,2.19 c -0.332,1.549 -0.576,2.608 -0.742,3.173 -0.024,0.071 -0.059,0.165 -0.106,0.279 -0.071,0.117 -0.125,0.201 -0.176,0.249 -0.117,0.095 -0.339,0.166 -0.671,0.209 l -0.493,0.074 c -0.306,-0.024 -0.634,-0.035 -0.989,-0.035 -0.705,-0.028 -1.173,-0.06 -1.409,-0.107 -0.095,-0.022 -0.174,-0.072 -0.248,-0.141 -0.095,-0.072 -0.154,-0.153 -0.175,-0.249 0,-0.184 0.127,-0.454 0.388,-0.809 0.023,-0.023 0.199,-0.222 0.528,-0.598 0.238,-0.306 0.458,-0.602 0.667,-0.885 0.379,-0.542 0.589,-0.951 0.635,-1.233 0.024,-0.187 0.024,-0.507 0,-0.955 l -0.033,-0.631 c -0.095,0.021 -0.165,0.021 -0.212,0 -0.143,-0.19 -0.305,-0.39 -0.491,-0.603 -0.328,-0.422 -0.624,-0.739 -0.882,-0.948 -0.378,-0.309 -0.746,-0.542 -1.098,-0.708 -0.632,-0.285 -1.326,-0.413 -2.077,-0.387 -0.726,0.048 -1.391,0.292 -1.972,0.738 -0.636,0.444 -1.106,1.061 -1.415,1.833 -0.257,0.682 -0.458,1.188 -0.6,1.52 -0.09,0.161 -0.153,0.27 -0.177,0.313 -0.023,0.049 -0.065,0.085 -0.139,0.107 -0.117,0.095 -0.226,0.13 -0.313,0.108 -0.119,0 -0.27,-0.099 -0.464,-0.283 -0.234,-0.262 -0.456,-0.589 -0.667,-0.987 -0.167,-0.284 -0.284,-0.497 -0.354,-0.638 -0.143,-0.258 -0.27,-0.484 -0.387,-0.671 -0.354,-0.469 -0.813,-0.86 -1.377,-1.164 -0.634,-0.327 -1.222,-0.527 -1.762,-0.596 -0.682,-0.073 -1.292,0.08 -1.833,0.456 -0.378,0.235 -0.85,0.564 -1.411,0.99 -0.4,0.304 -0.659,0.481 -0.775,0.526 -0.165,0.047 -0.34,0.057 -0.53,0.035 -0.115,-0.024 -0.316,-0.104 -0.599,-0.248 -0.354,-0.138 -0.728,-0.257 -1.128,-0.353 -0.608,-0.139 -1.199,-0.185 -1.765,-0.139 -0.563,0.069 -1.047,0.19 -1.444,0.354 -0.377,0.164 -0.751,0.397 -1.129,0.704 -0.233,0.21 -0.504,0.448 -0.813,0.707 -0.21,0.165 -0.41,0.278 -0.599,0.35 -0.419,0.166 -0.772,0.271 -1.057,0.318 -0.304,0.025 -0.576,0.069 -0.81,0.143 -0.493,0.093 -0.931,0.235 -1.304,0.423 -0.399,0.211 -0.821,0.552 -1.271,1.02 -0.163,0.165 -0.479,0.565 -0.951,1.203 -0.378,0.469 -0.787,1.011 -1.237,1.62 L 5.613,26.32 4.979,26.181 C 3.029,23.006 1.91,21.219 1.627,20.822 1.58,20.749 1.266,20.352 0.676,19.619 0.254,19.08 0.03,18.741 0.008,18.601 -0.015,18.411 0.02,18.175 0.112,17.893 0.207,17.658 0.325,17.422 0.468,17.185 0.563,17.068 0.785,16.811 1.139,16.413 1.537,16.012 1.828,15.68 2.018,15.424 2.135,15.262 2.347,14.929 2.652,14.436 2.861,14.035 3.052,13.75 3.213,13.589 3.429,13.401 3.615,13.273 3.782,13.201 3.85,13.179 3.992,13.157 4.202,13.13 4.297,13.109 4.555,13.084 4.979,13.062 5.496,13.015 6.038,12.92 6.6,12.776 c 0.708,-0.162 1.245,-0.305 1.621,-0.422 0.38,-0.139 1.06,-0.423 2.045,-0.847 1.155,-0.518 2.07,-0.916 2.752,-1.195 0.916,-0.358 1.776,-0.66 2.579,-0.919 1.029,-0.331 1.738,-0.543 2.113,-0.634 0.612,-0.12 1.362,-0.215 2.256,-0.283 0.874,-0.072 1.717,-0.083 2.54,-0.035 0.542,0.047 1.247,0.14 2.114,0.283 0.708,0.093 1.401,0.165 2.082,0.21 0.566,0.025 1.352,0.034 2.362,0.034 0.73,0 1.445,-0.034 2.153,-0.101 0.355,-0.027 0.638,-0.05 0.847,-0.075 L 32.098,8.581 32.311,8.544 32.416,8.759 32.77,8.723 V 8.509 l 0.283,-0.067 0.071,0.249 0.35,-0.039 V 8.406 l 0.279,-0.032 0.038,0.244 0.353,-0.035 V 8.301 h 0.247 l 0.035,0.177 0.317,-0.035 V 8.158 L 35.026,8.122 35.06,8.373 35.343,8.334 V 7.983 L 35.591,7.946 35.66,8.231 35.942,8.158 V 7.809 h 0.248 l 0.067,0.244 h 0.217 L 36.507,7.737 36.788,7.7 36.826,7.983 37.036,7.914 V 7.669 l 0.249,-0.036 0.07,0.176 0.353,-0.108 c 0.26,-0.092 0.438,-0.174 0.529,-0.247 0.094,-0.042 0.2,-0.118 0.321,-0.211 0.091,-0.116 0.174,-0.189 0.244,-0.211 0.092,-0.046 0.209,-0.069 0.349,-0.069 0.143,0.023 0.227,0.033 0.248,0.033 0.095,-0.046 0.26,-0.142 0.494,-0.284 0.189,-0.139 0.355,-0.22 0.495,-0.24 0.165,-0.051 0.34,-0.063 0.529,-0.039 0.095,0.025 0.234,0.06 0.422,0.107 0.026,0.02 0.19,0.104 0.494,0.246 0.257,0.138 0.492,0.225 0.708,0.247 0.233,0.047 0.41,0.047 0.528,0 0.164,-0.046 0.271,-0.069 0.316,-0.069 0.143,0 0.399,0.129 0.778,0.386 0.209,0.142 0.4,0.284 0.561,0.425 l 2.79,0.527 c 2.042,0.399 3.463,0.668 4.262,0.811 1.015,0.14 2.259,0.261 3.742,0.353 1.29,0.048 2.351,0.06 3.174,0.038 1.714,-0.05 3.137,-0.318 4.263,-0.812 0.284,-0.118 0.803,-0.38 1.552,-0.777 0.732,-0.378 1.154,-0.587 1.271,-0.633 0.163,-0.072 0.375,-0.106 0.634,-0.106 0.262,0 0.438,0.034 0.53,0.106 0.05,0.046 0.107,0.141 0.177,0.28 0.05,0.091 0.13,0.26 0.248,0.492 0.209,0.448 0.411,0.708 0.596,0.777 0.214,0.069 0.413,0.06 0.603,-0.037 0.165,-0.094 0.269,-0.248 0.317,-0.458 0.022,-0.188 0.022,-0.377 0,-0.561 L 68.814,7.563 h 0.351 l 0.14,0.281 c 0.139,0.236 0.25,0.423 0.318,0.563 0.094,0.212 0.2,0.399 0.318,0.563 0.162,0.166 0.317,0.262 0.458,0.283 0.282,0.026 0.492,0.012 0.634,-0.032 0.26,-0.073 0.387,-0.238 0.387,-0.495 0,-0.26 -0.026,-0.503 -0.069,-0.742 l -0.109,-0.246 0.426,0.072 0.177,0.281 c 0.14,0.211 0.26,0.388 0.353,0.528 0.117,0.282 0.212,0.46 0.281,0.53 0.118,0.165 0.274,0.273 0.461,0.317 0.188,0.048 0.365,0.038 0.528,-0.033 0.163,-0.048 0.268,-0.167 0.316,-0.354 0.047,-0.165 0.022,-0.378 -0.068,-0.635 l -0.18,-0.354 0.351,0.033 0.175,0.251 c 0.117,0.164 0.2,0.301 0.249,0.419 0.094,0.215 0.164,0.366 0.211,0.458 0.121,0.168 0.256,0.284 0.425,0.352 0.467,0.189 0.831,0.168 1.091,-0.067 0.095,-0.072 0.155,-0.187 0.175,-0.352 0,-0.142 -0.011,-0.285 -0.033,-0.423 C 76.157,8.641 76.097,8.51 76.004,8.374 l -0.143,-0.143 0.493,0.034 0.178,0.317 c 0.117,0.235 0.212,0.434 0.28,0.602 0.071,0.166 0.161,0.305 0.281,0.419 0.047,0.051 0.166,0.121 0.351,0.216 0.146,0.093 0.286,0.137 0.425,0.137 0.144,0.027 0.273,-0.011 0.389,-0.102 C 78.448,9.711 78.53,9.502 78.506,9.22 78.485,9.121 78.422,8.982 78.33,8.793 l -0.14,-0.248 0.384,0.037 0.179,0.286 c 0.142,0.209 0.223,0.352 0.245,0.418 0.047,0.119 0.118,0.25 0.213,0.391 0.12,0.165 0.222,0.279 0.313,0.353 0.168,0.096 0.342,0.153 0.532,0.177 0.235,0.045 0.423,0.024 0.566,-0.071 0.234,-0.162 0.317,-0.458 0.247,-0.883 0,-0.092 -0.038,-0.209 -0.108,-0.353 l -0.105,-0.174 0.493,0.105 0.106,0.139 c 0.097,0.166 0.19,0.356 0.284,0.567 0.068,0.119 0.139,0.224 0.212,0.318 0.094,0.139 0.247,0.292 0.458,0.46 0.139,0.116 0.304,0.173 0.493,0.173 0.164,0 0.305,-0.057 0.423,-0.173 0.091,-0.099 0.152,-0.226 0.178,-0.39 C 83.325,9.808 83.311,9.677 83.267,9.537 83.216,9.442 83.149,9.326 83.054,9.185 l -0.142,-0.176 0.425,0.104 0.174,0.213 c 0.117,0.164 0.189,0.292 0.216,0.387 0.021,0.119 0.089,0.244 0.21,0.387 0.095,0.165 0.211,0.284 0.351,0.355 0.188,0.117 0.331,0.188 0.426,0.212 0.187,0.023 0.352,-0.036 0.494,-0.178 0.117,-0.116 0.172,-0.247 0.172,-0.389 0,-0.091 -0.023,-0.234 -0.072,-0.422 -0.043,-0.093 -0.1,-0.188 -0.173,-0.282 l -0.14,-0.109 10.296,1.308 z m -47.965,5.359 c -0.256,0 -0.471,0.079 -0.634,0.247 -0.165,0.188 -0.246,0.4 -0.246,0.634 0,0.235 0.082,0.438 0.246,0.6 0.164,0.165 0.378,0.244 0.634,0.244 0.236,0 0.448,-0.079 0.634,-0.244 0.166,-0.162 0.248,-0.365 0.248,-0.6 0,-0.234 -0.082,-0.447 -0.248,-0.634 -0.187,-0.167 -0.399,-0.247 -0.634,-0.247 z"
   id="path2" />
		</g>
	</g>
</g>
<g
   id="guides">
</g>
</svg>
