<?xml version="1.0" encoding="UTF-8" standalone="no"?>
<!-- Generator: Adobe Illustrator 16.0.0, SVG Export Plug-In . SVG Version: 6.00 Build 0)  -->

<svg
   version="1.1"
   x="0px"
   y="0px"
   width="78.603996"
   height="28"
   viewBox="0 0 78.604 28"
   enable-background="new 0 0 78.604 32"
   xml:space="preserve"
   id="svg9"
   sodipodi:docname="m4a1.svg"
   inkscape:version="1.1.1 (3bf5ae0d25, 2021-09-20)"
   xmlns:inkscape="http://www.inkscape.org/namespaces/inkscape"
   xmlns:sodipodi="http://sodipodi.sourceforge.net/DTD/sodipodi-0.dtd"
   xmlns="http://www.w3.org/2000/svg"
   xmlns:svg="http://www.w3.org/2000/svg"><defs
   id="defs13" /><sodipodi:namedview
   id="namedview11"
   pagecolor="#ffffff"
   bordercolor="#666666"
   borderopacity="1.0"
   inkscape:pageshadow="2"
   inkscape:pageopacity="0.0"
   inkscape:pagecheckerboard="0"
   showgrid="false"
   inkscape:zoom="13.459875"
   inkscape:cx="39.264852"
   inkscape:cy="16.01055"
   inkscape:window-width="1920"
   inkscape:window-height="1017"
   inkscape:window-x="-8"
   inkscape:window-y="-8"
   inkscape:window-maximized="1"
   inkscape:current-layer="Selected_Items_30_" />
<g
   id="Selected_Items">
	<g
   id="g5">
		<g
   id="Selected_Items_30_">
			<path
   fill-rule="evenodd"
   clip-rule="evenodd"
   fill="#ffffff"
   d="m 39.23659,14.413269 c 0,-0.337 -0.091,-0.609 -0.273,-0.817 -0.181,-0.208 -0.402,-0.312 -0.661,-0.312 h -1.869 c -0.026,-0.026 -0.039,-0.013 -0.039,0.039 -0.052,0.052 -0.105,0.206 -0.156,0.468 -0.025,0.207 0.051,0.505 0.233,0.895 0.129,0.312 0.169,0.493 0.117,0.544 -0.155,0.104 -0.454,-0.142 -0.896,-0.739 -0.129,-0.155 -0.22,-0.401 -0.272,-0.739 l -0.039,-0.467 c -0.156,0.077 -0.312,0.181 -0.468,0.312 -0.285,0.26 -0.428,0.531 -0.428,0.817 0.027,0.363 0.143,0.701 0.35,1.012 0.235,0.313 0.521,0.468 0.857,0.468 h 2.375 c 0.467,0 0.792,-0.169 0.973,-0.507 0.13,-0.235 0.196,-0.559 0.196,-0.974 z m 29.86,-10.3550005 c -0.13,0.26 -0.207,0.428 -0.233,0.505 -0.026,0.079 -0.014,0.234 0.038,0.469 l 0.234,0.506 h 1.752 l 0.117,-2.298 h -1.479 z m 4.087,4.515 c -0.077,0 -0.142,-0.039 -0.193,-0.116 l -0.078,-0.117 h -1.208 c -0.155,0.441 -0.325,0.662 -0.505,0.662 h -0.585 c -0.078,0 -0.155,-0.065 -0.233,-0.194 l -0.117,-0.156 h -2.414 v 0.622 c 0,0.1550003 -0.104,0.3120003 -0.312,0.4680003 -0.207,0.181 -0.427,0.2720002 -0.661,0.2720002 h -18.805 c -0.129,0 -0.258,-0.1170002 -0.39,-0.3500002 l -0.154,-0.3510003 -0.429,0.7000005 h -0.272 v 4.477 l 0.311,0.39 c -0.025,0.104 -0.129,0.208 -0.311,0.312 -0.13,0.053 -0.168,0.325 -0.118,0.818 0.078,0.882 0.118,1.4 0.118,1.557 0,0.52 0.026,0.986 0.078,1.401 0.077,0.312 0.194,0.753 0.35,1.324 0.181,0.675 0.532,1.868 1.052,3.581 l 0.194,0.116 c 0.078,0.104 0.039,0.196 -0.116,0.273 -3.868,1.246 -5.917,1.895 -6.152,1.946 -0.155,0 -0.272,-0.064 -0.349,-0.194 -0.053,-0.13 -0.053,-0.247 0,-0.351 0.026,-0.053 -0.092,-0.532 -0.352,-1.439 -0.363,-1.194 -0.635,-2.323 -0.817,-3.389 -0.207,-1.167 -0.325,-2.219 -0.351,-3.153 l 0.039,-1.051 -0.507,-0.155 v -0.428 c -0.233,0.336 -0.402,0.506 -0.505,0.506 h -4.438 c -0.157,0.285 -0.299,0.428 -0.429,0.428 -0.079,0 -0.182,-0.078 -0.312,-0.233 l -0.117,-0.194 c -0.104,-0.053 -0.208,-0.078 -0.312,-0.078 -0.208,0 -0.364,0.116 -0.467,0.351 -0.104,0.232 -0.221,0.415 -0.35,0.545 -0.156,0.181 -0.259,0.311 -0.312,0.39 -0.052,0.13 -0.012,0.298 0.118,0.506 0.155,0.232 0.219,0.39 0.194,0.468 -0.026,0.051 -0.208,0.142 -0.546,0.271 -0.337,0.104 -0.544,0.26 -0.622,0.467 -0.025,0.052 -0.298,0.558 -0.817,1.519 -0.441,0.805 -0.663,1.272 -0.663,1.401 0,0.053 0.091,0.221 0.273,0.506 0.155,0.208 0.169,0.402 0.039,0.585 -0.286,0.363 -1.44,0.402 -3.465,0.116 -0.778,-0.104 -1.377,-0.285 -1.791,-0.545 -0.467,-0.259 -0.624,-0.545 -0.467,-0.856 0.233,-0.415 1.882,-3.258 4.943,-8.525 0.157,-0.286 0.157,-0.688 0,-1.208 -0.155,-0.544 -0.402,-0.83 -0.739,-0.856 -0.233,0 -0.454,0.014 -0.662,0.04 -0.155,0.026 -0.298,0.013 -0.429,-0.04 -0.285,-0.129 -0.429,-0.323 -0.429,-0.583 -0.024,-0.338 -0.039,-0.637 -0.039,-0.896 -0.026,-0.4930002 -0.013,-0.8560005 0.039,-1.0890005 h -0.194 l -0.506,-0.195 v -0.194 h -5.996 l -0.078,0.428 c -0.131,0.3380003 -0.363,0.6370003 -0.701,0.8960003 -0.363,0.2590002 -0.675,0.5190002 -0.934,0.7780002 l -0.312,0.272 -0.701,1.284 h -0.933 l -0.625,1.091 h -2.296 v -0.585 h -1.363 c -1.998,1.532 -3.1010002,2.362 -3.3080002,2.492 -0.208,0.129 -0.364,0.208 -0.468,0.234 -0.13,0.025 -0.221,-0.053 -0.272,-0.234 l -0.039,-0.39 -6.229,4.011 -0.118,0.467 c -0.129,0.312 -0.272,0.479 -0.427,0.506 -0.209,0.052 -0.441,0.039 -0.701,-0.039 -0.285,-0.052 -0.50600002,-0.143 -0.66200002,-0.272 -0.259,-0.208 -0.389,-0.324 -0.389,-0.35 -0.126,-0.133 -0.191,-0.341 -0.191,-0.627 V 6.7042685 c 0,-0.311 0.117,-0.584 0.352,-0.816 0.258,-0.26 0.62100002,-0.391 1.09000002,-0.391 H 20.97759 c 0.104,0 0.183,0.104 0.234,0.312 0.027,0.105 0.053,0.208 0.078,0.312 h 5.606 v -0.233 l 0.506,-0.195 h 0.973 v -0.857 l 0.195,-0.194 c 0.208,-0.13 0.558,-0.194 1.051,-0.194 h 2.335 l 0.819,-1.169 -0.078,-0.389 c -0.157,-0.053 -0.313,-0.13 -0.467,-0.233 -0.312,-0.234 -0.468,-0.546 -0.468,-0.935 0,-0.26 0.104,-0.494 0.311,-0.701 0.234,-0.23299996 0.493,-0.35099996 0.779,-0.35099996 0.338,0 0.624,0.117 0.857,0.35099996 0.207,0.207 0.311,0.454 0.311,0.74 v 2.335 h 0.467 v -0.622 h 1.441 v 0.816 h 10.979 c 0.156,0 0.297,0.078 0.428,0.234 0.104,0.13 0.182,0.246 0.234,0.351 0.025,0.13 0.194,0.052 0.505,-0.233 h 1.169 c 0,-0.079 0.013,-0.144 0.039,-0.194 0.052,-0.13 0.156,-0.195 0.312,-0.195 h 17.362 c 0.157,0 0.298,0.077 0.43,0.233 0.051,0.077 0.103,0.144 0.154,0.195 l 0.818,-1.129 c 0.572,-0.805 0.948,-1.285 1.129,-1.441 l 0.194,-0.193 c 0.233,-0.131 0.558,-0.195 0.974,-0.195 h 0.972 v 4.982 h 1.168 l 0.156,-0.194 c 0.104,-0.104 0.208,-0.155 0.311,-0.155 h 4.671 c 0.208,0 0.377,0.077 0.507,0.233 0.208,0.182 0.312,0.441 0.312,0.778 v 0.391 c 0,0.258 -0.091,0.467 -0.273,0.621 -0.156,0.131 -0.324,0.195 -0.505,0.195 h -4.79 z"
   id="path2" />
		</g>
	</g>
</g>
<g
   id="guides">
</g>
</svg>
