<?xml version="1.0" encoding="UTF-8" standalone="no"?>
<!-- Generator: Adobe Illustrator 16.0.0, SVG Export Plug-In . SVG Version: 6.00 Build 0)  -->

<svg
   version="1.1"
   x="0px"
   y="0px"
   width="96.5"
   height="29"
   viewBox="0 0 96.5 29"
   enable-background="new 0 0 96.5 32"
   xml:space="preserve"
   id="svg9"
   sodipodi:docname="m4a1_silencer.svg"
   inkscape:version="1.1.1 (3bf5ae0d25, 2021-09-20)"
   xmlns:inkscape="http://www.inkscape.org/namespaces/inkscape"
   xmlns:sodipodi="http://sodipodi.sourceforge.net/DTD/sodipodi-0.dtd"
   xmlns="http://www.w3.org/2000/svg"
   xmlns:svg="http://www.w3.org/2000/svg"><defs
   id="defs13" /><sodipodi:namedview
   id="namedview11"
   pagecolor="#ffffff"
   bordercolor="#666666"
   borderopacity="1.0"
   inkscape:pageshadow="2"
   inkscape:pageopacity="0.0"
   inkscape:pagecheckerboard="0"
   showgrid="false"
   inkscape:zoom="10.963731"
   inkscape:cx="48.295603"
   inkscape:cy="16.007325"
   inkscape:window-width="1920"
   inkscape:window-height="1017"
   inkscape:window-x="-8"
   inkscape:window-y="-8"
   inkscape:window-maximized="1"
   inkscape:current-layer="svg9" />
<g
   id="Selected_Items"
   transform="translate(-0.09120983,-2.8275047)">
	<g
   id="g5">
		<g
   id="Selected_Items_31_">
			<path
   fill-rule="evenodd"
   clip-rule="evenodd"
   fill="#ffffff"
   d="m 96.477,9.111 v 3.665 l -0.116,0.193 -17.674,-0.038 -0.039,-0.695 0.348,-0.038 0.039,-0.271 -5.672,-0.076 v -0.155 l -2.354,0.039 -0.463,0.153 -4.09,-0.038 0.81,0.155 V 12.7 l -0.193,0.232 -0.887,-0.039 v 0.309 h -0.657 v -1.158 h 0.155 v -0.156 l -2.509,-0.076 -0.077,0.232 -0.078,0.578 c -0.025,0.051 -0.051,0.09 -0.077,0.116 -0.051,0.051 -0.116,0.077 -0.193,0.077 C 62.699,12.79 62.634,12.751 62.557,12.7 l -0.154,-0.078 0.038,-0.541 -0.077,-0.231 h -0.501 l -0.04,0.849 c -0.025,0.076 -0.076,0.128 -0.153,0.154 l -0.155,0.116 h -0.27 l -0.231,0.502 -14.24,0.115 -0.27,-0.153 -0.348,-0.078 -0.733,0.27 -0.077,-0.965 -0.696,0.04 0.038,0.617 -0.038,0.078 c -0.026,0.077 -0.064,0.141 -0.116,0.192 -0.052,0.026 -0.129,0.052 -0.232,0.078 l -0.116,0.039 c -0.025,-0.026 -0.065,-0.039 -0.116,-0.039 -0.103,0 -0.179,0.051 -0.232,0.155 -0.052,0.077 -0.103,0.154 -0.154,0.231 l -0.077,0.154 v 3.28 l 0.23,0.078 0.039,0.27 -0.502,0.193 v 1.196 c 0.052,0.927 0.168,1.788 0.348,2.585 0.181,0.798 0.463,1.802 0.849,3.011 0.181,0.618 0.348,1.145 0.502,1.581 l 0.153,0.194 -5.826,1.621 H 39.246 V 28.059 C 39.066,27.442 38.86,26.76 38.628,26.014 38.19,24.471 37.895,23.326 37.74,22.58 37.587,21.834 37.482,21.062 37.431,20.265 l -0.077,-1.003 -0.425,0.077 -0.54,-0.077 h -3.627 l -1.196,0.115 c -0.052,0 -0.116,0 -0.192,0 -0.181,0 -0.323,0.038 -0.425,0.116 -0.077,0.077 -0.155,0.155 -0.232,0.232 l -0.848,1.621 0.423,0.502 -0.115,0.076 c -0.155,0.052 -0.335,0.129 -0.542,0.231 -0.102,0.052 -0.192,0.128 -0.269,0.232 l -0.078,0.116 -1.66,3.242 c -0.051,0.102 -0.063,0.205 -0.038,0.308 0.025,0.077 0.09,0.18 0.193,0.308 0.051,0.051 0.102,0.09 0.154,0.117 l -0.154,0.346 -5.441,-1.273 4.901,-8.49 c 0.051,-0.103 0.089,-0.218 0.116,-0.348 0.103,-0.231 0.129,-0.462 0.077,-0.694 -0.077,-0.282 -0.166,-0.514 -0.27,-0.693 -0.128,-0.18 -0.27,-0.335 -0.424,-0.463 -0.155,-0.103 -0.309,-0.18 -0.463,-0.232 l -1.235,-0.039 v 0.155 l -0.348,0.038 -0.038,-2.123 -0.965,-0.038 -0.039,-0.348 h -3.897 l -0.926,0.695 -3.667,0.078 v 0.348 L 11.961,13.436 12,15.442 H 9.763 v 0.811 H 8.683 V 15.482 L 5.055,17.759 V 15.906 L 0.463,17.99 0.425,18.761 0.386,18.877 C 0.334,18.98 0.269,19.031 0.193,19.031 0.117,19.031 0.065,18.98 0.039,18.877 L 0,18.758 0.078,8.494 h 4.09 c 0.077,0.025 0.128,0.076 0.154,0.154 0.051,0.103 0.09,0.283 0.117,0.54 l 10.535,0.117 c 0.052,0.026 0.09,0.051 0.115,0.076 0.051,0.052 0.077,0.116 0.077,0.192 l 8.529,0.04 -0.039,-0.348 h 1.003 v -0.27 l 0.347,-0.038 0.039,0.269 1.002,-0.038 V 8.725 h 1.004 l 0.078,0.078 2.585,-4.13 0.115,-0.153 c 0.104,-0.129 0.206,-0.206 0.31,-0.231 0.102,-0.078 0.232,-0.129 0.385,-0.155 0.078,0 0.155,0 0.232,0 L 43.607,5.523 43.992,5.6 c 0.309,0.103 0.527,0.232 0.656,0.386 0.128,0.181 0.257,0.399 0.385,0.656 0.052,0.128 0.104,0.244 0.154,0.348 l -0.076,2.508 0.27,-0.039 0.038,-1.12 0.811,0.155 V 8.223 L 46.5,8.184 c 0,-0.025 0,-0.051 0,-0.076 0.026,-0.052 0.052,-0.091 0.077,-0.117 0.051,-0.026 0.117,-0.051 0.193,-0.077 l 14.279,0.231 0.155,0.31 V 8.84 l 0.386,0.04 0.077,0.038 c 0.077,0.051 0.115,0.103 0.115,0.154 0.025,0.103 0.052,0.412 0.078,0.926 h 0.501 L 62.4,8.494 64.754,5.175 64.985,4.982 c 0.154,-0.129 0.309,-0.18 0.463,-0.154 0.386,0.051 0.669,0.192 0.849,0.424 0.077,0.077 0.115,0.167 0.115,0.27 0,0.051 -0.013,0.09 -0.038,0.116 l 0.038,4.36 h 4.092 l 0.54,0.193 2.316,-0.038 V 9.998 h 5.672 V 8.957 H 96.32 Z M 65.566,7.721 C 65.489,7.67 65.425,7.606 65.374,7.528 65.348,7.451 65.296,7.284 65.219,7.027 L 65.18,6.641 64.292,6.564 l -1.389,2.16 0.194,0.155 h 2.624 L 65.913,8.647 V 7.721 Z m -2.431,2.277 h 2.469 L 65.72,9.613 H 63.135 Z M 43.685,6.139 H 32.879 c -0.077,0 -0.167,0 -0.269,0 -0.181,0.052 -0.322,0.116 -0.425,0.193 -0.103,0.078 -0.219,0.193 -0.347,0.347 L 31.683,6.872 31.066,8.378 31.297,8.609 43.608,8.531 43.761,8.493 C 43.865,8.467 43.967,8.415 44.07,8.338 44.379,8.132 44.533,7.797 44.533,7.334 44.533,6.948 44.391,6.64 44.108,6.409 44.005,6.331 43.902,6.267 43.8,6.216 Z M 3.705,13.395 3.55,13.356 H 0.695 l -0.154,0.039 c -0.078,0.077 -0.116,0.154 -0.116,0.231 0,0.077 0.051,0.141 0.154,0.193 0.025,0.026 0.064,0.051 0.116,0.077 H 3.59 C 3.642,13.87 3.68,13.832 3.706,13.78 3.783,13.703 3.822,13.639 3.822,13.587 3.821,13.51 3.782,13.447 3.705,13.395 Z M 0.425,8.84 V 9.265 H 4.091 C 4.091,9.188 4.078,9.098 4.052,8.995 4.052,8.918 4.013,8.867 3.936,8.84 L 3.782,8.802 Z m 35.465,7.371 c -0.103,-0.052 -0.206,-0.089 -0.309,-0.115 h -1.466 c -0.103,0.076 -0.219,0.192 -0.348,0.346 -0.206,0.335 -0.321,0.643 -0.348,0.926 -0.025,0.283 0.066,0.566 0.271,0.849 0.103,0.129 0.218,0.233 0.348,0.309 l -0.155,0.116 c -0.154,-0.078 -0.321,-0.206 -0.502,-0.386 -0.333,-0.309 -0.514,-0.643 -0.54,-1.003 -0.025,-0.231 0.026,-0.501 0.155,-0.811 l 0.154,-0.346 c -0.232,0.025 -0.451,0.102 -0.657,0.23 -0.462,0.309 -0.667,0.759 -0.616,1.351 0.026,0.335 0.193,0.644 0.501,0.927 0.154,0.154 0.309,0.27 0.463,0.348 h 3.473 v -0.463 c 0.129,-0.103 0.231,-0.257 0.309,-0.463 0.128,-0.361 0.103,-0.759 -0.078,-1.196 -0.128,-0.258 -0.346,-0.464 -0.655,-0.619 z"
   id="path2" />
		</g>
	</g>
</g>
<g
   id="guides">
</g>
</svg>
