<?xml version="1.0" encoding="UTF-8" standalone="no"?>
<!-- Generator: Adobe Illustrator 16.0.0, SVG Export Plug-In . SVG Version: 6.00 Build 0)  -->

<svg
   version="1.1"
   id="Layer_1"
   x="0px"
   y="0px"
   width="79.807999"
   height="29"
   viewBox="0 0 79.808 29"
   enable-background="new 0 0 79.808 32"
   xml:space="preserve"
   sodipodi:docname="m4a1_silencer_off.svg"
   inkscape:version="1.1.1 (3bf5ae0d25, 2021-09-20)"
   xmlns:inkscape="http://www.inkscape.org/namespaces/inkscape"
   xmlns:sodipodi="http://sodipodi.sourceforge.net/DTD/sodipodi-0.dtd"
   xmlns="http://www.w3.org/2000/svg"
   xmlns:svg="http://www.w3.org/2000/svg"><defs
   id="defs12" /><sodipodi:namedview
   id="namedview10"
   pagecolor="#ffffff"
   bordercolor="#666666"
   borderopacity="1.0"
   inkscape:pageshadow="2"
   inkscape:pageopacity="0.0"
   inkscape:pagecheckerboard="0"
   showgrid="false"
   height="31px"
   inkscape:zoom="13.256817"
   inkscape:cx="39.866282"
   inkscape:cy="16.029489"
   inkscape:window-width="1920"
   inkscape:window-height="1017"
   inkscape:window-x="-8"
   inkscape:window-y="-8"
   inkscape:window-maximized="1"
   inkscape:current-layer="Layer_1" />
<g
   id="Selected_Items"
   transform="translate(-0.45259734,-3.469913)">
	<g
   id="g5">
		<g
   id="Selected_Items_31_">
			<path
   fill="#ffffff"
   d="M 78.096,12.723 74.59,12.681 v -0.155 l -2.355,0.039 -0.463,0.153 -4.09,-0.038 0.811,0.155 V 13.53 L 68.3,13.762 67.413,13.723 v 0.309 h -0.656 v -1.158 h 0.154 v -0.156 l -2.51,-0.076 -0.076,0.232 -0.078,0.578 c -0.025,0.051 -0.051,0.09 -0.076,0.116 -0.051,0.051 -0.117,0.077 -0.193,0.077 C 63.927,13.62 63.861,13.581 63.785,13.53 L 63.631,13.452 63.67,12.911 63.592,12.68 h -0.5 l -0.041,0.849 c -0.025,0.076 -0.076,0.128 -0.152,0.154 l -0.154,0.116 h -0.271 l -0.23,0.502 -14.244,0.116 -0.27,-0.153 -0.348,-0.078 -0.733,0.27 -0.077,-0.965 -0.696,0.04 0.038,0.617 -0.038,0.078 c -0.026,0.077 -0.064,0.141 -0.116,0.192 -0.052,0.026 -0.129,0.052 -0.232,0.078 l -0.116,0.039 c -0.025,-0.026 -0.065,-0.039 -0.116,-0.039 -0.103,0 -0.179,0.051 -0.232,0.155 -0.052,0.077 -0.103,0.154 -0.154,0.231 l -0.077,0.154 v 3.279 l 0.23,0.078 0.039,0.271 -0.502,0.191 v 1.197 c 0.052,0.926 0.168,1.787 0.348,2.584 0.181,0.799 0.463,1.803 0.849,3.012 0.181,0.617 0.348,1.145 0.502,1.58 l 0.153,0.195 -5.826,1.621 H 40.472 V 28.888 C 40.292,28.271 40.086,27.589 39.854,26.843 39.416,25.3 39.121,24.155 38.966,23.409 38.813,22.663 38.708,21.891 38.657,21.095 l -0.077,-1.004 -0.425,0.078 -0.54,-0.078 h -3.627 l -1.196,0.115 c -0.052,0 -0.116,0 -0.192,0 -0.181,0 -0.323,0.039 -0.425,0.117 -0.077,0.076 -0.155,0.154 -0.232,0.23 l -0.848,1.621 0.423,0.502 -0.115,0.076 c -0.155,0.053 -0.335,0.129 -0.542,0.232 -0.102,0.051 -0.192,0.127 -0.269,0.23 l -0.078,0.117 -1.66,3.242 c -0.051,0.102 -0.063,0.205 -0.038,0.307 0.025,0.078 0.09,0.18 0.193,0.309 0.051,0.051 0.102,0.09 0.154,0.117 l -0.154,0.346 -5.441,-1.273 4.901,-8.49 c 0.051,-0.102 0.089,-0.217 0.116,-0.348 0.103,-0.23 0.129,-0.461 0.077,-0.693 -0.077,-0.282 -0.166,-0.514 -0.27,-0.693 -0.128,-0.18 -0.27,-0.335 -0.424,-0.463 -0.155,-0.103 -0.309,-0.18 -0.463,-0.232 L 26.27,15.421 v 0.155 L 25.922,15.614 25.884,13.491 24.919,13.453 24.88,13.105 H 20.983 L 20.057,13.8 16.39,13.878 v 0.348 l -3.203,0.039 0.039,2.006 H 10.99 v 0.812 H 9.91 V 16.312 L 6.282,18.59 V 16.736 L 1.689,18.82 1.651,19.591 1.612,19.706 C 1.56,19.81 1.495,19.86 1.419,19.86 1.343,19.86 1.291,19.809 1.265,19.706 L 1.226,19.587 1.305,9.325 h 4.09 C 5.472,9.35 5.522,9.4 5.548,9.479 c 0.051,0.103 0.09,0.283 0.117,0.54 L 16.2,10.136 c 0.052,0.026 0.09,0.051 0.115,0.076 0.051,0.052 0.077,0.116 0.077,0.192 l 8.529,0.04 -0.039,-0.348 h 1.003 v -0.27 l 0.347,-0.038 0.039,0.269 1.002,-0.038 V 9.556 h 1.004 l 0.078,0.078 2.585,-4.13 0.115,-0.153 c 0.104,-0.129 0.206,-0.206 0.31,-0.231 0.102,-0.078 0.232,-0.129 0.385,-0.155 0.078,0 0.155,0 0.232,0 l 12.851,1.389 0.385,0.077 c 0.309,0.103 0.527,0.232 0.656,0.386 0.128,0.181 0.257,0.399 0.385,0.656 0.052,0.128 0.104,0.244 0.154,0.348 l -0.076,2.508 0.27,-0.039 0.038,-1.12 0.811,0.155 V 9.054 l 0.27,-0.039 c 0,-0.025 0,-0.051 0,-0.076 0.026,-0.052 0.052,-0.091 0.077,-0.117 0.051,-0.026 0.117,-0.051 0.193,-0.077 l 14.279,0.231 0.154,0.31 V 9.67 l 0.387,0.04 0.076,0.038 c 0.078,0.051 0.115,0.103 0.115,0.154 0.025,0.103 0.053,0.412 0.078,0.926 h 0.502 L 63.626,9.324 65.98,6.005 66.21,5.812 c 0.154,-0.129 0.309,-0.18 0.463,-0.154 0.387,0.051 0.67,0.192 0.85,0.424 0.076,0.077 0.115,0.167 0.115,0.27 0,0.051 -0.014,0.09 -0.039,0.116 l 0.039,4.36 h 4.092 l 0.539,0.193 2.316,-0.038 v -0.155 l 3.508,-0.034 M 66.793,8.552 C 66.715,8.5 66.65,8.437 66.6,8.358 66.575,8.281 66.522,8.114 66.446,7.857 l -0.039,-0.386 -0.889,-0.077 -1.389,2.16 0.195,0.155 h 2.623 L 67.138,9.477 V 8.552 Z m -2.432,2.277 h 2.469 l 0.117,-0.385 H 64.361 Z M 44.912,6.97 H 34.105 c -0.077,0 -0.167,0 -0.269,0 -0.181,0.052 -0.322,0.116 -0.425,0.193 -0.103,0.078 -0.219,0.193 -0.347,0.347 L 32.91,7.703 32.293,9.209 32.524,9.44 44.835,9.362 44.988,9.324 C 45.092,9.298 45.194,9.246 45.297,9.169 45.606,8.963 45.76,8.628 45.76,8.165 45.76,7.779 45.618,7.471 45.335,7.24 45.232,7.162 45.129,7.098 45.027,7.047 Z M 4.932,14.226 4.777,14.187 H 1.921 l -0.154,0.039 c -0.078,0.077 -0.116,0.154 -0.116,0.231 0,0.077 0.051,0.141 0.154,0.193 0.025,0.026 0.064,0.051 0.116,0.077 H 4.816 C 4.868,14.701 4.906,14.663 4.932,14.611 5.009,14.534 5.048,14.47 5.048,14.418 5.047,14.34 5.009,14.278 4.932,14.226 Z M 1.651,9.67 v 0.425 H 5.317 C 5.317,10.018 5.304,9.928 5.278,9.825 5.278,9.748 5.239,9.697 5.162,9.67 L 5.009,9.632 Z m 35.466,7.371 C 37.014,16.99 36.911,16.953 36.808,16.927 h -1.466 c -0.103,0.075 -0.219,0.192 -0.348,0.346 -0.206,0.335 -0.321,0.644 -0.348,0.927 -0.025,0.281 0.066,0.564 0.271,0.848 0.103,0.129 0.218,0.234 0.348,0.309 l -0.155,0.117 c -0.154,-0.078 -0.321,-0.207 -0.502,-0.387 -0.333,-0.309 -0.514,-0.643 -0.54,-1.002 -0.025,-0.232 0.026,-0.502 0.155,-0.812 l 0.154,-0.346 c -0.232,0.024 -0.451,0.103 -0.657,0.229 -0.462,0.309 -0.667,0.76 -0.616,1.352 0.026,0.334 0.193,0.643 0.501,0.926 0.154,0.154 0.309,0.271 0.463,0.35 h 3.473 V 19.32 c 0.129,-0.104 0.231,-0.258 0.309,-0.465 0.128,-0.359 0.103,-0.758 -0.078,-1.195 -0.128,-0.258 -0.346,-0.463 -0.655,-0.619 z"
   id="path2" />
		</g>
	</g>
</g>
<g
   id="guides">
</g>
</svg>
