<?xml version="1.0" encoding="UTF-8" standalone="no"?>
<!-- Generator: Adobe Illustrator 16.0.0, SVG Export Plug-In . SVG Version: 6.00 Build 0)  -->

<svg
   version="1.1"
   x="0px"
   y="0px"
   width="67.5"
   height="30"
   viewBox="0 0 67.5 30"
   enable-background="new 0 0 67.5 32"
   xml:space="preserve"
   id="svg9"
   sodipodi:docname="mag7.svg"
   inkscape:version="1.1.1 (3bf5ae0d25, 2021-09-20)"
   xmlns:inkscape="http://www.inkscape.org/namespaces/inkscape"
   xmlns:sodipodi="http://sodipodi.sourceforge.net/DTD/sodipodi-0.dtd"
   xmlns="http://www.w3.org/2000/svg"
   xmlns:svg="http://www.w3.org/2000/svg"><defs
   id="defs13" /><sodipodi:namedview
   id="namedview11"
   pagecolor="#ffffff"
   bordercolor="#666666"
   borderopacity="1.0"
   inkscape:pageshadow="2"
   inkscape:pageopacity="0.0"
   inkscape:pagecheckerboard="0"
   showgrid="false"
   inkscape:zoom="15.674074"
   inkscape:cx="33.7181"
   inkscape:cy="15.981805"
   inkscape:window-width="1920"
   inkscape:window-height="1017"
   inkscape:window-x="1912"
   inkscape:window-y="-8"
   inkscape:window-maximized="1"
   inkscape:current-layer="svg9" />
<g
   id="Selected_Items"
   transform="translate(0,-2.6795841)">
	<g
   id="g5">
		<g
   id="Selected_Items_34_">
			<path
   fill-rule="evenodd"
   clip-rule="evenodd"
   fill="#ffffff"
   d="m 2.081,4.085 c 0.026,0 0.064,0 0.115,0 V 4.047 h 0.039 c 0.025,0 0.052,0 0.077,0 4.986,0 9.974,0 14.96,0 0.334,-0.024 0.656,-0.038 0.965,-0.038 0.025,-0.026 0.051,-0.051 0.075,-0.077 0.052,0 0.091,0 0.117,0 0.026,0 0.051,0 0.076,0 0.051,0 0.103,0.013 0.155,0.039 0.026,0.024 0.051,0.052 0.077,0.076 11.849,0 23.687,0 35.51,0 0.052,0 0.09,0 0.115,0 0.052,0 0.091,0 0.118,0 0.05,0 0.101,0.013 0.152,0.039 0.026,0.026 0.053,0.052 0.078,0.077 0.025,0.026 0.051,0.053 0.076,0.078 0.026,0.025 0.04,0.052 0.04,0.077 0.025,0.025 0.039,0.05 0.039,0.077 0.024,0 0.039,0.013 0.039,0.038 0.127,0 0.257,0 0.385,0 0,0.025 0,0.052 0,0.076 0,0.026 0,0.052 0,0.078 0,0.025 0,0.052 0,0.077 0,0.026 0,0.052 0,0.077 0,0.026 0,0.052 0,0.077 0,0.025 0,0.051 0,0.076 0,0.026 0,0.053 0,0.078 v 0.039 c 0,0.025 0,0.052 0,0.077 0,0.025 0,0.053 0,0.078 0,0.025 0,0.051 0,0.076 0,0.026 0,0.051 0,0.077 v 0.04 l 0.039,0.038 c 0,0.025 0,0.051 0,0.077 0,0.025 0,0.051 0,0.076 -0.026,0.026 -0.038,0.052 -0.039,0.078 v 0.039 c 0,0.025 0,0.052 0,0.076 0,0.026 0,0.052 0,0.078 0,0.025 0,0.052 0,0.077 v 0.076 c -0.052,0 -0.103,0 -0.154,0 0,0.026 0,0.053 0,0.078 0.026,0 0.064,0 0.115,0 0.052,0 0.103,0.012 0.154,0.039 l 0.038,0.04 c 0.026,-0.026 0.052,-0.053 0.077,-0.078 0.027,0 0.064,0 0.117,0 0.153,0 0.321,0 0.501,0 0.026,0 0.051,0.012 0.077,0.039 V 6.053 c 0.052,0 0.102,0.012 0.154,0.039 0.025,0.025 0.051,0.052 0.077,0.077 0,0.025 0.013,0.052 0.039,0.077 0,0.025 0.013,0.051 0.038,0.078 V 6.36 c 0,0.026 0,0.053 0,0.078 0,0.026 0,0.052 0,0.078 0,0.024 0,0.051 0,0.076 0,0.026 0,0.052 0,0.077 0,0.025 0,0.052 0,0.077 0,0.026 0,0.051 0,0.077 0,0.026 0,0.052 0,0.078 V 6.94 c 0,0.025 0,0.051 0,0.076 3.316,0 6.619,0 9.91,0 0.05,0 0.103,0.013 0.153,0.04 0.025,0.025 0.053,0.05 0.078,0.077 0.025,0 0.064,0.012 0.115,0.037 0.026,0.025 0.051,0.052 0.078,0.078 0,0.025 0.012,0.052 0.039,0.077 0,0.025 0.014,0.052 0.039,0.077 0,0.025 0,0.052 0,0.077 v 0.039 c 0,0.024 0,0.052 0,0.077 0,0.025 0,0.051 0,0.077 0,0.025 0,0.051 0,0.076 0,0.027 0,0.053 0,0.078 0,0.025 0,0.053 0,0.078 0,0.024 0,0.051 0,0.077 0,0.024 0,0.051 0,0.076 v 0.039 c 0,0.026 0,0.052 0,0.077 0,0.025 0,0.051 0,0.077 0,0.026 0,0.052 0,0.078 0,0.025 0,0.051 0,0.076 0,0.026 0,0.052 0,0.078 0,0.025 0,0.052 0,0.077 0,0.025 0,0.05 0,0.077 v 0.038 c 0,0.025 0,0.053 0,0.078 0,0.025 0,0.051 0,0.077 0,0.025 0,0.052 0,0.077 0,0.025 0,0.05 0,0.077 0,0.025 0,0.052 0,0.077 -0.025,0.025 -0.039,0.051 -0.039,0.077 0,0.025 0.014,0.051 0.039,0.077 v 0.039 c -0.025,0.026 -0.051,0.051 -0.077,0.078 0,0.024 0,0.051 0,0.076 v 0.039 c -0.026,0.025 -0.052,0.051 -0.078,0.077 0,0.026 0,0.052 0,0.077 L 66.74,9.638 c -0.026,0.025 -0.052,0.039 -0.077,0.039 -0.024,0 -0.064,0.012 -0.115,0.039 -1.583,0 -3.175,0 -4.782,0 0,0.026 0,0.052 0,0.078 v 0.037 c 0,0.025 0,0.052 0,0.077 0,0.026 0,0.053 0,0.078 0,0.025 0,0.05 0,0.076 v 0.077 h -0.038 v 0.04 c -0.025,0 -0.052,0.013 -0.078,0.039 0,0.024 0,0.05 0,0.077 -0.025,0.025 -0.052,0.05 -0.078,0.077 h -0.038 c -0.025,0 -0.064,0.012 -0.115,0.038 -0.052,-0.025 -0.104,-0.038 -0.155,-0.038 -0.026,0 -0.063,0.012 -0.116,0.038 -1.413,0 -2.827,0 -4.241,0 -0.027,0.025 -0.052,0.039 -0.078,0.039 -0.025,0 -0.064,0.013 -0.116,0.039 -0.025,0 -0.051,0 -0.077,0 -0.025,0.026 -0.051,0.052 -0.077,0.078 l 0.039,0.039 c 0,0.025 0.012,0.052 0.038,0.077 0,0.026 0,0.052 0,0.077 -0.025,0.025 -0.051,0.038 -0.077,0.038 0,0.027 0,0.053 0,0.078 -0.026,0.025 -0.039,0.052 -0.039,0.077 -0.025,0 -0.051,0 -0.077,0 -0.025,0.025 -0.064,0.039 -0.116,0.039 -0.025,0 -0.063,0 -0.115,0 -0.026,0 -0.051,0 -0.077,0 -0.052,0 -0.103,0 -0.155,0 v 0.116 c -0.452,0 -0.901,0 -1.35,0 v 0.039 c 0,0.026 0,0.051 0,0.078 0,0.024 0,0.05 0,0.076 0,0.026 0,0.052 0,0.078 0,0.025 0,0.051 0,0.077 0,0.025 0,0.051 0,0.076 v 0.04 c 0,0.025 0,0.05 0,0.077 0,0.025 0,0.05 0,0.077 0,0.025 0,0.051 0,0.076 v 0.078 c -0.103,0.025 -0.218,0.039 -0.346,0.039 v 0.039 c 0,0.025 -0.013,0.051 -0.04,0.077 0,0.025 -0.013,0.05 -0.038,0.077 0,0.025 -0.013,0.038 -0.038,0.038 0,0.025 -0.014,0.051 -0.04,0.077 0,0.025 0,0.052 0,0.077 -0.025,0.025 -0.051,0.051 -0.078,0.077 0,0.026 0,0.052 0,0.077 -0.025,0.026 -0.05,0.052 -0.076,0.077 0,0.025 0,0.051 0,0.077 -0.026,0.025 -0.039,0.052 -0.039,0.077 l -0.039,0.039 c -0.025,0.025 -0.039,0.052 -0.039,0.077 -0.026,0.026 -0.039,0.052 -0.039,0.077 -0.025,0.026 -0.039,0.052 -0.039,0.077 -0.025,0.025 -0.051,0.051 -0.077,0.077 0,0.026 -0.014,0.052 -0.04,0.078 v 0.039 c 0,0.025 -0.012,0.051 -0.038,0.076 -0.013,0.012 -0.026,0.026 -0.039,0.04 -0.013,0.016 -0.027,0.027 -0.038,0.039 -0.026,0.026 -0.039,0.052 -0.039,0.077 -0.026,0.024 -0.039,0.049 -0.039,0.077 0,0.025 -0.013,0.037 -0.038,0.037 -0.027,0.028 -0.053,0.053 -0.078,0.078 -0.025,0.025 -0.038,0.051 -0.038,0.077 -0.026,0.026 -0.052,0.052 -0.078,0.077 -0.024,0.025 -0.052,0.052 -0.078,0.077 l -0.076,0.077 c -0.03,0 -0.063,0.006 -0.097,0.02 -0.013,0.017 -0.019,0.035 -0.019,0.057 -0.026,0.025 -0.052,0.051 -0.077,0.077 h -0.03 c -0.021,0.01 -0.04,0.018 -0.059,0.019 l -0.019,0.02 c -0.026,0.025 -0.038,0.052 -0.038,0.077 0,0.026 -0.013,0.052 -0.04,0.077 0,0.026 -0.013,0.039 -0.038,0.039 -0.025,0.025 -0.051,0.052 -0.077,0.077 -0.076,0.027 -0.154,0.052 -0.231,0.079 -0.076,0.024 -0.142,0.05 -0.193,0.076 v 0.039 l -0.038,0.04 c -0.153,0 -0.308,0 -0.462,0 0,0.025 -0.014,0.039 -0.039,0.039 -0.051,0.025 -0.103,0.038 -0.155,0.038 -0.515,0 -1.029,0 -1.542,0 -0.051,-0.025 -0.103,-0.038 -0.154,-0.038 -0.026,-0.026 -0.04,-0.052 -0.04,-0.078 -0.025,0 -0.05,0 -0.076,0 -0.104,0 -0.208,0 -0.31,0 -0.024,-0.025 -0.063,-0.039 -0.115,-0.039 l -0.039,-0.039 c -0.026,0 -0.051,0 -0.078,0 -0.078,-0.025 -0.141,-0.037 -0.191,-0.037 -0.026,-0.027 -0.052,-0.052 -0.078,-0.079 0,-0.025 -0.013,-0.052 -0.039,-0.077 H 48.771 C 48.72,14.246 48.668,14.232 48.616,14.232 48.591,14.207 48.565,14.181 48.54,14.155 48.54,14.13 48.528,14.103 48.501,14.078 48.475,14.052 48.437,14.026 48.386,14 v -0.038 c -1.414,0 -2.814,0.013 -4.204,0.038 -0.025,0 -0.037,0.013 -0.037,0.04 h -0.04 c -0.052,0.026 -0.103,0.039 -0.154,0.039 -0.153,0 -0.309,0 -0.462,0 l -0.04,0.039 c -0.05,0 -0.09,0.013 -0.115,0.039 -0.052,0 -0.104,0.013 -0.155,0.039 -0.025,0.025 -0.038,0.052 -0.038,0.077 -0.052,0.025 -0.103,0.052 -0.155,0.077 -0.025,0.027 -0.064,0.052 -0.115,0.079 -0.026,0.024 -0.053,0.037 -0.078,0.037 0,0.025 -0.013,0.052 -0.038,0.077 0,0.026 -0.013,0.052 -0.038,0.078 h -0.039 c -0.078,0.025 -0.141,0.038 -0.193,0.038 -0.026,0.026 -0.064,0.052 -0.116,0.078 -0.025,0.025 -0.052,0.052 -0.077,0.077 -0.026,0.024 -0.05,0.05 -0.077,0.076 0,0.026 0,0.052 0,0.077 -0.025,0.025 -0.038,0.052 -0.038,0.077 -0.053,0.026 -0.104,0.052 -0.154,0.078 -0.026,0.025 -0.064,0.052 -0.117,0.076 -0.025,0.028 -0.051,0.04 -0.076,0.04 0,0.025 -0.013,0.05 -0.04,0.077 -0.024,0.027 -0.05,0.051 -0.076,0.076 0,0.026 0,0.052 0,0.078 -0.025,0.025 -0.052,0.052 -0.077,0.077 -0.026,0.025 -0.039,0.052 -0.039,0.078 -0.026,0.025 -0.052,0.051 -0.078,0.076 0,0.025 -0.012,0.052 -0.038,0.077 v 0.039 c -0.026,0.025 -0.04,0.052 -0.04,0.077 -0.025,0.025 -0.039,0.051 -0.039,0.078 -0.026,0.025 -0.052,0.051 -0.076,0.076 0,0.026 0,0.052 0,0.077 -0.025,0.025 -0.038,0.053 -0.038,0.079 0,0.025 -0.013,0.05 -0.04,0.077 0,0.024 -0.013,0.051 -0.039,0.076 0,0.026 -0.012,0.039 -0.039,0.039 -0.025,0.026 -0.039,0.052 -0.039,0.078 -0.025,0.025 -0.038,0.051 -0.038,0.077 0,0.025 -0.013,0.05 -0.039,0.077 0,0.025 0,0.052 0,0.077 -0.025,0.025 -0.039,0.051 -0.039,0.077 -0.052,0.025 -0.09,0.051 -0.115,0.076 -0.025,0.026 -0.038,0.053 -0.038,0.078 -0.026,0.025 -0.064,0.039 -0.115,0.039 0,0.025 -0.014,0.052 -0.04,0.077 -0.025,0.025 -0.051,0.052 -0.077,0.077 0,0.025 -0.013,0.038 -0.038,0.038 l -0.039,0.04 c -0.052,0 -0.09,0.013 -0.116,0.039 -0.05,0 -0.102,0.013 -0.153,0.039 l -0.039,0.039 c -0.051,0.025 -0.103,0.039 -0.155,0.039 -0.077,0 -0.167,0 -0.269,0 l -0.039,0.039 c -0.051,0 -0.09,0.014 -0.116,0.039 -0.128,0 -0.244,0 -0.347,0 -0.025,-0.024 -0.065,-0.039 -0.116,-0.039 l -0.039,-0.039 c -0.024,0 -0.05,0 -0.076,0 -0.078,-0.025 -0.142,-0.039 -0.193,-0.039 0,-0.026 -0.013,-0.052 -0.04,-0.077 -0.025,0 -0.063,0 -0.116,0 -0.051,-0.025 -0.103,-0.052 -0.153,-0.078 -0.025,0 -0.051,-0.012 -0.078,-0.038 -0.022,-0.023 -0.042,-0.042 -0.057,-0.057 -0.087,-0.01 -0.171,-0.017 -0.251,-0.02 -0.025,-0.025 -0.051,-0.052 -0.077,-0.077 -0.025,0 -0.038,-0.013 -0.038,-0.039 -0.026,-0.025 -0.039,-0.052 -0.039,-0.078 0,-0.025 -0.013,-0.051 -0.039,-0.076 -0.025,-0.026 -0.051,-0.052 -0.077,-0.077 0,-0.025 0,-0.052 0,-0.077 -0.026,-0.027 -0.038,-0.052 -0.038,-0.077 0,-0.026 -0.013,-0.052 -0.039,-0.077 0,-0.026 0,-0.052 0,-0.078 v -0.039 c 0,-0.025 0,-0.052 0,-0.076 0,-0.026 -0.013,-0.052 -0.039,-0.077 -0.025,-0.025 -0.052,-0.053 -0.077,-0.079 0,-0.025 0,-0.05 0,-0.077 0,-0.025 0,-0.051 0,-0.076 0,-0.027 0,-0.053 0,-0.078 0,-0.025 0,-0.052 0,-0.077 V 15.74 C 37.713,15.716 37.7,15.689 37.7,15.664 c 0,-0.025 0,-0.052 0,-0.077 0,-0.025 0,-0.051 0,-0.077 0,-0.025 0,-0.052 0,-0.077 v -0.04 c 0,-0.025 0,-0.049 0,-0.076 0,-0.026 0,-0.052 0,-0.077 0,-0.026 0,-0.053 0,-0.077 0,-0.025 0,-0.052 0,-0.077 0,-0.026 0,-0.052 0,-0.078 0,-0.024 -0.013,-0.051 -0.04,-0.076 0,-0.025 0,-0.052 0,-0.078 -0.025,0 -0.038,-0.013 -0.038,-0.037 0,-0.025 0,-0.052 0,-0.077 -1.954,0 -3.921,0.012 -5.9,0.039 0,0.025 -0.013,0.039 -0.038,0.039 -0.051,0.024 -0.104,0.037 -0.155,0.037 -0.026,0 -0.063,0 -0.117,0 -0.024,0 -0.05,0 -0.076,0 0,0.026 0,0.053 0,0.078 0,0.025 -0.014,0.052 -0.039,0.076 0,0.027 0,0.053 0,0.078 -0.025,0.025 -0.051,0.052 -0.078,0.077 -0.009,0.011 -0.021,0.023 -0.038,0.037 l -0.039,0.021 v 0.019 l -0.077,0.077 c -0.026,0.027 -0.04,0.051 -0.04,0.076 -0.051,0.026 -0.088,0.04 -0.113,0.04 0,0.025 -0.013,0.052 -0.039,0.077 0,0.026 -0.013,0.052 -0.039,0.077 0,0.025 0,0.052 0,0.077 -0.025,0.025 -0.052,0.052 -0.077,0.076 -0.026,0.028 -0.064,0.053 -0.116,0.078 0,0.025 -0.013,0.052 -0.038,0.077 -0.027,0.025 -0.053,0.051 -0.079,0.078 -0.024,0.025 -0.051,0.039 -0.076,0.039 -0.026,0.024 -0.038,0.052 -0.038,0.076 -0.026,0.025 -0.052,0.05 -0.078,0.078 -0.025,0.025 -0.051,0.05 -0.077,0.076 0,0.026 0,0.052 0,0.077 -0.025,0.025 -0.051,0.053 -0.077,0.077 -0.026,0.026 -0.052,0.052 -0.078,0.078 -0.025,0.025 -0.039,0.051 -0.039,0.077 -0.05,0.025 -0.089,0.039 -0.115,0.039 0,0.025 -0.013,0.05 -0.038,0.076 -0.025,0.026 -0.051,0.052 -0.078,0.078 -0.025,0.025 -0.052,0.051 -0.078,0.077 -0.025,0.025 -0.05,0.051 -0.076,0.077 -0.027,0.026 -0.052,0.052 -0.077,0.077 -0.027,0.025 -0.065,0.052 -0.116,0.077 -0.051,0.025 -0.09,0.052 -0.117,0.077 -0.024,0.025 -0.051,0.038 -0.076,0.038 0,0.026 -0.013,0.053 -0.038,0.078 -0.027,0.025 -0.04,0.051 -0.04,0.077 h -0.039 c -0.051,0.025 -0.102,0.039 -0.153,0.039 -0.026,0.025 -0.039,0.053 -0.039,0.077 -0.025,0.026 -0.038,0.052 -0.038,0.078 l -0.04,0.037 c -0.025,0.025 -0.051,0.039 -0.076,0.039 -0.025,0 -0.065,0.013 -0.117,0.04 -0.05,-0.026 -0.089,-0.04 -0.114,-0.04 -0.026,0 -0.039,0.013 -0.039,0.04 -0.026,0.025 -0.039,0.051 -0.039,0.076 -0.025,0 -0.052,0 -0.077,0 -0.026,0.026 -0.065,0.039 -0.117,0.039 -1.696,0 -3.393,0 -5.089,0 -0.026,0 -0.064,0 -0.117,0 -0.025,0 -0.05,0 -0.076,0 -0.052,-0.025 -0.103,-0.039 -0.155,-0.039 -0.025,-0.025 -0.052,-0.051 -0.077,-0.076 0,-0.026 -0.013,-0.053 -0.039,-0.078 0,-0.025 0,-0.052 0,-0.076 0,-0.026 0,-0.052 0,-0.078 l 0.019,-0.039 c -0.044,0 -0.09,0 -0.135,0 0,0.025 0,0.053 0,0.077 -0.025,0 -0.039,0.013 -0.039,0.04 0,0.024 0,0.05 0,0.076 -0.026,0 -0.039,0.013 -0.039,0.039 0,0.028 -0.013,0.052 -0.039,0.078 v 0.038 c -0.026,0.026 -0.039,0.052 -0.039,0.077 -0.025,0 -0.051,0.013 -0.078,0.041 0,0.024 0,0.05 0,0.076 v 0.039 c 0,0.025 0,0.05 0,0.076 -0.025,0 -0.051,0.013 -0.076,0.039 0,0.026 0,0.052 0,0.077 v 0.04 c 0,0.025 0,0.051 0,0.076 v 0.04 c 0,0.026 -0.013,0.051 -0.039,0.077 v 0.039 c -0.025,0.025 -0.038,0.05 -0.038,0.078 v 0.037 c -0.026,0.025 -0.04,0.052 -0.04,0.076 -0.025,0 -0.038,0.013 -0.038,0.039 -0.025,0.026 -0.039,0.053 -0.039,0.078 -0.026,0 -0.039,0.013 -0.039,0.039 0,0.026 0,0.05 0,0.077 v 0.04 c 0,0.025 0,0.05 0,0.076 -0.026,0 -0.052,0.013 -0.078,0.039 -0.024,0.025 -0.037,0.051 -0.037,0.078 -0.026,0 -0.04,0.012 -0.04,0.038 0,0.026 0,0.052 0,0.077 V 19.2 c -0.026,0.025 -0.038,0.052 -0.038,0.077 -0.027,0 -0.052,0.013 -0.077,0.04 0,0.025 -0.013,0.05 -0.038,0.077 v 0.038 c 0,0.026 0,0.052 0,0.078 -0.025,0 -0.039,0.012 -0.039,0.039 0,0.025 0,0.052 0,0.077 -0.026,0 -0.039,0.012 -0.039,0.039 0,0.025 -0.012,0.052 -0.038,0.077 v 0.037 c -0.026,0.028 -0.039,0.053 -0.039,0.078 -0.025,0 -0.05,0.012 -0.077,0.038 0,0.026 0,0.052 0,0.077 -0.025,0 -0.039,0.013 -0.039,0.039 0,0.026 0,0.052 0,0.078 -0.025,0 -0.038,0.013 -0.038,0.04 -0.027,0.025 -0.04,0.049 -0.04,0.076 -0.025,0 -0.037,0.013 -0.037,0.038 0,0.025 0,0.052 0,0.077 v 0.039 c -0.025,0.025 -0.039,0.052 -0.039,0.076 -0.026,0 -0.051,0.013 -0.077,0.039 0,0.027 -0.013,0.053 -0.039,0.079 v 0.038 c -0.026,0.025 -0.039,0.05 -0.039,0.077 -0.026,0 -0.039,0.014 -0.039,0.039 0,0.025 0,0.052 0,0.078 -0.025,0 -0.039,0.012 -0.039,0.038 0,0.024 -0.013,0.05 -0.038,0.077 -0.026,0.025 -0.038,0.052 -0.038,0.078 -0.027,0 -0.039,0.013 -0.039,0.039 -0.027,0.025 -0.04,0.052 -0.04,0.076 -0.025,0 -0.038,0.014 -0.038,0.04 -0.026,0.025 -0.038,0.05 -0.038,0.077 -0.026,0 -0.052,0.013 -0.078,0.039 -0.025,0.024 -0.039,0.051 -0.039,0.077 -0.025,0 -0.038,0.012 -0.038,0.039 0,0.025 0,0.053 0,0.077 -0.025,0 -0.039,0.012 -0.039,0.038 0,0.026 -0.013,0.052 -0.039,0.078 l -0.039,0.037 c 0,0.026 -0.013,0.052 -0.038,0.077 v 0.04 c -0.026,0.025 -0.039,0.052 -0.039,0.077 -0.026,0 -0.039,0.012 -0.039,0.039 v 0.039 l -0.039,0.078 c -0.026,0 -0.039,0.012 -0.039,0.038 V 22.06 H 20.43 l -0.02,0.039 c 0,0.025 0,0.052 0,0.077 -0.014,0 -0.028,0.007 -0.039,0.02 -0.015,0.002 -0.029,0.007 -0.038,0.019 v 0.077 l -0.039,0.04 -0.04,0.076 c -0.025,0 -0.051,0.013 -0.077,0.04 -0.026,0.025 -0.039,0.05 -0.039,0.076 -0.026,0 -0.051,0.013 -0.077,0.039 -0.026,0.026 -0.039,0.052 -0.039,0.078 -0.026,0 -0.051,0.012 -0.077,0.038 v 0.077 c 0.045,0 0.09,0 0.135,0 0.044,0.001 0.089,0.001 0.135,0 0,0.026 0,0.053 0,0.078 -0.026,0 -0.051,0.012 -0.078,0.037 0,0.027 0,0.052 0,0.077 l -0.039,0.04 c 0,0.025 -0.012,0.051 -0.038,0.076 v 0.04 c 0,0.025 0,0.051 0,0.076 v 0.04 c 0,0.025 0,0.051 0,0.077 -0.026,0 -0.052,0.013 -0.078,0.039 0,0.025 0,0.052 0,0.078 l -0.039,0.037 c 0,0.025 -0.013,0.052 -0.038,0.077 v 0.039 c 0,0.024 0,0.052 0,0.077 v 0.039 c 0,0.026 0,0.052 0,0.077 v 0.039 c 0,0.026 0,0.051 0,0.077 v 0.077 c 0,0.013 -0.007,0.026 -0.018,0.039 -0.018,0.004 -0.037,0.017 -0.059,0.04 -0.025,0.025 -0.04,0.051 -0.04,0.076 -0.025,0 -0.038,0.012 -0.038,0.039 0,0.027 0,0.052 0,0.078 v 0.154 c -0.026,0 -0.052,0.013 -0.078,0.039 0,0.025 0,0.052 0,0.076 l -0.037,0.039 c 0,0.026 -0.014,0.052 -0.039,0.078 v 0.039 c -0.026,0.025 -0.039,0.05 -0.039,0.077 -0.026,0 -0.039,0.013 -0.039,0.039 v 0.038 c -0.051,0.025 -0.09,0.038 -0.116,0.038 -0.025,0 -0.064,0.014 -0.114,0.04 -0.025,0 -0.066,0 -0.118,0 -0.025,0 -0.063,0.012 -0.116,0.039 -0.02,0 -0.039,0 -0.057,0 -0.034,0.01 -0.066,0.023 -0.097,0.039 -0.025,0 -0.039,0.013 -0.039,0.039 -0.025,0.024 -0.039,0.051 -0.039,0.078 -0.025,0 -0.052,0.012 -0.077,0.039 0,0.025 -0.014,0.052 -0.039,0.076 v 0.037 c 0,0.026 0,0.053 0,0.079 -0.026,0 -0.051,0.012 -0.077,0.038 -0.025,0.025 -0.052,0.052 -0.078,0.077 v 0.039 c -0.026,0.026 -0.039,0.052 -0.039,0.077 -0.025,0 -0.039,0.013 -0.039,0.039 0,0.026 0,0.052 0,0.077 v 0.04 c 0,0.025 0,0.05 0,0.076 v 0.04 c 0,0.025 0,0.051 0,0.076 -0.025,0 -0.05,0.013 -0.076,0.039 0,0.026 0,0.052 0,0.079 v 0.038 c 0,0.025 0,0.05 0,0.077 v 0.038 c 0,0.025 0,0.051 0,0.077 l -0.039,0.038 c 0,0.026 -0.012,0.053 -0.04,0.078 v 0.039 c 0,0.026 0,0.052 0,0.077 v 0.039 c -0.025,0.026 -0.039,0.052 -0.039,0.078 0.052,0.025 0.091,0.049 0.117,0.076 0.026,0 0.051,0.013 0.076,0.039 0,0.025 0,0.052 0,0.077 0,0.025 0,0.051 0,0.077 -0.025,0.026 -0.05,0.052 -0.076,0.077 -0.026,0.026 -0.065,0.04 -0.117,0.04 -0.05,0 -0.102,0 -0.153,0 -0.025,0.024 -0.04,0.051 -0.04,0.076 -0.025,0 -0.051,0.015 -0.076,0.039 0,0.026 -0.013,0.052 -0.039,0.078 l -0.039,0.038 c 0,0.025 -0.013,0.053 -0.038,0.078 l -0.039,0.039 c 0,0.024 -0.014,0.052 -0.04,0.077 v 0.037 c -0.024,0.027 -0.038,0.052 -0.038,0.078 -0.026,0 -0.039,0.012 -0.039,0.038 H 17.7 c -0.103,0 -0.206,0 -0.31,0 v 0.077 c 0,0.026 0,0.052 0,0.077 v 0.039 c 0,0.027 0,0.053 0,0.078 0.026,0.025 0.053,0.051 0.078,0.076 l 0.039,0.04 v 0.039 c 0.026,0.027 0.039,0.052 0.039,0.077 0,0.025 0,0.051 0,0.077 -0.025,0.025 -0.039,0.051 -0.039,0.076 -0.021,0 -0.034,0.007 -0.039,0.021 v 0.02 c -0.024,0.025 -0.037,0.049 -0.037,0.077 H 17.39 c -0.05,0.025 -0.102,0.037 -0.153,0.037 -2.492,0 -4.974,0.014 -7.441,0.039 -0.025,0 -0.051,0 -0.076,0 -0.027,0 -0.065,0.013 -0.117,0.039 C 9.552,28.412 9.5,28.398 9.449,28.398 9.397,28.373 9.346,28.359 9.294,28.359 c -0.026,0 -0.051,0 -0.077,0 -0.026,0 -0.051,0 -0.076,0 C 9.089,28.334 9.038,28.322 8.985,28.322 8.961,28.294 8.934,28.27 8.909,28.245 8.884,28.22 8.857,28.192 8.831,28.167 8.807,28.142 8.781,28.115 8.755,28.09 8.729,28.064 8.704,28.038 8.677,28.013 8.677,27.988 8.665,27.961 8.638,27.936 8.613,27.911 8.588,27.885 8.562,27.859 8.535,27.834 8.51,27.82 8.484,27.82 8.458,27.795 8.432,27.769 8.407,27.742 8.382,27.717 8.355,27.69 8.329,27.666 8.304,27.64 8.291,27.614 8.291,27.589 c 0,-0.025 0,-0.053 0,-0.077 0,-0.026 0,-0.051 0,-0.078 0,-0.025 0,-0.05 0,-0.076 0,-0.026 0,-0.052 0,-0.077 v -0.04 c 0.025,-0.025 0.05,-0.051 0.078,-0.076 0.025,-0.026 0.051,-0.052 0.076,-0.078 0.052,0 0.09,0 0.117,0 0.025,0 0.051,0 0.076,0 0.052,0 0.103,0.013 0.155,0.039 0.025,0.025 0.05,0.052 0.077,0.077 0,0.025 0.014,0.053 0.039,0.078 v -0.078 c 0,-0.025 0,-0.052 0,-0.077 V 27.049 C 8.884,27.024 8.857,26.997 8.831,26.973 c 0,-0.026 -0.013,-0.052 -0.038,-0.078 0,-0.024 -0.013,-0.039 -0.039,-0.039 V 26.779 C 8.78,26.754 8.793,26.727 8.793,26.702 L 8.87,26.625 h 0.039 c 0,-0.025 0,-0.05 0,-0.077 v -0.039 c 0,-0.026 0,-0.052 0,-0.078 0,-0.024 0.013,-0.038 0.039,-0.038 0,-0.025 0.013,-0.052 0.037,-0.078 0.012,-0.01 0.025,-0.018 0.04,-0.019 0.011,-0.014 0.024,-0.02 0.039,-0.02 0.025,-0.025 0.052,-0.05 0.078,-0.076 0.025,-0.025 0.05,-0.039 0.076,-0.039 0,-0.025 0,-0.05 0,-0.078 0.026,-0.024 0.051,-0.037 0.077,-0.037 0,-0.025 0.014,-0.053 0.039,-0.077 l 0.038,-0.04 c 0,-0.025 0,-0.052 0,-0.076 0.025,-0.025 0.053,-0.039 0.078,-0.039 0,-0.027 0,-0.052 0,-0.078 0,-0.024 0.013,-0.037 0.038,-0.037 0,-0.027 0.013,-0.052 0.039,-0.077 v -0.04 c 0,-0.025 0,-0.051 0,-0.076 v -0.04 c 0,-0.025 0,-0.051 0,-0.077 0.025,-0.025 0.051,-0.039 0.077,-0.039 0,-0.025 0,-0.051 0,-0.077 0,-0.026 0.014,-0.04 0.039,-0.04 0,-0.024 0.013,-0.049 0.038,-0.076 0.026,-0.025 0.052,-0.038 0.079,-0.038 0,-0.026 0,-0.052 0,-0.079 v -0.038 c 0,-0.025 0,-0.051 0,-0.077 0.025,-0.026 0.05,-0.039 0.076,-0.039 0,-0.025 0,-0.052 0,-0.077 0,-0.026 0.013,-0.038 0.039,-0.038 0,-0.025 0,-0.052 0,-0.077 0,-0.025 0.012,-0.039 0.039,-0.039 0,-0.026 0.014,-0.052 0.039,-0.078 v -0.039 c 0.025,-0.025 0.038,-0.051 0.038,-0.076 v -0.039 c 0.026,-0.025 0.039,-0.052 0.039,-0.078 0.026,-0.025 0.051,-0.037 0.077,-0.037 0,-0.027 0.013,-0.052 0.039,-0.077 v -0.039 c 0,-0.025 0,-0.052 0,-0.078 0,-0.025 0.012,-0.038 0.039,-0.038 0,-0.027 0,-0.052 0,-0.078 0.026,-0.025 0.05,-0.039 0.076,-0.039 0.025,-0.025 0.039,-0.051 0.039,-0.077 l 0.039,-0.039 c 0,-0.025 0.013,-0.051 0.038,-0.077 v -0.038 c 0,-0.025 0,-0.053 0,-0.078 0,-0.025 0.014,-0.039 0.039,-0.039 0,-0.026 0.012,-0.052 0.039,-0.077 V 23.48 c 0.025,-0.025 0.038,-0.05 0.038,-0.076 l 0.039,-0.041 c 0.025,-0.025 0.039,-0.05 0.039,-0.076 0,-0.026 0.013,-0.039 0.038,-0.039 0,-0.026 0,-0.052 0,-0.078 0,-0.025 0.014,-0.039 0.039,-0.039 0,-0.025 0.013,-0.051 0.04,-0.077 v -0.038 c 0.025,-0.025 0.039,-0.052 0.039,-0.078 0.025,-0.025 0.051,-0.037 0.077,-0.037 0,-0.026 0.013,-0.052 0.038,-0.077 0,-0.025 0.013,-0.039 0.039,-0.039 0,-0.025 0,-0.053 0,-0.077 0,-0.026 0.014,-0.04 0.04,-0.04 0,-0.025 0,-0.051 0,-0.077 v -0.039 c 0.025,-0.025 0.038,-0.052 0.038,-0.077 l 0.04,-0.037 c 0,-0.026 0,-0.053 0,-0.078 0.025,-0.025 0.051,-0.038 0.076,-0.038 0,-0.026 0.013,-0.053 0.039,-0.078 v -0.039 c 0.025,-0.026 0.038,-0.051 0.038,-0.077 v -0.039 c 0.026,-0.025 0.04,-0.05 0.04,-0.077 l 0.038,-0.038 c 0,-0.025 0,-0.052 0,-0.077 0.051,-0.025 0.09,-0.039 0.115,-0.039 0.027,-0.026 0.038,-0.052 0.038,-0.077 0,-0.025 0.014,-0.038 0.04,-0.038 0,-0.026 0.012,-0.053 0.038,-0.079 v -0.038 c 0,-0.025 0,-0.052 0,-0.077 0,-0.026 0.013,-0.039 0.037,-0.039 0,-0.025 0.013,-0.052 0.039,-0.077 v -0.039 c 0,-0.026 0.014,-0.052 0.039,-0.077 v -0.04 c 0.025,-0.025 0.04,-0.051 0.04,-0.076 v -0.04 c 0.025,-0.025 0.038,-0.05 0.038,-0.077 l 0.038,-0.037 c 0.026,-0.026 0.039,-0.052 0.039,-0.077 0,-0.026 0.013,-0.04 0.039,-0.04 0,-0.025 0.013,-0.051 0.038,-0.076 l 0.038,-0.04 v -0.077 c 0.027,0 0.052,-0.013 0.078,-0.039 v -0.039 c 0,-0.026 0,-0.052 0,-0.077 v -0.038 c 0,-0.026 0.012,-0.052 0.038,-0.079 v -0.039 l 0.02,-0.018 0.02,-0.04 V 20.349 L 12.04,20.31 c 0.026,-0.025 0.039,-0.052 0.039,-0.077 l 0.039,-0.038 c 0,-0.027 0.012,-0.051 0.039,-0.076 v -0.04 c 0.026,-0.026 0.039,-0.052 0.039,-0.078 0.025,-0.025 0.051,-0.039 0.077,-0.039 0,-0.025 0.013,-0.051 0.038,-0.077 v -0.038 c 0.026,-0.025 0.039,-0.05 0.039,-0.078 l 0.038,-0.037 c 0.026,-0.025 0.04,-0.052 0.04,-0.077 0,-0.026 0.012,-0.039 0.039,-0.039 0,-0.025 0,-0.052 0,-0.077 0,-0.026 0.013,-0.039 0.038,-0.039 0,-0.026 0,-0.052 0,-0.078 0,-0.025 0.013,-0.038 0.039,-0.038 0,-0.026 0,-0.052 0,-0.077 v -0.04 h 0.02 c 0.019,-0.002 0.051,-0.016 0.096,-0.039 V 19.2 c 0.026,-0.025 0.039,-0.051 0.039,-0.077 l 0.039,-0.039 c 0.026,-0.025 0.038,-0.052 0.038,-0.077 l 0.04,-0.039 c 0,-0.025 0.013,-0.05 0.038,-0.077 v -0.037 c 0,-0.028 0,-0.053 0,-0.078 v -0.039 c 0,-0.019 0,-0.038 0,-0.059 V 18.62 c 0,-0.025 0,-0.051 0,-0.077 v -0.038 c 0,-0.025 0,-0.052 0,-0.078 V 18.39 c 0,-0.025 0,-0.053 0,-0.078 v -0.038 c 0,-0.025 0,-0.053 0,-0.077 V 18.16 c 0,-0.026 0,-0.052 0,-0.077 v -0.04 c 0,-0.025 0,-0.051 0,-0.076 v -0.039 c 0,-0.026 0,-0.053 0,-0.077 v -0.038 c 0,-0.027 0,-0.053 0,-0.079 0.026,-0.025 0.051,-0.039 0.078,-0.039 0,-0.025 0.012,-0.051 0.037,-0.076 0,-0.026 0.014,-0.04 0.039,-0.04 0,-0.025 0,-0.05 0,-0.076 l 0.038,-0.039 c 0.026,-0.026 0.04,-0.052 0.04,-0.078 l 0.039,-0.039 c 0,-0.025 0.012,-0.051 0.038,-0.077 0,-0.025 0.013,-0.039 0.04,-0.039 0,-0.025 0,-0.052 0,-0.078 v -0.038 c 0,-0.025 0.013,-0.052 0.038,-0.077 v -0.039 c 0,-0.025 0.013,-0.052 0.039,-0.077 v -0.039 c 0.026,-0.026 0.039,-0.052 0.039,-0.077 0,-0.026 0.012,-0.039 0.037,-0.039 0,-0.026 0.014,-0.052 0.041,-0.077 0,-0.025 0.013,-0.04 0.038,-0.04 0,-0.025 0.013,-0.05 0.038,-0.076 0.026,-0.026 0.052,-0.039 0.077,-0.039 0,-0.026 0.013,-0.052 0.039,-0.077 v -0.039 c 0.026,-0.026 0.039,-0.052 0.039,-0.078 0,-0.025 0.013,-0.039 0.038,-0.039 0,-0.025 0.014,-0.051 0.039,-0.077 v -0.037 c 0,-0.025 0.013,-0.053 0.039,-0.079 v -0.038 c 0,-0.024 0.013,-0.052 0.038,-0.076 0,-0.025 0.013,-0.039 0.04,-0.039 0,-0.027 0.012,-0.053 0.039,-0.078 0,-0.025 0.012,-0.039 0.038,-0.039 0,-0.025 0.013,-0.052 0.039,-0.077 0,-0.025 0.013,-0.04 0.039,-0.04 0.025,-0.024 0.038,-0.051 0.038,-0.076 l 0.04,-0.038 c 0.025,-0.026 0.038,-0.053 0.038,-0.078 l 0.039,-0.039 c 0.025,-0.024 0.038,-0.051 0.039,-0.077 -0.025,-0.026 -0.051,-0.04 -0.077,-0.04 -0.025,-0.025 -0.038,-0.049 -0.038,-0.076 -0.078,0 -0.142,0 -0.192,0 -0.027,-0.026 -0.066,-0.039 -0.117,-0.039 -0.026,0 -0.039,-0.013 -0.039,-0.038 -0.103,0 -0.206,0 -0.307,0 -0.053,-0.026 -0.104,-0.04 -0.156,-0.04 -0.025,-0.024 -0.038,-0.05 -0.038,-0.076 -0.18,0 -0.347,0 -0.502,0 -0.025,-0.026 -0.064,-0.039 -0.116,-0.039 -0.026,0 -0.039,-0.013 -0.039,-0.04 -0.129,0 -0.27,0 -0.424,0 -0.051,-0.025 -0.103,-0.039 -0.155,-0.039 -0.026,-0.024 -0.038,-0.051 -0.038,-0.076 -0.129,0 -0.257,0 -0.386,0 -0.026,-0.025 -0.063,-0.04 -0.114,-0.04 -0.026,0 -0.04,-0.012 -0.04,-0.039 -0.102,0 -0.205,0 -0.308,0 -0.051,-0.025 -0.102,-0.037 -0.153,-0.037 -0.025,-0.025 -0.04,-0.052 -0.04,-0.077 -0.102,0 -0.204,0 -0.308,0 -0.026,-0.026 -0.064,-0.04 -0.115,-0.04 -0.027,0 -0.039,-0.012 -0.039,-0.039 -0.155,0 -0.322,0 -0.501,0 C 9.878,14.614 9.826,14.601 9.776,14.601 9.749,14.575 9.737,14.549 9.737,14.523 c -0.129,0 -0.258,0 -0.386,0 C 9.326,14.498 9.286,14.484 9.235,14.484 l -0.04,-0.039 c -0.076,0 -0.153,0 -0.229,0 C 8.914,14.42 8.862,14.408 8.812,14.408 8.786,14.381 8.773,14.356 8.773,14.329 c -0.051,0 -0.117,0 -0.192,0 C 8.554,14.304 8.516,14.291 8.464,14.291 L 8.425,14.252 c -0.078,0 -0.153,0 -0.231,0 C 8.142,14.227 8.091,14.213 8.04,14.213 8.014,14.188 8,14.162 8,14.136 c -0.051,0 -0.089,0 -0.114,0 C 7.86,14.111 7.821,14.097 7.77,14.097 c -0.025,0 -0.039,-0.013 -0.039,-0.039 -0.026,0 -0.064,0 -0.116,0 C 7.564,14.032 7.513,14.019 7.461,14.019 7.435,13.993 7.423,13.967 7.423,13.942 c -0.051,0 -0.115,0 -0.192,0 C 7.205,13.916 7.167,13.903 7.115,13.903 L 7.094,13.88 c -0.051,0 -0.104,0 -0.156,0 C 6.888,13.855 6.836,13.841 6.785,13.841 6.76,13.816 6.746,13.789 6.746,13.764 c -0.026,0 -0.051,0 -0.077,0 C 6.644,13.738 6.606,13.725 6.552,13.725 L 6.513,13.686 c -0.05,0 -0.101,0 -0.154,0 C 6.309,13.66 6.257,13.647 6.207,13.647 6.18,13.621 6.166,13.595 6.166,13.57 c -0.024,0 -0.05,0 -0.077,0 C 6.064,13.545 6.026,13.53 5.974,13.53 L 5.936,13.491 c -0.052,0 -0.104,0 -0.154,0 C 5.73,13.467 5.68,13.454 5.627,13.454 5.603,13.426 5.564,13.401 5.512,13.377 5.487,13.352 5.461,13.326 5.435,13.3 H 5.397 C 5.345,13.275 5.293,13.261 5.242,13.261 5.217,13.234 5.178,13.208 5.126,13.183 5.1,13.158 5.075,13.132 5.05,13.107 H 5.011 C 4.96,13.081 4.908,13.067 4.858,13.067 4.831,13.042 4.793,13.017 4.741,12.99 4.715,12.965 4.689,12.94 4.664,12.914 c -0.026,0 -0.064,0 -0.115,0 C 4.497,12.888 4.446,12.874 4.394,12.874 4.37,12.849 4.344,12.823 4.318,12.797 4.291,12.772 4.278,12.745 4.278,12.72 H 4.24 C 4.188,12.695 4.137,12.681 4.085,12.681 4.06,12.656 4.047,12.629 4.047,12.604 c -0.026,0 -0.05,0 -0.078,0 C 3.918,12.579 3.866,12.552 3.816,12.527 3.764,12.527 3.725,12.513 3.699,12.488 3.673,12.463 3.648,12.436 3.622,12.411 3.596,12.386 3.583,12.359 3.583,12.333 3.531,12.308 3.493,12.282 3.469,12.257 3.442,12.231 3.404,12.205 3.352,12.179 3.326,12.154 3.301,12.128 3.275,12.103 3.248,12.076 3.222,12.051 3.197,12.026 3.145,12 3.094,11.974 3.043,11.949 2.991,11.949 2.954,11.936 2.927,11.91 2.902,11.884 2.876,11.858 2.85,11.832 2.824,11.807 2.811,11.78 2.811,11.756 2.76,11.73 2.721,11.704 2.695,11.678 2.669,11.653 2.644,11.628 2.618,11.601 2.618,11.576 2.605,11.551 2.579,11.524 2.554,11.499 2.528,11.473 2.501,11.448 2.45,11.422 2.399,11.396 2.348,11.371 2.322,11.371 2.296,11.357 2.271,11.33 2.245,11.306 2.206,11.279 2.155,11.254 2.129,11.229 2.09,11.204 2.038,11.178 1.987,11.152 1.949,11.125 1.923,11.1 1.911,11.087 1.898,11.075 1.884,11.062 c -0.089,0 -0.179,0 -0.269,0 0,-0.026 0,-0.052 0,-0.078 0,-0.026 0,-0.064 0,-0.116 C 1.587,10.843 1.563,10.817 1.537,10.79 1.512,10.765 1.486,10.739 1.46,10.714 1.434,10.687 1.396,10.662 1.344,10.637 1.319,10.612 1.28,10.585 1.228,10.56 1.203,10.534 1.178,10.508 1.152,10.482 1.125,10.457 1.101,10.43 1.075,10.405 L 1.035,10.367 C 1.01,10.341 0.997,10.315 0.997,10.29 V 10.25 C 0.971,10.25 0.945,10.237 0.919,10.213 0.894,10.188 0.868,10.174 0.842,10.174 0.816,10.149 0.803,10.122 0.803,10.097 c 0,-0.025 0,-0.053 0,-0.078 C 0.783,9.998 0.771,9.973 0.771,9.946 0.744,9.921 0.719,9.896 0.693,9.869 c 0,-0.026 0,-0.05 0,-0.076 C 0.667,9.767 0.641,9.742 0.616,9.715 0.616,9.689 0.603,9.663 0.577,9.638 0.577,9.613 0.564,9.599 0.538,9.599 0.513,9.574 0.5,9.549 0.5,9.522 c 0,-0.027 0,-0.052 0,-0.077 0,-0.025 0,-0.052 0,-0.077 0,-0.025 0,-0.05 0,-0.077 0,-0.025 0,-0.051 0,-0.077 0,-0.026 0,-0.052 0,-0.077 0,-0.026 0,-0.052 0,-0.077 V 9.02 c 0,-0.025 0,-0.051 0,-0.077 0,-0.025 0,-0.05 0,-0.076 0,-0.026 0,-0.052 0,-0.077 0,-0.025 0,-0.051 0,-0.076 0,-0.027 0,-0.054 0,-0.078 0,-0.027 0,-0.052 0,-0.077 0,-0.025 0,-0.052 0,-0.077 V 8.442 C 0.5,8.417 0.5,8.39 0.5,8.365 0.5,8.34 0.513,8.314 0.538,8.289 0.564,8.263 0.577,8.236 0.577,8.211 c 0,-0.025 0.012,-0.051 0.039,-0.077 0,-0.025 0,-0.051 0,-0.077 0,-0.025 0,-0.052 0,-0.076 0,-0.026 0,-0.053 0,-0.077 v -0.04 c 0,-0.026 0,-0.051 0,-0.076 0,-0.027 0,-0.053 0,-0.078 0,-0.025 0,-0.051 0,-0.077 0,-0.026 0,-0.052 0,-0.078 0,-0.024 0,-0.05 0,-0.076 C 0.641,7.454 0.655,7.427 0.655,7.402 0.655,7.377 0.668,7.35 0.694,7.325 V 7.287 C 0.72,7.262 0.744,7.235 0.771,7.209 0.796,7.184 0.821,7.158 0.847,7.133 c 0,-0.027 0.014,-0.052 0.039,-0.077 0,-0.026 0,-0.053 0,-0.078 C 0.912,6.953 0.937,6.927 0.963,6.902 0.988,6.875 1.014,6.85 1.039,6.823 1.065,6.797 1.079,6.772 1.079,6.746 1.104,6.721 1.129,6.707 1.156,6.707 c 0,-0.025 0.014,-0.05 0.039,-0.076 0,-0.026 0.012,-0.052 0.038,-0.078 0,-0.025 0.013,-0.052 0.041,-0.077 0,-0.025 0,-0.051 0,-0.077 0,-0.025 0,-0.052 0,-0.076 C 1.298,6.296 1.324,6.27 1.349,6.245 1.349,6.22 1.363,6.193 1.388,6.168 V 6.131 c 0,-0.026 0,-0.053 0,-0.078 0,-0.025 0,-0.052 0,-0.078 0,-0.025 0,-0.051 0,-0.076 0,-0.025 0,-0.052 0,-0.077 0.025,-0.027 0.037,-0.052 0.037,-0.079 0,-0.024 0.013,-0.05 0.039,-0.076 0,-0.025 0,-0.052 0,-0.077 V 5.55 c 0,-0.025 0,-0.051 0,-0.076 0,-0.026 0,-0.052 0,-0.077 0,-0.026 0,-0.053 0,-0.078 0,-0.025 0,-0.05 0,-0.077 0,-0.025 0,-0.051 0,-0.076 0,-0.025 0,-0.053 0,-0.078 0,-0.025 0,-0.052 0,-0.077 V 4.973 C 1.49,4.947 1.515,4.921 1.541,4.895 c 0,-0.024 0.013,-0.051 0.038,-0.076 0,-0.025 0,-0.051 0,-0.077 0,-0.025 0,-0.051 0,-0.077 0.027,-0.025 0.04,-0.052 0.04,-0.077 0,-0.026 0.013,-0.052 0.039,-0.078 0,-0.024 0,-0.051 0,-0.076 C 1.683,4.409 1.709,4.396 1.734,4.396 1.759,4.368 1.798,4.343 1.85,4.318 1.85,4.293 1.863,4.266 1.888,4.241 1.914,4.216 1.94,4.189 1.966,4.163 1.991,4.137 2.028,4.112 2.081,4.085 Z m 26.951,10.064 c -1.184,0.026 -2.378,0.039 -3.586,0.039 v 0.039 c 0,0.026 0,0.052 0,0.077 0,0.026 0,0.052 0,0.077 0,0.025 0,0.052 0,0.077 0,0.025 0,0.052 0,0.077 0,0.026 0,0.052 0,0.078 v 0.038 c 0,0.026 0,0.052 0,0.078 0,0.025 0,0.052 0,0.077 0,0.024 0,0.05 0,0.076 0.026,0.026 0.039,0.052 0.039,0.077 0.025,0.025 0.038,0.052 0.038,0.077 0.025,0.026 0.04,0.052 0.04,0.078 0,0.025 0,0.052 0,0.076 v 0.04 c 0.025,0.025 0.051,0.05 0.076,0.077 0.026,0.027 0.052,0.051 0.078,0.076 l 0.078,0.078 h 0.038 l 0.039,0.039 v 0.039 c 0.026,0 0.039,0.013 0.039,0.039 l 0.038,0.04 v 0.076 c 0.05,0.025 0.102,0.052 0.155,0.077 0.462,0 0.926,0 1.387,0 0.078,0 0.141,0 0.193,0 0.025,0 0.052,0 0.078,0 l 0.038,-0.04 c 0.051,-0.024 0.09,-0.038 0.116,-0.038 0.025,-0.025 0.039,-0.05 0.039,-0.076 h 0.039 c 0.026,0 0.051,-0.014 0.077,-0.04 0.077,0 0.142,-0.013 0.193,-0.039 0.025,-0.025 0.051,-0.052 0.076,-0.077 0.026,-0.026 0.052,-0.052 0.078,-0.078 0.025,-0.025 0.039,-0.049 0.039,-0.076 0.025,-0.026 0.051,-0.052 0.077,-0.077 v -0.04 c 0.025,-0.024 0.039,-0.05 0.039,-0.076 0.025,-0.026 0.052,-0.052 0.077,-0.078 0.025,-0.025 0.05,-0.052 0.076,-0.077 0,-0.025 0,-0.051 0,-0.077 0.027,-0.025 0.052,-0.052 0.079,-0.076 0,-0.025 0.014,-0.052 0.039,-0.077 0,-0.026 0,-0.052 0,-0.078 v -0.038 c 0.025,-0.026 0.038,-0.052 0.038,-0.078 0.026,-0.025 0.051,-0.052 0.078,-0.077 l 0.077,-0.077 c 0.026,0 0.051,0 0.076,0 v -0.039 c 0,-0.025 -0.013,-0.052 -0.038,-0.077 0,-0.025 -0.013,-0.052 -0.039,-0.077 v -0.039 z m -4.821,0.694 c 0,-0.024 0,-0.05 0,-0.076 0,0.025 -0.013,0.052 -0.038,0.076 -0.025,0.026 -0.051,0.053 -0.078,0.078 -0.025,0.025 -0.051,0.052 -0.077,0.076 v 0.039 h -0.039 v 0.04 l -0.039,0.039 v 0.039 h -0.038 v 0.037 c -0.014,0.014 -0.026,0.028 -0.04,0.04 v 0.038 h -0.038 c -0.026,0.027 -0.04,0.052 -0.04,0.077 -0.013,0.012 -0.025,0.025 -0.038,0.038 -0.012,0.013 -0.025,0.026 -0.038,0.04 0,0.025 -0.013,0.052 -0.039,0.077 V 15.54 H 23.65 c 0,0.013 -0.007,0.026 -0.02,0.039 v 0.04 c -0.025,0.025 -0.038,0.052 -0.038,0.076 0,0.025 0,0.052 0,0.077 0.309,0 0.603,0 0.887,0 0,-0.025 0,-0.052 0,-0.077 0,-0.025 0,-0.05 0,-0.076 -0.025,0 -0.051,-0.014 -0.078,-0.04 -0.025,-0.025 -0.051,-0.051 -0.077,-0.077 0,-0.025 -0.013,-0.052 -0.039,-0.077 0,-0.026 0,-0.052 0,-0.077 0,-0.025 0,-0.052 0,-0.077 -0.025,-0.025 -0.051,-0.05 -0.078,-0.078 0,-0.024 0,-0.05 0,-0.076 0,-0.026 0,-0.052 0,-0.078 V 15 c 0,-0.024 0,-0.051 0,-0.076 0,-0.025 0.004,-0.055 0.004,-0.081 z M 1.619,10.083 c 0,-0.037 0,-0.069 0,-0.097 0,-0.02 0,-0.039 0,-0.058 -0.02,0 -0.04,0 -0.059,0 l 0.019,0.019 c 0,0.026 0,0.052 0,0.077 v 0.039 z m 4.684,1 c 0.045,0.013 0.089,0.02 0.135,0.02 v -0.02 c -0.046,0 -0.09,0 -0.135,0 z"
   id="path2" />
		</g>
	</g>
</g>
<g
   id="guides">
</g>
</svg>
