<?xml version="1.0" encoding="UTF-8" standalone="no"?>
<!-- Generator: Adobe Illustrator 16.0.0, SVG Export Plug-In . SVG Version: 6.00 Build 0)  -->

<svg
   version="1.1"
   x="0px"
   y="0px"
   width="37.875"
   height="30"
   viewBox="0 0 37.875 30"
   enable-background="new 0 0 37.875 32"
   xml:space="preserve"
   id="svg9"
   sodipodi:docname="p2000.svg"
   inkscape:version="1.1.1 (3bf5ae0d25, 2021-09-20)"
   xmlns:inkscape="http://www.inkscape.org/namespaces/inkscape"
   xmlns:sodipodi="http://sodipodi.sourceforge.net/DTD/sodipodi-0.dtd"
   xmlns="http://www.w3.org/2000/svg"
   xmlns:svg="http://www.w3.org/2000/svg"><defs
   id="defs13" /><sodipodi:namedview
   id="namedview11"
   pagecolor="#ffffff"
   bordercolor="#666666"
   borderopacity="1.0"
   inkscape:pageshadow="2"
   inkscape:pageopacity="0.0"
   inkscape:pagecheckerboard="0"
   showgrid="false"
   inkscape:zoom="13"
   inkscape:cx="9.7307692"
   inkscape:cy="22.346154"
   inkscape:window-width="1920"
   inkscape:window-height="1017"
   inkscape:window-x="-8"
   inkscape:window-y="-8"
   inkscape:window-maximized="1"
   inkscape:current-layer="svg9" />
<g
   id="Selected_Items"
   transform="translate(0.03846154,-1.2307693)">
	<g
   id="g5">
		<g
   id="Selected_Items_13_">
			<path
   fill-rule="evenodd"
   clip-rule="evenodd"
   fill="#ffffff"
   d="m 37.225,10.695 c -0.12,0.239 -0.314,0.372 -0.581,0.402 -0.446,0.029 -3.495,0.073 -9.136,0.135 -0.179,0 -0.372,0.043 -0.582,0.132 -0.36,0.121 -0.598,0.329 -0.717,0.629 -0.089,0.239 -0.104,0.714 -0.046,1.433 0.03,0.356 0.091,0.894 0.18,1.611 0.031,0.359 0.09,0.731 0.179,1.123 0,0.207 -0.165,0.327 -0.494,0.355 -0.685,0.149 -1.312,0.255 -1.88,0.315 -1.014,0.147 -2.104,0.238 -3.268,0.268 -1.822,0.029 -3.851,-0.03 -6.092,-0.179 -1.939,5.166 -2.91,7.911 -2.91,8.239 0,0.359 0.077,1.508 0.224,3.45 0.448,0.326 0.807,0.552 1.075,0.67 0.209,0.092 0.297,0.208 0.269,0.36 0,0.088 -0.03,0.147 -0.09,0.177 l -0.312,0.179 c -0.33,0.089 -0.688,0.105 -1.077,0.046 -0.568,-0.09 -4.374,-0.85 -11.419,-2.284 -0.357,-0.061 -0.357,-1.043 0,-2.957 0.149,-0.805 0.493,-1.971 1.03,-3.492 0.567,-1.554 1.09,-2.777 1.568,-3.671 0.506,-0.928 0.91,-1.925 1.208,-3 C 4.712,13.56 4.861,12.798 4.803,12.351 4.742,12.024 4.324,11.635 3.549,11.186 2.952,10.888 2.386,10.665 1.848,10.514 1.548,10.484 1.309,10.336 1.13,10.067 1.01,9.947 0.877,9.782 0.726,9.574 0.637,9.454 0.592,9.143 0.592,8.634 c 0,-0.24 0,-0.611 0,-1.12 0,-0.775 0.061,-1.253 0.18,-1.433 C 1.34,5.097 1.77,4.364 2.068,3.888 2.337,3.5 2.592,3.2 2.832,2.991 3.1,2.723 3.338,2.603 3.548,2.632 c 0.208,0.03 0.448,0.03 0.717,0 L 4.712,2.588 C 4.861,2.319 4.996,2.124 5.116,2.006 5.236,1.888 5.681,1.932 6.46,2.14 l 0.179,0.492 h 12.314 v 0.404 h 5.331 V 2.632 l 12.27,-0.044 0.403,0.223 c 0.238,0.149 0.358,0.329 0.358,0.537 0.061,1.167 0.118,2.256 0.179,3.271 0.06,2.001 0.044,3.103 -0.046,3.314 -0.15,0.477 -0.223,0.732 -0.223,0.762 z m -12.854,1.119 c -0.148,-0.061 -0.268,-0.092 -0.356,-0.092 v 0.092 L 20.03,11.77 c -0.152,0.566 -0.091,1.043 0.176,1.433 0.361,0.565 0.658,0.97 0.899,1.209 0.239,0.208 0.521,0.341 0.85,0.4 0.297,0.03 0.434,0.106 0.403,0.225 -0.029,0.149 -0.148,0.226 -0.359,0.226 -0.118,0 -0.312,0 -0.579,0 -0.329,-0.061 -0.69,-0.269 -1.077,-0.627 -0.626,-0.538 -1.03,-0.987 -1.211,-1.343 -0.117,-0.39 -0.178,-0.898 -0.178,-1.522 l -0.805,-0.047 c -0.479,0 -0.896,0.194 -1.254,0.584 -0.298,0.357 -0.448,0.778 -0.448,1.253 0,0.298 0,0.7 0,1.208 0.061,0.36 0.361,0.644 0.897,0.852 0.775,0.299 1.523,0.418 2.238,0.36 0.837,-0.122 1.493,-0.196 1.972,-0.226 0.238,-0.03 0.67,-0.014 1.297,0.045 0.628,0.059 1.061,0.089 1.298,0.089 0.39,0 0.643,-0.03 0.761,-0.089 0.061,-0.06 0.181,-0.179 0.361,-0.357 0.118,-0.18 0.148,-0.659 0.087,-1.435 -0.03,-0.748 -0.148,-1.3 -0.357,-1.657 -0.121,-0.268 -0.332,-0.449 -0.63,-0.537 z"
   id="path2" />
		</g>
	</g>
</g>
<g
   id="guides">
</g>
</svg>
