<?xml version="1.0" encoding="UTF-8" standalone="no"?>
<!-- Generator: Adobe Illustrator 16.0.0, SVG Export Plug-In . SVG Version: 6.00 Build 0)  -->

<svg
   version="1.1"
   x="0px"
   y="0px"
   width="12.333"
   height="27"
   viewBox="0 0 12.333 27"
   enable-background="new 0 0 12.333 32"
   xml:space="preserve"
   id="svg9"
   sodipodi:docname="smokegrenade.svg"
   inkscape:version="1.1.1 (3bf5ae0d25, 2021-09-20)"
   xmlns:inkscape="http://www.inkscape.org/namespaces/inkscape"
   xmlns:sodipodi="http://sodipodi.sourceforge.net/DTD/sodipodi-0.dtd"
   xmlns="http://www.w3.org/2000/svg"
   xmlns:svg="http://www.w3.org/2000/svg"><defs
   id="defs13" /><sodipodi:namedview
   id="namedview11"
   pagecolor="#ffffff"
   bordercolor="#666666"
   borderopacity="1.0"
   inkscape:pageshadow="2"
   inkscape:pageopacity="0.0"
   inkscape:pagecheckerboard="0"
   showgrid="false"
   inkscape:zoom="26"
   inkscape:cx="7.2884615"
   inkscape:cy="13.75"
   inkscape:window-width="1920"
   inkscape:window-height="1017"
   inkscape:window-x="1912"
   inkscape:window-y="-8"
   inkscape:window-maximized="1"
   inkscape:current-layer="svg9" />
<g
   id="Selected_Items"
   transform="matrix(1.0089121,0,0,0.93437489,0.10604313,-3.7369912)">
	<g
   id="g5">
		<g
   id="Selected_Items_59_">
			<path
   fill-rule="evenodd"
   clip-rule="evenodd"
   fill="#ffffff"
   d="M 8.413,6.784 8.449,6.82 v 0.073 c 0,0.025 0.013,0.036 0.036,0.036 v 0.074 h 0.037 v 0.035 c 0.024,0 0.038,0.013 0.038,0.036 v 0.11 H 8.596 V 7.257 H 8.632 V 7.33 c 0.024,0 0.037,0.012 0.037,0.035 v 0.11 L 8.705,7.511 V 7.583 L 8.74,7.622 v 0.036 h 0.038 v 0.073 l 0.036,0.036 v 0.037 c 0.025,0 0.036,0.012 0.036,0.036 v 0.036 l 0.037,0.037 v 0.109 c 0,0.023 0.012,0.036 0.036,0.036 V 8.095 H 8.96 V 8.203 H 8.996 V 8.24 L 9.033,8.276 V 8.313 L 9.069,8.348 V 8.422 L 9.106,8.458 V 8.565 L 9.143,8.603 V 8.64 L 9.179,8.675 V 8.712 L 9.25,8.789 v 0.035 c 0.024,0 0.037,0.014 0.037,0.037 L 9.322,8.898 V 9.08 L 9.36,9.117 V 9.189 L 9.398,9.225 V 9.261 L 9.433,9.298 V 9.335 L 9.47,9.371 v 0.072 h 0.036 v 0.074 c 0,0.024 0.013,0.036 0.036,0.036 v 0.108 c 0.025,0 0.037,0.013 0.037,0.037 v 0.073 c 0.024,0 0.037,0.013 0.037,0.037 V 9.88 h 0.037 v 0.036 l 0.036,0.037 v 0.036 l 0.037,0.036 v 0.037 l 0.037,0.036 v 0.146 l 0.036,0.037 v 0.072 h 0.037 v 0.108 h 0.037 v 0.073 l 0.036,0.037 v 0.037 l 0.037,0.036 v 0.073 c 0.024,0 0.036,0.011 0.036,0.035 v 0.073 c 0,0.024 0.012,0.037 0.037,0.037 v 0.072 l 0.036,0.036 v 0.037 h 0.038 v 0.036 l 0.036,0.037 v 0.036 l 0.037,0.036 v 0.073 h 0.037 v 0.108 l 0.037,0.036 v 0.037 c 0,0.023 0.011,0.036 0.036,0.036 v 0.036 l 0.037,0.037 v 0.109 l 0.072,0.072 v 0.073 l 0.037,0.037 v 0.036 h 0.036 v 0.073 h 0.037 c 0,0.023 0.012,0.036 0.036,0.036 v 0.036 l 0.147,0.146 v 0.474 l 0.036,0.035 v 0.074 c 0.023,0 0.035,0.012 0.035,0.035 l 0.039,0.037 v 0.036 l 0.035,0.036 v 0.036 h 0.037 v 0.075 c 0.024,0 0.037,0.011 0.037,0.035 l 0.036,0.037 v 0.035 h 0.036 v 0.037 l 0.073,0.073 c 0,0.023 0.012,0.036 0.037,0.036 v 0.036 h 0.037 v 0.036 l 0.109,0.146 v 0.255 c 0.024,0.025 0.047,0.036 0.073,0.036 v 0.474 c 0,0.098 0,0.17 0,0.22 0,0.072 0,0.145 0,0.218 v 0.184 c 0,0.071 0,0.144 0,0.218 v 0.182 c 0,0.097 0,0.183 0,0.256 0,0.047 0,0.12 0,0.219 0,0.048 0,0.121 0,0.218 0,0.049 0,0.108 0,0.182 v 0.036 c 0,0.049 0,0.11 0,0.184 0,0.048 0,0.121 0,0.219 0,0.048 0,0.121 0,0.219 0,0.049 0,0.108 0,0.182 0,0.072 0,0.146 0,0.218 0,0.073 0,0.146 0,0.219 0,0.073 0,0.147 0,0.22 0,0.073 0,0.133 0,0.182 0,0.097 0,0.17 0,0.219 0,0.073 0,0.146 0,0.218 0,0.073 0,0.146 0,0.221 0,0.071 0,0.133 0,0.181 0,0.098 0,0.17 0,0.219 0,0.073 0,0.146 0,0.219 0,0.073 0,0.146 0,0.219 0,0.073 0,0.146 0,0.219 0,0.073 0,0.146 0,0.218 0,0.05 0,0.122 0,0.22 0,0.049 0,0.12 0,0.219 0,0.049 0,0.109 0,0.182 0,0.073 0,0.146 0,0.218 0,0.05 0,0.122 0,0.219 0,0.049 0,0.122 0,0.22 0,0.048 0,0.108 0,0.182 0,0.074 0,0.146 0,0.22 0,0.072 0,0.145 0,0.217 0,0.073 0,0.146 0,0.22 0,0.074 0,0.134 0,0.182 0,0.098 0,0.171 0,0.219 0,0.073 0,0.146 0,0.219 0,0.073 0,0.146 0,0.219 0,0.073 0,0.133 0,0.183 0,0.096 0,0.17 0,0.218 0,0.073 0,0.146 0,0.22 0,0.072 0,0.145 0,0.218 0,0.073 0,0.146 0,0.219 0,0.073 0,0.146 0,0.219 0,0.049 0,0.121 0,0.219 0,0.049 0,0.122 0,0.219 0,0.049 0,0.108 0,0.182 0,0.072 0,0.146 0,0.22 0,0.047 0,0.121 0,0.218 0,0.048 0,0.122 0,0.219 0,0.048 0,0.108 0,0.182 0,0.074 0,0.146 0,0.219 0,0.073 0,0.146 0,0.219 0,0.073 0,0.146 0,0.219 0,0.073 0,0.134 0,0.183 0,0.096 0,0.17 0,0.219 0,0.072 0,0.146 0,0.219 0,0.072 0,0.146 0,0.218 0,0.073 0,0.134 0,0.183 0,0.098 0,0.17 0,0.219 0,0.073 0,0.146 0,0.219 0,0.072 0,0.158 0,0.256 v 0.072 c -0.025,0 -0.061,0 -0.109,0 v 0.035 c -0.025,0 -0.037,0.013 -0.037,0.036 l -0.036,0.074 h -0.074 v 0.035 L 11,28.065 v 0.036 h -0.037 v 0.072 c -0.169,0 -0.34,0 -0.509,0 V 27.59 l 0.072,-0.072 c 0.024,0 0.037,-0.014 0.037,-0.037 h 0.036 v -0.036 h 0.036 v -0.036 h 0.038 c 0,-0.073 0,-0.135 0,-0.183 0,-0.072 0,-0.121 0,-0.146 0,-0.073 0,-0.145 0,-0.218 0,-0.072 0,-0.147 0,-0.22 0,-0.071 0,-0.146 0,-0.219 0,-0.072 0,-0.146 0,-0.218 0,-0.049 0,-0.123 0,-0.219 0,-0.049 0,-0.109 0,-0.184 0,-0.072 0,-0.145 0,-0.219 0,-0.072 0,-0.146 0,-0.218 0,-0.048 0,-0.121 0,-0.219 0,-0.048 0,-0.108 0,-0.182 0,-0.074 0,-0.146 0,-0.219 0,-0.072 0,-0.146 0,-0.22 0,-0.071 0,-0.145 0,-0.219 0,-0.072 0,-0.133 0,-0.181 0,-0.098 0,-0.171 0,-0.219 0,-0.097 0,-0.171 0,-0.219 0,-0.073 0,-0.146 0,-0.22 0,-0.071 0,-0.133 0,-0.181 0,-0.098 0,-0.171 0,-0.22 0,-0.097 0,-0.17 0,-0.218 0,-0.073 0,-0.146 0,-0.22 0,-0.072 0,-0.145 0,-0.219 0,-0.072 0,-0.145 0,-0.219 0,-0.072 0,-0.145 0,-0.218 0,-0.048 0,-0.122 0,-0.219 0,-0.049 0,-0.109 0,-0.182 0,-0.073 0,-0.146 0,-0.219 0,-0.073 0,-0.146 0,-0.219 0,-0.049 0,-0.121 0,-0.22 0,-0.049 0,-0.108 0,-0.182 0,-0.074 0,-0.146 0,-0.219 0,-0.097 0,-0.17 0,-0.218 0,-0.074 0,-0.146 0,-0.22 0,-0.072 0,-0.133 0,-0.182 0,-0.097 0,-0.17 0,-0.219 0,-0.097 0,-0.17 0,-0.218 0,-0.073 0,-0.146 0,-0.219 0,-0.073 0,-0.135 0,-0.183 0,-0.097 0,-0.182 0,-0.256 0,-0.072 0,-0.145 0,-0.218 0,-0.05 0,-0.122 0,-0.219 0,-0.049 0,-0.109 0,-0.182 0,-0.073 0,-0.146 0,-0.22 0,-0.072 0,-0.145 0,-0.218 0,-0.049 0,-0.121 0,-0.218 0,-0.051 0,-0.11 0,-0.184 0,-0.074 0,-0.146 0,-0.219 0,-0.072 0,-0.146 0,-0.22 0,-0.071 0,-0.144 0,-0.218 0,-0.072 0,-0.133 0,-0.182 0,-0.098 0,-0.17 0,-0.22 0,-0.097 0,-0.169 0,-0.218 0,-0.073 0,-0.146 0,-0.218 0,-0.073 0,-0.135 0,-0.183 0,-0.097 0,-0.171 0,-0.219 0,-0.097 0,-0.171 0,-0.219 0,-0.073 0,-0.146 0,-0.219 0,-0.073 0,-0.146 0,-0.218 0,-0.073 0,-0.146 0,-0.22 0,-0.072 0,-0.145 0,-0.218 0,-0.049 0,-0.122 0,-0.22 0,-0.048 0,-0.108 0,-0.182 v -0.036 c -0.025,0 -0.05,0 -0.074,0 L 10.563,13.872 V 13.836 L 10.526,13.8 V 13.78 H 10.49 V 13.744 L 10.453,13.708 V 13.672 L 10.417,13.635 V 13.563 L 10.38,13.526 V 13.49 H 10.343 V 13.417 H 10.307 V 13.38 L 10.27,13.344 h -0.036 c 0,-0.025 -0.012,-0.037 -0.037,-0.037 v -0.072 c 0,-0.025 -0.013,-0.036 -0.037,-0.036 v -0.037 h -0.037 v -0.073 c -0.023,0 -0.036,-0.012 -0.036,-0.035 0,-0.025 -0.013,-0.037 -0.038,-0.037 V 12.98 H 10.013 V 12.943 L 9.976,12.869 c 0,-0.023 -0.012,-0.036 -0.036,-0.036 V 12.797 L 9.831,12.725 V 12.688 H 9.797 v -0.072 c -0.024,0 -0.036,-0.014 -0.036,-0.037 L 9.724,12.543 V 12.506 H 9.688 V 12.47 C 9.664,12.446 9.641,12.434 9.616,12.434 V 12.397 H 9.578 v -0.036 c -0.023,0 -0.037,-0.013 -0.037,-0.037 V 12.25 c -0.023,0 -0.036,-0.013 -0.036,-0.037 L 9.47,12.178 V 12.142 H 9.432 L 9.322,11.996 V 11.96 c -0.023,0 -0.035,-0.013 -0.035,-0.036 H 9.25 V 29.706 L 9.104,29.742 C 9.056,29.766 9.007,29.803 8.959,29.851 H 8.923 C 8.34,30.166 7.793,30.385 7.283,30.506 6.675,30.7 6.094,30.822 5.533,30.87 5.023,30.969 4.525,30.991 4.04,30.943 3.579,30.894 3.165,30.834 2.801,30.761 2,30.591 1.38,30.385 0.943,30.142 0.724,30.045 0.554,29.96 0.433,29.888 0.263,29.814 0.178,29.766 0.178,29.742 L 0.069,29.706 V 11.887 c -0.097,-0.195 -0.061,-0.402 0.109,-0.621 0,-0.023 0.013,-0.048 0.036,-0.072 0.074,-0.023 0.147,-0.036 0.219,-0.036 v -0.036 c 0.122,-0.05 0.279,-0.086 0.473,-0.109 0.194,-0.025 0.474,-0.05 0.839,-0.073 0.193,-0.048 0.4,-0.085 0.62,-0.109 0.17,-0.024 0.291,-0.036 0.363,-0.036 -0.024,-0.219 -0.024,-0.389 0,-0.51 0.048,-0.073 0.086,-0.134 0.11,-0.183 L 2.947,9.956 V 8.351 H 2.91 c -0.121,0 -0.255,-0.011 -0.401,-0.035 -0.17,0 -0.34,0 -0.51,0 V 7.805 H 2.035 V 7.768 c 0.024,0 0.048,0 0.073,0 C 2.06,7.696 2.06,7.586 2.108,7.441 2.108,7.368 2.156,7.247 2.254,7.076 2.326,6.907 2.449,6.809 2.619,6.785 h 4.3 L 7.1,6.856 V 7.003 C 7.246,6.71 7.428,6.456 7.647,6.237 V 6.202 c 0,-0.025 0,-0.049 0,-0.073 0.025,0 0.06,0 0.11,0 0,-0.025 0.011,-0.036 0.036,-0.036 v 0.036 c 0.121,0 0.243,0 0.364,0 V 6.53 l 0.037,0.036 v 0.036 c 0.047,0 0.109,0 0.182,0 v 0.036 l 0.037,0.036 z m 0.474,18.074 c 0,-0.025 0,-0.062 0,-0.109 v -0.11 c -1.967,0.293 -3.341,0.438 -4.118,0.438 -0.802,0 -2.234,-0.145 -4.3,-0.438 0,0.025 0,0.05 0,0.073 0,0.025 0,0.049 0,0.074 v 0.51 c 0,0.024 0,0.049 0,0.072 0,0.024 0,0.049 0,0.072 v 0.073 c 0,0.025 0,0.049 0,0.072 0,0.025 0,0.05 0,0.074 0,0.024 0,0.049 0,0.072 v 0.072 c 0,0.025 0,0.05 0,0.074 0,0.024 0,0.049 0,0.072 v 0.037 c 2.09,0.364 3.546,0.546 4.373,0.546 0.873,0 2.224,-0.17 4.045,-0.511 v -0.4 c 0,-0.023 0,-0.048 0,-0.072 v -0.037 c 0,-0.048 0,-0.084 0,-0.109 0,-0.023 0,-0.048 0,-0.073 v -0.035 c 0,-0.025 0,-0.049 0,-0.073 0,-0.024 0,-0.061 0,-0.109 v -0.037 c 0,-0.024 0,-0.049 0,-0.072 0,-0.024 0,-0.049 0,-0.072 0,-0.025 0,-0.05 0,-0.074 z"
   id="path2" />
		</g>
	</g>
</g>
<g
   id="guides"
   transform="translate(0.57692308,-5.7692308)">
</g>
</svg>
