<?xml version="1.0" encoding="UTF-8" standalone="no"?>
<!-- Generator: Adobe Illustrator 16.0.0, SVG Export Plug-In . SVG Version: 6.00 Build 0)  -->

<svg
   version="1.1"
   x="0px"
   y="0px"
   width="99.75"
   height="29"
   viewBox="0 0 99.75 29"
   enable-background="new 0 0 99.75 32"
   xml:space="preserve"
   id="svg9"
   sodipodi:docname="ssg08.svg"
   inkscape:version="1.1.1 (3bf5ae0d25, 2021-09-20)"
   xmlns:inkscape="http://www.inkscape.org/namespaces/inkscape"
   xmlns:sodipodi="http://sodipodi.sourceforge.net/DTD/sodipodi-0.dtd"
   xmlns="http://www.w3.org/2000/svg"
   xmlns:svg="http://www.w3.org/2000/svg"><defs
   id="defs13" /><sodipodi:namedview
   id="namedview11"
   pagecolor="#ffffff"
   bordercolor="#666666"
   borderopacity="1.0"
   inkscape:pageshadow="2"
   inkscape:pageopacity="0.0"
   inkscape:pagecheckerboard="0"
   showgrid="false"
   inkscape:zoom="10.606516"
   inkscape:cx="49.827861"
   inkscape:cy="15.980742"
   inkscape:window-width="1920"
   inkscape:window-height="1017"
   inkscape:window-x="-8"
   inkscape:window-y="-8"
   inkscape:window-maximized="1"
   inkscape:current-layer="svg9" />
<g
   id="Selected_Items"
   transform="translate(-1.2200694e-8,-3.2055766)">
	<g
   id="g5">
		<g
   id="Selected_Items_48_">
			<path
   fill-rule="evenodd"
   clip-rule="evenodd"
   fill="#ffffff"
   d="m 37.502,4.18 c 0.024,-0.024 0.037,-0.048 0.037,-0.074 0.024,-0.025 0.038,-0.05 0.038,-0.075 0.024,-0.026 0.037,-0.051 0.037,-0.075 0.025,0 0.05,0 0.075,0 0.025,0 0.061,0 0.111,0 V 3.919 c 0.646,0 1.282,0 1.904,0 0.05,0 0.086,0 0.111,0 0.1,0 0.212,0 0.336,0 0.05,0.024 0.087,0.037 0.112,0.037 0.025,0.024 0.049,0.062 0.074,0.112 l 0.038,0.038 c 0.025,0.026 0.037,0.049 0.037,0.074 0,0.025 0,0.05 0,0.075 0,0.025 0,0.049 0,0.074 -0.024,0.025 -0.037,0.051 -0.037,0.075 -0.026,0.025 -0.038,0.05 -0.038,0.076 -0.025,0 -0.037,0.012 -0.037,0.037 v 0.037 c 0,0.025 0,0.049 0,0.075 0,0.026 0,0.05 0,0.075 0,0.024 0,0.05 0,0.074 v 0.037 c 0,0.025 0,0.05 0,0.075 0,0.026 0,0.05 0,0.075 0,0.025 0,0.062 0,0.112 0,0.025 0,0.049 0,0.074 v 0.037 c 0,0.025 0,0.05 0,0.075 0,0.025 0,0.05 0,0.075 0,0.024 0,0.049 0,0.074 0,0.025 0,0.05 0,0.075 h 0.037 c 0.025,0 0.038,0.012 0.038,0.037 0.025,0.049 0.037,0.087 0.037,0.112 0,0.025 -0.012,0.05 -0.037,0.074 0,0.025 -0.013,0.049 -0.038,0.075 L 40.3,5.823 c 0,0.024 0,0.049 0,0.074 0,0.025 0,0.049 0,0.075 0,0.024 0,0.05 0,0.074 0,0.05 0,0.086 0,0.111 v 0.038 c 0,0.025 0,0.05 0,0.076 0,0.023 0,0.048 0,0.073 0,0.025 0,0.05 0,0.074 0,0.026 0,0.051 0,0.076 v 0.038 c 0,0.049 0,0.086 0,0.111 0,0.026 0,0.051 0,0.076 0,0.025 0,0.05 0,0.075 V 6.83 c -0.025,0.024 -0.037,0.049 -0.037,0.075 v 0.036 c 2.538,0 5.1,0 7.687,0 0.025,0 0.05,0.013 0.076,0.038 0,-0.025 0.012,-0.038 0.037,-0.038 0.124,-0.025 0.223,-0.048 0.299,-0.074 0.049,-0.026 0.11,-0.038 0.186,-0.038 0.099,-0.025 0.174,-0.05 0.223,-0.075 0.075,-0.024 0.138,-0.049 0.187,-0.074 0.075,-0.025 0.162,-0.05 0.261,-0.075 0.05,-0.025 0.112,-0.049 0.187,-0.074 0.05,-0.025 0.125,-0.05 0.224,-0.075 0.076,-0.025 0.125,-0.05 0.15,-0.075 0.074,-0.025 0.15,-0.038 0.224,-0.038 0,-0.025 0.012,-0.05 0.037,-0.073 0.025,-0.026 0.051,-0.051 0.077,-0.076 0.049,-0.025 0.086,-0.038 0.111,-0.038 0.025,-0.025 0.05,-0.062 0.076,-0.111 0.074,0 0.123,-0.013 0.147,-0.037 0.05,-0.025 0.112,-0.038 0.188,-0.038 0.049,-0.026 0.099,-0.062 0.148,-0.112 0.025,-0.024 0.05,-0.037 0.075,-0.037 0.024,0 0.05,-0.013 0.074,-0.038 h 0.038 c 0,-0.026 0,-0.05 0,-0.075 C 51,5.684 51.023,5.659 51.049,5.634 l 0.075,-0.075 c 0.025,0 0.062,0 0.112,0 V 5.523 c 0.571,0 1.12,0 1.641,0 V 5.487 c 0.175,0 0.361,0 0.561,0 v 0.037 c 0.124,0 0.236,0 0.335,0 0.024,0 0.037,-0.012 0.037,-0.037 0.199,0 0.374,0 0.523,0 l 0.037,0.037 c 0.622,0 1.245,0 1.866,0 0.025,0 0.05,0 0.076,0 0.049,0 0.099,0.013 0.148,0.038 l 0.037,0.075 c 0.05,0.025 0.1,0.05 0.149,0.074 0.025,0.025 0.05,0.049 0.075,0.075 l 0.037,0.038 c 0.025,0.024 0.038,0.049 0.038,0.074 0,0.025 0,0.049 0,0.075 0,0.024 -0.013,0.05 -0.038,0.074 0,0.025 -0.012,0.05 -0.037,0.075 v 0.037 c -0.025,0 -0.05,0.013 -0.075,0.038 0,0.05 -0.013,0.087 -0.037,0.112 0,0.024 0,0.049 0,0.074 0,0.025 0,0.049 0,0.075 v 0.037 c 0,0.024 0,0.05 0,0.075 v 0.149 c 0,0.025 0,0.05 0,0.075 0,0.025 0,0.049 0,0.075 0,0.025 0,0.062 0,0.112 0,0.024 0,0.062 0,0.112 0,0.025 0,0.05 0,0.075 0,0.049 0,0.087 0,0.111 0,0.05 0,0.086 0,0.112 0,0.049 0,0.087 0,0.111 0,0.026 0,0.063 0,0.113 0,0.023 0,0.062 0,0.11 0,0.027 0,0.063 0,0.112 v 0.075 c 0,0.025 0,0.062 0,0.112 0,0.05 0,0.088 0,0.113 0,0.024 0,0.049 0,0.074 0,0.049 0,0.087 0,0.112 0,0.049 0,0.086 0,0.112 V 8.51 c 0,0.049 0,0.098 0,0.147 0,0.025 0,0.063 0,0.113 0,0.024 0,0.048 0,0.073 0,0.026 0,0.063 0,0.113 0,0.024 0,0.062 0,0.112 0,0.05 0,0.087 0,0.111 0,0.025 0,0.05 0,0.075 0,0.051 0,0.087 0,0.112 0,0.049 0,0.087 0,0.112 0,0.025 0,0.062 0,0.111 0,0.025 0,0.063 0,0.112 0,0.026 0,0.063 0,0.112 0,0.025 0,0.05 0,0.075 0,0.024 0,0.062 0,0.112 0,0.024 0,0.062 0,0.112 v 0.075 c 0,0.048 0,0.088 0,0.112 0,0.05 0,0.086 0,0.111 0,0.05 0,0.087 0,0.112 0,0.025 0,0.062 0,0.112 0,0.025 0,0.051 0,0.075 12.389,0 24.766,0 37.128,0 1.767,0 3.521,0 5.262,0 0.074,0.024 0.149,0.049 0.224,0.074 0.05,0.024 0.087,0.049 0.112,0.075 v 0.037 c 0.049,0.024 0.087,0.061 0.112,0.112 0.025,0.024 0.05,0.063 0.075,0.112 l 0.036,0.075 c 0,0.05 0,0.086 0,0.111 0,0.05 0,0.087 0,0.111 0,0.05 0,0.088 0,0.114 0,0.023 -0.012,0.061 -0.036,0.111 0,0.025 -0.013,0.063 -0.038,0.112 -0.024,0.024 -0.05,0.062 -0.074,0.113 v 0.074 c 0,0.025 0,0.062 0,0.113 0,0.049 0,0.086 0,0.11 0,0.025 0,0.05 0,0.076 0,0.049 0,0.086 0,0.112 0,0.05 0,0.086 0,0.111 v 0.076 c 0,0.025 0,0.05 0,0.075 0,0.024 0,0.049 0,0.075 v 0.037 c 0,0.024 0,0.062 0,0.112 0,0.025 -0.013,0.05 -0.038,0.075 -0.025,0.025 -0.037,0.062 -0.037,0.112 -0.025,0.024 -0.062,0.062 -0.112,0.11 -0.075,0.025 -0.15,0.05 -0.224,0.076 -0.074,0 -0.161,0 -0.261,0 -0.075,0 -0.137,0 -0.187,0 C 98.477,13.185 98.389,13.159 98.29,13.134 90.304,13.11 82.319,13.085 74.333,13.06 c 0,0.025 0,0.05 0,0.074 0,0.025 0,0.05 0,0.076 0,0.025 0,0.05 0,0.075 0,0.049 0,0.087 0,0.112 0,0.023 0,0.049 0,0.074 l 0.037,0.037 c 0,0.05 0,0.087 0,0.112 0,0.024 0,0.063 0,0.112 0,0.025 0,0.062 0,0.112 0,0.024 0,0.05 0,0.075 0,0.025 0,0.063 0,0.112 v 0.113 c 0,0.049 0,0.086 0,0.111 0,0.025 0,0.051 0,0.076 v 0.111 c 0,0.049 0,0.086 0,0.111 v 0.113 c 0,0.024 0,0.062 0,0.111 0,0.026 0,0.063 0,0.113 0,0.024 0,0.049 0,0.075 0,0.024 0,0.063 0,0.111 v 0.299 c 0,0.05 0,0.087 0,0.113 0,0.049 0,0.086 0,0.111 v 0.112 c 0,0.025 0,0.063 0,0.112 0,0.024 0,0.063 0,0.112 v 0.075 c 0,0.024 0,0.062 0,0.112 v 0.112 c 0,0.024 0,0.049 0,0.075 v 0.708 c -0.024,0 -0.049,0.012 -0.074,0.037 h -0.038 c 0,0.026 0,0.063 0,0.112 0,0.05 0,0.087 0,0.113 0,0.025 0,0.049 0,0.074 0,0.05 0,0.087 0,0.112 0,0.05 0,0.087 0,0.112 0,0.025 0,0.063 0,0.112 0,0.025 0,0.062 0,0.112 0,0.024 0,0.063 0,0.112 0,0.025 0,0.049 0,0.074 0,0.025 0,0.063 0,0.114 0,0.024 0,0.061 0,0.11 v 0.075 c 0,0.049 0,0.086 0,0.111 -0.026,0.049 -0.05,0.087 -0.076,0.112 0,0.051 -0.013,0.087 -0.037,0.113 -0.025,0 -0.049,0.024 -0.075,0.073 -0.024,0 -0.037,0.013 -0.037,0.038 0,0.026 0.013,0.051 0.037,0.075 0.026,0.025 0.039,0.062 0.039,0.112 0,0.025 -0.013,0.05 -0.039,0.075 0,0.025 -0.012,0.05 -0.037,0.075 0,0.1 0,0.186 0,0.261 0,0.1 0,0.187 0,0.261 0,0.074 0,0.161 0,0.261 0,0.075 0,0.15 0,0.225 0,0.1 0,0.187 0,0.262 0,0.099 0,0.186 0,0.26 0,0.074 0,0.163 0,0.262 0,0.1 0,0.174 0,0.223 0,0.101 0,0.187 0,0.262 0,0.099 0,0.186 0,0.262 0,0.075 0,0.162 0,0.261 0,0.1 0,0.174 0,0.224 v 0.037 c 0.05,0 0.087,0.013 0.112,0.037 0.024,0.05 0.05,0.087 0.074,0.112 l 0.039,0.074 c 0,0.025 0,0.05 0,0.074 h 0.038 c 0.024,0.05 0.049,0.088 0.074,0.113 0,0.05 0,0.086 0,0.11 0,0.026 0,0.063 0,0.114 -0.024,0.024 -0.049,0.061 -0.074,0.11 v 0.038 c 0,0.026 0,0.05 0,0.074 v 0.075 c 0,0.025 0,0.05 0,0.075 0,0.025 0,0.049 0,0.074 0,0.025 0,0.049 0,0.074 0,0.025 0,0.05 0,0.075 v 0.038 c 0,0.025 0,0.05 0,0.074 v 0.039 h -0.038 v 0.037 h 0.038 c 0,0.024 0.012,0.037 0.037,0.037 h 0.037 c 0.026,0.025 0.075,0.05 0.148,0.075 0.025,0.024 0.05,0.037 0.076,0.037 0,0.025 0.012,0.05 0.037,0.074 0.025,0.026 0.038,0.05 0.038,0.075 0,0.024 0,0.05 0,0.075 0,0.025 0.012,0.062 0.037,0.11 v 0.039 c 0,0.025 0.012,0.05 0.038,0.075 0,0.025 0,0.049 0,0.074 0,0.024 0.013,0.051 0.038,0.075 0.024,0.025 0.037,0.05 0.037,0.075 0.024,0 0.037,0.011 0.037,0.036 0.025,0.025 0.037,0.063 0.037,0.113 0.025,0.024 0.038,0.049 0.038,0.073 0.025,0.026 0.05,0.051 0.074,0.076 0,0.025 0.014,0.037 0.038,0.037 0,0.025 0,0.05 0,0.075 0,0.025 0.013,0.049 0.037,0.076 0,0.024 0,0.049 0,0.073 0.025,0.025 0.039,0.063 0.039,0.113 0.024,0 0.038,0.012 0.038,0.036 0,0.026 0.012,0.051 0.037,0.076 0,0.024 0,0.049 0,0.073 0.025,0.026 0.037,0.051 0.037,0.076 0,0.025 0.012,0.05 0.038,0.075 l 0.037,0.037 c 0.024,0.025 0.037,0.063 0.037,0.113 0,0.024 0.013,0.05 0.038,0.074 0,0.025 0,0.049 0,0.075 0,0.024 0.013,0.038 0.038,0.038 0,0.025 0,0.049 0,0.074 0.024,0.023 0.037,0.05 0.037,0.074 0.025,0.024 0.038,0.049 0.038,0.074 0,0.026 0.012,0.063 0.037,0.113 l 0.038,0.037 c 0,0.025 0.013,0.05 0.038,0.075 0,0.024 0.013,0.051 0.037,0.075 0.024,0.025 0.038,0.049 0.038,0.074 0.024,0.025 0.037,0.05 0.037,0.075 v 0.038 c 0,0.024 0,0.048 0,0.075 0.025,0.049 0.037,0.086 0.037,0.111 0.05,0.025 0.087,0.05 0.111,0.076 0.024,0.024 0.049,0.037 0.075,0.037 0,0.025 0,0.049 0,0.074 0.026,0.025 0.051,0.051 0.075,0.075 0,0.026 0,0.051 0,0.075 0.026,0.024 0.062,0.05 0.111,0.074 0.026,0.025 0.052,0.038 0.076,0.038 0.024,0.025 0.049,0.05 0.074,0.075 0,0.024 0.012,0.05 0.037,0.074 0.026,0.025 0.051,0.05 0.076,0.075 0,0.024 0,0.05 0,0.075 0,0.025 0,0.05 0,0.075 0,0.025 0,0.049 0,0.074 0,0.025 0,0.05 0,0.075 0,0.025 0,0.05 0,0.075 0,0.025 0,0.049 0,0.075 -0.025,0 -0.039,0.012 -0.039,0.038 -0.024,0.024 -0.037,0.049 -0.037,0.074 0.026,0 0.051,0 0.076,0 0,0.05 0.011,0.087 0.037,0.112 0,0.025 0.013,0.05 0.038,0.075 l 0.037,0.036 c 0,0.026 0,0.052 0,0.076 -0.024,0.025 -0.05,0.051 -0.074,0.075 0,0.025 0,0.05 0,0.075 -0.025,0.025 -0.037,0.049 -0.037,0.074 0,0.025 -0.013,0.049 -0.039,0.074 -0.024,0.025 -0.049,0.049 -0.074,0.074 0,0.026 0,0.05 0,0.075 -0.025,0.025 -0.049,0.051 -0.074,0.075 0,0.025 -0.012,0.049 -0.037,0.075 -0.025,0 -0.051,0.012 -0.076,0.038 0,0.024 0,0.05 0,0.073 0,0.05 0,0.088 0,0.113 -0.025,0.024 -0.038,0.049 -0.038,0.075 v 0.037 c 0,0.025 -0.011,0.05 -0.037,0.075 -0.024,0.025 -0.049,0.037 -0.075,0.037 -0.05,0.025 -0.099,0.037 -0.149,0.037 -0.024,0 -0.049,0 -0.074,0 -0.05,0 -0.088,0 -0.112,0 -0.598,0 -1.206,0 -1.829,0 -0.05,-0.024 -0.099,-0.037 -0.148,-0.037 -0.026,-0.024 -0.05,-0.049 -0.076,-0.075 -0.024,-0.025 -0.038,-0.05 -0.038,-0.074 0,-0.025 0,-0.051 0,-0.075 0,-0.025 0,-0.05 0,-0.076 0,-0.024 0,-0.049 0,-0.074 v -0.037 c 0,-0.026 0,-0.051 0,-0.076 0,-0.024 0,-0.049 0,-0.074 0,-0.024 0,-0.049 0,-0.074 0,-0.026 0,-0.051 0,-0.075 0,-0.025 0,-0.05 0,-0.075 v -0.037 c 0,-0.025 0,-0.049 0,-0.074 0,-0.025 0,-0.063 0,-0.112 0,-0.025 0,-0.051 0,-0.075 v -0.039 c 0,-0.024 0,-0.048 0,-0.073 0,-0.025 0,-0.049 0,-0.074 0,-0.025 0,-0.05 0,-0.075 0,-0.024 0,-0.05 0,-0.074 0,-0.025 0,-0.05 0,-0.076 0,-0.024 0,-0.049 0,-0.073 0,-0.026 0,-0.05 0,-0.076 0,-0.024 0,-0.051 0,-0.074 0,-0.025 0,-0.05 0,-0.075 v -0.037 c 0,-0.025 0.013,-0.051 0.038,-0.075 0.026,-0.025 0.05,-0.062 0.076,-0.112 0,-0.026 0,-0.05 0,-0.075 0,-0.025 0,-0.049 0,-0.075 0.023,-0.024 0.036,-0.05 0.036,-0.074 l 0.037,-0.037 c 0.025,0 0.05,-0.012 0.075,-0.038 0.025,0 0.063,-0.013 0.112,-0.038 0.049,0 0.087,-0.012 0.112,-0.037 h 0.037 L 74.002,26.76 v -0.037 c 0,-0.025 0,-0.051 0,-0.075 0,-0.024 0,-0.049 0,-0.075 -0.025,-0.024 -0.037,-0.049 -0.037,-0.073 -0.025,-0.027 -0.037,-0.051 -0.037,-0.075 0,-0.024 0,-0.051 0,-0.075 -0.025,-0.024 -0.038,-0.05 -0.038,-0.075 -0.025,-0.024 -0.049,-0.048 -0.075,-0.074 0,-0.025 -0.012,-0.05 -0.038,-0.074 0,-0.025 -0.012,-0.05 -0.038,-0.075 -0.024,0 -0.049,-0.012 -0.074,-0.038 0,-0.024 0,-0.049 0,-0.075 0,-0.025 0,-0.05 0,-0.074 0,-0.051 0,-0.086 0,-0.113 l -0.036,-0.036 c -0.026,-0.025 -0.039,-0.05 -0.039,-0.075 -0.024,-0.026 -0.049,-0.051 -0.075,-0.075 0,-0.024 0,-0.05 0,-0.075 0,-0.025 0,-0.049 0,-0.074 L 73.478,25.38 c -0.025,-0.05 -0.036,-0.087 -0.036,-0.113 -0.026,-0.024 -0.038,-0.049 -0.038,-0.074 -0.025,-0.025 -0.037,-0.049 -0.037,-0.074 0,-0.026 -0.014,-0.051 -0.039,-0.075 v -0.038 c 0,-0.025 -0.013,-0.05 -0.037,-0.075 0,-0.024 -0.012,-0.049 -0.037,-0.073 -0.025,-0.051 -0.038,-0.088 -0.038,-0.113 l -0.037,-0.037 c -0.025,-0.025 -0.037,-0.049 -0.037,-0.075 0,-0.025 0,-0.049 0,-0.075 0,-0.024 -0.013,-0.049 -0.038,-0.074 0,-0.024 -0.012,-0.05 -0.037,-0.076 -0.025,-0.024 -0.052,-0.036 -0.075,-0.036 0,-0.05 0,-0.087 0,-0.113 0,-0.025 0,-0.05 0,-0.075 0.023,-0.024 0.037,-0.049 0.037,-0.074 l 0.038,-0.038 c -0.598,0 -1.207,0.012 -1.83,0.038 -0.049,0.024 -0.112,0.05 -0.186,0.074 -0.075,0 -0.162,0 -0.262,0 C 70.74,24.16 70.702,24.147 70.677,24.147 H 70.64 c -0.026,0 -0.062,0.013 -0.112,0.037 -0.075,-0.024 -0.149,-0.049 -0.225,-0.074 0,-0.052 -0.025,-0.077 -0.075,-0.077 0,-0.048 0,-0.085 0,-0.11 0,-0.051 0,-0.087 0,-0.112 0,-0.05 0,-0.087 0,-0.112 0,-0.026 0,-0.063 0,-0.112 0,-0.024 0,-0.062 0,-0.112 0,-0.024 0,-0.062 0,-0.111 v -0.075 c 0,-0.025 0,-0.062 0,-0.112 0,-0.049 0,-0.087 0,-0.112 0,-0.025 0,-0.05 0,-0.075 0,-0.048 0,-0.086 0,-0.112 0,-0.05 0,-0.086 0,-0.11 0.024,-0.051 0.037,-0.088 0.037,-0.114 0,-0.024 -0.013,-0.061 -0.037,-0.11 0,-0.025 0,-0.063 0,-0.113 0.024,-0.024 0.05,-0.049 0.075,-0.074 0,-0.025 0.013,-0.049 0.039,-0.074 0.049,-0.025 0.098,-0.062 0.148,-0.112 0.05,-0.024 0.1,-0.049 0.149,-0.074 0.199,0 0.386,-0.013 0.56,-0.038 v -0.036 c 0,-0.027 0,-0.051 0,-0.076 0,-0.05 0,-0.087 0,-0.113 0,-0.049 0,-0.085 0,-0.111 0,-0.026 0,-0.062 0,-0.112 0,-0.024 0,-0.063 0,-0.113 0.024,-0.025 0.036,-0.062 0.036,-0.111 -0.175,0 -0.372,0 -0.596,0 -0.049,-0.025 -0.1,-0.038 -0.149,-0.038 -0.05,-0.024 -0.1,-0.063 -0.148,-0.111 0,-0.025 -0.014,-0.037 -0.039,-0.037 0,-0.05 -0.025,-0.089 -0.075,-0.114 v -0.074 c 0,-0.049 0,-0.087 0,-0.111 0,-0.05 0,-0.087 0,-0.113 0,-0.049 0,-0.1 0,-0.149 v -0.075 c 0,-0.024 0,-0.062 0,-0.111 0,-0.025 0,-0.062 0,-0.112 0.024,-0.025 0.05,-0.05 0.075,-0.075 v -0.039 c 0,-0.049 -0.025,-0.087 -0.075,-0.112 0,-0.05 0,-0.086 0,-0.111 0,-0.024 0,-0.05 0,-0.075 0,-0.049 0,-0.086 0,-0.112 0.024,-0.05 0.05,-0.086 0.075,-0.111 0,-0.051 0.013,-0.075 0.039,-0.075 0.073,0 0.135,0 0.186,0 v -0.038 c 0.074,0 0.161,0 0.26,0 0.1,0 0.187,0 0.262,0 l -0.037,-0.037 c 0,-0.025 0,-0.062 0,-0.112 0,-0.024 0,-0.062 0,-0.112 0,-0.024 0,-0.05 0,-0.075 0,-0.025 0,-0.063 0,-0.112 0,-0.05 0,-0.087 0,-0.112 v -0.075 c 0,-0.049 0,-0.087 0,-0.111 0,-0.051 0,-0.086 0,-0.112 0,-0.049 0,-0.086 0,-0.111 0,-0.026 0,-0.062 0,-0.113 0,-0.024 0,-0.063 0,-0.112 0,-0.025 0,-0.062 0,-0.111 V 18.21 c 0,-0.05 0,-0.086 0,-0.11 0,-0.051 0,-0.089 0,-0.114 0,-0.024 0,-0.049 0,-0.074 0,-0.049 0,-0.088 0,-0.112 0,-0.05 0,-0.087 0,-0.112 0,-0.049 0,-0.087 0,-0.112 0,-0.025 0,-0.062 0,-0.112 0,-0.024 0,-0.062 0,-0.112 0,-0.025 0,-0.049 0,-0.074 0,-0.025 0,-0.05 0,-0.075 -0.026,0.025 -0.051,0.037 -0.075,0.037 -0.1,-0.024 -0.187,-0.05 -0.262,-0.075 -0.025,-0.05 -0.05,-0.086 -0.074,-0.112 v -0.037 h -0.037 c -0.05,-0.05 -0.088,-0.074 -0.112,-0.074 -0.024,-0.05 -0.062,-0.088 -0.111,-0.113 0,-0.049 0,-0.086 0,-0.111 0,-0.024 0,-0.063 0,-0.112 h -0.039 v -0.074 c 0,-0.024 0,-0.05 0,-0.076 0,-0.024 0,-0.05 0,-0.074 0,-0.025 0,-0.049 0,-0.074 v -0.075 c 0,-0.024 0,-0.05 0,-0.074 0,-0.025 0,-0.05 0,-0.076 0,-0.024 0,-0.05 0,-0.074 v -0.187 c -0.025,-0.049 -0.05,-0.087 -0.075,-0.112 0,-0.024 0,-0.05 0,-0.075 v -0.037 c -7.787,0 -15.573,-0.012 -23.359,-0.038 -0.05,-0.024 -0.1,-0.036 -0.149,-0.036 l -0.037,0.036 c 0,0.026 -0.013,0.063 -0.039,0.112 -0.023,0.024 -0.048,0.062 -0.074,0.112 -0.049,0.025 -0.086,0.061 -0.111,0.111 -0.05,0.026 -0.088,0.052 -0.113,0.076 -0.024,0.024 -0.049,0.061 -0.074,0.11 -0.025,0.026 -0.05,0.063 -0.074,0.112 -0.025,0.05 -0.05,0.075 -0.076,0.075 -0.024,0.051 -0.05,0.087 -0.075,0.112 -0.025,0.05 -0.048,0.086 -0.074,0.112 -0.025,0.049 -0.062,0.087 -0.113,0.111 -0.023,0.024 -0.061,0.062 -0.111,0.112 0,0.025 -0.012,0.063 -0.038,0.111 -0.024,0.025 -0.038,0.063 -0.038,0.113 -0.024,0 -0.049,0.024 -0.074,0.074 -0.049,0.025 -0.087,0.063 -0.112,0.112 -0.05,0.049 -0.087,0.087 -0.112,0.111 -0.024,0.025 -0.05,0.05 -0.074,0.075 -0.024,0.05 -0.051,0.087 -0.075,0.112 -0.025,0.05 -0.049,0.087 -0.075,0.112 l -0.036,0.074 c -0.05,0.051 -0.087,0.101 -0.112,0.151 -0.025,0.024 -0.05,0.061 -0.074,0.111 -0.025,0.026 -0.05,0.051 -0.076,0.075 0,0.024 -0.012,0.062 -0.038,0.111 -0.024,0.026 -0.063,0.063 -0.111,0.112 -0.025,0.05 -0.038,0.087 -0.038,0.113 -0.024,0.025 -0.049,0.049 -0.075,0.075 -0.024,0.049 -0.037,0.086 -0.037,0.111 -0.049,0.051 -0.087,0.088 -0.111,0.112 -0.051,0.024 -0.087,0.063 -0.113,0.111 -0.024,0.025 -0.049,0.063 -0.075,0.112 -0.025,0.025 -0.038,0.062 -0.038,0.112 -0.025,0.025 -0.05,0.05 -0.074,0.075 -0.025,0.025 -0.037,0.062 -0.037,0.112 -0.05,0.024 -0.087,0.062 -0.113,0.111 v 0.075 c -0.024,0.05 -0.063,0.087 -0.111,0.113 -0.024,0.049 -0.051,0.087 -0.076,0.111 -0.024,0.05 -0.049,0.088 -0.075,0.112 0,0.024 -0.011,0.063 -0.036,0.112 -0.025,0.024 -0.05,0.062 -0.075,0.111 -0.025,0.025 -0.05,0.063 -0.075,0.113 -0.024,0 -0.049,0.026 -0.075,0.075 -0.025,0.024 -0.037,0.049 -0.037,0.074 -0.523,0 -1.056,0 -1.604,0 v 0.038 c -4.254,0 -8.495,0 -12.725,0 -0.101,-0.025 -0.199,-0.05 -0.298,-0.075 v 0.075 c -0.025,0 -0.037,0.012 -0.037,0.038 V 20.3 h -0.038 v 0.076 l -0.036,0.037 v 0.038 c -0.025,0.024 -0.063,0.036 -0.114,0.036 v 0.038 c 0,0.025 -0.012,0.037 -0.037,0.037 v 0.112 c -0.025,0 -0.037,0.013 -0.037,0.039 v 0.037 c -0.025,0 -0.039,0.013 -0.039,0.037 V 20.9 c 0,0.024 -0.011,0.037 -0.037,0.037 0,0.025 -0.013,0.038 -0.038,0.038 v 0.037 H 28.36 v 0.15 c -0.025,0 -0.037,0.013 -0.037,0.038 v 0.037 c -0.025,0 -0.038,0.012 -0.038,0.036 -0.025,0 -0.038,0.013 -0.038,0.039 v 0.037 H 28.21 v 0.038 l -0.038,0.037 v 0.037 c 0,0.024 -0.013,0.037 -0.038,0.037 v 0.075 c 0,0.025 -0.012,0.038 -0.037,0.038 l -0.038,0.037 v 0.075 l -0.036,0.038 h -0.039 c 0,0.048 -0.012,0.099 -0.036,0.148 l -0.485,1.046 0.261,2.388 c 0.024,0.074 0,0.161 -0.075,0.26 -0.075,0.075 -0.149,0.113 -0.225,0.113 -0.073,0 -0.149,-0.013 -0.224,-0.038 -0.024,0.024 -0.049,0.049 -0.075,0.073 -0.024,0.076 -0.087,0.125 -0.186,0.15 l -1.717,0.261 c -0.075,0.024 -0.138,0.024 -0.187,0 L 22.499,25.156 C 22.422,25.106 22.374,25.044 22.348,24.968 22.324,24.943 22.3,24.919 22.275,24.893 22.199,24.794 22.162,24.707 22.162,24.632 l 0.113,-0.672 c 0,-0.1 0.037,-0.173 0.11,-0.223 0.051,-0.025 0.101,-0.05 0.15,-0.075 v -0.785 c 0.025,0 0.037,-0.012 0.037,-0.037 v -0.521 c 0.025,0 0.037,-0.012 0.037,-0.038 v -0.038 l 0.039,-0.037 v -0.112 c 0.023,-0.025 0.049,-0.038 0.074,-0.038 V 22.02 h 0.037 v -0.076 l 0.112,-0.113 v -0.073 c 0.025,0 0.038,-0.012 0.038,-0.038 0.025,0 0.037,-0.013 0.037,-0.037 h 0.075 v -0.038 l 0.038,-0.037 v -0.076 l 0.037,-0.037 V 21.42 c 0.024,0 0.05,-0.013 0.075,-0.037 l 0.036,-0.038 v -0.037 c 0.025,0 0.039,-0.013 0.039,-0.039 l 0.037,-0.036 v -0.037 l 0.037,-0.038 h 0.038 c 0,-0.025 0.012,-0.038 0.036,-0.038 v -0.149 l 0.039,-0.038 V 20.896 L 23.47,20.858 V 20.82 c 0.025,0 0.038,-0.012 0.038,-0.038 l 0.037,-0.037 v -0.037 c 0.024,0 0.037,-0.012 0.037,-0.039 0.024,0 0.051,-0.012 0.075,-0.037 l 0.075,-0.075 V 20.52 l 0.037,-0.038 v -0.074 c 0.025,0 0.051,-0.012 0.077,-0.037 l 0.036,-0.038 V 20.3 c 0.025,0 0.038,-0.012 0.038,-0.037 l 0.037,-0.039 V 20.15 c 0,-0.025 0.013,-0.038 0.038,-0.038 l 0.074,-0.074 v -0.113 c 0.024,0 0.038,-0.011 0.038,-0.037 l 0.037,-0.038 v -0.037 c 0.024,0 0.037,-0.012 0.037,-0.037 l 0.037,-0.038 v -0.037 l 0.039,-0.038 v -0.037 h 0.037 v -0.075 c 0,-0.025 0.013,-0.038 0.037,-0.038 0,-0.024 0.013,-0.037 0.037,-0.037 v -0.038 l 0.038,-0.036 v -0.113 c 0.024,0 0.037,-0.013 0.037,-0.038 V 19.18 l 0.038,-0.037 v -0.037 c 0.024,-0.025 0.049,-0.038 0.075,-0.038 l 0.037,-0.038 v -0.037 l 0.038,-0.038 V 18.92 l 0.037,-0.038 v -0.074 c 0.026,0 0.038,-0.013 0.038,-0.037 l 0.038,-0.038 v -0.261 l -0.076,-0.075 v -0.149 c -0.024,0 -0.037,-0.013 -0.037,-0.038 V 18.1 L 24.593,18.061 V 18.023 L 24.556,17.986 V 17.874 L 24.479,17.8 v -0.41 l -0.038,-0.037 c -0.05,0 -0.099,0 -0.149,0 -0.472,0 -0.946,0 -1.418,0 0,-0.025 -0.012,-0.037 -0.038,-0.037 v -0.037 c -0.074,0 -0.162,0 -0.261,0 -0.073,-0.025 -0.137,-0.038 -0.188,-0.038 V 17.054 H 22.35 v -0.335 h -0.036 c 0,0.049 0,0.099 0,0.148 0,0.026 0,0.051 0,0.076 v 0.037 c 0,0.024 0,0.062 0,0.112 0,0.049 0,0.086 0,0.112 v 0.037 c -0.199,0 -0.398,0 -0.597,0 v 0.038 H 21.68 v 0.037 h -0.037 l -0.038,0.037 c -0.024,0 -0.038,0.013 -0.038,0.037 H 21.53 c -0.024,0.025 -0.05,0.038 -0.074,0.038 v 0.037 l -0.038,0.038 c 0,0.024 -0.013,0.037 -0.037,0.037 v 0.074 h -0.038 c 0,0.026 -0.013,0.039 -0.037,0.039 v 0.037 c -0.025,0.05 -0.05,0.099 -0.075,0.148 l -0.037,0.038 v 0.038 c -0.025,0 -0.05,0 -0.075,0 v 0.074 c 0,0.025 0,0.063 0,0.114 0,0.049 0,0.086 0,0.11 v 0.038 c -0.024,0 -0.05,0 -0.075,0 v 0.038 c 0.025,0.1 0.025,0.199 0,0.298 l -0.447,0.596 c -0.075,0.075 -0.149,0.113 -0.224,0.113 -0.101,0.025 -0.187,0.025 -0.262,0 C 20.037,19.22 20,19.146 20,19.071 l -1.231,0.074 c -0.075,0 -0.149,-0.024 -0.224,-0.074 -0.125,0.024 -0.236,0.062 -0.336,0.111 -0.05,0.026 -0.086,0.05 -0.111,0.075 -0.026,0 -0.05,0 -0.076,0 0,0.025 0,0.063 0,0.111 -0.025,0.1 -0.086,0.163 -0.185,0.188 l -9.329,3.917 c -0.101,0.051 -0.188,0.051 -0.263,0 -0.05,-0.024 -0.086,-0.049 -0.111,-0.074 -0.125,0 -0.237,0 -0.337,0 -0.1,0 -0.186,0 -0.262,0 0,0.05 0,0.1 0,0.149 0,0.024 0,0.062 0,0.112 0,0.024 0,0.062 0,0.111 0,0.05 0,0.099 0,0.15 0,0.05 0,0.086 0,0.11 0,0.025 0,0.063 0,0.113 0,0.049 0,0.098 0,0.149 0,0.05 0,0.086 0,0.111 0,0.051 0,0.101 0,0.15 0,0.025 0,0.063 0,0.112 0,0.025 0,0.062 0,0.112 0,0.049 0,0.1 0,0.149 0,0.05 0,0.087 0,0.113 v 0.036 c 0.052,0 0.113,0.039 0.188,0.112 0.074,0.074 0.112,0.15 0.112,0.224 v 0.374 c 0,0.099 -0.038,0.187 -0.112,0.261 C 7.65,26.097 7.576,26.122 7.5,26.122 L 7.461,26.159 C 7.388,26.234 7.3,26.271 7.201,26.271 H 5.448 c -0.074,0 -0.138,-0.024 -0.187,-0.074 -0.025,0.026 -0.05,0.038 -0.075,0.038 -0.024,0 -0.074,0.012 -0.148,0.037 -0.05,0 -0.1,0 -0.149,0 -0.074,-0.024 -0.15,-0.048 -0.225,-0.074 -0.049,-0.05 -0.1,-0.087 -0.149,-0.112 0,-0.023 -0.013,-0.048 -0.038,-0.075 0,-0.049 0,-0.087 0,-0.111 0,-0.05 0,-0.088 0,-0.112 0,-0.025 0,-0.049 0,-0.074 -1.121,0 -2.251,0.025 -3.395,0.074 -0.076,0.023 -0.15,0.05 -0.225,0.074 -0.075,0 -0.162,0 -0.261,0 C 0.521,25.838 0.434,25.811 0.334,25.788 0.309,25.739 0.271,25.701 0.222,25.676 0.198,25.65 0.173,25.613 0.147,25.564 c 0,-0.024 0,-0.05 0,-0.075 0,-0.025 -0.025,-0.063 -0.075,-0.111 -0.024,0 -0.049,-0.025 -0.074,-0.075 0,-0.05 0,-0.087 0,-0.112 0,-0.049 0,-0.086 0,-0.112 0,-0.024 0,-0.05 0,-0.074 0,-0.05 0,-0.086 0,-0.112 0,-0.049 0,-0.086 0,-0.111 0,-0.05 0,-0.087 0,-0.112 0,-0.025 0,-0.063 0,-0.112 0,-0.024 0,-0.062 0,-0.112 0,-0.025 0,-0.05 0,-0.074 0,-0.025 0,-0.063 0,-0.113 0,-0.05 0,-0.087 0,-0.112 0,-0.05 0,-0.088 0,-0.113 0,-0.024 0,-0.048 0,-0.074 0,-0.049 0,-0.088 0,-0.112 0,-0.049 0,-0.087 0,-0.111 0,-0.025 0,-0.063 0,-0.113 0,-0.024 0,-0.062 0,-0.111 0,-0.025 0,-0.063 0,-0.112 0,-0.025 0,-0.05 0,-0.075 0,-0.024 0,-0.063 0,-0.112 0,-0.049 0,-0.086 0,-0.111 v -0.075 c 0,-0.05 0,-0.086 0,-0.112 0,-0.05 0,-0.088 0,-0.112 0,-0.05 0,-0.088 0,-0.113 0,-0.024 0,-0.061 0,-0.11 0,-0.026 0,-0.063 0,-0.113 0,-0.025 0,-0.062 0,-0.112 v -0.074 c 0,-0.025 0,-0.062 0,-0.112 0,-0.049 0,-0.087 0,-0.112 0,-0.024 0,-0.05 0,-0.075 0,-0.049 0,-0.087 0,-0.111 0,-0.049 0,-0.087 0,-0.111 0,-0.051 0,-0.088 0,-0.113 0,-0.025 0,-0.061 0,-0.113 0,-0.024 0,-0.062 0,-0.111 0,-0.024 0,-0.05 0,-0.075 0,-0.024 0,-0.063 0,-0.111 0,-0.05 0,-0.087 0,-0.112 0,-0.05 0,-0.087 0,-0.113 0,-0.024 0,-0.049 0,-0.074 0,-0.049 0,-0.087 0,-0.112 0,-0.05 0,-0.087 0,-0.111 0,-0.05 0,-0.088 0,-0.113 0,-0.025 0,-0.062 0,-0.112 0,-0.024 0,-0.061 0,-0.11 0,-0.026 0,-0.051 0,-0.076 0,-0.025 0,-0.062 0,-0.111 0,-0.051 0,-0.088 0,-0.112 0,-0.049 0,-0.086 0,-0.112 0,-0.025 0,-0.049 0,-0.075 0,-0.049 0,-0.087 0,-0.112 0,-0.05 0,-0.099 0,-0.149 v -0.075 c 0,-0.025 0,-0.062 0,-0.112 0,-0.024 0,-0.062 0,-0.112 0,-0.024 0,-0.05 0,-0.075 0,-0.025 0,-0.063 0,-0.112 0,-0.05 0,-0.087 0,-0.112 v -0.075 c 0,-0.049 0,-0.087 0,-0.111 0,-0.051 0,-0.086 0,-0.112 0,-0.049 0,-0.086 0,-0.111 0,-0.026 0,-0.062 0,-0.113 0,-0.024 0,-0.063 0,-0.112 0,-0.025 0,-0.062 0,-0.111 V 18.21 c 0,-0.05 0,-0.086 0,-0.11 0,-0.051 0,-0.089 0,-0.114 0,-0.024 0,-0.049 0,-0.074 0,-0.049 0,-0.088 0,-0.112 0,-0.05 0,-0.087 0,-0.112 0,-0.049 0,-0.087 0,-0.112 0,-0.025 0,-0.062 0,-0.112 0,-0.024 0,-0.062 0,-0.112 0,-0.025 0,-0.049 0,-0.074 0,-0.025 0,-0.063 0,-0.113 0,-0.05 0,-0.086 0,-0.112 0,-0.049 0,-0.086 0,-0.11 0,-0.025 0,-0.05 0,-0.076 0,-0.05 0,-0.086 0,-0.111 0,-0.049 0,-0.1 0,-0.149 v -0.074 c 0,-0.024 0,-0.064 0,-0.113 0,-0.025 0,-0.062 0,-0.111 0,-0.026 0,-0.051 0,-0.075 0,-0.024 0,-0.062 0,-0.112 0,-0.05 0,-0.088 0,-0.112 v -0.075 c 0,-0.049 0,-0.087 0,-0.112 0,-0.049 0,-0.087 0,-0.112 0,-0.05 0,-0.087 0,-0.112 0,-0.025 0,-0.062 0,-0.111 0,-0.026 0,-0.063 0,-0.113 0,-0.024 0,-0.062 0,-0.112 v -0.074 c 0,-0.024 0,-0.062 0,-0.113 0,-0.048 0,-0.087 0,-0.111 0,-0.026 0,-0.051 0,-0.075 0,-0.05 0,-0.087 0,-0.113 0,-0.049 0,-0.087 0,-0.111 0,-0.05 0,-0.087 0,-0.113 0,-0.025 0,-0.062 0,-0.111 0,-0.025 0,-0.062 0,-0.111 0,-0.024 0,-0.05 0,-0.076 0,-0.024 0,-0.062 0,-0.111 0,-0.05 0,-0.089 0,-0.113 0.025,-0.049 0.049,-0.086 0.074,-0.112 0.05,-0.024 0.075,-0.05 0.075,-0.075 0.1,-0.025 0.187,-0.037 0.261,-0.037 V 13.77 c 0.05,0.024 0.125,0.049 0.225,0.074 0.025,-0.025 0.05,-0.037 0.074,-0.037 0.049,0 0.099,0 0.149,0 V 13.77 c 1.168,0 2.324,0 3.47,0 0.025,0 0.062,0.012 0.112,0.037 0.024,-0.049 0.049,-0.087 0.075,-0.112 0.075,-0.026 0.162,-0.038 0.261,-0.038 V 13.62 c 0.05,0.024 0.113,0.048 0.187,0.075 0.598,0.025 1.181,0.05 1.754,0.075 0,-0.024 0,-0.05 0,-0.075 V 13.657 C 6.69,13.632 6.652,13.608 6.603,13.583 6.578,13.558 6.553,13.52 6.529,13.471 6.504,13.447 6.466,13.409 6.417,13.359 6.392,13.335 6.354,13.297 6.305,13.248 L 6.268,13.173 c 0,-0.025 0,-0.062 0,-0.112 0,-0.05 0,-0.087 0,-0.112 0,-0.025 0,-0.05 0,-0.074 0,-0.05 0,-0.087 0,-0.112 0,-0.05 0,-0.087 0,-0.113 0.024,-0.049 0.049,-0.086 0.074,-0.111 0.025,-0.025 0.05,-0.062 0.075,-0.112 0,-0.024 0,-0.063 0,-0.112 0,-0.025 0,-0.062 0,-0.112 v -0.074 c 0,-0.05 0,-0.087 0,-0.113 0,-0.049 0,-0.087 0,-0.111 0,-0.025 0,-0.05 0,-0.076 0.025,-0.05 0.05,-0.087 0.074,-0.111 0.025,-0.05 0.05,-0.087 0.075,-0.112 h 0.038 c 0.024,-0.05 0.049,-0.074 0.074,-0.074 0.025,-0.025 0.05,-0.051 0.075,-0.076 0.024,0 0.05,-0.012 0.074,-0.038 0.025,0 0.075,0 0.148,0 v -0.037 c 3.782,0 7.576,0 11.382,0 0.074,0.025 0.149,0.05 0.224,0.074 0.049,0.051 0.086,0.076 0.111,0.076 0,0.048 0.013,0.099 0.037,0.149 0.025,0.025 0.05,0.061 0.075,0.11 l 0.038,0.038 c 0,0.026 0.012,0.05 0.037,0.076 0.025,0.024 0.049,0.062 0.075,0.111 0,0.025 0,0.063 0,0.113 l -0.038,0.074 c -0.025,0.051 -0.049,0.087 -0.074,0.112 0,0.025 0,0.049 0,0.075 0,0.026 0,0.063 0,0.112 v 0.037 c 0,0.05 0,0.086 0,0.111 0,0.05 0,0.088 0,0.113 0,0.025 0,0.063 0,0.112 0,0.024 0,0.049 0,0.074 0,0.025 0,0.049 0,0.075 0,0.049 0,0.086 0,0.11 0,0.05 0,0.088 0,0.113 0,0.025 0,0.049 0,0.075 0,0.024 0,0.062 0,0.112 0,0.025 0,0.062 0,0.112 v 0.038 c 0,0.049 0,0.085 0,0.112 0,0.05 0,0.087 0,0.112 0,0.024 0,0.062 0,0.112 h -0.038 v 0.038 c -0.05,0.025 -0.087,0.062 -0.112,0.111 0,0.052 0,0.088 0,0.113 -0.025,0.049 -0.062,0.074 -0.111,0.074 -0.025,0.025 -0.051,0.051 -0.075,0.076 v 0.037 c 0,0.049 0,0.086 0,0.111 l 0.038,0.037 v 0.038 c 0.622,0 1.23,0.014 1.829,0.038 v -0.038 c 0.024,0 0.049,0 0.075,0 v -0.038 c 0.099,-0.024 0.187,-0.048 0.261,-0.074 0.075,0.025 0.15,0.049 0.225,0.074 0.098,0 0.21,0 0.334,0 0.175,-0.024 0.35,-0.037 0.523,-0.037 0.125,0 0.236,-0.012 0.336,-0.037 0.024,0 0.049,0 0.074,0 0.05,0 0.087,-0.013 0.113,-0.037 0.024,0 0.036,-0.012 0.036,-0.037 0.05,0 0.113,0 0.188,0 0,-0.026 0.012,-0.037 0.037,-0.037 0.025,-0.024 0.063,-0.038 0.112,-0.038 0.025,0 0.037,-0.012 0.037,-0.038 0.024,0 0.062,0 0.111,0 0.026,0 0.038,-0.012 0.038,-0.037 0.05,0 0.087,0 0.113,0 0,-0.024 0.013,-0.037 0.037,-0.037 0.024,0 0.05,-0.012 0.075,-0.037 0.024,0 0.05,0 0.075,0 h 0.036 c 0.025,0 0.039,-0.013 0.039,-0.038 0.025,0 0.049,0 0.074,0 0.025,0 0.038,-0.012 0.038,-0.038 h 0.036 v -0.037 c 0.026,0 0.051,0 0.076,0 0,-0.025 0.013,-0.038 0.038,-0.038 0.025,-0.024 0.062,-0.037 0.112,-0.037 0.05,0 0.087,-0.012 0.112,-0.038 h 0.037 l 0.038,-0.037 c 0.025,0 0.039,-0.014 0.039,-0.038 h 0.036 c 0.049,-0.025 0.087,-0.037 0.112,-0.037 0.024,0 0.05,-0.013 0.074,-0.037 h 0.038 l 0.037,-0.038 h 0.037 c 0.025,0 0.037,-0.012 0.037,-0.037 0.026,0 0.051,0 0.076,0 v -0.038 c 0.025,-0.025 0.05,-0.037 0.074,-0.037 0.025,0 0.038,-0.013 0.038,-0.037 h 0.037 c 0.025,0 0.05,-0.013 0.075,-0.038 h 0.038 c 0,-0.025 0.012,-0.038 0.037,-0.038 0.051,-0.024 0.101,-0.037 0.15,-0.037 l 0.037,-0.037 h 0.075 c 0.025,-0.024 0.062,-0.037 0.111,-0.037 L 25,13.359 h 0.039 l 0.038,-0.037 c 0.024,-0.025 0.049,-0.037 0.074,-0.037 0.05,0 0.088,-0.013 0.113,-0.038 0.023,0 0.062,0 0.112,0 0.025,0 0.038,-0.013 0.038,-0.038 l 0.036,-0.038 c 0,-0.025 0.013,-0.038 0.038,-0.038 0.05,0 0.088,-0.011 0.113,-0.036 0.024,0 0.048,-0.013 0.074,-0.038 0.025,0 0.037,-0.012 0.037,-0.037 0.025,0 0.051,0 0.075,0 v -0.037 c 0.025,-0.025 0.05,-0.038 0.075,-0.038 0.025,0 0.038,-0.012 0.038,-0.037 0.05,0 0.087,0 0.111,0 0.026,0 0.038,-0.013 0.038,-0.038 l 0.075,-0.075 c 0.049,0 0.099,-0.012 0.149,-0.037 0.024,0 0.049,-0.013 0.073,-0.037 0.025,0 0.039,-0.013 0.039,-0.037 h 0.038 c 0,-0.026 0.012,-0.039 0.038,-0.039 0,-0.024 0.012,-0.036 0.036,-0.036 0.025,0 0.05,-0.013 0.075,-0.038 0.05,0 0.1,-0.012 0.149,-0.037 h 0.075 v -0.037 l 0.037,-0.039 c 0.051,0 0.088,-0.011 0.113,-0.036 0.024,0 0.049,-0.012 0.074,-0.038 0.025,0 0.037,-0.013 0.037,-0.037 h 0.039 c 0,-0.025 0.012,-0.038 0.036,-0.038 v -0.038 c 0.025,0 0.038,-0.012 0.038,-0.036 0.025,0 0.049,-0.013 0.075,-0.038 h 0.037 c 0.026,0 0.037,-0.012 0.037,-0.038 0.025,0 0.039,-0.012 0.039,-0.036 0.024,0 0.049,-0.013 0.073,-0.038 h 0.039 c 0,-0.024 0.012,-0.037 0.037,-0.037 0.025,0 0.038,-0.013 0.038,-0.039 l 0.037,-0.038 v -0.037 h 0.037 l 0.038,-0.037 c 0.025,0 0.049,0 0.075,0 0,-0.025 0.012,-0.037 0.037,-0.037 0,-0.025 0.012,-0.039 0.037,-0.039 0,-0.024 0.014,-0.038 0.038,-0.038 0.025,0 0.049,-0.012 0.075,-0.037 0.024,0 0.049,-0.013 0.073,-0.037 l 0.039,-0.037 c 0.024,0 0.049,0 0.074,0 l 0.037,-0.038 c 0,-0.025 0.025,-0.063 0.075,-0.111 0.024,0 0.049,0 0.074,0 0.026,0 0.063,-0.013 0.111,-0.038 0.024,-0.026 0.05,-0.063 0.075,-0.113 0,-0.024 0.013,-0.049 0.039,-0.075 0.024,0 0.049,-0.012 0.073,-0.037 0.025,0 0.05,0 0.076,0 v -0.038 h 0.038 c 0.023,0 0.048,0 0.074,0 v -0.037 h 0.037 v -0.038 h 0.037 c 0.026,-0.024 0.05,-0.037 0.074,-0.037 0.026,0 0.051,-0.012 0.076,-0.037 h 0.037 c 0.05,0 0.101,0 0.149,0 0.025,0 0.051,-0.013 0.075,-0.037 0.124,-0.051 0.224,-0.089 0.299,-0.113 0.049,-0.024 0.1,-0.049 0.149,-0.074 0.074,0 0.123,0 0.149,0 0.597,-0.026 1.169,-0.05 1.717,-0.075 0.075,-0.025 0.148,-0.038 0.224,-0.038 0,-0.024 0.012,-0.049 0.038,-0.074 0,-0.051 0,-0.101 0,-0.149 -1.568,0 -3.148,0 -4.739,0 v -0.037 c -0.026,0 -0.051,-0.012 -0.076,-0.038 -0.024,0 -0.049,0 -0.074,0 -0.225,0 -0.437,0 -0.635,0 -0.373,0 -0.771,0 -1.193,0 v -0.037 c -0.026,0 -0.05,-0.013 -0.075,-0.037 v -0.038 c -0.05,0 -0.113,-0.012 -0.186,-0.037 -0.025,-0.024 -0.05,-0.051 -0.075,-0.075 v -0.038 c 0,-0.025 0,-0.062 0,-0.112 0,-0.026 0,-0.05 0,-0.075 0,-0.025 0,-0.05 0,-0.074 0,-0.026 0,-0.05 0,-0.076 V 9.814 c 0,-0.024 0,-0.049 0,-0.074 0,-0.025 0,-0.051 0,-0.075 0,-0.025 0,-0.063 0,-0.112 V 9.517 c 0,-0.025 0,-0.051 0,-0.075 0,-0.025 0,-0.05 0,-0.074 0,-0.025 0,-0.049 0,-0.074 0,-0.026 0,-0.052 0,-0.076 V 9.18 c 0,-0.024 0,-0.061 0,-0.111 0,-0.025 0,-0.05 0,-0.075 0,-0.024 0,-0.049 0,-0.074 0,-0.025 0,-0.05 0,-0.076 V 8.808 c 0,-0.025 0,-0.051 0,-0.075 0,-0.025 0,-0.05 0,-0.076 0,-0.024 0,-0.061 0,-0.112 V 8.51 c 0,-0.025 0,-0.051 0,-0.075 0,-0.026 0,-0.051 0,-0.076 0,-0.024 0,-0.049 0,-0.075 0,-0.025 -0.014,-0.049 -0.037,-0.074 V 7.799 c 0.023,0 0.037,-0.012 0.037,-0.037 0,-0.05 0,-0.087 0,-0.112 0,-0.049 0,-0.1 0,-0.15 V 7.427 c 0,-0.025 0.012,-0.063 0.036,-0.113 0.051,-0.025 0.087,-0.05 0.112,-0.075 0.05,0 0.101,0 0.151,0 V 7.202 c 0.024,0 0.049,0 0.074,0 V 7.166 h 0.036 c 0,-0.025 0.014,-0.05 0.039,-0.075 0.025,-0.025 0.05,-0.05 0.074,-0.075 0,-0.024 0.013,-0.037 0.038,-0.037 0.049,0 0.086,0 0.111,0 V 6.941 c 0.92,0 1.842,0 2.763,0 V 6.905 c 0,-0.026 0,-0.051 0,-0.075 V 6.792 c 0,-0.024 0,-0.05 0,-0.075 0,-0.024 0,-0.049 0,-0.076 0,-0.024 0,-0.062 0,-0.111 V 6.494 c 0,-0.024 0,-0.049 0,-0.076 0,-0.023 0,-0.049 0,-0.074 0,-0.025 0,-0.05 0,-0.073 0,-0.026 0,-0.051 0,-0.076 V 6.157 c 0,-0.025 0,-0.062 0,-0.111 0,-0.024 0,-0.05 0,-0.074 0,-0.026 0,-0.05 0,-0.075 -0.026,-0.024 -0.038,-0.05 -0.038,-0.074 -0.025,0 -0.038,-0.013 -0.038,-0.038 0,-0.026 0,-0.05 0,-0.075 0,-0.024 0,-0.049 0,-0.074 0,-0.025 0,-0.063 0,-0.112 V 5.487 c 0,-0.025 0,-0.05 0,-0.075 0,-0.025 0,-0.05 0,-0.074 0,-0.025 0.012,-0.05 0.038,-0.075 0.024,-0.025 0.038,-0.05 0.038,-0.075 V 5.15 C 28.243,5.125 28.268,5.101 28.293,5.076 L 28.331,5.038 C 28.348,5.014 28.373,5 28.396,5 c 0.024,0 0.05,0 0.075,0 V 4.964 c 0.721,0 1.431,0 2.127,0 C 30.624,4.989 30.648,5 30.673,5 h 0.038 V 4.964 c 0.049,0.025 0.086,0.05 0.112,0.074 0.025,0.026 0.049,0.05 0.074,0.075 0.025,0.025 0.049,0.038 0.074,0.038 0,0.025 0.012,0.049 0.037,0.074 0,0.025 0,0.05 0,0.076 0,0.024 0,0.05 0,0.074 0,0.05 0,0.087 0,0.113 v 0.037 c 0,0.025 0,0.049 0,0.075 0,0.025 0,0.049 0,0.074 0,0.025 0,0.05 0,0.075 0,0.024 0,0.05 0,0.075 v 0.037 c 0,0.05 0,0.086 0,0.112 0,0.024 0,0.05 0,0.074 0,0.025 0,0.05 0,0.075 v 0.037 c 0,0.025 0,0.051 0,0.076 0,0.025 0,0.05 0,0.075 0,0.024 0,0.049 0,0.074 0,0.049 0,0.087 0,0.112 v 0.038 c 0,0.025 0,0.049 0,0.074 0,0.025 0,0.05 0,0.075 0,0.025 0,0.05 0,0.074 0,0.024 0,0.05 0,0.075 V 6.87 c 0,0.025 0,0.048 0,0.074 2.141,0 4.255,0 6.345,0 V 6.905 c 0,-0.026 0,-0.051 0,-0.075 V 6.792 c 0,-0.024 0,-0.05 0,-0.075 0,-0.024 0,-0.049 0,-0.076 0,-0.024 0,-0.062 0,-0.111 V 6.494 c 0,-0.024 0,-0.049 0,-0.076 0,-0.023 0,-0.049 0,-0.074 0,-0.025 0,-0.05 0,-0.073 0,-0.026 0,-0.051 0,-0.076 V 6.157 c 0,-0.025 0,-0.062 0,-0.111 0,-0.024 0,-0.05 0,-0.074 0,-0.026 0,-0.05 0,-0.075 0,-0.024 0,-0.05 0,-0.074 V 5.785 c 0,-0.026 0,-0.05 0,-0.075 0,-0.024 0,-0.049 0,-0.074 0,-0.025 0,-0.063 0,-0.112 V 5.487 c 0,-0.025 0,-0.05 0,-0.075 0,-0.025 0,-0.05 0,-0.074 0,-0.025 0,-0.05 0,-0.075 0,-0.025 0,-0.05 0,-0.075 V 5.15 c 0,-0.025 0,-0.049 0,-0.074 0,-0.051 0,-0.087 0,-0.112 0,-0.024 0,-0.049 0,-0.075 0,-0.025 0,-0.05 0,-0.075 V 4.777 c 0,-0.024 0,-0.05 0,-0.074 0,-0.024 0,-0.049 0,-0.075 0,-0.026 0,-0.049 0,-0.075 V 4.479 c 0,-0.025 0,-0.05 0,-0.076 0,-0.024 0.012,-0.05 0.037,-0.075 0.024,-0.025 0.049,-0.049 0.075,-0.074 0,-0.025 0.013,-0.049 0.037,-0.074 z M 71.646,18.1 c 0,-0.027 0,-0.051 0,-0.077 0,-0.024 -0.012,-0.05 -0.038,-0.074 0,0.024 0,0.05 0,0.074 0,0.025 0,0.063 0,0.113 z m -40.6,-0.524 c 0,0.025 0,0.063 0,0.112 0,0.025 0,0.062 0,0.112 0,0.024 0,0.063 0,0.112 0,0.025 0,0.049 0,0.074 0,0.025 0,0.063 0,0.114 0,0.024 0,0.049 0,0.073 v 0.038 c 0.05,0.024 0.1,0.05 0.149,0.075 0.025,0.025 0.05,0.049 0.076,0.075 0,0.049 0.012,0.086 0.037,0.111 0,0.024 0,0.063 0,0.112 0.123,-0.024 0.236,-0.037 0.335,-0.037 0.073,0 0.136,-0.013 0.187,-0.038 v -0.037 c 0.049,0 0.111,0 0.186,0 0.074,-0.025 0.149,-0.05 0.224,-0.075 0.075,-0.025 0.149,-0.062 0.225,-0.111 0.025,0 0.05,-0.025 0.074,-0.075 0.025,-0.024 0.051,-0.05 0.076,-0.074 l 0.037,-0.036 c 0.05,-0.027 0.1,-0.051 0.149,-0.077 0.025,-0.05 0.05,-0.074 0.074,-0.074 0.025,-0.049 0.062,-0.086 0.113,-0.113 0.024,-0.049 0.063,-0.086 0.111,-0.111 0,-0.05 0.012,-0.087 0.038,-0.113 0,-0.025 0.013,-0.062 0.038,-0.11 0.024,-0.025 0.037,-0.063 0.037,-0.113 0,-0.024 0.012,-0.062 0.037,-0.111 v -0.075 c 0,-0.05 0.012,-0.088 0.037,-0.112 -0.747,0.024 -1.48,0.037 -2.201,0.037 l -0.038,0.037 c 0,0.05 0,0.087 0,0.113 0,0.025 0,0.049 0,0.074 0,0.05 0,0.087 0,0.112 -0.001,0.05 -0.001,0.086 -0.001,0.111 z m -1.119,1.008 c -0.075,-0.024 -0.125,-0.062 -0.15,-0.112 -0.024,-0.025 -0.061,-0.063 -0.111,-0.111 -0.026,-0.025 -0.05,-0.05 -0.075,-0.075 0,-0.025 0,-0.063 0,-0.113 0,-0.049 0,-0.086 0,-0.112 0,-0.05 0,-0.087 0,-0.111 0,-0.024 0,-0.049 0,-0.075 0,-0.05 0,-0.087 0,-0.111 0,-0.05 0,-0.1 0,-0.151 v -0.074 c 0,-0.024 0,-0.062 0,-0.112 0,-0.025 0,-0.062 0,-0.112 0,-0.025 0,-0.05 0,-0.075 -0.025,0 -0.062,0.013 -0.111,0.038 0,0.025 -0.014,0.049 -0.039,0.074 0,0.025 -0.012,0.05 -0.037,0.075 l -0.037,0.037 c -0.025,0.025 -0.062,0.038 -0.112,0.038 l -0.037,0.037 c -0.05,0.049 -0.075,0.087 -0.075,0.112 -0.049,0.024 -0.087,0.062 -0.112,0.112 0,0.048 0,0.1 0,0.149 0,0.025 0,0.061 0,0.111 0,0.05 0,0.101 0,0.149 0,0.026 0,0.05 0,0.075 0.05,0 0.087,0.012 0.112,0.038 0.025,0.025 0.062,0.049 0.112,0.075 0.025,0.049 0.05,0.086 0.075,0.111 0,0.051 0.012,0.088 0.037,0.112 v 0.038 c 0.199,0 0.386,0 0.56,0 z m -6.008,-1.679 c 0.099,0 0.211,0 0.336,0 0.024,0 0.062,0 0.111,0 v -0.039 c -0.074,0 -0.137,0 -0.187,0 -0.074,0 -0.161,0 -0.26,0 z M 25,17.353 v -0.037 c -0.049,0 -0.085,0 -0.11,0 v 0.037 c 0.049,0 0.086,0 0.11,0 z M 9.142,19.33 c 0,0.024 -0.012,0.037 -0.037,0.037 0,0.025 -0.012,0.039 -0.037,0.039 v 0.074 c 0,0.025 0,0.049 0,0.074 v 0.075 c 0,0.024 0,0.05 0,0.075 v 0.075 c 0,0.024 0,0.05 0,0.074 0,0.025 0,0.05 0,0.075 v 0.075 c 0,0.025 0,0.05 0,0.075 0,0.024 0,0.05 0,0.075 v 0.038 c 0,0.024 0,0.049 0,0.075 V 20.3 c 0,0.025 0,0.05 0,0.076 v 0.037 c 0.049,0 0.099,0 0.149,0 0.05,0.025 0.099,0.049 0.15,0.074 0.174,0.025 0.36,0.051 0.559,0.075 0.024,0.025 0.075,0.051 0.148,0.075 l 0.037,-0.075 h 0.038 c 0.024,0 0.05,-0.012 0.076,-0.037 h 0.037 c 0,-0.025 0.013,-0.038 0.037,-0.038 0.025,-0.024 0.05,-0.036 0.074,-0.036 0,-0.025 0.013,-0.038 0.038,-0.038 v -0.037 c 0.024,0 0.037,-0.013 0.037,-0.038 0.049,0 0.099,-0.013 0.148,-0.038 h 0.039 c 0,-0.025 0.012,-0.037 0.037,-0.037 h 0.038 c 0.024,0 0.049,0 0.074,0 l 0.039,-0.039 h 0.036 c 0.026,0 0.038,-0.012 0.038,-0.036 0.025,0 0.037,-0.013 0.037,-0.038 v -0.038 h 0.037 c 0,-0.025 0.013,-0.037 0.038,-0.037 h 0.038 c 0.025,0 0.05,0 0.075,0 0.025,-0.025 0.062,-0.037 0.112,-0.037 0.026,0 0.049,-0.012 0.075,-0.038 0.048,0 0.1,-0.011 0.148,-0.037 h 0.037 c 0.024,-0.025 0.05,-0.038 0.075,-0.038 0.026,0 0.039,-0.011 0.039,-0.037 0.048,0 0.086,0 0.109,0 0,-0.025 0,-0.049 0,-0.075 0.026,-0.05 0.052,-0.086 0.077,-0.111 0.024,-0.051 0.049,-0.087 0.074,-0.112 0,-0.024 0,-0.062 0,-0.111 0,-0.025 0,-0.063 0,-0.113 0,-0.024 0,-0.049 0,-0.074 v -0.038 c -0.896,0 -1.792,0 -2.688,0 v 0.038 C 9.179,19.318 9.167,19.33 9.142,19.33 Z m -3.694,6.269 c -0.049,0 -0.088,0 -0.112,0 l 0.038,0.038 C 5.398,25.611 5.422,25.6 5.448,25.599 Z m 17.426,-1.045 h 0.038 l -0.038,-0.037 z"
   id="path2" />
		</g>
	</g>
</g>
<g
   id="guides">
</g>
</svg>
